# Blender v2.80 (sub 75) OBJ File: 'road.blend'
# www.blender.org
v -79.117424 -34.494892 4.508707
v 0.856842 -34.563988 0.922902
v -79.168701 -4.572820 -1.780461
v -38.943611 -34.350899 4.880193
v 0.838463 -4.572816 -0.294031
v -39.118015 -4.572818 -0.456068
v -79.148956 -19.542404 1.178581
v -19.031553 -34.509445 3.184717
v -58.975586 -34.297344 8.399576
v 0.884914 -19.554005 3.475159
v -19.131899 -4.572817 -0.303224
v -59.161236 -4.572819 -1.567925
v -38.863548 -19.306843 6.580115
v -58.963940 -19.299419 5.558598
v -18.949913 -19.465536 6.848907
v -79.116501 -26.993916 4.124744
v -9.093027 -34.543552 2.477526
v -48.927330 -34.262058 7.287560
v 0.857796 -12.063933 1.753698
v -9.149675 -4.572816 -0.056404
v -49.139503 -4.572818 -0.983522
v -38.997066 -11.928478 2.809154
v -79.167686 -12.071125 -1.471159
v -28.983448 -34.453911 3.541354
v -69.038864 -34.381214 7.790342
v 0.885868 -27.053558 3.398103
v -29.116060 -4.572817 -0.345393
v -69.168427 -4.572819 -1.772828
v -38.833691 -26.765789 7.692988
v -48.892590 -19.262562 6.166300
v -69.066322 -19.424698 3.860204
v -59.103748 -11.988150 0.093952
v -58.931328 -26.746922 9.346202
v -9.042454 -19.522457 5.679147
v -28.879601 -19.386147 6.888288
v -19.037045 -12.010780 3.404203
v -18.950024 -26.965736 6.635635
v -28.873554 -26.877651 7.029782
v -28.992653 -11.962822 3.268860
v -9.099045 -12.046207 3.105094
v -69.017723 -26.852154 8.021407
v -69.150543 -12.046844 -1.020505
v -49.039703 -11.932069 1.740546
v -48.849289 -26.696293 8.867962
v -9.039644 -27.021343 5.595240
v -79.111359 -30.736168 4.645647
v -4.121418 -34.555576 1.789772
v -43.926418 -34.291355 6.188999
v 0.843925 -8.319034 0.399492
v -4.156376 -4.572816 -0.069214
v -44.127216 -4.572818 -0.675827
v -39.082897 -8.257920 0.486167
v -79.161667 -15.811845 -0.546425
v -24.005398 -34.485645 3.337785
v -64.006500 -34.336380 8.411887
v 0.889416 -23.302273 3.661970
v -24.122707 -4.572817 -0.356879
v -64.166580 -4.572819 -1.720030
v -38.835415 -23.025154 7.485770
v -43.871502 -19.275726 6.412929
v -64.013023 -19.354012 4.914268
v -59.147427 -8.295662 -1.185819
v -58.932793 -23.004032 8.172964
v -4.082512 -19.540745 4.622952
v -23.909000 -19.427391 6.940847
v -19.105253 -8.295060 0.734974
v -18.941071 -23.210323 7.121696
v -79.131668 -23.266460 2.905371
v -14.061850 -34.528275 2.931211
v -53.947727 -34.269562 7.992333
v 0.873421 -15.808290 2.860614
v -14.141365 -4.572817 -0.172511
v -54.151718 -4.572818 -1.305657
v -38.917156 -15.607993 5.029156
v -79.168701 -8.322797 -1.750898
v -33.963200 -34.408672 4.001506
v -74.076630 -34.435509 6.430752
v 0.874180 -30.807823 2.521109
v -34.114151 -4.572818 -0.355478
v -74.168701 -4.572819 -1.780461
v -38.865921 -30.536652 6.946980
v -53.923199 -19.268646 5.916219
v -74.116577 -19.495583 2.467729
v -59.031189 -15.641061 2.565089
v -58.947166 -30.512688 9.321421
v -13.996895 -19.497860 6.484747
v -33.865292 -19.344740 6.757240
v -18.980209 -15.732179 5.666718
v -18.979050 -30.732246 5.339389
v -23.908489 -26.926083 6.835720
v -33.848694 -26.822559 7.293728
v -28.865421 -23.123501 7.351167
v -28.910341 -30.653324 5.795803
v -24.009365 -11.986877 3.366836
v -33.988991 -11.942567 3.094664
v -29.080854 -8.272563 0.676319
v -28.919573 -15.665162 5.559111
v -4.123520 -12.056759 2.536013
v -14.069221 -12.031108 3.358203
v -9.134781 -8.311123 0.926318
v -9.064638 -15.782009 4.789554
v -63.974297 -26.794510 9.070308
v -74.065254 -26.919655 6.262242
v -69.029350 -23.120098 6.658184
v -69.022141 -30.607628 8.276183
v -64.131012 -12.020938 -0.571866
v -74.162384 -12.063493 -1.301414
v -69.165222 -8.317850 -1.667642
v -69.117638 -15.749426 0.723073
v -44.014301 -11.923672 2.375281
v -54.071083 -11.955004 0.933522
v -49.113785 -8.267511 -0.281511
v -48.954697 -15.585390 4.135203
v -43.832451 -26.719196 8.266535
v -53.886971 -26.710655 9.227530
v -48.855652 -22.963802 7.888123
v -48.873878 -30.461742 8.671868
v -4.079838 -27.039642 4.585838
v -13.995077 -26.997326 6.291392
v -9.034260 -23.268864 5.923595
v -9.058987 -30.779686 4.504835
v -14.018782 -30.758881 5.037663
v -13.988218 -23.243637 6.736070
v -4.075588 -23.287926 4.855199
v -53.908112 -30.477695 9.118360
v -53.888435 -22.970032 8.136368
v -43.839012 -22.986420 7.625135
v -53.988831 -15.602543 3.431576
v -54.132072 -8.280805 -0.764330
v -44.095921 -8.259216 0.167303
v -74.145973 -15.789200 0.020587
v -74.168091 -8.321927 -1.734686
v -64.158463 -8.308797 -1.490620
v -74.064804 -30.668594 6.704960
v -74.082977 -23.195984 4.858555
v -63.980293 -23.055515 7.791023
v -14.023579 -15.760579 5.419163
v -14.120480 -8.304270 0.849365
v -4.146870 -8.315869 0.798481
v -33.912346 -15.634489 5.321519
v -34.077553 -8.262954 0.645789
v -24.091137 -8.284035 0.674804
v -33.884121 -30.597576 6.255488
v -33.844906 -23.073925 7.398464
v -23.898735 -23.169914 7.286425
v -23.942001 -30.697605 5.537914
v -23.943249 -15.699063 5.681805
v -4.099571 -15.797555 3.881215
v -63.984852 -30.557205 9.138357
v -64.076927 -15.695144 1.606910
v -43.931591 -15.589699 4.639499
v -43.858948 -30.483055 7.905383
v -4.095581 -30.795822 3.630537
vn 0.1955 -0.4323 0.8803
vn 0.1679 -0.4075 0.8976
vn -0.0683 0.4316 0.8995
vn -0.1467 0.6619 0.7351
vn -0.0332 -0.2363 0.9711
vn 0.1988 0.1593 0.9670
vn 0.0050 0.3200 0.9474
vn 0.0311 -0.5024 0.8641
vn 0.0320 -0.1192 0.9924
vn 0.0092 -0.0279 0.9996
vn 0.0736 -0.5088 0.8577
vn -0.0085 0.5879 0.8089
vn -0.0040 0.5540 0.8325
vn -0.0421 0.3601 0.9320
vn 0.0752 0.3393 0.9377
vn -0.0120 0.5583 0.8296
vn 0.1235 0.2303 0.9652
vn -0.0747 0.3227 0.9435
vn -0.3208 0.3328 0.8868
vn -0.2940 -0.1208 0.9482
vn -0.0596 0.2394 0.9691
vn -0.0134 0.1150 0.9933
vn -0.1201 0.5463 0.8289
vn -0.0546 0.5144 0.8558
vn -0.0882 0.4166 0.9048
vn -0.1169 0.5557 0.8231
vn 0.0288 0.1693 0.9851
vn 0.0473 0.2537 0.9661
vn 0.0856 -0.2844 0.9549
vn 0.2329 -0.0699 0.9700
vn 0.1602 -0.1164 0.9802
vn 0.0913 -0.4866 0.8689
vn 0.1306 -0.3142 0.9403
vn 0.0635 -0.3252 0.9435
vn 0.0501 -0.4954 0.8672
vn 0.1605 0.0664 0.9848
vn 0.0736 0.0726 0.9946
vn 0.0761 -0.1282 0.9888
vn 0.2250 0.0488 0.9731
vn 0.2081 0.0609 0.9762
vn 0.2095 -0.0855 0.9741
vn 0.0712 -0.0523 0.9961
vn 0.0237 -0.0291 0.9993
vn 0.0406 -0.2848 0.9577
vn -0.0432 0.5136 0.8569
vn -0.0614 0.5752 0.8157
vn 0.0051 0.2800 0.9600
vn -0.0298 0.3102 0.9502
vn -0.0434 0.4210 0.9060
vn 0.0524 0.1692 0.9842
vn -0.1339 0.5579 0.8190
vn -0.1407 0.5528 0.8213
vn -0.1367 0.6258 0.7679
vn -0.0635 0.1438 0.9876
vn -0.0520 0.1018 0.9934
vn -0.0801 0.3256 0.9421
vn -0.0427 0.2224 0.9740
vn -0.0602 0.1859 0.9807
vn -0.0789 0.4804 0.8735
vn -0.0539 0.3337 0.9411
vn -0.0333 0.2398 0.9703
vn -0.1040 0.4171 0.9029
vn -0.0015 0.0281 0.9996
vn 0.0000 0.0122 0.9999
vn -0.0032 0.0744 0.9972
vn -0.0303 0.0612 0.9977
vn -0.0106 0.0281 0.9996
vn -0.0351 0.1707 0.9847
vn -0.3284 0.1107 0.9380
vn -0.3882 0.1265 0.9129
vn -0.3762 -0.0661 0.9242
vn -0.2329 0.5263 0.8178
vn -0.2301 0.4085 0.8833
vn -0.3488 0.2901 0.8912
vn -0.1068 0.6095 0.7855
vn -0.1723 0.5935 0.7862
vn -0.2104 0.3348 0.9185
vn 0.0476 0.4109 0.9104
vn 0.0100 0.5196 0.8544
vn 0.0495 0.2742 0.9604
vn -0.0224 0.2639 0.9643
vn -0.0252 0.2684 0.9630
vn -0.0176 0.5831 0.8122
vn 0.0442 0.1819 0.9823
vn 0.0025 0.2542 0.9671
vn 0.0236 0.4213 0.9066
vn -0.0278 0.5159 0.8562
vn -0.0473 0.5153 0.8557
vn -0.0518 0.3855 0.9212
vn -0.0019 0.2618 0.9651
vn -0.0195 0.2475 0.9687
vn -0.0264 0.5341 0.8450
vn -0.0104 0.2677 0.9634
vn 0.0022 0.2662 0.9639
vn 0.0016 0.5749 0.8182
vn 0.0482 -0.2653 0.9630
vn 0.0761 -0.1941 0.9780
vn 0.1153 -0.4751 0.8724
vn -0.0245 0.1693 0.9853
vn -0.0326 0.2363 0.9711
vn 0.0180 0.0553 0.9983
vn 0.0192 0.0920 0.9956
vn -0.0095 0.1229 0.9924
vn 0.0122 -0.0853 0.9963
vn 0.0355 -0.3255 0.9449
vn 0.0341 -0.3108 0.9499
vn 0.0400 -0.5103 0.8590
vn -0.0038 0.5291 0.8486
vn -0.0142 0.5258 0.8505
vn -0.0209 0.3361 0.9416
vn 0.1493 0.2809 0.9481
vn 0.1077 0.3370 0.9353
vn 0.1772 0.1921 0.9653
vn -0.0546 -0.0063 0.9985
vn -0.2038 0.0183 0.9788
vn -0.1640 -0.1853 0.9689
vn -0.1165 0.5053 0.8550
vn -0.0828 0.4240 0.9019
vn -0.1391 0.6418 0.7542
vn -0.0729 0.5229 0.8493
vn -0.1061 0.5434 0.8328
vn -0.0872 0.4805 0.8726
vn 0.1126 -0.0957 0.9890
vn 0.1186 -0.0524 0.9916
vn 0.1406 -0.3406 0.9296
vn 0.2251 -0.2410 0.9440
vn 0.1908 -0.2744 0.9425
vn 0.1517 -0.4698 0.8697
vn 0.1575 -0.3872 0.9084
vn 0.2192 -0.4683 0.8560
vn -0.0284 0.3862 0.9220
vn -0.1051 0.6286 0.7706
vn 0.0039 -0.1888 0.9820
vn 0.2215 0.1905 0.9564
vn 0.0200 0.3020 0.9531
vn 0.0243 -0.4956 0.8682
vn 0.0390 -0.1284 0.9910
vn 0.0518 -0.0853 0.9950
vn 0.0746 -0.5098 0.8570
vn -0.0033 0.5834 0.8122
vn -0.0262 0.5742 0.8183
vn -0.0220 0.3361 0.9416
vn 0.1416 0.4177 0.8975
vn 0.0455 0.5037 0.8627
vn 0.1558 0.2719 0.9496
vn -0.0549 0.2986 0.9528
vn -0.3151 0.3248 0.8918
vn -0.2592 -0.0693 0.9633
vn -0.1263 0.3235 0.9378
vn -0.0557 0.1705 0.9838
vn -0.2141 0.6324 0.7444
vn -0.0724 0.5322 0.8435
vn -0.1414 0.4761 0.8680
vn -0.0441 0.4825 0.8748
vn 0.1143 0.0550 0.9919
vn 0.0676 0.2794 0.9578
vn 0.1312 -0.3409 0.9309
vn 0.2319 -0.0685 0.9703
vn 0.1382 -0.0865 0.9866
vn 0.0787 -0.4733 0.8774
vn 0.1015 -0.2777 0.9553
vn 0.0559 -0.3160 0.9471
vn 0.0426 -0.4878 0.8719
vn 0.1618 0.0646 0.9847
vn 0.0779 0.0669 0.9947
vn 0.0681 -0.1175 0.9907
vn 0.2334 0.0606 0.9705
vn 0.2104 0.0641 0.9755
vn 0.1987 -0.0704 0.9775
vn 0.0884 -0.0294 0.9957
vn 0.0403 -0.0067 0.9992
vn 0.0797 -0.2365 0.9684
vn 0.0441 0.4217 0.9056
vn 0.0028 0.5144 0.8575
vn 0.0203 0.2991 0.9540
vn 0.0289 0.2368 0.9711
vn 0.0512 0.3105 0.9492
vn 0.1163 0.2524 0.9606
vn -0.1181 0.5424 0.8317
vn -0.1448 0.5569 0.8179
vn -0.0621 0.5592 0.8267
vn -0.0946 0.1852 0.9781
vn -0.0833 0.1435 0.9861
vn -0.1525 0.4125 0.8981
vn -0.0616 0.2467 0.9671
vn -0.0872 0.2214 0.9713
vn -0.1085 0.5113 0.8525
vn -0.1287 0.4216 0.8976
vn -0.1074 0.3320 0.9371
vn -0.2140 0.5370 0.8160
vn -0.0134 0.0122 0.9998
vn -0.0032 0.0079 1.0000
vn -0.0338 0.1149 0.9928
vn -0.0607 0.1017 0.9930
vn -0.0354 0.0612 0.9975
vn -0.0877 0.2387 0.9671
vn -0.2976 0.0650 0.9525
vn -0.3768 0.1086 0.9199
vn -0.3557 -0.0335 0.9340
vn -0.2816 0.5774 0.7664
vn -0.3160 0.5129 0.7982
vn -0.3725 0.3258 0.8690
vn -0.0676 0.5749 0.8154
vn -0.1821 0.6024 0.7772
vn -0.1966 0.3171 0.9278
vn 0.1124 0.4817 0.8691
vn 0.0464 0.4836 0.8741
vn 0.0719 0.3016 0.9507
vn -0.0146 0.2542 0.9671
vn -0.0216 0.2640 0.9643
vn 0.0100 0.5585 0.8294
vn 0.0778 0.2253 0.9712
vn 0.0252 0.2258 0.9738
vn 0.0993 0.5021 0.8591
vn -0.0372 0.5252 0.8502
vn -0.0473 0.5152 0.8558
vn -0.0303 0.3604 0.9323
vn -0.0054 0.2661 0.9639
vn -0.0305 0.2615 0.9647
vn -0.0459 0.5527 0.8321
vn -0.0110 0.2686 0.9632
vn 0.0009 0.2678 0.9635
vn -0.0131 0.5878 0.8089
vn 0.0840 -0.3103 0.9469
vn 0.1294 -0.2641 0.9558
vn 0.1442 -0.5060 0.8504
vn 0.0106 0.1229 0.9924
vn 0.0189 0.1695 0.9853
vn 0.0795 -0.0279 0.9964
vn 0.0337 0.0727 0.9968
vn 0.0138 0.0920 0.9957
vn 0.0376 -0.1191 0.9922
vn 0.0461 -0.3254 0.9445
vn 0.0321 -0.5024 0.8640
vn 0.0061 0.5196 0.8544
vn -0.0173 0.5289 0.8485
vn -0.0074 0.3199 0.9474
vn 0.1902 0.3333 0.9234
vn 0.1656 0.4066 0.8984
vn 0.2036 0.2277 0.9522
vn -0.0365 0.0182 0.9992
vn -0.1690 0.0669 0.9833
vn -0.1205 -0.1262 0.9847
vn -0.1614 0.5508 0.8189
vn -0.1546 0.5022 0.8508
vn -0.1622 0.6601 0.7334
vn -0.0646 0.5145 0.8551
vn -0.0847 0.5222 0.8486
vn -0.0431 0.4326 0.9006
vn 0.1830 -0.1923 0.9641
vn 0.1500 -0.0955 0.9841
vn 0.1938 -0.4060 0.8931
vn 0.2119 -0.2229 0.9515
vn 0.1675 -0.2437 0.9553
vn 0.1222 -0.4371 0.8911
s off
f 47//1 78//1 153//1
f 48//2 81//2 152//2
f 60//3 74//3 151//3
f 61//4 84//4 150//4
f 149//5 9//5 85//5
f 148//6 10//6 71//6
f 65//7 88//7 147//7
f 54//8 89//8 146//8
f 90//9 67//9 145//9
f 91//10 92//10 144//10
f 76//11 93//11 143//11
f 94//12 66//12 142//12
f 95//13 96//13 141//13
f 87//14 97//14 140//14
f 139//15 19//15 49//15
f 99//16 100//16 138//16
f 137//17 34//17 101//17
f 102//18 63//18 136//18
f 103//19 104//19 135//19
f 134//20 25//20 105//20
f 106//21 62//21 133//21
f 107//22 108//22 132//22
f 83//23 109//23 131//23
f 110//24 52//24 130//24
f 111//25 112//25 129//25
f 82//26 113//26 128//26
f 114//27 59//27 127//27
f 126//28 44//28 116//28
f 70//29 117//29 125//29
f 118//30 56//30 124//30
f 119//31 120//31 123//31
f 69//32 121//32 122//32
f 122//33 45//33 119//33
f 89//34 119//34 37//34
f 8//35 122//35 89//35
f 123//36 34//36 86//36
f 67//37 86//37 15//37
f 37//38 123//38 67//38
f 64//39 56//39 10//39
f 34//40 124//40 64//40
f 45//41 124//41 120//41
f 115//42 117//42 44//42
f 33//43 125//43 115//43
f 85//44 70//44 125//44
f 126//45 30//45 82//45
f 63//46 82//46 14//46
f 63//47 115//47 126//47
f 127//48 13//48 60//48
f 116//49 60//49 30//49
f 116//50 114//50 127//50
f 128//51 43//51 111//51
f 84//52 111//52 32//52
f 14//53 128//53 84//53
f 129//54 21//54 73//54
f 62//55 73//55 12//55
f 32//56 129//56 62//56
f 130//57 6//57 51//57
f 112//58 51//58 21//58
f 43//59 130//59 112//59
f 131//60 42//60 107//60
f 53//61 107//61 23//61
f 7//62 131//62 53//62
f 80//63 108//63 28//63
f 3//64 132//64 80//64
f 23//65 132//65 75//65
f 133//66 12//66 58//66
f 108//67 58//67 28//67
f 42//68 133//68 108//68
f 134//69 41//69 103//69
f 46//70 103//70 16//70
f 46//71 77//71 134//71
f 135//72 31//72 83//72
f 68//73 83//73 7//73
f 16//74 135//74 68//74
f 136//75 14//75 61//75
f 104//76 61//76 31//76
f 41//77 136//77 104//77
f 99//78 101//78 40//78
f 88//79 99//79 36//79
f 88//80 86//80 137//80
f 138//81 20//81 72//81
f 66//82 72//82 11//82
f 36//83 138//83 66//83
f 50//84 49//84 5//84
f 100//85 50//85 20//85
f 100//86 98//86 139//86
f 140//87 39//87 95//87
f 74//88 95//88 22//88
f 13//89 140//89 74//89
f 141//90 27//90 79//90
f 52//91 79//91 6//91
f 22//92 141//92 52//92
f 142//93 11//93 57//93
f 96//94 57//94 27//94
f 39//95 142//95 96//95
f 143//96 38//96 91//96
f 81//97 91//97 29//97
f 4//98 143//98 81//98
f 144//99 35//99 87//99
f 59//100 87//100 13//100
f 29//101 144//101 59//101
f 145//102 15//102 65//102
f 92//103 65//103 35//103
f 38//104 145//104 92//104
f 146//105 37//105 90//105
f 93//106 90//106 38//106
f 24//107 146//107 93//107
f 147//108 36//108 94//108
f 97//109 94//109 39//109
f 35//110 147//110 97//110
f 98//111 71//111 19//111
f 40//112 148//112 98//112
f 101//113 64//113 148//113
f 102//114 85//114 33//114
f 41//115 149//115 102//115
f 105//116 55//116 149//116
f 150//117 32//117 106//117
f 109//118 106//118 42//118
f 31//119 150//119 109//119
f 151//120 22//120 110//120
f 113//121 110//121 43//121
f 30//122 151//122 113//122
f 152//123 29//123 114//123
f 117//124 114//124 44//124
f 18//125 152//125 117//125
f 153//126 26//126 118//126
f 121//127 118//127 45//127
f 17//128 153//128 121//128
f 47//129 2//129 78//129
f 48//130 4//130 81//130
f 60//131 13//131 74//131
f 61//132 14//132 84//132
f 149//133 55//133 9//133
f 148//134 64//134 10//134
f 65//135 15//135 88//135
f 54//136 8//136 89//136
f 90//137 37//137 67//137
f 91//138 38//138 92//138
f 76//139 24//139 93//139
f 94//140 36//140 66//140
f 95//141 39//141 96//141
f 87//142 35//142 97//142
f 139//143 98//143 19//143
f 99//144 40//144 100//144
f 137//145 86//145 34//145
f 102//146 33//146 63//146
f 103//147 41//147 104//147
f 134//148 77//148 25//148
f 106//149 32//149 62//149
f 107//150 42//150 108//150
f 83//151 31//151 109//151
f 110//152 22//152 52//152
f 111//153 43//153 112//153
f 82//154 30//154 113//154
f 114//155 29//155 59//155
f 126//156 115//156 44//156
f 70//157 18//157 117//157
f 118//158 26//158 56//158
f 119//159 45//159 120//159
f 69//160 17//160 121//160
f 122//161 121//161 45//161
f 89//162 122//162 119//162
f 8//163 69//163 122//163
f 123//164 120//164 34//164
f 67//165 123//165 86//165
f 37//166 119//166 123//166
f 64//167 124//167 56//167
f 34//168 120//168 124//168
f 45//169 118//169 124//169
f 115//170 125//170 117//170
f 33//171 85//171 125//171
f 85//172 9//172 70//172
f 126//173 116//173 30//173
f 63//174 126//174 82//174
f 63//175 33//175 115//175
f 127//176 59//176 13//176
f 116//177 127//177 60//177
f 116//178 44//178 114//178
f 128//179 113//179 43//179
f 84//180 128//180 111//180
f 14//181 82//181 128//181
f 129//182 112//182 21//182
f 62//183 129//183 73//183
f 32//184 111//184 129//184
f 130//185 52//185 6//185
f 112//186 130//186 51//186
f 43//187 110//187 130//187
f 131//188 109//188 42//188
f 53//189 131//189 107//189
f 7//190 83//190 131//190
f 80//191 132//191 108//191
f 3//192 75//192 132//192
f 23//193 107//193 132//193
f 133//194 62//194 12//194
f 108//195 133//195 58//195
f 42//196 106//196 133//196
f 134//197 105//197 41//197
f 46//198 134//198 103//198
f 46//199 1//199 77//199
f 135//200 104//200 31//200
f 68//201 135//201 83//201
f 16//202 103//202 135//202
f 136//203 63//203 14//203
f 104//204 136//204 61//204
f 41//205 102//205 136//205
f 99//206 137//206 101//206
f 88//207 137//207 99//207
f 88//208 15//208 86//208
f 138//209 100//209 20//209
f 66//210 138//210 72//210
f 36//211 99//211 138//211
f 50//212 139//212 49//212
f 100//213 139//213 50//213
f 100//214 40//214 98//214
f 140//215 97//215 39//215
f 74//216 140//216 95//216
f 13//217 87//217 140//217
f 141//218 96//218 27//218
f 52//219 141//219 79//219
f 22//220 95//220 141//220
f 142//221 66//221 11//221
f 96//222 142//222 57//222
f 39//223 94//223 142//223
f 143//224 93//224 38//224
f 81//225 143//225 91//225
f 4//226 76//226 143//226
f 144//227 92//227 35//227
f 59//228 144//228 87//228
f 29//229 91//229 144//229
f 145//230 67//230 15//230
f 92//231 145//231 65//231
f 38//232 90//232 145//232
f 146//105 89//105 37//105
f 93//233 146//233 90//233
f 24//234 54//234 146//234
f 147//235 88//235 36//235
f 97//236 147//236 94//236
f 35//237 65//237 147//237
f 98//238 148//238 71//238
f 40//239 101//239 148//239
f 101//240 34//240 64//240
f 102//241 149//241 85//241
f 41//242 105//242 149//242
f 105//243 25//243 55//243
f 150//244 84//244 32//244
f 109//245 150//245 106//245
f 31//246 61//246 150//246
f 151//247 74//247 22//247
f 113//248 151//248 110//248
f 30//249 60//249 151//249
f 152//250 81//250 29//250
f 117//251 152//251 114//251
f 18//252 48//252 152//252
f 153//253 78//253 26//253
f 121//254 153//254 118//254
f 17//255 47//255 153//255
