# Blender v2.80 (sub 75) OBJ File: 'tumour_div.blend'
# www.blender.org
v 0.000000 -3.000000 -0.020000
v -1.148050 -2.771638 -0.020000
v -2.121320 -2.121320 -0.020000
v -2.771638 -1.148050 -0.020000
v -3.000000 0.000000 -0.020000
v -2.771638 1.148051 -0.020000
v -2.121320 2.121320 -0.020000
v -1.148050 2.771638 -0.020000
v -0.000000 3.000000 -0.020000
v 1.148050 2.771639 -0.020000
v 2.121320 2.121321 -0.020000
v 2.771638 1.148051 -0.020000
v 3.000000 -0.000000 -0.020000
v 2.771638 -1.148051 -0.020000
v 2.121320 -2.121321 -0.020000
v 1.148049 -2.771639 -0.020000
v 0.000000 -3.000000 -0.100000
v -1.148050 -2.771638 -0.100000
v 1.148049 -2.771639 -0.100000
v -2.121320 -2.121320 -0.100000
v 2.121320 -2.121320 -0.100000
v -2.771638 -1.148050 -0.100000
v -3.000000 0.000000 -0.100000
v -2.771638 1.148051 -0.100000
v -2.121320 2.121320 -0.100000
v 2.771638 -1.148051 -0.100000
v 3.000000 -0.000000 -0.100000
v 2.771638 1.148051 -0.100000
v -1.148050 2.771638 -0.100000
v 2.121320 2.121321 -0.100000
v -0.000000 3.000000 -0.100000
v 1.148050 2.771639 -0.100000
vn -0.1951 -0.9808 0.0000
vn -0.5556 -0.8315 0.0000
vn -0.8315 -0.5556 0.0000
vn -0.9808 0.1951 0.0000
vn 0.9808 0.1951 0.0000
vn -0.9808 -0.1951 0.0000
vn 0.5556 0.8315 0.0000
vn 0.1951 0.9808 0.0000
vn 0.1951 -0.9808 0.0000
vn -0.8315 0.5556 0.0000
vn 0.8315 -0.5556 0.0000
vn 0.9808 -0.1951 0.0000
vn 0.5556 -0.8315 0.0000
vn 0.8315 0.5556 0.0000
vn -0.1951 0.9808 0.0000
vn -0.5556 0.8315 0.0000
s off
f 17//1 2//1 18//1
f 18//2 3//2 20//2
f 20//3 4//3 22//3
f 23//4 6//4 24//4
f 28//5 13//5 27//5
f 22//6 5//6 23//6
f 32//7 11//7 30//7
f 31//8 10//8 32//8
f 19//9 1//9 17//9
f 24//10 7//10 25//10
f 21//11 14//11 15//11
f 27//12 14//12 26//12
f 19//13 15//13 16//13
f 30//14 12//14 28//14
f 29//15 9//15 31//15
f 25//16 8//16 29//16
f 17//1 1//1 2//1
f 18//2 2//2 3//2
f 20//3 3//3 4//3
f 23//4 5//4 6//4
f 28//5 12//5 13//5
f 22//6 4//6 5//6
f 32//7 10//7 11//7
f 31//8 9//8 10//8
f 19//9 16//9 1//9
f 24//10 6//10 7//10
f 21//11 26//11 14//11
f 27//12 13//12 14//12
f 19//13 21//13 15//13
f 30//14 11//14 12//14
f 29//15 8//15 9//15
f 25//16 7//16 8//16
