# Blender v2.80 (sub 75) OBJ File: 'tumour_div.blend'
# www.blender.org
v 0.000000 -3.000000 -0.250000
v -1.148050 -2.771638 -0.250000
v 1.148049 -2.771639 -0.250000
v -2.121320 -2.121320 -0.250000
v 2.121320 -2.121320 -0.250000
v -2.771638 -1.148050 -0.250000
v -3.000000 0.000000 -0.250000
v -2.771638 1.148051 -0.250000
v -2.121320 2.121320 -0.250000
v 2.771638 -1.148051 -0.250000
v 3.000000 -0.000000 -0.250000
v 2.771638 1.148051 -0.250000
v -1.148050 2.771638 -0.250000
v 2.121320 2.121321 -0.250000
v -0.000000 3.000000 -0.250000
v 1.148050 2.771639 -0.250000
v -2.121320 -2.121320 -0.100000
v -2.771638 -1.148050 -0.100000
v -3.000000 0.000000 -0.100000
v -2.771638 1.148051 -0.100000
v -2.121320 2.121320 -0.100000
v -1.148050 2.771638 -0.100000
v 2.121320 2.121320 -0.100000
v -0.000000 3.000000 -0.100000
v 1.148050 2.771639 -0.100000
v 0.000000 -3.000000 -0.100000
v 1.148049 -2.771639 -0.100000
v -1.148050 -2.771638 -0.100000
v 2.121320 -2.121321 -0.100000
v 2.771638 -1.148051 -0.100000
v 3.000000 -0.000000 -0.100000
v 2.771638 1.148051 -0.100000
vn -0.1951 -0.9808 0.0000
vn -0.5556 -0.8315 0.0000
vn -0.8315 -0.5556 0.0000
vn -0.9808 0.1951 0.0000
vn 0.9808 0.1951 0.0000
vn -0.9808 -0.1951 0.0000
vn 0.5556 0.8315 0.0000
vn 0.1951 0.9808 0.0000
vn 0.1951 -0.9808 0.0000
vn -0.8315 0.5556 0.0000
vn 0.8315 -0.5556 0.0000
vn 0.9808 -0.1951 0.0000
vn 0.5556 -0.8315 0.0000
vn 0.8315 0.5556 0.0000
vn -0.1951 0.9808 0.0000
vn -0.5556 0.8315 0.0000
s off
f 1//1 28//1 2//1
f 2//2 17//2 4//2
f 4//3 18//3 6//3
f 7//4 20//4 8//4
f 12//5 31//5 11//5
f 6//6 19//6 7//6
f 14//7 25//7 23//7
f 15//8 25//8 16//8
f 3//9 26//9 1//9
f 8//10 21//10 9//10
f 5//11 30//11 29//11
f 11//12 30//12 10//12
f 3//13 29//13 27//13
f 12//14 23//14 32//14
f 13//15 24//15 15//15
f 9//16 22//16 13//16
f 1//1 26//1 28//1
f 2//2 28//2 17//2
f 4//3 17//3 18//3
f 7//4 19//4 20//4
f 12//5 32//5 31//5
f 6//6 18//6 19//6
f 14//7 16//7 25//7
f 15//8 24//8 25//8
f 3//9 27//9 26//9
f 8//10 20//10 21//10
f 5//11 10//11 30//11
f 11//12 31//12 30//12
f 3//13 5//13 29//13
f 12//14 14//14 23//14
f 13//15 22//15 24//15
f 9//16 21//16 22//16
