# Blender v2.80 (sub 75) OBJ File: 'tumour_div.blend'
# www.blender.org
v -2.121320 -2.121320 -1.830000
v -2.771638 -1.148050 -1.830000
v -2.771638 1.148051 -1.830000
v -3.000000 0.000000 -1.830000
v -2.121320 2.121320 -1.830000
v 2.121320 2.121320 -1.830000
v -1.148050 2.771638 -1.830000
v -0.000000 3.000000 -1.830000
v 1.148050 2.771639 -1.830000
v 0.000000 -3.000000 -1.830000
v 2.121320 -2.121321 -1.830000
v -1.148050 -2.771638 -1.830000
v 1.148049 -2.771639 -1.830000
v 2.771638 -1.148051 -1.830000
v 3.000000 -0.000000 -1.830000
v 2.771638 1.148051 -1.830000
v 0.000000 -3.000000 -1.910000
v -1.148050 -2.771638 -1.910000
v 1.148049 -2.771639 -1.910000
v 2.121320 -2.121320 -1.910000
v -2.121320 -2.121320 -1.910000
v -2.771638 -1.148050 -1.910000
v -3.000000 0.000000 -1.910000
v -2.771638 1.148051 -1.910000
v -2.121320 2.121320 -1.910000
v 2.771638 -1.148051 -1.910000
v 3.000000 -0.000000 -1.910000
v 2.771638 1.148051 -1.910000
v -1.148050 2.771638 -1.910000
v 2.121320 2.121320 -1.910000
v -0.000000 3.000000 -1.910000
v 1.148050 2.771639 -1.910000
vn -0.1951 -0.9808 0.0000
vn -0.5556 -0.8315 0.0000
vn 0.5556 -0.8315 0.0000
vn -0.8315 -0.5556 0.0000
vn -0.9808 0.1951 0.0000
vn 0.9808 0.1951 0.0000
vn -0.9808 -0.1951 0.0000
vn 0.5556 0.8315 0.0000
vn 0.1951 0.9808 0.0000
vn -0.8315 0.5556 0.0000
vn 0.8315 -0.5556 0.0000
vn 0.9808 -0.1951 0.0000
vn 0.1951 -0.9808 0.0000
vn 0.8315 0.5556 0.0000
vn -0.1951 0.9808 0.0000
vn -0.5556 0.8315 0.0000
s off
f 17//1 12//1 18//1
f 18//2 1//2 21//2
f 19//3 11//3 13//3
f 21//4 2//4 22//4
f 23//5 3//5 24//5
f 28//6 15//6 27//6
f 22//7 4//7 23//7
f 32//8 6//8 30//8
f 31//9 9//9 32//9
f 24//10 5//10 25//10
f 20//11 14//11 11//11
f 27//12 14//12 26//12
f 19//13 10//13 17//13
f 30//14 16//14 28//14
f 29//15 8//15 31//15
f 25//16 7//16 29//16
f 17//1 10//1 12//1
f 18//2 12//2 1//2
f 19//3 20//3 11//3
f 21//4 1//4 2//4
f 23//5 4//5 3//5
f 28//6 16//6 15//6
f 22//7 2//7 4//7
f 32//8 9//8 6//8
f 31//9 8//9 9//9
f 24//10 3//10 5//10
f 20//11 26//11 14//11
f 27//12 15//12 14//12
f 19//13 13//13 10//13
f 30//14 6//14 16//14
f 29//15 7//15 8//15
f 25//16 5//16 7//16
