# Blender v2.80 (sub 75) OBJ File: 'tumour_div.blend'
# www.blender.org
v 0.000000 -3.000000 -4.000000
v -1.148050 -2.771638 -4.000000
v -2.121320 -2.121320 -4.000000
v -2.771638 -1.148050 -4.000000
v -3.000000 0.000000 -4.000000
v -2.771638 1.148051 -4.000000
v -2.121320 2.121320 -4.000000
v -1.148050 2.771638 -4.000000
v -0.000000 3.000000 -4.000000
v 1.148050 2.771639 -4.000000
v 2.121320 2.121321 -4.000000
v 2.771638 1.148051 -4.000000
v 3.000000 -0.000000 -4.000000
v 2.771638 -1.148051 -4.000000
v 2.121320 -2.121321 -4.000000
v 1.148049 -2.771639 -4.000000
v -2.121320 -2.121320 -1.910000
v -2.771638 -1.148050 -1.910000
v -2.771638 1.148051 -1.910000
v -3.000000 0.000000 -1.910000
v -2.121320 2.121320 -1.910000
v 2.121320 2.121320 -1.910000
v -1.148050 2.771638 -1.910000
v -0.000000 3.000000 -1.910000
v 1.148050 2.771639 -1.910000
v 0.000000 -3.000000 -1.910000
v 2.121320 -2.121321 -1.910000
v -1.148050 -2.771638 -1.910000
v 1.148049 -2.771639 -1.910000
v 2.771638 -1.148051 -1.910000
v 3.000000 -0.000000 -1.910000
v 2.771638 1.148051 -1.910000
vn -0.1951 -0.9808 0.0000
vn -0.5556 -0.8315 0.0000
vn -0.8315 -0.5556 0.0000
vn -0.9808 -0.1951 0.0000
vn -0.9808 0.1951 0.0000
vn -0.8315 0.5556 0.0000
vn -0.5556 0.8315 0.0000
vn -0.1951 0.9808 0.0000
vn 0.1951 0.9808 0.0000
vn 0.5556 0.8315 0.0000
vn 0.8315 0.5556 0.0000
vn 0.9808 0.1951 0.0000
vn 0.9808 -0.1951 0.0000
vn 0.8315 -0.5556 0.0000
vn 0.5556 -0.8315 0.0000
vn 0.1951 -0.9808 0.0000
vn 0.0000 0.0000 -1.0000
s off
f 26//1 2//1 1//1
f 28//2 3//2 2//2
f 17//3 4//3 3//3
f 18//4 5//4 4//4
f 20//5 6//5 5//5
f 19//6 7//6 6//6
f 21//7 8//7 7//7
f 23//8 9//8 8//8
f 24//9 10//9 9//9
f 25//10 11//10 10//10
f 22//11 12//11 11//11
f 32//12 13//12 12//12
f 31//13 14//13 13//13
f 30//14 15//14 14//14
f 27//15 16//15 15//15
f 29//16 1//16 16//16
f 4//17 8//17 12//17
f 26//1 28//1 2//1
f 28//2 17//2 3//2
f 17//3 18//3 4//3
f 18//4 20//4 5//4
f 20//5 19//5 6//5
f 19//6 21//6 7//6
f 21//7 23//7 8//7
f 23//8 24//8 9//8
f 24//9 25//9 10//9
f 25//10 22//10 11//10
f 22//11 32//11 12//11
f 32//12 31//12 13//12
f 31//13 30//13 14//13
f 30//14 27//14 15//14
f 27//15 29//15 16//15
f 29//16 26//16 1//16
f 16//17 1//17 2//17
f 2//17 3//17 4//17
f 4//17 5//17 6//17
f 6//17 7//17 8//17
f 8//17 9//17 10//17
f 10//17 11//17 12//17
f 12//17 13//17 14//17
f 14//17 15//17 12//17
f 15//17 16//17 12//17
f 16//17 2//17 4//17
f 4//17 6//17 8//17
f 8//17 10//17 12//17
f 16//17 4//17 12//17
