# Blender v2.80 (sub 75) OBJ File: 'riverside.blend'
# www.blender.org
v 10.000000 2.000000 -1.000000
v 10.000000 2.000000 1.000000
v 14.000000 2.000000 -1.000000
v 14.000000 2.000000 1.000000
v 18.000000 30.000000 5.000000
v 18.000000 30.000000 7.000000
v 18.000000 20.000000 5.000000
v 18.000000 20.000000 7.000000
v 15.000000 30.000000 5.000000
v 15.000000 30.000000 7.000000
v 13.000000 20.000000 5.000000
v 13.000000 20.000000 7.000000
v -10.000000 2.000000 -1.000000
v -10.000000 2.000000 1.000000
v -14.000000 2.000000 -1.000000
v -14.000000 2.000000 1.000000
v -18.000000 30.000000 5.000000
v -18.000000 30.000000 7.000000
v -18.000000 20.000000 5.000000
v -18.000000 20.000000 7.000000
v -15.000000 30.000000 5.000000
v -15.000000 30.000000 7.000000
v -13.000000 20.000000 5.000000
v -13.000000 20.000000 7.000000
v -30.000000 -28.000000 -1.000000
v -30.000000 -28.000000 12.000000
v -30.000000 -14.000000 -1.000000
v -30.000000 -14.000000 12.000000
v -14.000000 -28.000000 -1.000000
v -14.000000 -28.000000 1.000000
v -14.000000 -4.000000 -1.000000
v -14.000000 -4.000000 1.000000
v -30.000000 0.000000 12.000000
v -30.000000 0.000000 -1.000000
v -18.000000 2.000000 -1.000000
v -18.000000 2.000000 1.000000
v -30.000000 14.000000 12.000000
v -30.000000 14.000000 -1.000000
v -22.000000 20.000000 5.000000
v -22.000000 20.000000 7.000000
v -30.000000 34.000000 12.000000
v -30.000000 34.000000 -1.000000
v -22.000000 34.000000 5.000000
v -22.000000 34.000000 7.000000
v -35.000000 -14.000000 -1.000000
v -35.000000 -28.000000 -1.000000
v -35.000000 -28.000000 12.000000
v -35.000000 -14.000000 12.000000
v -35.000000 0.000000 12.000000
v -35.000000 0.000000 -1.000000
v -35.000000 14.000000 12.000000
v -35.000000 14.000000 -1.000000
v -35.000000 34.000000 12.000000
v -35.000000 34.000000 -1.000000
v -48.000000 -14.000000 -1.000000
v -48.000000 -28.000000 -1.000000
v -48.000000 -28.000000 12.000000
v -48.000000 -14.000000 12.000000
v -48.000000 0.000000 12.000000
v -48.000000 0.000000 -1.000000
v -48.000000 14.000000 12.000000
v -48.000000 14.000000 -1.000000
v -48.000000 34.000000 12.000000
v -48.000000 34.000000 -1.000000
v 30.000000 -28.000000 -1.000000
v 30.000000 -28.000000 12.000000
v 30.000000 -14.000000 -1.000000
v 30.000000 -14.000000 12.000000
v 14.000000 -28.000000 -1.000000
v 14.000000 -28.000000 1.000000
v 14.000000 -4.000000 -1.000000
v 14.000000 -4.000000 1.000000
v 30.000000 0.000000 12.000000
v 30.000000 0.000000 -1.000000
v 18.000000 2.000000 -1.000000
v 18.000000 2.000000 1.000000
v 30.000000 14.000000 12.000000
v 30.000000 14.000000 -1.000000
v 22.000000 20.000000 5.000000
v 22.000000 20.000000 7.000000
v 30.000000 34.000000 12.000000
v 30.000000 34.000000 -1.000000
v 22.000000 34.000000 5.000000
v 22.000000 34.000000 7.000000
v 35.000000 -14.000000 -1.000000
v 35.000000 -28.000000 -1.000000
v 35.000000 -28.000000 12.000000
v 35.000000 -14.000000 12.000000
v 35.000000 0.000000 12.000000
v 35.000000 0.000000 -1.000000
v 35.000000 14.000000 12.000000
v 35.000000 14.000000 -1.000000
v 35.000000 34.000000 12.000000
v 35.000000 34.000000 -1.000000
v 48.000000 -14.000000 -1.000000
v 48.000000 -28.000000 -1.000000
v 48.000000 -28.000000 12.000000
v 48.000000 -14.000000 12.000000
v 48.000000 0.000000 12.000000
v 48.000000 0.000000 -1.000000
v 48.000000 14.000000 12.000000
v 48.000000 14.000000 -1.000000
v 48.000000 34.000000 12.000000
v 48.000000 34.000000 -1.000000
v -30.000000 -64.000000 -1.000000
v -30.000000 -64.000000 12.000000
v -35.000000 -64.000000 -1.000000
v -14.000000 -64.000000 1.000000
v -14.000000 -64.000000 -1.000000
v -35.000000 -64.000000 12.000000
v -48.000000 -64.000000 12.000000
v -48.000000 -64.000000 -1.000000
v 30.000000 -64.000000 -1.000000
v 30.000000 -64.000000 12.000000
v 35.000000 -64.000000 -1.000000
v 14.000000 -64.000000 1.000000
v 14.000000 -64.000000 -1.000000
v 35.000000 -64.000000 12.000000
v 48.000000 -64.000000 12.000000
v 48.000000 -64.000000 -1.000000
v -30.000000 64.000000 12.000000
v -30.000000 64.000000 -1.000000
v -22.000000 64.000000 5.000000
v -22.000000 64.000000 7.000000
v -48.000000 64.000000 -1.000000
v -35.000000 64.000000 -1.000000
v -35.000000 64.000000 12.000000
v -48.000000 64.000000 12.000000
v 30.000000 64.000000 12.000000
v 30.000000 64.000000 -1.000000
v 22.000000 64.000000 5.000000
v 22.000000 64.000000 7.000000
v 48.000000 64.000000 -1.000000
v 35.000000 64.000000 -1.000000
v 35.000000 64.000000 12.000000
v 48.000000 64.000000 12.000000
vn 0.0000 -1.0000 0.0000
vn 0.9762 -0.2169 0.0000
vn 1.0000 0.0000 0.0000
vn 0.0000 0.0000 -1.0000
vn 0.0000 0.0000 1.0000
vn -0.9806 0.1961 0.0000
vn 0.0000 1.0000 0.0000
vn -0.9864 0.1644 0.0000
vn 0.0000 -0.3162 0.9487
vn 0.0000 0.3162 -0.9487
vn -0.9762 -0.2169 0.0000
vn -1.0000 0.0000 0.0000
vn 0.9806 0.1961 0.0000
vn 0.9864 0.1644 0.0000
vn 0.8321 0.5547 0.0000
vn 0.5665 0.0000 0.8240
vn 0.9762 0.2169 0.0000
vn 0.6757 0.0000 0.7372
vn 0.6000 0.0000 -0.8000
vn 0.5300 0.0000 0.8480
vn -0.8321 0.5547 0.0000
vn -0.5665 0.0000 0.8240
vn -0.9762 0.2169 0.0000
vn -0.3665 0.3665 -0.8552
vn -0.6757 0.0000 0.7372
vn -0.6000 0.0000 -0.8000
vn -0.5300 0.0000 0.8480
vn 0.5858 0.3906 0.7101
vn 0.3665 0.3665 -0.8552
vn 0.5947 -0.1322 0.7930
vn -0.5858 0.3906 0.7101
vn -0.5947 -0.1322 0.7930
s off
f 2//1 1//1 3//1
f 4//2 3//2 7//2
f 8//3 7//3 5//3
f 7//4 9//4 5//4
f 6//5 10//5 8//5
f 9//6 11//6 12//6
f 10//7 6//7 5//7
f 11//8 1//8 2//8
f 12//9 2//9 4//9
f 10//5 12//5 8//5
f 3//10 1//10 11//10
f 9//4 7//4 11//4
f 15//1 13//1 14//1
f 19//11 15//11 16//11
f 17//12 19//12 20//12
f 19//4 17//4 21//4
f 18//5 20//5 22//5
f 24//13 23//13 21//13
f 17//7 18//7 22//7
f 14//14 13//14 23//14
f 16//9 14//9 24//9
f 22//5 20//5 24//5
f 23//10 13//10 15//10
f 21//4 23//4 19//4
f 93//5 103//5 136//5
f 36//15 32//15 31//15
f 29//3 31//3 32//3
f 57//12 56//12 112//12
f 27//4 31//4 29//4
f 30//16 32//16 28//16
f 36//17 35//17 39//17
f 31//4 27//4 34//4
f 33//16 28//16 32//16
f 54//4 42//4 38//4
f 44//3 40//3 39//3
f 35//4 34//4 38//4
f 37//18 33//18 36//18
f 45//4 27//4 25//4
f 64//12 63//12 128//12
f 39//19 38//19 42//19
f 41//20 37//20 40//20
f 49//5 33//5 37//5
f 60//4 50//4 45//4
f 62//4 52//4 50//4
f 65//4 86//4 115//4
f 64//4 54//4 52//4
f 51//5 37//5 41//5
f 50//4 34//4 27//4
f 69//4 65//4 113//4
f 47//5 26//5 28//5
f 48//5 28//5 33//5
f 52//4 38//4 34//4
f 55//12 56//12 57//12
f 60//12 55//12 58//12
f 62//12 60//12 59//12
f 64//12 62//12 61//12
f 61//5 51//5 53//5
f 57//5 47//5 48//5
f 59//5 49//5 51//5
f 58//5 48//5 49//5
f 43//19 42//19 122//19
f 55//4 45//4 46//4
f 42//4 54//4 126//4
f 71//21 72//21 76//21
f 72//12 71//12 69//12
f 86//4 96//4 120//4
f 67//4 65//4 69//4
f 68//22 72//22 70//22
f 76//23 80//23 79//23
f 71//4 75//4 74//4
f 72//22 68//22 73//22
f 78//4 82//4 94//4
f 79//12 80//12 84//12
f 75//24 79//24 78//24
f 76//25 73//25 77//25
f 65//4 67//4 85//4
f 63//5 53//5 127//5
f 79//26 83//26 82//26
f 80//27 77//27 81//27
f 77//5 73//5 89//5
f 85//4 90//4 100//4
f 90//4 92//4 102//4
f 87//5 66//5 114//5
f 92//4 94//4 104//4
f 81//5 77//5 91//5
f 67//4 74//4 90//4
f 97//5 87//5 118//5
f 68//5 66//5 87//5
f 73//5 68//5 88//5
f 74//4 78//4 92//4
f 97//3 96//3 95//3
f 98//3 95//3 100//3
f 99//3 100//3 102//3
f 101//3 102//3 104//3
f 93//5 91//5 101//5
f 88//5 87//5 97//5
f 91//5 89//5 99//5
f 89//5 88//5 98//5
f 104//4 94//4 134//4
f 86//4 85//4 95//4
f 105//1 109//1 108//1
f 112//1 107//1 110//1
f 107//1 105//1 106//1
f 116//1 117//1 113//1
f 118//1 115//1 120//1
f 114//1 113//1 115//1
f 66//22 70//22 116//22
f 96//3 97//3 119//3
f 29//3 30//3 108//3
f 47//5 57//5 111//5
f 26//5 47//5 110//5
f 56//4 46//4 107//4
f 25//4 29//4 109//4
f 46//4 25//4 105//4
f 30//16 26//16 106//16
f 70//12 69//12 117//12
f 127//7 121//7 122//7
f 123//7 122//7 121//7
f 128//7 127//7 126//7
f 130//7 129//7 135//7
f 129//7 130//7 131//7
f 134//7 135//7 136//7
f 53//5 41//5 121//5
f 41//20 44//20 124//20
f 94//4 82//4 130//4
f 103//3 104//3 133//3
f 44//3 43//3 123//3
f 82//26 83//26 131//26
f 81//5 93//5 135//5
f 84//27 81//27 129//27
f 54//4 64//4 125//4
f 83//12 84//12 132//12
f 2//1 3//1 4//1
f 4//2 7//2 8//2
f 8//3 5//3 6//3
f 9//6 12//6 10//6
f 10//7 5//7 9//7
f 11//8 2//8 12//8
f 12//9 4//9 8//9
f 3//10 11//10 7//10
f 15//1 14//1 16//1
f 19//11 16//11 20//11
f 17//12 20//12 18//12
f 24//13 21//13 22//13
f 17//7 22//7 21//7
f 14//14 23//14 24//14
f 16//9 24//9 20//9
f 23//10 15//10 19//10
f 93//5 136//5 135//5
f 36//15 31//15 35//15
f 29//3 32//3 30//3
f 57//12 112//12 111//12
f 27//4 29//4 25//4
f 30//16 28//16 26//16
f 36//17 39//17 40//17
f 31//4 34//4 35//4
f 33//28 32//28 36//28
f 54//4 38//4 52//4
f 44//3 39//3 43//3
f 35//29 38//29 39//29
f 37//30 36//30 40//30
f 45//4 25//4 46//4
f 64//12 128//12 125//12
f 39//19 42//19 43//19
f 41//20 40//20 44//20
f 49//5 37//5 51//5
f 60//4 45//4 55//4
f 62//4 50//4 60//4
f 65//4 115//4 113//4
f 64//4 52//4 62//4
f 51//5 41//5 53//5
f 50//4 27//4 45//4
f 69//4 113//4 117//4
f 47//5 28//5 48//5
f 48//5 33//5 49//5
f 52//4 34//4 50//4
f 55//12 57//12 58//12
f 60//12 58//12 59//12
f 62//12 59//12 61//12
f 64//12 61//12 63//12
f 61//5 53//5 63//5
f 57//5 48//5 58//5
f 59//5 51//5 61//5
f 58//5 49//5 59//5
f 43//19 122//19 123//19
f 55//4 46//4 56//4
f 42//4 126//4 122//4
f 71//21 76//21 75//21
f 72//12 69//12 70//12
f 86//4 120//4 115//4
f 67//4 69//4 71//4
f 68//22 70//22 66//22
f 76//23 79//23 75//23
f 71//4 74//4 67//4
f 72//31 73//31 76//31
f 78//4 94//4 92//4
f 79//12 84//12 83//12
f 75//4 78//4 74//4
f 76//32 77//32 80//32
f 65//4 85//4 86//4
f 63//5 127//5 128//5
f 79//26 82//26 78//26
f 80//27 81//27 84//27
f 77//5 89//5 91//5
f 85//4 100//4 95//4
f 90//4 102//4 100//4
f 87//5 114//5 118//5
f 92//4 104//4 102//4
f 81//5 91//5 93//5
f 67//4 90//4 85//4
f 97//5 118//5 119//5
f 68//5 87//5 88//5
f 73//5 88//5 89//5
f 74//4 92//4 90//4
f 97//3 95//3 98//3
f 98//3 100//3 99//3
f 99//3 102//3 101//3
f 101//3 104//3 103//3
f 93//5 101//5 103//5
f 88//5 97//5 98//5
f 91//5 99//5 101//5
f 89//5 98//5 99//5
f 104//4 134//4 133//4
f 86//4 95//4 96//4
f 105//1 108//1 106//1
f 112//1 110//1 111//1
f 107//1 106//1 110//1
f 116//1 113//1 114//1
f 118//1 120//1 119//1
f 114//1 115//1 118//1
f 66//22 116//22 114//22
f 96//3 119//3 120//3
f 29//3 108//3 109//3
f 47//5 111//5 110//5
f 26//5 110//5 106//5
f 56//4 107//4 112//4
f 25//4 109//4 105//4
f 46//4 105//4 107//4
f 30//16 106//16 108//16
f 70//12 117//12 116//12
f 127//7 122//7 126//7
f 123//7 121//7 124//7
f 128//7 126//7 125//7
f 130//7 135//7 134//7
f 129//7 131//7 132//7
f 134//7 136//7 133//7
f 53//5 121//5 127//5
f 41//20 124//20 121//20
f 94//4 130//4 134//4
f 103//3 133//3 136//3
f 44//3 123//3 124//3
f 82//26 131//26 130//26
f 81//5 135//5 129//5
f 84//27 129//27 132//27
f 54//4 125//4 126//4
f 83//12 132//12 131//12
