# Blender v2.80 (sub 75) OBJ File: 'dream.blend'
# www.blender.org
o bird_1_Icosphere.131
v 4.673218 3.724545 5.501601
v 5.105835 3.749875 6.096903
v 2.522924 3.637504 8.223249
v 3.439793 3.441567 5.280547
v 3.971844 1.336801 3.083861
v 5.319358 3.410827 5.339528
v 4.610298 4.029199 6.755385
v 3.283540 3.561473 5.338732
v 3.352228 3.452405 5.095093
v 5.230547 3.044321 4.555331
v 5.316823 3.789021 5.654185
v 5.113866 3.922072 5.515610
v 4.440973 4.070376 5.789459
v 4.067974 3.466404 5.446527
v 4.654496 3.731328 5.032084
v 5.698726 3.406270 5.793559
v 5.637209 3.503951 6.011762
v 5.721329 3.561945 5.869879
v 5.960063 3.436137 5.745360
v 5.850744 3.609722 6.133120
v 5.958765 3.629764 5.906458
v 6.085592 3.577293 5.965703
v 2.926067 3.224347 5.232955
v 2.453993 3.387101 5.437808
v 2.634970 3.099732 4.795874
v 3.317884 3.506939 5.216913
v 2.993599 3.276069 4.945483
v 2.868766 3.474287 5.388270
v 2.923680 3.339666 5.180658
vn 0.0491 -0.9988 0.0068
vn -0.3560 -0.8863 0.2964
vn 0.3596 -0.8975 0.2554
vn 0.2504 -0.7242 0.6426
vn -0.1510 -0.6811 0.7165
vn 0.6787 0.4724 -0.5623
vn 0.5511 -0.5339 0.6412
vn -0.6572 0.6357 -0.4049
vn -0.6261 0.5917 -0.5078
vn 0.6599 -0.7066 0.2555
vn 0.7995 0.4304 0.4191
vn -0.1387 0.9881 0.0664
vn -0.3014 0.8941 -0.3314
vn 0.0835 0.6145 -0.7845
vn 0.9697 0.1601 -0.1847
vn 0.4846 0.8662 0.1220
vn 0.2166 0.9762 0.0036
vn 0.0395 0.9161 -0.3990
vn 0.3458 0.7131 -0.6098
vn 0.6834 0.5783 -0.4456
vn -0.1724 -0.4037 0.8985
vn 0.0625 -0.9942 -0.0876
vn -0.2079 0.8696 -0.4479
vn -0.2115 0.4548 -0.8651
vn 0.2217 0.8496 0.4787
vn -0.3623 -0.8845 0.2938
vn 0.5292 0.5448 -0.6505
vn -0.2683 0.9624 -0.0428
vn 0.1822 -0.8773 0.4441
vn 0.2844 0.9336 0.2181
vn 0.1977 -0.8727 0.4464
vn -0.8403 0.2093 0.5000
vn 0.4581 -0.8874 -0.0521
vn 0.2032 -0.4828 0.8519
vn -0.2336 0.7865 -0.5718
vn -0.3107 0.8318 -0.4600
vn -0.4744 -0.3717 -0.7980
vn 0.5726 0.2924 -0.7660
vn -0.1800 -0.6093 0.7723
vn 0.1820 -0.9249 -0.3337
vn -0.0640 0.6380 -0.7674
vn 0.4398 0.8517 0.2849
vn -0.4767 0.8758 0.0754
vn 0.3969 -0.8862 -0.2392
vn 0.0674 -0.3631 0.9293
s off
f 1//1 2//1 3//1
f 2//2 1//2 6//2
f 1//3 3//3 14//3
f 1//4 14//4 5//4
f 1//5 5//5 6//5
f 11//6 16//6 6//6
f 3//7 2//7 7//7
f 14//8 3//8 13//8
f 5//9 14//9 15//9
f 6//10 5//10 10//10
f 2//11 11//11 7//11
f 3//12 7//12 13//12
f 25//13 29//13 27//13
f 5//14 15//14 10//14
f 6//15 10//15 11//15
f 7//16 11//16 12//16
f 13//17 7//17 12//17
f 15//18 13//18 12//18
f 10//19 15//19 12//19
f 11//20 10//20 12//20
f 8//21 14//21 13//21
f 9//22 14//22 4//22
f 26//23 13//23 15//23
f 18//24 19//24 16//24
f 11//25 17//25 18//25
f 6//26 17//26 2//26
f 19//27 21//27 22//27
f 18//28 20//28 21//28
f 16//29 20//29 17//29
f 21//30 20//30 22//30
f 20//31 19//31 22//31
f 25//32 23//32 29//32
f 23//33 25//33 27//33
f 8//34 28//34 23//34
f 28//35 29//35 24//35
f 8//35 29//35 28//35
f 9//36 29//36 26//36
f 23//37 24//37 29//37
f 11//38 18//38 16//38
f 8//39 4//39 14//39
f 9//40 15//40 14//40
f 15//23 9//23 26//23
f 26//23 8//23 13//23
f 18//41 21//41 19//41
f 11//42 2//42 17//42
f 6//26 16//26 17//26
f 18//43 17//43 20//43
f 16//29 19//29 20//29
f 27//33 9//33 23//33
f 9//44 4//44 23//44
f 23//45 4//45 8//45
f 28//34 24//34 23//34
f 8//36 26//36 29//36
f 9//13 27//13 29//13
o bird_0_Icosphere.130
v 9.226656 4.354182 10.899093
v 9.757532 4.385265 11.629601
v 6.587981 4.247373 14.238892
v 7.713092 4.006934 10.627831
v 8.365984 1.424127 7.932228
v 10.019550 3.969212 10.700209
v 9.149446 4.728031 12.437640
v 7.521350 4.154074 10.699233
v 7.605639 4.020234 10.400257
v 9.910568 3.519464 9.737903
v 10.016439 4.433303 11.086332
v 9.767386 4.596573 10.916284
v 8.941664 4.778560 11.252330
v 8.483948 4.037413 10.831511
v 9.203683 4.362507 10.322937
v 10.485082 3.963620 11.257360
v 10.409593 4.083488 11.525124
v 10.512817 4.154653 11.351015
v 10.805774 4.000271 11.198215
v 10.671626 4.213281 11.674044
v 10.804181 4.237875 11.395902
v 10.959814 4.173487 11.468603
v 7.082687 3.740378 10.569431
v 6.503394 3.940098 10.820810
v 6.725475 3.587461 10.033078
v 7.563495 4.087154 10.549745
v 7.165557 3.803847 10.216667
v 7.012372 4.047086 10.760021
v 7.079758 3.881890 10.505257
vn 0.0491 -0.9988 0.0068
vn -0.3560 -0.8863 0.2964
vn 0.3596 -0.8975 0.2554
vn 0.2504 -0.7242 0.6426
vn -0.1510 -0.6811 0.7165
vn 0.6787 0.4724 -0.5623
vn 0.5511 -0.5339 0.6412
vn -0.6572 0.6357 -0.4049
vn -0.6261 0.5917 -0.5078
vn 0.6599 -0.7066 0.2555
vn 0.7995 0.4304 0.4191
vn -0.1387 0.9881 0.0664
vn -0.3014 0.8941 -0.3314
vn 0.0835 0.6145 -0.7845
vn 0.9697 0.1601 -0.1847
vn 0.4846 0.8662 0.1220
vn 0.2166 0.9762 0.0036
vn 0.0395 0.9161 -0.3990
vn 0.3458 0.7131 -0.6098
vn 0.6834 0.5783 -0.4456
vn -0.1724 -0.4037 0.8985
vn 0.0625 -0.9942 -0.0876
vn -0.2079 0.8696 -0.4479
vn -0.2115 0.4548 -0.8651
vn 0.2217 0.8496 0.4787
vn -0.3623 -0.8845 0.2938
vn 0.5292 0.5448 -0.6505
vn -0.2683 0.9624 -0.0428
vn 0.1822 -0.8773 0.4441
vn 0.2844 0.9336 0.2181
vn 0.1977 -0.8727 0.4464
vn -0.8404 0.2093 0.5000
vn 0.4581 -0.8874 -0.0521
vn 0.2032 -0.4828 0.8519
vn -0.2336 0.7865 -0.5718
vn -0.3107 0.8318 -0.4600
vn -0.4744 -0.3717 -0.7980
vn 0.5726 0.2924 -0.7660
vn -0.1800 -0.6093 0.7723
vn 0.1820 -0.9249 -0.3337
vn -0.0640 0.6380 -0.7674
vn 0.4398 0.8517 0.2849
vn -0.4767 0.8758 0.0754
vn 0.4580 -0.8874 -0.0521
vn 0.3969 -0.8862 -0.2392
vn 0.0674 -0.3631 0.9293
s off
f 30//46 31//46 32//46
f 31//47 30//47 35//47
f 30//48 32//48 43//48
f 30//49 43//49 34//49
f 30//50 34//50 35//50
f 40//51 45//51 35//51
f 32//52 31//52 36//52
f 43//53 32//53 42//53
f 34//54 43//54 44//54
f 35//55 34//55 39//55
f 31//56 40//56 36//56
f 32//57 36//57 42//57
f 54//58 58//58 56//58
f 34//59 44//59 39//59
f 35//60 39//60 40//60
f 36//61 40//61 41//61
f 42//62 36//62 41//62
f 44//63 42//63 41//63
f 39//64 44//64 41//64
f 40//65 39//65 41//65
f 37//66 43//66 42//66
f 38//67 43//67 33//67
f 55//68 42//68 44//68
f 47//69 48//69 45//69
f 40//70 46//70 47//70
f 35//71 46//71 31//71
f 48//72 50//72 51//72
f 47//73 49//73 50//73
f 45//74 49//74 46//74
f 50//75 49//75 51//75
f 49//76 48//76 51//76
f 54//77 52//77 58//77
f 52//78 54//78 56//78
f 37//79 57//79 52//79
f 57//80 58//80 53//80
f 37//80 58//80 57//80
f 38//81 58//81 55//81
f 52//82 53//82 58//82
f 40//83 47//83 45//83
f 37//84 33//84 43//84
f 38//85 44//85 43//85
f 44//68 38//68 55//68
f 55//68 37//68 42//68
f 47//86 50//86 48//86
f 40//87 31//87 46//87
f 35//71 45//71 46//71
f 47//88 46//88 49//88
f 45//74 48//74 49//74
f 56//89 38//89 52//89
f 38//90 33//90 52//90
f 52//91 33//91 37//91
f 57//79 53//79 52//79
f 37//81 55//81 58//81
f 38//58 56//58 58//58
o bird_2_Icosphere.132
v 2.589622 7.033044 12.892219
v 3.022240 7.058374 13.487520
v 0.439329 6.946004 15.613867
v 1.356197 6.750066 12.671164
v 1.888248 4.645300 10.474479
v 3.235763 6.719327 12.730145
v 2.526703 7.337699 14.146003
v 1.199944 6.869973 12.729350
v 1.268632 6.760905 12.485710
v 3.146952 6.352821 11.945949
v 3.233227 7.097521 13.044803
v 3.030271 7.230572 12.906227
v 2.357378 7.378876 13.180077
v 1.984379 6.774904 12.837145
v 2.570901 7.039828 12.422701
v 3.615131 6.714770 13.184176
v 3.553614 6.812451 13.402380
v 3.637733 6.870445 13.260496
v 3.876468 6.744637 13.135978
v 3.767148 6.918222 13.523737
v 3.875170 6.938264 13.297075
v 4.001997 6.885793 13.356320
v 0.842472 6.532846 12.623573
v 0.370398 6.695601 12.828424
v 0.551374 6.408232 12.186491
v 1.234288 6.815439 12.607530
v 0.910003 6.584569 12.336101
v 0.785171 6.782787 12.778888
v 0.840085 6.648166 12.571276
vn 0.0491 -0.9988 0.0068
vn -0.3560 -0.8863 0.2964
vn 0.3596 -0.8975 0.2554
vn 0.2504 -0.7242 0.6426
vn -0.1510 -0.6811 0.7165
vn 0.6787 0.4724 -0.5623
vn 0.5511 -0.5339 0.6412
vn -0.6572 0.6357 -0.4049
vn -0.6261 0.5917 -0.5078
vn 0.6599 -0.7066 0.2555
vn 0.7995 0.4304 0.4191
vn -0.1387 0.9881 0.0664
vn -0.3014 0.8941 -0.3314
vn 0.0835 0.6145 -0.7845
vn 0.9697 0.1601 -0.1847
vn 0.4846 0.8662 0.1220
vn 0.2166 0.9762 0.0036
vn 0.0395 0.9161 -0.3990
vn 0.3458 0.7131 -0.6098
vn 0.6834 0.5783 -0.4456
vn -0.1724 -0.4037 0.8985
vn 0.0625 -0.9942 -0.0876
vn -0.2079 0.8696 -0.4479
vn -0.2115 0.4548 -0.8651
vn 0.2217 0.8496 0.4787
vn -0.3623 -0.8845 0.2938
vn 0.5293 0.5448 -0.6505
vn -0.2683 0.9624 -0.0428
vn 0.1822 -0.8773 0.4441
vn 0.2844 0.9336 0.2181
vn 0.1977 -0.8727 0.4464
vn -0.8403 0.2093 0.5000
vn 0.4580 -0.8874 -0.0521
vn 0.2032 -0.4828 0.8519
vn -0.2336 0.7865 -0.5718
vn -0.2336 0.7865 -0.5717
vn -0.3107 0.8318 -0.4600
vn -0.4744 -0.3717 -0.7980
vn 0.5726 0.2924 -0.7660
vn -0.1800 -0.6093 0.7723
vn 0.1820 -0.9249 -0.3337
vn -0.0640 0.6380 -0.7674
vn 0.4398 0.8517 0.2849
vn -0.4767 0.8758 0.0754
vn 0.3969 -0.8862 -0.2392
vn 0.0674 -0.3631 0.9293
s off
f 59//92 60//92 61//92
f 60//93 59//93 64//93
f 59//94 61//94 72//94
f 59//95 72//95 63//95
f 59//96 63//96 64//96
f 69//97 74//97 64//97
f 61//98 60//98 65//98
f 72//99 61//99 71//99
f 63//100 72//100 73//100
f 64//101 63//101 68//101
f 60//102 69//102 65//102
f 61//103 65//103 71//103
f 83//104 87//104 85//104
f 63//105 73//105 68//105
f 64//106 68//106 69//106
f 65//107 69//107 70//107
f 71//108 65//108 70//108
f 73//109 71//109 70//109
f 68//110 73//110 70//110
f 69//111 68//111 70//111
f 66//112 72//112 71//112
f 67//113 72//113 62//113
f 84//114 71//114 73//114
f 76//115 77//115 74//115
f 69//116 75//116 76//116
f 64//117 75//117 60//117
f 77//118 79//118 80//118
f 76//119 78//119 79//119
f 74//120 78//120 75//120
f 79//121 78//121 80//121
f 78//122 77//122 80//122
f 83//123 81//123 87//123
f 81//124 83//124 85//124
f 66//125 86//125 81//125
f 86//126 87//126 82//126
f 66//127 87//127 86//127
f 67//128 87//128 84//128
f 81//129 82//129 87//129
f 69//130 76//130 74//130
f 66//131 62//131 72//131
f 67//132 73//132 72//132
f 73//114 67//114 84//114
f 84//114 66//114 71//114
f 76//133 79//133 77//133
f 69//134 60//134 75//134
f 64//117 74//117 75//117
f 76//135 75//135 78//135
f 74//120 77//120 78//120
f 85//124 67//124 81//124
f 67//136 62//136 81//136
f 81//137 62//137 66//137
f 86//125 82//125 81//125
f 66//128 84//128 87//128
f 67//104 85//104 87//104
