# Blender v2.80 (sub 75) OBJ File: 'dream.blend'
# www.blender.org
o dog_dog.001
v -16.101892 -39.053326 2.368979
v -16.220510 -39.102386 2.524345
v -16.008909 -39.148788 2.447021
v -16.074144 -39.294838 2.411384
v -16.264996 -39.201981 2.500041
v -16.191881 -39.254791 2.319818
v -16.374893 -38.994766 2.526257
v -16.447140 -39.156513 2.486789
v -16.552320 -39.277058 2.622159
v -16.384647 -38.901672 2.713758
v -16.379362 -39.243793 2.445712
v -16.259556 -38.975571 2.511161
v -16.770500 -39.110168 1.761107
v -16.763971 -39.038139 2.029795
v -16.721407 -39.028080 1.753208
v -16.894003 -38.279778 1.613018
v -16.965862 -38.142971 1.294933
v -16.901550 -38.152763 1.613018
v -16.600164 -39.348755 1.286395
v -16.649488 -39.168762 1.604479
v -16.576048 -39.272659 1.604479
v -16.629457 -39.175930 2.094342
v -16.669525 -38.951897 2.166378
v -16.679947 -39.346100 1.604479
v -17.021013 -38.287323 1.613018
v -16.753387 -39.242203 1.604479
v -17.028561 -38.160313 1.613018
v -16.423424 -39.064743 1.822216
v -16.592054 -39.204380 1.761107
v -16.544622 -39.282539 1.845587
v -16.980921 -38.144073 1.924690
v -17.006876 -38.348488 1.824438
v -16.817038 -38.303650 1.772179
v -16.876253 -38.119987 1.798400
v -16.772125 -38.074379 2.095708
v -16.754148 -37.946636 2.337811
v -16.810806 -38.019287 2.074123
v -16.753445 -37.958488 2.052537
v -16.730574 -38.343353 1.763522
v -16.799150 -38.096191 1.838533
v -16.802740 -38.035778 1.936188
v -16.731951 -38.320160 2.056786
v -16.264793 -38.752716 1.761107
v -16.334873 -38.734833 2.029795
v -16.358555 -38.771606 1.753208
v -16.575825 -38.260868 1.613018
v -16.520674 -38.116516 1.294933
v -16.583372 -38.133858 1.613018
v -15.975371 -39.215271 1.512552
v -16.230667 -38.924042 1.644823
v -16.173477 -39.031731 1.681162
v -16.249861 -38.907616 2.094342
v -16.447685 -38.795090 2.166378
v -16.061684 -38.971092 1.684926
v -16.448816 -38.253319 1.613018
v -16.118874 -38.863403 1.648587
v -16.456362 -38.126312 1.613018
v -16.235523 -38.952370 1.761107
v -16.177670 -39.023163 1.845587
v -16.505590 -38.115826 1.924690
v -16.455608 -38.315727 1.824438
v -16.649422 -38.293690 1.772179
v -16.612373 -38.104309 1.798400
v -16.721172 -38.071350 2.095708
v -16.689287 -38.012066 2.074123
v -16.691753 -38.089809 1.838533
v -16.695343 -38.029396 1.936188
v -16.034931 -39.268082 2.362321
v -16.013353 -39.146149 2.311961
v -16.055670 -39.240887 2.288843
v -15.992614 -39.173340 2.385437
v -16.202442 -39.207390 2.287984
v -16.340460 -38.987576 2.393131
v -16.405674 -39.133575 2.357506
v -16.137230 -39.061390 2.323610
v -16.394770 -39.250484 1.986181
v -16.241842 -39.142391 1.986181
v -16.540352 -39.212944 2.126574
v -16.228655 -38.992622 2.126574
v -16.384399 -39.102932 2.179713
v -16.322470 -38.970116 2.240649
v -16.530268 -39.116997 2.240649
v -16.504536 -38.932968 2.337587
v -16.887585 -38.731293 2.074667
v -16.567844 -38.614914 2.074667
v -16.903543 -38.687447 1.737621
v -16.583801 -38.571072 1.737621
vn 0.3598 0.7751 0.5194
vn 0.2574 -0.3360 0.9060
vn -0.3941 -0.9127 0.1076
vn -0.1173 -0.1857 0.9756
vn 0.1212 0.6927 0.7110
vn -0.5318 -0.7692 0.3542
vn 0.2948 -0.9492 0.1101
vn 0.8558 0.3068 0.4165
vn -0.8575 0.5018 -0.1137
vn 0.9789 0.0582 -0.1961
vn 0.8007 0.5660 -0.1961
vn -0.6634 -0.3339 0.6696
vn 0.5707 -0.8074 0.1499
vn 0.0542 -0.9128 -0.4048
vn -0.7455 -0.6390 0.1894
vn -0.8007 -0.5660 -0.1961
vn -0.9789 -0.0581 -0.1961
vn -0.5054 0.7150 -0.4830
vn -0.0593 0.9973 0.0427
vn 0.2390 0.1323 -0.9620
vn -0.7854 -0.5552 0.2738
vn -0.1692 -0.9255 0.3389
vn 0.5738 -0.8118 -0.1081
vn -0.8557 -0.4380 0.2757
vn 0.8945 0.4361 -0.0987
vn 0.8053 0.5692 -0.1659
vn 0.4667 0.8839 0.0299
vn -0.4615 0.6528 -0.6007
vn -0.9864 -0.0586 0.1538
vn -0.9926 0.0819 0.0901
vn 0.0569 -0.9580 -0.2810
vn 0.1652 -0.9605 -0.2240
vn 0.9021 0.0536 -0.4282
vn 0.9275 0.3253 -0.1841
vn -0.2401 0.9706 -0.0139
vn -0.0585 0.9844 -0.1661
vn -0.8314 -0.4637 0.3064
vn -0.7323 0.6803 -0.0301
vn 0.0428 0.3010 -0.9527
vn 0.3849 0.2509 -0.8882
vn 0.0112 0.8505 -0.5258
vn -0.4914 0.8349 -0.2480
vn -0.7432 0.6579 -0.1221
vn -0.5087 0.8509 -0.1315
vn -0.2049 -0.2391 -0.9491
vn -0.6057 -0.1169 0.7871
vn -0.5736 -0.2188 0.7894
vn -0.6003 -0.2894 0.7456
vn -0.0385 -0.0729 -0.9966
vn -0.1870 0.9758 -0.1137
vn -0.9789 -0.0582 -0.1961
vn -0.7783 -0.5280 -0.3397
vn 0.5362 0.5140 0.6696
vn 0.2435 -0.5005 0.8308
vn 0.0543 -0.9128 -0.4048
vn 0.8512 0.4895 0.1894
vn 0.8932 0.4231 -0.1520
vn -0.1357 0.3086 -0.9415
vn -0.2045 -0.1812 -0.9620
vn 0.8023 0.5231 0.2876
vn 0.7915 -0.4333 0.4310
vn 0.4745 -0.8784 0.0579
vn 0.7059 0.6538 0.2723
vn -0.7816 -0.6237 0.0126
vn -0.8489 -0.5042 -0.1583
vn -0.9865 -0.1446 -0.0764
vn -0.2487 0.5096 -0.8237
vn 0.9864 0.0586 0.1538
vn 0.9759 0.1988 0.0900
vn -0.0503 -0.9733 -0.2239
vn -0.9021 -0.0536 -0.4282
vn -0.9595 0.2132 -0.1841
vn 0.1234 0.9923 -0.0139
vn 0.8804 -0.3620 0.3064
vn 0.6466 0.7622 -0.0301
vn -0.0782 0.2938 -0.9527
vn -0.4119 0.2036 -0.8882
vn -0.1118 0.8432 -0.5258
vn 0.3891 0.8872 -0.2481
vn 0.6601 0.7412 -0.1221
vn 0.4043 0.9051 -0.1315
vn 0.2317 -0.2131 -0.9492
vn 0.6153 -0.0443 0.7871
vn 0.5954 -0.1493 0.7894
vn 0.6303 -0.2163 0.7456
vn 0.0815 0.0120 -0.9966
vn -0.0500 0.8416 -0.5378
vn -0.0504 0.8485 -0.5268
vn -0.0170 0.2860 -0.9581
vn 0.0526 -0.8848 0.4629
vn 0.0092 -0.1549 0.9879
vn 0.8810 -0.3052 -0.3616
vn 0.8003 -0.4533 0.3924
vn 0.7423 0.6664 -0.0692
vn 0.0462 -0.8921 -0.4496
vn 0.7358 0.6758 0.0424
vn 0.0158 -0.9363 -0.3509
vn -0.1064 -0.1352 -0.9851
vn 0.1938 0.5369 -0.8211
vn -0.2021 0.3164 -0.9268
vn 0.0545 0.2137 -0.9754
vn 0.4604 0.7402 -0.4901
vn -0.1259 -0.5722 -0.8104
vn 0.2189 0.9170 -0.3335
vn -0.4433 -0.5657 -0.6953
vn -0.5098 -0.8040 -0.3061
vn 0.2752 0.9535 0.1227
vn 0.1832 -0.6881 -0.7021
vn 0.5875 -0.4023 -0.7021
vn 0.4029 -0.5700 -0.7161
vn 0.1891 -0.7898 -0.5835
vn 0.6639 -0.4347 -0.6085
vn -0.0182 -0.9704 0.2406
vn 0.9416 -0.2706 0.2003
vn 0.9469 0.2894 0.1404
vn -0.4415 -0.8694 0.2221
vn 0.4968 -0.7028 0.5092
vn 0.5980 -0.5756 0.5578
vn 0.3430 -0.7557 0.5578
vn 0.7474 0.3903 0.5377
vn -0.4824 -0.6489 0.5884
vn 0.5902 -0.5474 0.5933
vn 0.3191 -0.7390 0.5934
vn -0.5232 0.7402 0.4224
vn -0.7756 0.2004 0.5986
vn -0.7161 -0.3265 0.6170
vn 0.5557 0.6285 0.5443
vn 0.4665 0.6068 0.6436
vn -0.6794 -0.2653 0.6841
vn -0.6788 -0.2660 0.6844
vn 0.3708 -0.5245 0.7664
vn 0.4659 -0.6592 -0.5902
vn 0.9060 -0.4191 0.0589
vn 0.2694 0.9527 0.1409
vn 0.2757 0.9534 0.1227
vn -0.8282 -0.4423 -0.3441
vn -0.6774 -0.2661 0.6859
vn -0.6780 -0.2661 0.6852
vn -0.0183 0.0504 0.9986
vn -0.2252 0.3185 0.9208
vn -0.1058 0.2907 0.9509
vn 0.1867 -0.2641 -0.9463
vn 0.0235 -0.0332 -0.9992
vn 0.0200 -0.0551 -0.9983
vn -0.0334 0.0917 -0.9952
vn -0.2150 0.1803 -0.9598
vn 0.1884 0.2300 -0.9548
vn -0.6373 0.2726 0.7208
vn 0.5934 0.3736 0.7129
vn 0.9023 -0.4199 -0.0973
vn -0.9560 -0.2933 0.0071
vn -0.6463 -0.3588 0.6735
vn 0.4449 0.6238 0.6427
vn 0.4284 0.8902 -0.1550
vn -0.9240 -0.3496 -0.1549
vn -0.8813 -0.4721 -0.0197
vn 0.6610 0.7475 0.0659
vn 0.4735 0.6691 0.5728
vn 0.2574 -0.3361 0.9060
vn -0.2505 -0.9518 0.1773
vn -0.1173 -0.1856 0.9756
vn 0.8809 -0.3053 -0.3616
vn 0.8003 -0.4532 0.3925
vn -0.2033 0.8727 -0.4439
vn -0.6813 -0.1972 -0.7050
s off
f 1//1 2//1 3//1
f 2//2 4//2 3//2
f 5//3 6//3 4//3
f 7//4 5//4 2//4
f 5//5 8//5 9//5
f 7//6 2//6 10//6
f 9//7 11//7 5//7
f 10//8 2//8 12//8
f 13//9 14//9 15//9
f 16//10 17//10 18//10
f 19//11 20//11 21//11
f 14//12 22//12 23//12
f 21//13 24//13 19//13
f 16//14 25//14 17//14
f 13//15 22//15 14//15
f 24//16 26//16 19//16
f 25//17 27//17 17//17
f 26//18 20//18 19//18
f 18//19 17//19 27//19
f 28//20 29//20 15//20
f 24//21 22//21 26//21
f 22//22 24//22 30//22
f 24//23 21//23 30//23
f 22//24 13//24 26//24
f 30//25 21//25 29//25
f 21//26 20//26 29//26
f 29//27 20//27 13//27
f 20//28 26//28 13//28
f 31//29 27//29 25//29
f 32//30 31//30 25//30
f 25//31 16//31 32//31
f 32//32 16//32 33//32
f 16//33 18//33 33//33
f 33//34 18//34 34//34
f 31//35 34//35 27//35
f 18//36 27//36 34//36
f 35//37 36//37 37//37
f 37//38 36//38 38//38
f 39//39 33//39 40//39
f 33//40 34//40 40//40
f 40//41 34//41 41//41
f 34//42 31//42 41//42
f 38//43 41//43 37//43
f 41//44 31//44 37//44
f 33//45 39//45 32//45
f 37//46 31//46 35//46
f 31//47 42//47 35//47
f 32//48 42//48 31//48
f 29//49 13//49 15//49
f 43//50 45//50 44//50
f 46//51 48//51 47//51
f 49//52 51//52 50//52
f 44//53 53//53 52//53
f 51//54 49//54 54//54
f 46//55 47//55 55//55
f 43//56 44//56 52//56
f 54//57 49//57 56//57
f 55//10 47//10 57//10
f 56//58 49//58 50//58
f 48//19 57//19 47//19
f 28//59 45//59 58//59
f 54//60 56//60 52//60
f 52//61 59//61 54//61
f 54//62 59//62 51//62
f 52//63 56//63 43//63
f 59//64 58//64 51//64
f 51//65 58//65 50//65
f 58//66 43//66 50//66
f 50//67 43//67 56//67
f 60//68 55//68 57//68
f 61//69 55//69 60//69
f 55//31 61//31 46//31
f 61//70 62//70 46//70
f 46//71 62//71 48//71
f 62//72 63//72 48//72
f 60//73 57//73 63//73
f 48//36 63//36 57//36
f 64//74 65//74 36//74
f 65//75 38//75 36//75
f 39//76 66//76 62//76
f 62//77 66//77 63//77
f 66//78 67//78 63//78
f 63//79 67//79 60//79
f 38//80 65//80 67//80
f 67//81 65//81 60//81
f 62//82 61//82 39//82
f 65//83 64//83 60//83
f 60//84 64//84 42//84
f 61//85 60//85 42//85
f 58//86 45//86 43//86
f 41//87 38//87 67//87
f 67//88 66//88 41//88
f 41//88 66//88 40//88
f 40//89 66//89 39//89
f 35//90 64//90 36//90
f 42//91 64//91 35//91
f 68//92 70//92 69//92
f 4//93 71//93 3//93
f 1//94 3//94 71//94
f 4//95 6//95 68//95
f 71//96 69//96 1//96
f 68//97 6//97 70//97
f 12//98 2//98 7//98
f 11//99 8//99 5//99
f 72//100 74//100 73//100
f 75//101 69//101 72//101
f 69//101 70//101 72//101
f 1//102 69//102 75//102
f 6//103 72//103 70//103
f 75//104 73//104 1//104
f 72//105 6//105 74//105
f 6//106 8//106 74//106
f 1//107 73//107 7//107
f 58//108 59//108 28//108
f 29//109 28//109 30//109
f 76//110 28//110 77//110
f 28//111 59//111 77//111
f 28//112 76//112 30//112
f 76//113 78//113 30//113
f 77//114 59//114 79//114
f 59//115 52//115 79//115
f 30//116 78//116 22//116
f 77//117 80//117 76//117
f 79//118 80//118 77//118
f 76//119 80//119 78//119
f 79//120 52//120 81//120
f 78//121 82//121 22//121
f 81//122 80//122 79//122
f 78//123 80//123 82//123
f 83//124 53//124 23//124
f 83//125 8//125 7//125
f 22//126 82//126 23//126
f 52//127 53//127 81//127
f 83//128 81//128 53//128
f 23//129 82//129 83//130
f 80//131 81//131 82//131
f 74//132 82//132 81//132
f 74//133 81//133 73//133
f 81//134 83//134 73//134
f 7//135 73//135 83//135
f 74//136 8//136 83//136
f 83//137 82//138 74//138
f 42//139 84//139 85//139
f 53//140 85//140 23//140
f 85//141 84//141 23//141
f 28//142 15//142 45//142
f 15//143 86//143 45//143
f 86//144 87//144 45//144
f 39//145 87//145 86//145
f 39//146 86//146 32//146
f 39//147 61//147 87//147
f 42//148 32//148 84//148
f 61//149 42//149 85//149
f 87//150 61//150 85//150
f 86//151 84//151 32//151
f 23//152 84//152 14//152
f 44//153 85//153 53//153
f 45//154 85//154 44//154
f 15//155 14//155 84//155
f 86//156 15//156 84//156
f 45//157 87//157 85//157
f 1//158 7//158 2//158
f 2//159 5//159 4//159
f 5//160 8//160 6//160
f 7//161 8//161 5//161
f 68//162 69//162 71//162
f 4//163 68//163 71//163
f 72//100 73//100 75//100
f 10//164 12//164 7//164
f 9//165 8//165 11//165
