# Blender v2.80 (sub 75) OBJ File: 'dream.blend'
# www.blender.org
o dog_dog.001
v -13.950936 -30.723038 2.062378
v -14.069554 -30.772097 2.217744
v -13.857953 -30.818501 2.140421
v -13.923188 -30.964550 2.104783
v -14.114040 -30.871693 2.193441
v -14.040925 -30.924503 2.013218
v -14.223938 -30.664478 2.219656
v -14.296185 -30.826225 2.180188
v -14.401365 -30.946770 2.315559
v -14.233691 -30.571383 2.407158
v -14.228407 -30.913506 2.139111
v -14.108602 -30.645283 2.204560
v -14.619544 -30.779881 1.454506
v -14.613016 -30.707850 1.723194
v -14.570452 -30.697792 1.446607
v -14.743048 -29.949488 1.306417
v -14.814906 -29.812683 0.988332
v -14.750595 -29.822477 1.306417
v -14.449209 -31.018467 0.979794
v -14.498532 -30.838474 1.297878
v -14.425093 -30.942371 1.297878
v -14.478502 -30.845642 1.787741
v -14.518569 -30.621609 1.859778
v -14.528992 -31.015812 1.297878
v -14.870057 -29.957035 1.306417
v -14.602431 -30.911913 1.297878
v -14.877605 -29.830025 1.306417
v -14.272469 -30.734455 1.515615
v -14.441099 -30.874092 1.454506
v -14.393667 -30.952251 1.538986
v -14.829966 -29.813786 1.618089
v -14.855922 -30.018200 1.517837
v -14.666082 -29.973362 1.465578
v -14.725298 -29.789701 1.491799
v -14.621169 -29.744091 1.789107
v -14.603193 -29.616348 2.031210
v -14.659851 -29.688999 1.767522
v -14.602489 -29.628201 1.745937
v -14.579618 -30.013067 1.456921
v -14.648194 -29.765903 1.531932
v -14.651784 -29.705490 1.629587
v -14.580997 -29.989874 1.750185
v -14.113837 -30.422428 1.454506
v -14.183917 -30.404547 1.723194
v -14.207601 -30.441317 1.446607
v -14.424870 -29.930580 1.306417
v -14.369720 -29.786228 0.988332
v -14.432418 -29.803570 1.306417
v -13.824416 -30.884985 1.205952
v -14.079712 -30.593754 1.338222
v -14.022521 -30.701443 1.374561
v -14.098907 -30.577328 1.787741
v -14.296730 -30.464804 1.859778
v -13.910729 -30.640806 1.378325
v -14.297860 -29.923033 1.306417
v -13.967918 -30.533115 1.341986
v -14.305408 -29.796022 1.306417
v -14.084567 -30.622080 1.454506
v -14.026714 -30.692875 1.538986
v -14.354635 -29.785538 1.618089
v -14.304652 -29.985441 1.517837
v -14.498466 -29.963402 1.465578
v -14.461418 -29.774021 1.491799
v -14.570216 -29.741062 1.789107
v -14.538331 -29.681778 1.767522
v -14.540798 -29.759521 1.531932
v -14.544389 -29.699108 1.629587
v -13.883975 -30.937794 2.055720
v -13.862397 -30.815859 2.005360
v -13.904715 -30.910599 1.982242
v -13.841659 -30.843052 2.078837
v -14.051487 -30.877100 1.981383
v -14.189506 -30.657288 2.086530
v -14.254719 -30.803288 2.050905
v -13.986275 -30.731102 2.017009
v -14.243814 -30.920197 1.679580
v -14.090886 -30.812103 1.679580
v -14.389398 -30.882656 1.819973
v -14.077700 -30.662336 1.819973
v -14.233444 -30.772644 1.873112
v -14.171515 -30.639828 1.934048
v -14.379313 -30.786707 1.934048
v -14.353580 -30.602680 2.030986
v -14.736630 -30.401003 1.768067
v -14.416888 -30.284626 1.768067
v -14.752588 -30.357159 1.431020
v -14.432846 -30.240784 1.431020
vn 0.3598 0.7751 0.5195
vn 0.2574 -0.3360 0.9060
vn -0.3941 -0.9127 0.1076
vn -0.1173 -0.1856 0.9756
vn -0.1173 -0.1857 0.9756
vn 0.4459 -0.4275 0.7864
vn 0.1212 0.6927 0.7110
vn 0.3766 0.0621 0.9243
vn -0.5318 -0.7692 0.3543
vn 0.5909 -0.7854 -0.1843
vn 0.0531 -0.6620 0.7476
vn 0.2948 -0.9492 0.1100
vn 0.8435 0.2082 -0.4952
vn -0.8575 0.5018 -0.1137
vn 0.9789 0.0582 -0.1961
vn 0.8007 0.5660 -0.1961
vn -0.6634 -0.3340 0.6696
vn 0.5707 -0.8074 0.1499
vn 0.0542 -0.9128 -0.4048
vn -0.7455 -0.6390 0.1894
vn -0.8007 -0.5660 -0.1961
vn -0.9789 -0.0582 -0.1961
vn -0.5054 0.7150 -0.4830
vn -0.0593 0.9973 0.0427
vn 0.2391 0.1323 -0.9620
vn -0.7854 -0.5551 0.2738
vn -0.1692 -0.9255 0.3389
vn 0.5738 -0.8118 -0.1081
vn -0.8556 -0.4380 0.2757
vn 0.8945 0.4361 -0.0987
vn 0.8053 0.5692 -0.1658
vn 0.4667 0.8839 0.0299
vn -0.4614 0.6528 -0.6007
vn -0.9864 -0.0586 0.1538
vn -0.9926 0.0819 0.0900
vn 0.0569 -0.9580 -0.2810
vn 0.1652 -0.9605 -0.2239
vn 0.9021 0.0536 -0.4282
vn 0.9275 0.3253 -0.1841
vn -0.2401 0.9707 -0.0139
vn -0.0585 0.9844 -0.1661
vn -0.8313 -0.4637 0.3064
vn -0.7324 0.6803 -0.0301
vn -0.0593 0.9974 -0.0416
vn -0.0445 0.1193 -0.9919
vn -0.0569 0.0211 -0.9982
vn 0.1415 0.6613 -0.7367
vn -0.0042 0.6948 -0.7192
vn -0.3309 0.8734 -0.3572
vn -0.4914 0.8349 -0.2480
vn -0.7432 0.6578 -0.1221
vn -0.5087 0.8509 -0.1315
vn -0.2048 -0.2391 -0.9491
vn -0.6057 -0.1169 0.7871
vn -0.5736 -0.2188 0.7894
vn -0.6003 -0.2894 0.7456
vn -0.0385 -0.0729 -0.9966
vn -0.1870 0.9758 -0.1137
vn -0.7783 -0.5280 -0.3397
vn 0.5362 0.5140 0.6696
vn 0.2435 -0.5004 0.8308
vn 0.8512 0.4895 0.1894
vn 0.8933 0.4231 -0.1520
vn -0.1357 0.3086 -0.9415
vn 0.0591 -0.2411 -0.9687
vn -0.0170 -0.2255 -0.9741
vn -0.2045 -0.1812 -0.9620
vn 0.8023 0.5231 0.2876
vn 0.7915 -0.4333 0.4310
vn 0.4745 -0.8784 0.0579
vn 0.7059 0.6538 0.2723
vn -0.7816 -0.6237 0.0126
vn -0.8489 -0.5043 -0.1583
vn -0.9865 -0.1446 -0.0764
vn -0.2487 0.5096 -0.8237
vn 0.9864 0.0586 0.1538
vn 0.9759 0.1989 0.0901
vn -0.0503 -0.9733 -0.2240
vn -0.9021 -0.0536 -0.4282
vn -0.9595 0.2132 -0.1841
vn 0.1234 0.9923 -0.0139
vn 0.5428 -0.7142 0.4419
vn 0.8804 -0.3620 0.3064
vn 0.6093 -0.6681 0.4271
vn 0.6466 0.7622 -0.0301
vn 0.0188 0.1632 -0.9864
vn -0.1628 0.5475 -0.8208
vn 0.0540 0.0277 -0.9982
vn -0.0781 0.6903 -0.7193
vn 0.2252 0.9065 -0.3573
vn 0.3891 0.8872 -0.2481
vn 0.4197 0.8530 -0.3103
vn 0.6601 0.7412 -0.1221
vn 0.2051 0.8779 -0.4326
vn 0.4043 0.9051 -0.1315
vn 0.2317 -0.2131 -0.9492
vn 0.6153 -0.0443 0.7871
vn 0.5954 -0.1493 0.7894
vn 0.3048 -0.1601 0.9389
vn 0.5072 -0.1546 0.8478
vn 0.6303 -0.2163 0.7456
vn 0.0816 0.0120 -0.9966
vn -0.0500 0.8416 -0.5378
vn -0.0504 0.8485 -0.5268
vn -0.0170 0.2861 -0.9581
vn 0.0526 -0.8848 0.4630
vn 0.0092 -0.1549 0.9879
vn 0.9049 -0.4204 0.0664
vn 0.8809 -0.3052 -0.3616
vn 0.8003 -0.4532 0.3925
vn 0.7399 0.6726 -0.0082
vn 0.7423 0.6664 -0.0693
vn 0.7405 0.6718 -0.0183
vn 0.0462 -0.8921 -0.4496
vn 0.0296 -0.9177 -0.3962
vn 0.0323 -0.9137 -0.4051
vn 0.7358 0.6758 0.0424
vn 0.0158 -0.9362 -0.3510
vn -0.1064 -0.1352 -0.9851
vn 0.1938 0.5369 -0.8211
vn -0.2021 0.3164 -0.9268
vn 0.0545 0.2137 -0.9754
vn 0.4603 0.7402 -0.4901
vn -0.1259 -0.5722 -0.8104
vn 0.2189 0.9170 -0.3335
vn 0.2720 0.9594 0.0746
vn 0.2399 0.9477 -0.2105
vn -0.4433 -0.5658 -0.6952
vn -0.4721 -0.6464 -0.5994
vn -0.5079 -0.7865 -0.3514
vn -0.5098 -0.8040 -0.3062
vn 0.2752 0.9535 0.1227
vn 0.1832 -0.6881 -0.7021
vn 0.5876 -0.4023 -0.7021
vn 0.4029 -0.5700 -0.7161
vn 0.2979 -0.6919 -0.6576
vn 0.3007 -0.6891 -0.6593
vn 0.1891 -0.7898 -0.5835
vn 0.6639 -0.4347 -0.6085
vn -0.0182 -0.9704 0.2406
vn 0.9416 -0.2706 0.2003
vn 0.9469 0.2894 0.1404
vn -0.4415 -0.8694 0.2220
vn 0.5425 -0.6500 0.5321
vn 0.5540 -0.6356 0.5377
vn 0.4968 -0.7028 0.5092
vn 0.5980 -0.5756 0.5578
vn 0.3431 -0.7558 0.5578
vn 0.7474 0.3903 0.5376
vn -0.4824 -0.6489 0.5884
vn 0.5901 -0.5474 0.5934
vn 0.3191 -0.7390 0.5934
vn 0.3577 -0.5961 0.7188
vn 0.3382 -0.6773 0.6534
vn -0.5232 0.7402 0.4224
vn -0.7756 0.2004 0.5986
vn -0.7161 -0.3265 0.6170
vn 0.5557 0.6285 0.5443
vn 0.5073 0.6179 0.6008
vn 0.5152 0.6198 0.5919
vn 0.4665 0.6068 0.6436
vn -0.6794 -0.2653 0.6841
vn -0.5702 -0.6394 0.5158
vn -0.6781 -0.2658 0.6852
vn 0.3708 -0.5245 0.7664
vn -0.0649 -0.9953 -0.0720
vn 0.4659 -0.6592 -0.5903
vn 0.9060 -0.4191 0.0589
vn 0.8557 0.4929 0.1574
vn 0.9261 0.3467 0.1490
vn 0.2694 0.9527 0.1409
vn 0.2757 0.9534 0.1228
vn -0.8282 -0.4423 -0.3441
vn 0.3669 0.2585 0.8936
vn -0.0183 0.0504 0.9986
vn 0.2529 0.1983 0.9470
vn 0.0884 0.4981 0.8626
vn 0.0997 0.5034 0.8583
vn -0.2252 0.3185 0.9208
vn -0.1058 0.2907 0.9509
vn 0.1866 -0.2641 -0.9463
vn 0.0235 -0.0332 -0.9992
vn 0.0200 -0.0551 -0.9983
vn 0.0834 0.1655 -0.9827
vn 0.0634 0.1530 -0.9862
vn -0.0334 0.0917 -0.9952
vn -0.2150 0.1803 -0.9598
vn 0.1884 0.2300 -0.9548
vn -0.6373 0.2726 0.7208
vn 0.5934 0.3736 0.7129
vn 0.9771 0.2121 -0.0187
vn 0.9023 -0.4199 -0.0973
vn 0.8622 0.5008 -0.0764
vn -0.9560 -0.2933 0.0071
vn -0.6463 -0.3588 0.6735
vn 0.4449 0.6238 0.6426
vn 0.5716 0.8201 -0.0276
vn 0.4284 0.8902 -0.1550
vn -0.9240 -0.3496 -0.1549
vn -0.8813 -0.4721 -0.0197
vn 0.4735 0.6691 0.5728
vn 0.2574 -0.3361 0.9060
vn -0.2505 -0.9518 0.1773
vn 0.9107 -0.3554 -0.2105
s 1
f 1//1 2//1 3//1
f 2//2 4//2 3//2
f 5//3 6//3 4//3
f 7//4 5//4 2//5
f 5//6 8//7 9//8
f 7//9 2//10 10//11
f 9//8 11//12 5//6
f 10//11 2//10 12//13
f 13//14 14//14 15//14
f 16//15 17//15 18//15
f 19//16 20//16 21//16
f 14//17 22//17 23//17
f 21//18 24//18 19//18
f 16//19 25//19 17//19
f 13//20 22//20 14//20
f 24//21 26//21 19//21
f 25//22 27//22 17//22
f 26//23 20//23 19//23
f 18//24 17//24 27//24
f 28//25 29//25 15//25
f 24//26 22//26 26//26
f 22//27 24//27 30//27
f 24//28 21//28 30//28
f 22//29 13//29 26//29
f 30//30 21//30 29//30
f 21//31 20//31 29//31
f 29//32 20//32 13//32
f 20//33 26//33 13//33
f 31//34 27//34 25//34
f 32//35 31//35 25//35
f 25//36 16//36 32//36
f 32//37 16//37 33//37
f 16//38 18//38 33//38
f 33//39 18//39 34//39
f 31//40 34//40 27//40
f 18//41 27//41 34//41
f 35//42 36//42 37//42
f 37//43 36//44 38//44
f 39//45 33//46 40//47
f 33//46 34//48 40//47
f 40//47 34//48 41//49
f 34//48 31//50 41//49
f 38//51 41//51 37//51
f 41//52 31//52 37//52
f 33//46 39//45 32//53
f 37//54 31//54 35//54
f 31//55 42//55 35//55
f 32//56 42//56 31//56
f 29//57 13//57 15//57
f 43//58 45//58 44//58
f 46//22 48//22 47//22
f 49//59 51//59 50//59
f 44//60 53//60 52//60
f 51//61 49//61 54//61
f 46//19 47//19 55//19
f 43//62 44//62 52//62
f 54//63 49//63 56//63
f 55//15 47//15 57//15
f 56//64 49//64 50//64
f 48//24 57//24 47//24
f 28//65 45//66 58//67
f 54//68 56//68 52//68
f 52//69 59//69 54//69
f 54//70 59//70 51//70
f 52//71 56//71 43//71
f 59//72 58//72 51//72
f 51//73 58//73 50//73
f 58//74 43//74 50//74
f 50//75 43//75 56//75
f 60//76 55//76 57//76
f 61//77 55//77 60//77
f 55//36 61//36 46//36
f 61//78 62//78 46//78
f 46//79 62//79 48//79
f 62//80 63//80 48//80
f 60//81 57//81 63//81
f 48//41 63//41 57//41
f 64//82 65//83 36//84
f 65//85 38//44 36//44
f 39//86 66//87 62//88
f 62//88 66//87 63//89
f 66//87 67//90 63//89
f 63//89 67//90 60//91
f 38//92 65//93 67//94
f 67//95 65//95 60//95
f 62//88 61//96 39//86
f 65//97 64//97 60//97
f 60//98 64//99 42//100
f 61//101 60//101 42//101
f 58//102 45//102 43//102
f 41//103 38//92 67//94
f 67//104 66//104 41//104
f 41//104 66//104 40//104
f 40//105 66//87 39//86
f 35//106 64//82 36//84
f 42//100 64//99 35//107
f 68//108 70//109 69//109
f 4//110 71//110 3//110
f 1//111 3//112 71//113
f 4//114 6//115 68//116
f 71//113 69//117 1//111
f 68//116 6//115 70//118
f 12//13 2//10 7//119
f 11//120 8//120 5//120
f 72//121 74//121 73//121
f 75//122 69//122 72//122
f 69//122 70//122 72//122
f 1//123 69//123 75//123
f 6//124 72//124 70//124
f 75//125 73//126 1//127
f 72//128 6//129 74//130
f 6//129 8//131 74//130
f 1//127 73//126 7//132
f 58//133 59//133 28//133
f 29//134 28//134 30//134
f 76//135 28//136 77//137
f 28//136 59//138 77//137
f 28//139 76//139 30//139
f 76//140 78//140 30//140
f 77//141 59//141 79//141
f 59//142 52//142 79//142
f 30//143 78//143 22//143
f 77//144 80//145 76//146
f 79//147 80//145 77//144
f 76//148 80//148 78//148
f 79//149 52//149 81//149
f 78//150 82//150 22//150
f 81//151 80//151 79//151
f 78//152 80//153 82//154
f 83//155 53//155 23//155
f 83//156 8//156 7//156
f 22//157 82//157 23//157
f 52//158 53//159 81//160
f 83//161 81//160 53//159
f 23//162 82//163 83//164
f 80//153 81//165 82//154
f 74//166 82//163 81//167
f 74//168 81//169 73//170
f 81//169 83//171 73//170
f 7//172 73//172 83//172
f 74//173 8//173 83//173
f 83//164 82//163 74//166
f 42//174 84//175 85//176
f 53//177 85//178 23//179
f 85//180 84//180 23//180
f 28//65 15//181 45//66
f 15//182 86//182 45//182
f 86//183 87//183 45//183
f 39//184 87//185 86//186
f 39//187 86//187 32//187
f 39//184 61//188 87//185
f 42//189 32//189 84//189
f 61//190 42//174 85//176
f 87//191 61//192 85//193
f 86//194 84//194 32//194
f 23//195 84//195 14//195
f 44//196 85//178 53//177
f 45//197 85//193 44//198
f 15//199 14//199 84//199
f 86//200 15//200 84//200
f 45//197 87//191 85//193
f 1//201 7//201 2//201
f 2//2 5//202 4//2
f 5//203 8//203 6//203
f 7//4 8//4 5//4
f 68//108 69//109 71//204
f 4//110 68//108 71//204
f 72//121 73//121 75//121
