# Blender v2.80 (sub 75) OBJ File: 'dream.blend'
# www.blender.org
v -11.042148 -9.169527 3.513519
v -10.902607 -9.037131 3.375878
v -11.036323 -8.811460 3.386138
v -10.994730 -9.268442 3.173800
v -11.015228 -8.934607 2.624156
v -11.141829 -8.810468 3.069046
v -11.031495 -8.873190 3.052483
v -10.841807 -8.729863 2.887869
v -10.975895 -8.801691 2.761400
v -10.796175 -8.953589 3.141674
v -10.721961 -8.953589 2.887869
v -10.848432 -9.150271 3.141674
v -10.856050 -9.025418 2.761400
v -10.836775 -8.715640 2.205551
v -11.162666 -8.821472 3.264446
v -11.236385 -9.299345 3.517817
v -10.974453 -9.200874 3.386892
v -11.303744 -8.877713 3.396756
v -11.379424 -8.831166 3.162637
v -11.184136 -8.792785 2.570735
v -11.207017 -9.354169 3.084015
v -10.972763 -9.187372 2.570735
v -11.169870 -8.933615 3.488928
v -10.922674 -8.794440 3.141674
v -10.967223 -8.897428 2.223262
v -11.193063 -8.732151 2.127703
v -10.987958 -9.229449 2.129009
v -11.249069 -9.275667 2.085756
v -11.125773 -8.872497 2.368037
v -11.389393 -9.013712 2.085756
v -11.187000 -8.918838 1.738938
v -11.025024 -9.206331 2.601213
v -11.377516 -8.873478 1.773987
v -11.325675 -8.685224 1.812143
v -11.135159 -8.730585 1.777094
v -11.129175 -8.928440 1.149431
v -11.238330 -8.986912 1.149431
v -11.206484 -8.784120 1.149431
v -11.315639 -8.842591 1.149431
v -11.236022 -8.899062 1.002128
v -11.332757 -8.792355 2.400843
v -11.208275 -9.351820 2.618563
v -11.187882 -9.389891 2.229530
v -11.371113 -8.817193 2.689301
v -11.356945 -8.900611 2.306621
v -11.456030 -8.889316 2.493240
v -11.498509 -9.139385 3.541291
v -11.520652 -9.189178 3.634046
v -11.531145 -9.107238 3.537836
v -11.387219 -9.239254 3.568136
v -11.363776 -9.286305 3.724710
v -11.264662 -9.292287 3.712754
v -11.164555 -9.206357 3.718283
v -11.265724 -9.227424 3.568136
v -11.317430 -9.280433 3.866244
v -11.476001 -9.142871 3.914569
v -11.530731 -9.187966 3.817213
v -11.544674 -9.075683 3.822237
v -11.514974 -9.087796 3.741371
v -11.599496 -9.039740 3.680222
v -11.537047 -9.057846 3.772978
v -11.525092 -9.187901 3.736834
v -11.560451 -9.068710 3.654933
v -11.560233 -9.026550 3.658993
v -11.555031 -9.116433 3.607598
v -11.565579 -9.071091 3.614232
v -11.554808 -9.062230 3.605661
v -11.559386 -9.060149 3.598512
v -11.560196 -9.064790 3.626077
v -11.549677 -9.061476 3.579482
v -11.548426 -9.079592 3.555194
v -11.153111 -9.211557 3.838817
v -11.216585 -9.182713 3.932555
v -11.209297 -9.042479 3.866244
v -11.265724 -9.227424 3.449303
v -11.215223 -9.116291 3.568136
v -11.286216 -9.016989 3.449303
v -11.215223 -9.116291 3.449303
v -11.434641 -8.998837 3.541291
v -11.407711 -9.028819 3.435520
v -11.411695 -8.949409 3.634046
v -11.480321 -8.995396 3.537836
v -11.286216 -9.016989 3.568136
v -11.235354 -9.003703 3.724710
v -11.165663 -9.074431 3.712754
v -11.417212 -9.013500 3.914569
v -11.419237 -8.942613 3.817213
v -11.512989 -9.005958 3.822237
v -11.484331 -9.020364 3.741371
v -11.576121 -8.988300 3.680222
v -11.521409 -9.023434 3.772978
v -11.415578 -8.946904 3.736834
v -11.528618 -8.998659 3.654933
v -11.492474 -8.978768 3.607598
v -11.530197 -8.993231 3.614232
v -11.529787 -9.007173 3.605661
v -11.534367 -9.005092 3.598512
v -11.531404 -9.001430 3.626077
v -11.526982 -9.011532 3.579482
v -11.512511 -9.000561 3.555194
v -11.291103 -9.070807 3.946283
v -11.349893 -9.200178 3.946283
v -11.458213 -9.139952 3.435520
v -11.427229 -8.943081 3.407154
v -11.242140 -8.877278 2.465517
v -11.436471 -8.925827 2.465517
v -11.111104 -8.886830 3.419908
v -11.056078 -9.224615 2.649313
v -11.015308 -9.160678 3.435885
v -11.227287 -9.316329 2.649313
v -11.153943 -8.839308 2.538395
v -11.452075 -9.389117 3.513519
v -11.673760 -9.483246 3.316912
v -11.699454 -9.307761 3.402550
v -11.402039 -9.486629 3.173800
v -11.662557 -9.281367 2.624156
v -11.695755 -9.107195 3.069046
v -11.761997 -9.243032 3.025512
v -11.913857 -9.464911 2.913711
v -11.679106 -9.400028 2.823735
v -11.819594 -9.464236 3.141674
v -11.758493 -9.626879 2.869338
v -11.699748 -9.568735 3.141674
v -11.660671 -9.524661 2.839110
v -11.521067 -9.539713 3.095199
v -12.160131 -9.467020 2.743869
v -11.675048 -9.095945 3.264446
v -11.463485 -9.462839 3.386892
v -11.594656 -9.033549 3.396756
v -11.546883 -8.920870 3.162637
v -11.687035 -9.062178 2.570735
v -11.475661 -9.456765 2.570735
v -11.579799 -9.153205 3.488928
v -11.720104 -9.300732 2.223262
v -11.732565 -9.021151 2.127703
v -11.432215 -9.467429 2.129009
v -11.653013 -9.154928 2.368037
v -11.465549 -9.344244 1.738061
v -11.430923 -9.423763 2.601213
v -11.399947 -9.156417 1.738061
v -11.587774 -9.090815 1.738061
v -11.653377 -9.278642 1.738061
v -11.494960 -9.387686 1.098540
v -11.385805 -9.329213 1.098540
v -11.568899 -9.249657 1.050725
v -11.459744 -9.191184 1.050725
v -11.438332 -9.323316 0.935361
v -11.605048 -8.938216 2.400843
v -11.563119 -8.920047 2.689301
v -11.501526 -8.978059 2.306621
v -11.584558 -9.060705 2.465517
v -11.602788 -9.175081 3.441980
v -11.398497 -9.408041 2.649313
v -11.474311 -9.406557 3.435885
v -11.665034 -9.113089 2.538395
v -11.534070 -8.964593 3.873622
v -11.489345 -9.240179 3.838411
v -11.416056 -8.929953 3.841185
v -11.575186 -9.099573 3.878019
v -11.286105 -9.206530 3.502261
vn 0.5288 0.2768 0.8023
vn 0.9263 0.3364 0.1697
vn -0.5423 0.8340 0.1013
vn 0.0975 0.9931 0.0649
vn -0.9417 0.2983 -0.1555
vn 0.8536 0.4573 0.2496
vn 0.6315 -0.7329 -0.2533
vn -0.8477 -0.4542 -0.2739
vn -0.8479 -0.4542 -0.2735
vn 0.8814 0.4721 0.0163
vn -0.5630 0.7431 -0.3618
vn 0.3270 -0.0869 -0.9410
vn 0.6735 -0.6554 -0.3419
vn -0.0877 0.9948 0.0512
vn -0.1004 0.9741 0.2025
vn 0.0955 0.9791 -0.1798
vn 0.5027 -0.7373 0.4513
vn -0.1805 0.9118 0.3688
vn -0.1560 0.9579 0.2409
vn -0.0705 0.9967 0.0414
vn -0.0680 0.9965 0.0489
vn -0.0680 0.9965 0.0480
vn 0.4108 -0.9055 -0.1068
vn -0.0675 0.9965 0.0489
vn 0.3918 0.3027 0.8688
vn 0.5032 0.8582 0.1020
vn -0.1543 0.7294 0.6664
vn -0.4853 0.8585 -0.1658
vn 0.8013 -0.3175 0.5070
vn 0.7377 0.4994 0.4543
vn 0.7958 0.4533 0.4015
vn 0.7494 0.4908 0.4444
vn 0.6778 0.5388 0.5002
vn 0.9129 -0.2425 0.3283
vn 0.8813 -0.3122 0.3547
vn 0.8957 -0.2823 0.3436
vn 0.8599 -0.3525 0.3692
vn 0.4705 -0.7577 -0.4522
vn -0.3087 -0.3052 -0.9008
vn -0.2495 -0.3053 -0.9190
vn 0.3188 -0.5952 -0.7377
vn 0.6416 -0.7466 0.1757
vn 0.9847 0.1451 0.0964
vn 0.9865 0.1538 0.0566
vn 0.9852 0.1470 0.0878
vn 0.6480 0.7612 -0.0280
vn 0.6314 0.7734 0.0569
vn 0.6311 0.7735 0.0580
vn 0.6089 0.7799 0.1452
vn 0.9819 0.1374 0.1303
vn 0.5593 0.8228 0.1013
vn 0.9981 -0.0540 -0.0292
vn -0.6051 -0.3241 0.7272
vn 0.5782 -0.5609 -0.5925
vn 0.9803 -0.1088 -0.1646
vn 0.5104 -0.6960 -0.5050
vn -0.9209 -0.2214 -0.3209
vn -0.9957 0.0222 0.0896
vn -0.4622 0.8323 0.3060
vn 0.7443 0.6245 0.2366
vn 0.8438 0.5366 0.0107
vn 0.5172 -0.8431 0.1471
vn 0.9368 -0.3489 -0.0267
vn 0.7486 0.6612 -0.0491
vn -0.2381 -0.9712 -0.0076
vn 0.3068 0.9243 -0.2269
vn -0.4935 0.8590 -0.1362
vn -0.9466 0.2483 -0.2058
vn -0.9396 -0.3421 -0.0073
vn -0.8454 -0.4529 -0.2833
vn -0.4061 0.7582 -0.5102
vn 0.4192 -0.7826 -0.4602
vn 0.7739 0.4146 -0.4787
vn 0.4420 -0.8663 0.2326
vn 0.3193 -0.9373 0.1401
vn 0.4670 -0.8728 0.1419
vn 0.4659 -0.8734 0.1419
vn -0.1538 0.9786 0.1370
vn 0.5717 -0.8204 -0.0057
vn 0.4722 -0.8815 -0.0057
vn 0.6059 -0.7908 0.0874
vn 0.4693 -0.8761 0.1103
vn 0.4709 -0.8791 0.0732
vn 0.6405 -0.7662 0.0510
vn -0.1038 0.9938 0.0410
vn -0.1123 0.9933 0.0274
vn -0.0922 0.9940 0.0592
vn -0.0824 0.9938 0.0746
vn -0.0916 0.9899 -0.1085
vn 0.0134 0.8892 -0.4573
vn -0.5861 -0.6473 -0.4874
vn -0.5094 -0.7016 -0.4982
vn -0.2029 -0.9347 -0.2918
vn -0.2105 -0.9445 -0.2523
vn -0.4294 -0.8806 -0.2003
vn 0.2883 -0.8922 -0.3477
vn 0.6267 -0.7093 -0.3227
vn 0.2810 -0.8749 -0.3945
vn -0.0531 -0.9969 0.0587
vn -0.4338 -0.6995 0.5679
vn -0.4253 -0.8877 0.1761
vn -0.8381 -0.1278 0.5303
vn -0.6162 -0.7396 0.2705
vn -0.5219 -0.8527 -0.0227
vn -0.5220 -0.8526 -0.0256
vn -0.5214 -0.8532 -0.0119
vn -0.5224 -0.8519 -0.0374
vn -0.4960 0.0858 -0.8641
vn -0.5478 -0.8300 0.1049
vn -0.7300 -0.6388 0.2430
vn -0.7933 -0.5296 0.3004
vn -0.9922 0.1035 -0.0695
vn -0.9931 0.1029 -0.0562
vn -0.9931 0.1030 -0.0565
vn -0.8590 -0.3488 0.3749
vn -0.6094 -0.0258 -0.7925
vn -0.8388 0.0229 0.5439
vn -0.8169 -0.2650 0.5123
vn -0.8859 -0.1400 -0.4423
vn -0.9982 -0.0569 -0.0165
vn -0.9955 -0.0920 -0.0213
vn -0.9994 -0.0310 -0.0130
vn -0.9084 -0.3418 0.2406
vn -0.7971 -0.4999 -0.3388
vn -0.8780 -0.3325 -0.3444
vn -0.9947 0.0511 -0.0894
vn -1.0000 0.0059 -0.0080
vn 0.6514 -0.7528 -0.0943
vn 0.9055 -0.4115 -0.1037
vn 0.4075 -0.8890 0.2088
vn 0.8389 0.1964 0.5076
vn 0.8976 0.2381 0.3710
vn 0.9118 0.2502 0.3257
vn 0.4038 -0.7611 0.5076
vn 0.9104 -0.4137 0.0000
vn 0.9575 0.0353 -0.2863
vn 0.8881 -0.4036 -0.2201
vn 0.9953 0.0969 0.0000
vn 0.8135 0.5816 0.0000
vn -0.0606 0.9562 -0.2865
vn -0.5329 0.7688 -0.3536
vn -0.6557 0.6659 -0.3557
vn 0.1049 0.5864 -0.8032
vn 0.0948 0.3074 -0.9468
vn 0.1022 0.8672 -0.4874
vn 0.1935 0.8452 -0.4982
vn 0.5706 0.7676 -0.2918
vn 0.3809 0.9026 -0.2003
vn 0.5730 0.7797 -0.2523
vn 0.8617 0.3696 -0.3477
vn 0.9052 -0.1523 -0.3968
vn 0.7160 0.6956 0.0587
vn 0.2417 0.7868 0.5679
vn 0.3890 0.9042 0.1761
vn -0.4549 0.7154 0.5304
vn -0.5978 0.4584 0.6576
vn -0.5880 0.4824 0.6493
vn 0.1519 0.9507 0.2705
vn -0.6188 0.5408 0.5698
vn -0.4080 0.7477 0.5239
vn 0.2991 0.9539 -0.0227
vn 0.2998 0.9539 -0.0119
vn 0.2989 0.9539 -0.0256
vn 0.2981 0.9538 -0.0374
vn -0.3908 0.3172 -0.8641
vn -0.4576 0.2785 -0.8444
vn -0.4608 0.2766 -0.8433
vn 0.2649 0.9585 0.1050
vn -0.1228 0.9459 0.3004
vn 0.0011 0.9700 0.2430
vn -0.7305 0.6794 -0.0695
vn -0.7307 0.6804 -0.0565
vn -0.7307 0.6804 -0.0562
vn -0.3022 0.8764 0.3749
vn -0.3291 0.4875 -0.8087
vn -0.6346 0.3911 -0.6665
vn -0.4572 0.4560 -0.7635
vn -0.6399 0.5238 0.5623
vn -0.5303 0.6603 0.5319
vn -0.6690 0.4793 0.5681
vn -0.7195 0.6903 0.0761
vn -0.2166 0.8129 0.5406
vn -0.4826 0.7424 0.4647
vn -0.6312 0.6267 -0.4570
vn -0.4111 0.8031 -0.4313
vn -0.6831 0.5691 -0.4577
vn -0.6119 0.7908 -0.0169
vn -0.5143 0.8570 -0.0326
vn -0.3700 0.9230 0.1053
vn -0.2513 0.9307 -0.2656
vn -0.4534 0.5949 -0.6638
vn -0.2926 0.9174 -0.2696
vn -0.4458 0.6249 -0.6409
vn -0.8020 0.5520 -0.2285
vn -0.6625 0.7469 -0.0573
vn -0.7558 0.6340 -0.1639
vn -0.8039 0.4992 -0.3232
vn 0.9955 0.0044 -0.0943
vn 0.9377 0.2777 0.2088
vn 0.6062 0.3140 0.7307
vn 0.1621 -0.6632 0.7307
vn -0.5225 0.2374 -0.8189
vn -0.7480 0.3399 0.5700
vn -0.9104 0.4137 0.0088
vn -0.6508 0.2957 0.6993
vn -0.6508 0.2958 0.6993
vn -0.2032 0.0923 0.9748
vn 0.1087 -0.0494 0.9928
vn -0.8595 0.3906 -0.3296
vn -0.9102 0.4136 0.0205
vn -0.8938 0.4062 0.1902
vn -0.7400 0.3363 -0.5824
vn -0.7446 0.3384 0.5754
vn -0.8165 0.3710 -0.4424
vn -0.8578 0.3898 -0.3349
vn -0.4901 0.2227 -0.8427
vn 0.0729 -0.0331 -0.9968
vn -0.4721 0.8813 0.0208
vn -0.2423 0.9700 0.0202
vn 0.9001 0.4190 -0.1194
vn 0.4717 -0.8805 0.0471
vn 0.5084 0.8571 -0.0829
vn 0.9351 0.3435 0.0877
vn 0.5654 0.8221 -0.0667
vn -0.1290 0.9691 -0.2101
vn -0.4840 -0.4400 0.7564
vn -0.8015 -0.5748 0.1652
vn -0.4242 0.6220 -0.6582
vn -0.1234 0.4372 -0.8909
vn -0.6748 0.5731 0.4650
vn -0.6557 -0.7038 0.2732
vn 0.7213 -0.6926 -0.0077
vn 0.8775 0.0713 -0.4742
vn -0.7551 0.3828 0.5322
vn -0.4470 -0.6084 0.6557
vn 0.1795 0.3607 0.9152
vn 0.1284 -0.3923 -0.9108
vn 0.1759 -0.0949 -0.9798
vn -0.8798 0.4060 0.2471
vn -0.9505 0.2391 0.1987
vn -0.8933 0.2923 0.3416
vn 0.3352 -0.8270 0.4513
vn -0.8225 0.4566 0.3393
vn -0.7521 0.6406 0.1549
vn -0.7906 0.6109 0.0414
vn -0.7901 0.6112 0.0479
vn -0.7923 0.6082 0.0486
vn 0.5249 -0.8446 -0.1059
vn -0.7922 0.6084 0.0489
vn -0.4451 -0.1489 0.8830
vn -0.9054 0.4185 0.0719
vn -0.7871 0.3121 0.5320
vn -0.9131 0.3487 0.2113
vn -0.0855 -0.8577 0.5070
vn -0.6579 -0.5761 0.4850
vn -0.6992 -0.4800 0.5298
vn -0.7300 -0.3831 0.5660
vn -0.5959 -0.6834 0.4218
vn 0.2465 -0.8849 0.3952
vn 0.1309 -0.9354 0.3284
vn 0.0963 -0.9467 0.3075
vn 0.0097 -0.9674 0.2530
vn 0.5503 -0.7561 -0.3542
vn 0.4356 0.0991 -0.8946
vn 0.4260 0.0810 -0.9011
vn 0.5982 -0.1880 -0.7790
vn 0.2931 -0.9372 0.1891
vn -0.6674 -0.7390 0.0915
vn -0.6695 -0.7383 0.0819
vn -0.6765 -0.7350 0.0462
vn -0.9927 -0.1177 -0.0280
vn -0.9936 -0.0968 0.0580
vn -0.9936 -0.0971 0.0569
vn -0.9866 -0.0748 0.1452
vn -0.6584 -0.7413 0.1303
vn -0.9948 -0.0097 0.1013
vn -0.5080 -0.8609 -0.0292
vn 0.6051 0.3241 0.7272
vn 0.2843 -0.9156 -0.2844
vn 0.8077 -0.5397 -0.2374
vn -0.4260 -0.9045 0.0202
vn 0.7810 0.4198 -0.4623
vn 0.1698 0.9757 -0.1383
vn -0.5139 0.8357 -0.1939
vn -0.9757 -0.1924 0.1049
vn -0.9001 -0.4318 -0.0580
vn 0.4217 -0.8981 0.1247
vn -0.9226 -0.3839 -0.0362
vn -0.3025 -0.9519 -0.0481
vn 0.9644 -0.2629 -0.0294
vn -0.9192 0.3223 -0.2262
vn -0.4372 0.8896 -0.1326
vn 0.2477 0.9463 -0.2077
vn 0.8739 0.4860 0.0030
vn 0.8844 0.3799 -0.2710
vn -0.3181 0.5938 -0.7391
vn 0.4644 -0.8670 -0.1808
vn -0.7079 -0.5378 -0.4578
vn 0.4766 -0.8479 0.2321
vn 0.5997 -0.7879 0.1402
vn -0.7294 0.6702 0.1370
vn 0.3662 -0.9305 -0.0057
vn 0.3226 -0.9425 0.0874
vn 0.2830 -0.9578 0.0510
vn -0.7698 0.6370 0.0410
vn -0.7764 0.6275 0.0592
vn -0.7647 0.6438 0.0274
vn -0.7817 0.6192 0.0746
vn -0.6608 0.7274 -0.1848
vn -0.7733 0.6247 -0.1085
vn -0.6197 0.7566 -0.2087
vn -0.7476 0.4816 -0.4573
vn -0.6471 0.6295 -0.4301
vn -0.5984 0.6857 -0.4145
vn -0.6732 0.7392 0.0202
vn -0.8620 -0.5013 -0.0748
vn -0.9952 0.0516 -0.0829
vn -0.9977 -0.0152 -0.0667
vn -0.8040 -0.5881 0.0877
vn -0.7353 0.6444 -0.2101
vn -0.4411 0.8235 -0.3569
vn -0.4518 0.8434 -0.2909
vn -0.2801 0.1273 0.9515
vn -0.2725 -0.7325 0.6239
vn 0.3275 0.7343 0.5946
vn 0.1097 0.6551 0.7476
vn -0.4233 -0.5217 0.7407
vn 0.0129 0.6598 0.7513
vn -0.4828 -0.4977 0.7205
vn -0.5943 0.8041 0.0152
vn 0.7249 0.5762 0.3776
vn 0.9300 -0.2471 0.2720
vn -0.7946 -0.5813 -0.1749
vn 0.4333 0.3444 -0.8328
vn -0.9172 0.0015 0.3985
vn 0.4577 0.7138 -0.5301
vn -0.8890 -0.3690 -0.2712
vn -0.9387 -0.1018 -0.3295
vn -0.9938 0.1024 -0.0442
vn 0.1214 0.9926 0.0000
vn 0.2367 0.8142 0.5301
vn -0.6604 0.7361 -0.1482
vn -0.6570 0.7389 -0.1498
vn -0.3068 0.9123 -0.2712
vn -0.5407 0.7740 -0.3295
vn -0.7308 0.6812 -0.0442
vn -0.9103 0.4138 0.0089
vn -0.8578 0.3898 -0.3350
vn -0.1764 0.9837 0.0341
vn 0.9426 0.3253 -0.0753
vn 0.1983 -0.9703 0.1386
vn 0.4672 -0.8722 0.1445
vn -0.8460 0.4034 0.3486
vn -0.6290 -0.7214 0.2897
vn 0.1268 -0.9838 -0.1269
vn 0.7845 0.6026 -0.1466
vn 0.3245 0.3722 0.8696
vn 0.5069 0.7644 0.3985
vn -0.7921 0.6078 0.0564
vn -0.8722 -0.4819 -0.0832
vn 0.6979 -0.7026 0.1386
s 1
f 1//1 2//1 3//1
f 4//2 5//2 6//2
f 7//3 8//4 9//5
f 8//6 10//6 11//6
f 11//7 12//7 13//7
f 13//8 7//9 9//5
f 8//4 11//10 14//11
f 10//12 12//12 7//12
f 9//5 8//4 14//11
f 11//13 13//13 14//13
f 13//8 9//5 14//11
f 15//14 3//15 7//16
f 1//17 16//17 17//17
f 18//18 15//14 19//19
f 20//20 19//21 6//22
f 21//23 22//23 4//23
f 19//21 15//24 6//22
f 3//25 23//25 1//25
f 7//26 6//26 15//26
f 18//18 23//27 3//15
f 7//28 3//28 24//28
f 1//29 17//29 2//29
f 24//30 3//31 2//32
f 10//33 24//30 2//32
f 10//34 2//35 12//36
f 2//35 17//37 12//36
f 4//38 6//39 7//40
f 12//41 4//38 7//40
f 12//41 17//42 4//38
f 5//43 4//44 22//45
f 6//46 5//47 20//48
f 5//47 25//49 20//48
f 5//43 22//45 25//50
f 26//51 20//51 25//51
f 22//52 27//52 25//52
f 28//53 29//53 30//53
f 31//54 32//55 28//56
f 31//54 28//56 33//57
f 28//56 30//58 33//57
f 33//57 30//58 34//59
f 30//58 29//60 34//59
f 34//59 29//60 35//61
f 31//54 35//61 32//55
f 32//55 35//61 29//60
f 31//62 36//63 35//64
f 36//63 31//62 37//65
f 36//63 38//66 35//64
f 35//64 38//66 34//67
f 38//66 39//68 34//67
f 34//67 39//68 33//69
f 31//62 33//69 37//65
f 39//68 37//65 33//69
f 39//70 40//70 37//70
f 39//71 38//71 40//71
f 36//72 37//72 40//72
f 38//73 36//73 40//73
f 17//74 16//74 4//74
f 4//75 16//76 21//77
f 20//78 26//78 41//78
f 22//79 21//80 42//80
f 22//81 42//82 43//83
f 22//81 43//83 27//84
f 44//85 19//86 20//87
f 44//85 20//87 41//88
f 18//18 3//15 15//14
f 45//89 46//89 29//89
f 29//90 30//90 45//90
f 47//91 48//91 49//91
f 50//92 48//92 47//92
f 50//93 51//94 48//95
f 52//96 51//94 50//93
f 53//97 52//96 54//98
f 50//93 54//98 52//96
f 51//99 52//99 55//99
f 56//100 57//100 55//100
f 55//101 57//101 51//101
f 57//102 56//102 58//102
f 59//103 61//103 60//103
f 51//104 62//105 48//106
f 51//104 57//107 62//105
f 63//108 60//108 64//108
f 60//109 63//110 59//111
f 57//112 59//113 62//114
f 48//115 59//111 63//110
f 65//116 66//116 67//116
f 67//117 68//117 65//117
f 69//118 66//118 65//118
f 68//119 70//119 65//119
f 69//120 65//121 63//122
f 63//123 65//123 48//123
f 48//124 65//124 49//124
f 71//125 49//125 65//125
f 70//126 71//126 65//126
f 63//122 64//127 69//120
f 52//128 53//129 72//129
f 52//130 72//130 55//130
f 73//131 72//132 74//133
f 72//134 73//134 55//134
f 75//135 76//136 54//137
f 76//136 78//138 77//139
f 77//140 80//141 79//142
f 79//143 82//144 81//145
f 83//146 79//146 81//146
f 83//147 81//148 84//149
f 85//150 83//147 84//149
f 53//151 76//136 85//150
f 83//147 85//150 76//136
f 84//152 74//152 85//152
f 86//153 74//153 87//153
f 74//154 84//154 87//154
f 87//155 88//156 86//157
f 89//158 90//159 91//160
f 84//161 81//162 92//163
f 84//161 92//163 87//164
f 93//165 64//166 90//167
f 90//168 89//169 93//170
f 87//171 92//172 89//173
f 81//174 93//170 89//169
f 94//175 96//176 95//177
f 96//178 94//179 97//180
f 98//181 94//182 95//183
f 97//184 94//185 99//186
f 98//181 93//187 94//188
f 93//189 81//189 94//189
f 81//190 82//190 94//190
f 100//191 94//192 82//193
f 99//194 94//195 100//196
f 93//187 98//181 64//197
f 85//198 72//129 53//129
f 85//199 74//133 72//132
f 74//200 101//200 73//200
f 102//201 55//201 73//201
f 53//151 54//137 76//136
f 64//166 60//202 90//167
f 90//159 60//203 61//203
f 61//204 58//204 88//204
f 58//205 56//206 86//157
f 86//207 56//207 102//207
f 102//208 73//208 101//208
f 79//142 103//209 47//209
f 69//210 64//197 98//181
f 98//181 66//211 69//210
f 95//177 67//212 66//212
f 96//178 68//213 67//213
f 97//184 70//214 68//214
f 70//215 100//215 71//215
f 100//191 49//216 71//216
f 82//144 47//217 49//217
f 104//218 105//219 106//218
f 107//220 108//220 105//220
f 109//221 110//221 108//221
f 111//222 32//223 29//224
f 46//225 111//222 29//224
f 112//226 114//226 113//226
f 115//227 117//227 116//227
f 118//228 120//229 119//230
f 121//231 119//231 122//231
f 123//232 122//232 124//232
f 125//233 124//233 120//233
f 119//230 126//234 122//235
f 123//236 125//236 118//236
f 120//229 126//234 119//230
f 122//237 126//237 124//237
f 124//238 126//234 120//229
f 127//239 118//240 114//241
f 112//242 128//242 16//242
f 129//243 130//244 127//239
f 131//245 117//246 130//247
f 21//248 115//248 132//248
f 130//247 117//246 127//249
f 114//250 112//250 133//250
f 118//251 127//251 117//251
f 129//243 114//241 133//252
f 118//253 121//253 114//253
f 112//254 113//254 128//254
f 121//255 113//256 114//257
f 123//258 113//256 121//255
f 123//259 125//260 113//261
f 113//261 125//260 128//262
f 115//263 118//264 117//265
f 125//266 118//264 115//263
f 125//266 115//263 128//267
f 116//268 132//269 115//270
f 117//271 131//272 116//273
f 116//273 131//272 134//274
f 116//268 134//275 132//269
f 135//276 134//276 131//276
f 132//277 134//277 136//277
f 28//278 30//278 137//278
f 138//279 28//280 139//281
f 138//279 140//282 28//280
f 28//280 140//282 30//283
f 140//282 141//284 30//283
f 30//283 141//284 137//285
f 141//284 142//286 137//285
f 138//279 139//281 142//286
f 139//281 137//285 142//286
f 138//287 142//288 143//289
f 143//289 144//290 138//287
f 143//289 142//288 145//291
f 142//288 141//292 145//291
f 145//291 141//292 146//293
f 141//292 140//294 146//293
f 138//287 144//290 140//294
f 146//293 140//294 144//290
f 146//295 144//295 147//295
f 146//296 147//296 145//296
f 143//297 147//297 144//297
f 145//298 147//298 143//298
f 128//299 115//299 16//299
f 115//300 21//77 16//76
f 131//301 148//301 135//301
f 132//302 42//80 21//80
f 132//303 43//83 42//82
f 132//303 136//304 43//83
f 149//305 131//306 130//307
f 149//305 148//308 131//306
f 129//243 127//239 114//241
f 150//309 137//310 46//311
f 137//312 150//313 30//314
f 104//218 106//218 151//315
f 152//316 151//316 153//316
f 154//221 153//221 110//221
f 155//317 137//318 139//319
f 46//320 137//318 155//317
f 45//321 30//314 150//313
f 46//311 45//322 150//309
f 86//323 156//323 56//323
f 157//324 55//324 102//324
f 101//325 74//325 158//325
f 101//326 158//326 86//326
f 56//327 157//327 102//327
f 158//328 156//328 86//328
f 157//329 56//329 159//329
f 7//330 24//330 8//330
f 8//331 24//331 10//331
f 11//332 10//332 12//332
f 13//333 12//333 7//333
f 10//334 7//334 24//334
f 28//335 32//335 29//335
f 56//336 102//336 55//336
f 61//337 59//337 58//337
f 58//338 59//338 57//338
f 48//339 62//114 59//113
f 75//135 78//138 76//136
f 76//139 77//139 83//139
f 77//340 79//340 83//340
f 86//341 101//341 74//341
f 91//342 88//343 89//344
f 88//345 87//345 89//345
f 81//346 89//173 92//172
f 90//159 61//203 91//160
f 61//347 88//343 91//342
f 58//205 86//157 88//156
f 86//207 102//207 101//207
f 79//142 80//141 103//209
f 98//181 95//183 66//211
f 95//177 96//176 67//212
f 96//178 97//180 68//213
f 97//184 99//186 70//214
f 70//348 99//194 100//196
f 100//191 82//193 49//216
f 82//144 79//143 47//217
f 104//349 107//349 105//349
f 107//350 109//350 108//350
f 109//351 160//352 110//352
f 118//353 119//353 121//353
f 121//354 122//354 123//354
f 123//355 124//355 125//355
f 125//356 120//356 118//356
f 123//357 118//357 121//357
f 28//358 137//358 139//358
f 104//359 151//359 152//359
f 152//360 153//360 154//360
f 154//361 110//352 160//352
