# Blender v2.80 (sub 75) OBJ File: 'dream.blend'
# www.blender.org
v -25.809559 48.504047 7.855193
v -26.823412 48.225227 8.128093
v -25.849819 47.430775 8.018225
v -27.631859 48.039917 7.382208
v -27.471617 49.132671 7.538607
v -24.796345 48.117004 7.916214
v -25.118877 49.335571 7.963048
v -26.371668 49.402443 8.093992
v -25.767076 50.243027 7.373564
v -26.863302 50.042736 7.324191
v -24.731911 49.928967 7.101414
v -24.191744 48.957573 7.195787
v -24.183191 47.855804 7.021736
v -24.922689 47.052773 7.250965
v -25.975473 46.688309 7.195287
v -26.949770 47.160992 7.462843
v -24.795820 27.865938 7.209687
v -24.407509 26.865671 7.040003
v -25.627146 27.187529 7.040077
v -24.135128 26.164150 7.863379
v -23.336155 26.925856 7.703100
v -25.697935 28.446939 7.040114
v -24.522032 28.903423 7.040053
v -23.724518 27.926144 7.039989
v -23.450674 28.963617 7.703148
v -22.973146 27.968346 7.863355
v -24.329967 29.631006 7.863466
v -25.424105 29.484413 7.703272
v -26.330540 28.854376 7.863568
v -26.529222 27.768511 7.703295
v -26.210114 26.711729 7.863506
v -25.238791 26.187233 7.703186
v -39.463810 -31.284000 7.934372
v -40.493103 -31.170738 8.262761
v -39.866230 -32.262310 8.181512
v -41.358208 -31.104246 7.561728
v -40.817791 -30.130642 7.627232
v -38.647583 -31.998674 7.990408
v -38.521309 -30.744152 7.953561
v -39.661907 -30.232473 8.121881
v -38.845989 -29.704050 7.318033
v -39.944077 -29.507963 7.322046
v -38.003567 -30.378490 7.035680
v -37.831661 -31.470264 7.186561
v -38.218403 -32.512817 7.098370
v -39.176582 -32.988426 7.414513
v -40.291695 -32.961353 7.423496
v -41.022118 -32.160488 7.686866
v -37.118469 -55.795303 7.120764
v -36.099617 -55.715637 6.752383
v -36.751293 -56.788364 6.877614
v -35.207378 -55.659679 7.419504
v -35.724266 -54.673286 7.355481
v -37.954613 -56.488739 7.108645
v -38.046608 -55.230820 7.126185
v -36.900162 -54.753033 6.906007
v -37.671265 -54.188461 7.729282
v -36.569351 -54.021984 7.680867
v -38.519821 -54.834854 8.055460
v -38.725719 -55.924179 7.931919
v -38.363297 -56.974957 8.025616
v -37.430401 -57.481728 7.683347
v -36.316082 -57.484726 7.632562
v -35.575394 -56.708626 7.327085
v -23.473883 56.949604 7.754500
v -23.943785 57.776638 7.951583
v -24.392042 56.742481 7.994752
v -24.353554 58.356407 7.250939
v -23.366983 58.494751 7.300506
v -23.551474 55.994614 7.914581
v -22.583717 56.566582 7.821873
v -22.826189 57.667927 7.844738
v -22.006907 57.284691 7.170796
v -22.452173 58.171452 7.069163
v -22.039654 56.297718 7.030261
v -22.732199 55.611366 7.240642
v -23.686108 55.324631 7.187988
v -24.540529 55.787270 7.413523
v -25.116182 56.596981 7.324384
v -24.932846 57.569305 7.450523
v -21.087719 42.383915 7.190353
v -20.164461 42.119293 7.044727
v -21.053308 41.424889 7.039630
v -19.522318 41.934376 7.785267
v -19.631653 42.915195 7.640498
v -21.988388 42.055664 7.033199
v -21.677431 43.139912 7.034314
v -20.550186 43.179230 7.041441
v -21.144627 43.935822 7.630082
v -20.178558 43.737656 7.779678
v -22.096355 43.670769 7.767552
v -22.582836 42.812248 7.621838
v -22.625381 41.826122 7.765655
v -21.958712 41.097218 7.627154
v -21.034525 40.752972 7.776596
v -20.134771 41.160847 7.638683
v -27.255161 -10.558156 3.286380
v -26.291407 -10.440833 3.318778
v -27.055063 -9.616221 3.414275
v -25.720045 -10.358522 2.505320
v -25.962231 -11.310237 2.679976
v -28.069252 -10.093340 3.541041
v -27.932379 -11.212832 3.523895
v -26.833612 -11.427585 3.386526
v -27.603209 -12.082244 2.885097
v -26.642508 -12.037296 2.620580
v -28.511854 -11.671937 2.854288
v -28.838856 -10.747990 3.039615
v -28.744713 -9.767332 2.883459
v -27.961536 -9.151373 2.929995
v -27.019264 -8.955599 2.667791
v -26.183678 -9.498865 2.707728
v -24.935566 -32.009544 3.285261
v -25.259409 -31.119656 3.501734
v -25.858393 -32.072041 3.582118
v -25.616587 -30.484030 2.821039
v -24.619316 -30.499844 2.810068
v -25.149702 -32.940937 3.459357
v -24.112724 -32.525539 3.303111
v -24.180536 -31.399931 3.329300
v -23.472622 -31.905731 2.611446
v -23.781086 -30.960867 2.527674
v -23.665714 -32.875877 2.483118
v -24.441797 -33.446743 2.741506
v -25.429939 -33.582588 2.748942
v -26.187471 -32.993244 3.020514
v -26.635647 -32.104332 2.957797
v -26.297182 -31.171951 3.062890
v -28.622383 27.562904 6.942616
v -27.794985 26.952456 7.293156
v -27.928114 28.190607 7.494061
v -26.908733 26.699060 6.664968
v -27.783596 26.058405 6.403401
v -29.096825 28.517836 7.150315
v -29.685989 27.481901 6.736973
v -28.881403 26.514454 6.825254
v -29.674610 26.587849 5.847217
v -28.757069 25.953884 5.868920
v -30.125925 27.599813 5.718726
v -29.890034 28.591242 6.172284
v -29.123568 29.362253 6.421952
v -28.132153 29.299950 6.929375
v -27.135225 28.805544 7.006772
v -26.830301 27.734562 7.072216
v -25.032686 6.824601 2.875165
v -25.941200 7.324917 3.198269
v -25.763512 6.076451 3.168892
v -26.733072 7.675650 2.495275
v -25.870117 8.382194 2.513994
v -24.537350 5.861934 2.964844
v -23.957243 6.977840 2.868124
v -24.824875 7.882002 3.012385
v -23.886148 8.035120 2.183850
v -24.833851 8.623425 2.179029
v -23.357735 7.085163 1.933594
v -23.598623 6.015038 2.136311
v -24.344683 5.186665 2.098147
v -25.404900 5.113646 2.437080
v -26.430767 5.551616 2.445296
v -26.808762 6.576636 2.670505
v -47.444008 36.967617 9.209687
v -48.515533 37.023750 9.039991
v -47.721741 38.004055 9.040067
v -49.267056 37.063087 9.863359
v -48.900085 36.021988 9.703092
v -46.544109 37.552048 9.040120
v -46.610111 36.292374 9.040067
v -47.828514 35.965885 9.039991
v -46.994656 35.290604 9.703164
v -48.098221 35.263321 9.863359
v -46.025333 35.818787 9.863489
v -45.710247 36.876778 9.703291
v -45.913055 37.961876 9.863578
v -46.821880 38.588463 9.703291
v -47.916565 38.730892 9.863489
v -48.793316 38.060169 9.703164
v -36.615131 20.037672 8.065435
v -37.690006 19.881950 8.042783
v -37.112816 21.003292 8.066161
v -38.301197 19.679996 8.953790
v -37.766083 18.761198 8.616585
v -35.883316 20.813253 7.857955
v -35.700661 19.574448 7.705890
v -36.817253 18.998882 7.820125
v -35.776730 18.453691 8.279687
v -36.816372 18.177624 8.574979
v -34.916695 19.156839 8.380630
v -34.842793 20.268074 8.317516
v -35.227463 21.264429 8.639340
v -36.254951 21.696924 8.677789
v -37.319214 21.587753 8.993565
v -38.061649 20.765617 8.862620
v -26.772608 3.863336 3.095299
v -27.387400 4.570470 3.351487
v -27.608721 3.465062 3.388439
v -27.957073 5.066340 2.699931
v -27.019205 5.405753 2.688900
v -26.640100 2.910061 3.227061
v -25.820145 3.672481 3.090382
v -26.282007 4.698661 3.167280
v -25.451941 4.507763 2.427795
v -26.076456 5.284433 2.386535
v -25.290680 3.538579 2.255707
v -25.810040 2.719152 2.487578
v -26.685686 2.241473 2.488242
v -27.598621 2.511733 2.785637
v -28.333612 3.185694 2.762796
v -28.345928 4.172151 2.910063
v -45.466557 19.947351 9.191738
v -46.421661 20.038919 9.039991
v -45.674610 20.884020 9.040062
v -47.091537 20.103107 9.776256
v -46.803936 19.158827 9.632942
v -44.640015 20.434685 9.040112
v -44.747669 19.311872 9.040064
v -45.848782 19.067287 9.039991
v -45.129936 18.431774 9.633012
v -46.116894 18.450058 9.776258
v -44.243553 18.866173 9.776380
v -43.921162 19.799181 9.633130
v -44.060406 20.776424 9.776462
v -44.848110 21.371332 9.633129
v -45.820576 21.540890 9.776377
v -46.629768 20.975567 9.633010
v -26.459162 10.514710 3.426380
v -26.009079 11.298857 3.781599
v -27.126169 11.149626 3.735606
v -25.686975 12.052472 3.213043
v -25.059799 11.277909 3.172734
v -27.323088 10.072287 3.465682
v -26.327681 9.555697 3.344864
v -25.515591 10.313764 3.540109
v -25.378399 9.534740 2.736000
v -24.847397 10.376519 2.802193
v -26.229017 9.086809 2.470019
v -27.185907 9.293264 2.661574
v -27.922506 9.965695 2.675570
v -27.984398 10.887198 3.052318
v -27.587496 11.798584 3.134795
v -26.670383 12.113778 3.368235
vn 0.2218 0.1383 0.9652
vn -0.6773 -0.0060 0.7356
vn -0.0021 0.1503 0.9886
vn -0.0829 -0.0602 0.9947
vn 0.0911 -0.2022 0.9751
vn -0.1601 0.7062 0.6897
vn 0.1148 0.5975 0.7936
vn 0.3723 0.6778 0.6340
vn 0.6729 0.4325 0.6001
vn 0.6657 0.1481 0.7314
vn 0.8100 -0.0854 0.5802
vn 0.6705 -0.4489 0.5907
vn 0.4101 -0.5180 0.7507
vn 0.2228 -0.7405 0.6341
vn -0.4854 0.4943 0.7212
vn -0.4812 0.2093 0.8513
vn 0.2794 -0.0795 0.9569
vn -0.1640 -0.7198 0.6745
vn -0.2987 -0.4801 0.8248
vn -0.5778 -0.3822 0.7212
vn 0.0489 0.1855 -0.9814
vn 0.4435 -0.6045 -0.6617
vn 0.1914 0.0108 -0.9814
vn 0.0693 -0.1788 -0.9814
vn -0.1486 -0.1212 -0.9814
vn 0.7119 0.2351 -0.6617
vn 0.4703 0.3838 -0.7947
vn 0.3730 0.6504 -0.6617
vn -0.0036 0.7498 -0.6617
vn -0.2197 0.5659 -0.7946
vn -0.5033 0.5558 -0.6617
vn -0.7142 0.2283 -0.6617
vn -0.6061 -0.0340 -0.7946
vn -0.6841 -0.3069 -0.6617
vn 0.7338 -0.1538 -0.6617
vn 0.5103 -0.3287 -0.7947
vn -0.1613 0.1039 -0.9814
vn -0.4379 -0.6086 -0.6617
vn -0.1549 -0.5869 -0.7947
vn 0.0805 -0.7454 -0.6617
vn 0.3130 0.1096 0.9434
vn -0.5919 0.2776 0.7567
vn 0.1092 0.2010 0.9735
vn -0.0394 0.0333 0.9987
vn 0.0726 -0.1618 0.9841
vn 0.1376 0.7578 0.6378
vn 0.3630 0.5657 0.7404
vn 0.6224 0.5403 0.5663
vn 0.8159 0.2033 0.5412
vn 0.7177 -0.0518 0.6944
vn 0.7623 -0.3299 0.5569
vn 0.5056 -0.6196 0.6004
vn 0.2474 -0.5827 0.7741
vn -0.0123 -0.7316 0.6816
vn -0.2386 0.6764 0.6968
vn -0.3264 0.4166 0.8485
vn 0.2905 -0.1147 0.9500
vn -0.3645 -0.5736 0.7336
vn -0.3979 -0.2932 0.8693
vn -0.6309 -0.1097 0.7681
vn -0.3453 0.1008 -0.9331
vn 0.5701 0.2479 -0.7833
vn -0.1403 0.1862 -0.9724
vn 0.0028 0.0141 -0.9999
vn -0.1137 -0.1776 -0.9775
vn -0.1416 0.7495 -0.6467
vn -0.3757 0.5617 -0.7371
vn -0.6289 0.5465 -0.5531
vn -0.8301 0.2152 -0.5144
vn -0.7444 -0.0451 -0.6662
vn -0.7910 -0.3194 -0.5219
vn -0.5438 -0.6166 -0.5693
vn -0.2914 -0.5898 -0.7532
vn -0.0324 -0.7439 -0.6675
vn 0.2299 0.6570 -0.7180
vn 0.3051 0.3922 -0.8678
vn -0.3288 -0.1240 -0.9362
vn 0.3216 -0.5964 -0.7355
vn 0.3572 -0.3194 -0.8777
vn 0.5985 -0.1405 -0.7887
vn 0.2685 -0.0763 0.9603
vn -0.1354 0.7230 0.6775
vn 0.2200 0.1439 0.9648
vn -0.0034 0.1656 0.9862
vn -0.0930 -0.0411 0.9948
vn 0.6860 0.4131 0.5990
vn 0.6657 0.1313 0.7346
vn 0.8012 -0.1103 0.5881
vn 0.6464 -0.4674 0.6030
vn 0.3821 -0.5230 0.7619
vn 0.1865 -0.7392 0.6471
vn -0.1994 -0.7017 0.6840
vn -0.3250 -0.4542 0.8295
vn -0.5989 -0.3463 0.7221
vn 0.3957 0.6713 0.6267
vn 0.1339 0.6045 0.7853
vn 0.0750 -0.1906 0.9788
vn -0.6826 0.0340 0.7300
vn -0.4784 0.2426 0.8440
vn -0.4696 0.5255 0.7095
vn -0.1118 0.1504 -0.9823
vn 0.7539 -0.0129 -0.6569
vn 0.1135 0.1582 -0.9809
vn 0.1906 -0.0536 -0.9802
vn 0.0129 -0.1925 -0.9812
vn 0.2477 0.7086 -0.6607
vn -0.0161 0.6061 -0.7953
vn -0.2881 0.6899 -0.6641
vn -0.5950 0.4502 -0.6658
vn -0.5785 0.1667 -0.7985
vn -0.7428 -0.0651 -0.6664
vn -0.6096 -0.4311 -0.6652
vn -0.3344 -0.5039 -0.7964
vn -0.1652 -0.7309 -0.6622
vn 0.5705 0.4908 -0.6585
vn 0.5755 0.2070 -0.7912
vn -0.1740 -0.0664 -0.9825
vn 0.2241 -0.7173 -0.6597
vn 0.3788 -0.4790 -0.7919
vn 0.6465 -0.3873 -0.6573
vn -0.0174 -0.1309 0.9912
vn 0.8188 -0.1048 0.5645
vn 0.2022 -0.1738 0.9638
vn 0.3106 0.0234 0.9502
vn 0.1580 0.1883 0.9693
vn 0.2109 -0.7385 0.6405
vn -0.0161 -0.5960 0.8028
vn -0.3113 -0.6364 0.7057
vn -0.5750 -0.3517 0.7387
vn -0.4993 -0.0743 0.8633
vn -0.6400 0.1804 0.7469
vn -0.4528 0.5211 0.7235
vn -0.1562 0.5500 0.8204
vn 0.0292 0.7479 0.6632
vn 0.5611 -0.5737 0.5967
vn 0.6255 -0.2941 0.7226
vn -0.0447 0.0929 0.9947
vn 0.4086 0.6737 0.6158
vn 0.5390 0.4142 0.7335
vn 0.7715 0.2818 0.5704
vn 0.3113 -0.1162 0.9432
vn 0.0191 0.7357 0.6770
vn 0.2977 0.1088 0.9484
vn 0.0821 0.1649 0.9829
vn -0.0377 -0.0255 0.9990
vn 0.7766 0.3025 0.5527
vn 0.7213 0.0274 0.6921
vn 0.8088 -0.2324 0.5402
vn 0.6020 -0.5613 0.5680
vn 0.3424 -0.5752 0.7429
vn 0.1091 -0.7587 0.6422
vn -0.2634 -0.6619 0.7018
vn -0.3402 -0.3979 0.8520
vn -0.6002 -0.2490 0.7601
vn 0.5319 0.6025 0.5950
vn 0.2729 0.5771 0.7697
vn 0.1040 -0.1992 0.9744
vn -0.6236 0.1397 0.7692
vn -0.3831 0.3143 0.8686
vn -0.3389 0.5923 0.7309
vn -0.4989 -0.1908 0.8454
vn 0.2897 -0.6733 0.6803
vn -0.3551 -0.3637 0.8611
vn -0.1609 -0.2854 0.9448
vn -0.1847 -0.0641 0.9807
vn -0.5329 -0.7584 0.3753
vn -0.6820 -0.5203 0.5140
vn -0.8748 -0.3473 0.3378
vn -0.9159 0.0350 0.3998
vn -0.7573 0.1802 0.6277
vn -0.6656 0.4753 0.5755
vn -0.3301 0.6105 0.7199
vn -0.1426 0.4280 0.8924
vn 0.1666 0.4715 0.8660
vn -0.1720 -0.8594 0.4814
vn -0.0208 -0.7054 0.7085
vn -0.3936 -0.0057 0.9193
vn 0.4150 0.1727 0.8933
vn 0.3126 -0.1193 0.9424
vn 0.4716 -0.3534 0.8079
vn 0.3484 0.0275 0.9369
vn -0.4336 0.5100 0.7429
vn 0.1933 0.1891 0.9627
vn -0.0062 0.0896 0.9960
vn 0.0255 -0.1336 0.9907
vn 0.4194 0.6805 0.6009
vn 0.5597 0.4234 0.7124
vn 0.7881 0.2962 0.5396
vn 0.8430 -0.0893 0.5305
vn 0.6602 -0.2829 0.6957
vn 0.5964 -0.5635 0.5716
vn 0.2517 -0.7355 0.6290
vn 0.0286 -0.5981 0.8009
vn -0.2694 -0.6443 0.7157
vn 0.0408 0.7467 0.6639
vn -0.1340 0.5448 0.8278
vn 0.2447 -0.1719 0.9542
vn -0.5372 -0.3652 0.7603
vn -0.4622 -0.0866 0.8825
vn -0.6128 0.1654 0.7728
vn 0.1491 -0.1207 -0.9814
vn -0.7332 -0.1566 -0.6617
vn -0.0687 -0.1790 -0.9814
vn -0.1915 0.0101 -0.9814
vn -0.0496 0.1853 -0.9814
vn -0.0776 -0.7457 -0.6617
vn 0.1572 -0.5863 -0.7947
vn 0.4402 -0.6070 -0.6617
vn 0.6853 -0.3043 -0.6617
vn 0.6063 -0.0317 -0.7946
vn 0.7133 0.2311 -0.6617
vn 0.5012 0.5577 -0.6616
vn 0.2176 0.5668 -0.7946
vn 0.0007 0.7498 -0.6617
vn -0.4412 -0.6061 -0.6617
vn -0.5091 -0.3306 -0.7947
vn 0.1609 0.1045 -0.9814
vn -0.3755 0.6490 -0.6617
vn -0.4717 0.3820 -0.7947
vn -0.7128 0.2324 -0.6617
vn 0.0195 0.0108 -0.9998
vn -0.7799 -0.2425 -0.5770
vn -0.1801 -0.0921 -0.9793
vn -0.3361 0.0658 -0.9395
vn -0.2329 0.2662 -0.9354
vn -0.0294 -0.6764 -0.7359
vn 0.1468 -0.4587 -0.8764
vn 0.4451 -0.4318 -0.7845
vn 0.6234 -0.0856 -0.7772
vn 0.4733 0.1757 -0.8632
vn 0.5457 0.4409 -0.7126
vn 0.2762 0.7135 -0.6439
vn -0.0205 0.6753 -0.7372
vn -0.2463 0.7943 -0.5554
vn -0.4090 -0.6178 -0.6716
vn -0.5488 -0.3511 -0.7586
vn -0.0131 0.2322 -0.9726
vn -0.5910 0.6166 -0.5201
vn -0.6522 0.3497 -0.6726
vn -0.8363 0.1400 -0.5300
vn 0.3467 -0.0381 0.9372
vn -0.2324 0.6653 0.7095
vn 0.2544 0.1670 0.9526
vn 0.0334 0.1414 0.9894
vn -0.0108 -0.0796 0.9968
vn 0.6274 0.5346 0.5662
vn 0.6754 0.2520 0.6931
vn 0.8469 0.0469 0.5297
vn 0.7705 -0.3348 0.5425
vn 0.5354 -0.4473 0.7164
vn 0.3808 -0.6972 0.6074
vn -0.0009 -0.7414 0.6710
vn -0.1640 -0.5284 0.8330
vn -0.4612 -0.4777 0.7477
vn 0.2929 0.7262 0.6220
vn 0.0626 0.6032 0.7951
vn 0.1828 -0.1905 0.9645
vn -0.6207 -0.1233 0.7743
vn -0.4562 0.1208 0.8816
vn -0.5155 0.4020 0.7567
vn 0.1438 -0.1270 -0.9814
vn -0.7393 -0.1247 -0.6617
vn -0.0763 -0.1759 -0.9814
vn -0.1909 0.0183 -0.9814
vn -0.0415 0.1873 -0.9814
vn -0.1098 -0.7417 -0.6617
vn 0.1317 -0.5926 -0.7947
vn 0.4135 -0.6254 -0.6617
vn 0.6715 -0.3336 -0.6617
vn 0.6043 -0.0579 -0.7946
vn 0.7226 0.2000 -0.6616
vn 0.5248 0.5355 -0.6616
vn 0.2419 0.5568 -0.7946
vn 0.0331 0.7491 -0.6617
vn -0.4670 -0.5865 -0.6617
vn -0.5229 -0.3083 -0.7947
vn 0.1653 0.0974 -0.9814
vn -0.3471 0.6646 -0.6617
vn -0.4548 0.4021 -0.7947
vn -0.7021 0.2630 -0.6617
vn 0.0190 -0.4216 0.9066
vn 0.5073 0.3703 0.7782
vn 0.1813 -0.2701 0.9456
vn 0.0827 -0.0731 0.9939
vn -0.1406 -0.1030 0.9847
vn 0.6738 -0.4699 0.5702
vn 0.4152 -0.6170 0.6686
vn 0.2879 -0.8302 0.4774
vn -0.0978 -0.8817 0.4615
vn -0.2916 -0.7114 0.6395
vn -0.5709 -0.6362 0.5190
vn -0.7413 -0.2961 0.6023
vn -0.6038 -0.0881 0.7922
vn -0.6477 0.2160 0.7306
vn 0.7418 -0.0979 0.6634
vn 0.5398 0.0646 0.8393
vn -0.1800 -0.3183 0.9307
vn -0.3673 0.4777 0.7980
vn -0.0900 0.3915 0.9158
vn 0.1636 0.5486 0.8199
s 1
f 1//1 2//1 3//1
f 4//2 2//2 5//2
f 1//3 3//3 6//3
f 1//4 6//4 7//4
f 1//5 7//5 8//5
f 8//6 9//6 10//6
f 8//7 7//7 9//7
f 7//8 11//8 9//8
f 7//9 12//9 11//9
f 7//10 6//10 12//10
f 6//11 13//11 12//11
f 6//12 14//12 13//12
f 6//13 3//13 14//13
f 3//14 15//14 14//14
f 5//15 8//15 10//15
f 5//16 2//16 8//16
f 2//17 1//17 8//17
f 3//18 16//18 15//18
f 3//19 2//19 16//19
f 2//20 4//20 16//20
f 17//21 18//21 19//21
f 20//22 18//22 21//22
f 17//23 19//23 22//23
f 17//24 22//24 23//24
f 17//25 23//25 24//25
f 24//26 25//26 26//26
f 24//27 23//27 25//27
f 23//28 27//28 25//28
f 23//29 28//29 27//29
f 23//30 22//30 28//30
f 22//31 29//31 28//31
f 22//32 30//32 29//32
f 22//33 19//33 30//33
f 19//34 31//34 30//34
f 21//35 24//35 26//35
f 21//36 18//36 24//36
f 18//37 17//37 24//37
f 19//38 32//38 31//38
f 19//39 18//39 32//39
f 18//40 20//40 32//40
f 33//41 34//41 35//41
f 36//42 34//42 37//42
f 33//43 35//43 38//43
f 33//44 38//44 39//44
f 33//45 39//45 40//45
f 40//46 41//46 42//46
f 40//47 39//47 41//47
f 39//48 43//48 41//48
f 39//49 44//49 43//49
f 39//50 38//50 44//50
f 38//51 45//51 44//51
f 38//52 46//52 45//52
f 38//53 35//53 46//53
f 35//54 47//54 46//54
f 37//55 40//55 42//55
f 37//56 34//56 40//56
f 34//57 33//57 40//57
f 35//58 48//58 47//58
f 35//59 34//59 48//59
f 34//60 36//60 48//60
f 49//61 50//61 51//61
f 52//62 50//62 53//62
f 49//63 51//63 54//63
f 49//64 54//64 55//64
f 49//65 55//65 56//65
f 56//66 57//66 58//66
f 56//67 55//67 57//67
f 55//68 59//68 57//68
f 55//69 60//69 59//69
f 55//70 54//70 60//70
f 54//71 61//71 60//71
f 54//72 62//72 61//72
f 54//73 51//73 62//73
f 51//74 63//74 62//74
f 53//75 56//75 58//75
f 53//76 50//76 56//76
f 50//77 49//77 56//77
f 51//78 64//78 63//78
f 51//79 50//79 64//79
f 50//80 52//80 64//80
f 65//81 66//81 67//81
f 68//82 66//82 69//82
f 65//83 67//83 70//83
f 65//84 70//84 71//84
f 65//85 71//85 72//85
f 72//86 73//86 74//86
f 72//87 71//87 73//87
f 71//88 75//88 73//88
f 71//89 76//89 75//89
f 71//90 70//90 76//90
f 70//91 77//91 76//91
f 70//92 78//92 77//92
f 70//93 67//93 78//93
f 67//94 79//94 78//94
f 69//95 72//95 74//95
f 69//96 66//96 72//96
f 66//97 65//97 72//97
f 67//98 80//98 79//98
f 67//99 66//99 80//99
f 66//100 68//100 80//100
f 81//101 82//101 83//101
f 84//102 82//102 85//102
f 81//103 83//103 86//103
f 81//104 86//104 87//104
f 81//105 87//105 88//105
f 88//106 89//106 90//106
f 88//107 87//107 89//107
f 87//108 91//108 89//108
f 87//109 92//109 91//109
f 87//110 86//110 92//110
f 86//111 93//111 92//111
f 86//112 94//112 93//112
f 86//113 83//113 94//113
f 83//114 95//114 94//114
f 85//115 88//115 90//115
f 85//116 82//116 88//116
f 82//117 81//117 88//117
f 83//118 96//118 95//118
f 83//119 82//119 96//119
f 82//120 84//120 96//120
f 97//121 98//121 99//121
f 100//122 98//122 101//122
f 97//123 99//123 102//123
f 97//124 102//124 103//124
f 97//125 103//125 104//125
f 104//126 105//126 106//126
f 104//127 103//127 105//127
f 103//128 107//128 105//128
f 103//129 108//129 107//129
f 103//130 102//130 108//130
f 102//131 109//131 108//131
f 102//132 110//132 109//132
f 102//133 99//133 110//133
f 99//134 111//134 110//134
f 101//135 104//135 106//135
f 101//136 98//136 104//136
f 98//137 97//137 104//137
f 99//138 112//138 111//138
f 99//139 98//139 112//139
f 98//140 100//140 112//140
f 113//141 114//141 115//141
f 116//142 114//142 117//142
f 113//143 115//143 118//143
f 113//144 118//144 119//144
f 113//145 119//145 120//145
f 120//146 121//146 122//146
f 120//147 119//147 121//147
f 119//148 123//148 121//148
f 119//149 124//149 123//149
f 119//150 118//150 124//150
f 118//151 125//151 124//151
f 118//152 126//152 125//152
f 118//153 115//153 126//153
f 115//154 127//154 126//154
f 117//155 120//155 122//155
f 117//156 114//156 120//156
f 114//157 113//157 120//157
f 115//158 128//158 127//158
f 115//159 114//159 128//159
f 114//160 116//160 128//160
f 129//161 130//161 131//161
f 132//162 130//162 133//162
f 129//163 131//163 134//163
f 129//164 134//164 135//164
f 129//165 135//165 136//165
f 136//166 137//166 138//166
f 136//167 135//167 137//167
f 135//168 139//168 137//168
f 135//169 140//169 139//169
f 135//170 134//170 140//170
f 134//171 141//171 140//171
f 134//172 142//172 141//172
f 134//173 131//173 142//173
f 131//174 143//174 142//174
f 133//175 136//175 138//175
f 133//176 130//176 136//176
f 130//177 129//177 136//177
f 131//178 144//178 143//178
f 131//179 130//179 144//179
f 130//180 132//180 144//180
f 145//181 146//181 147//181
f 148//182 146//182 149//182
f 145//183 147//183 150//183
f 145//184 150//184 151//184
f 145//185 151//185 152//185
f 152//186 153//186 154//186
f 152//187 151//187 153//187
f 151//188 155//188 153//188
f 151//189 156//189 155//189
f 151//190 150//190 156//190
f 150//191 157//191 156//191
f 150//192 158//192 157//192
f 150//193 147//193 158//193
f 147//194 159//194 158//194
f 149//195 152//195 154//195
f 149//196 146//196 152//196
f 146//197 145//197 152//197
f 147//198 160//198 159//198
f 147//199 146//199 160//199
f 146//200 148//200 160//200
f 161//201 162//201 163//201
f 164//202 162//202 165//202
f 161//203 163//203 166//203
f 161//204 166//204 167//204
f 161//205 167//205 168//205
f 168//206 169//206 170//206
f 168//207 167//207 169//207
f 167//208 171//208 169//208
f 167//209 172//209 171//209
f 167//210 166//210 172//210
f 166//211 173//211 172//211
f 166//212 174//212 173//212
f 166//213 163//213 174//213
f 163//214 175//214 174//214
f 165//215 168//215 170//215
f 165//216 162//216 168//216
f 162//217 161//217 168//217
f 163//218 176//218 175//218
f 163//219 162//219 176//219
f 162//220 164//220 176//220
f 177//221 178//221 179//221
f 180//222 178//222 181//222
f 177//223 179//223 182//223
f 177//224 182//224 183//224
f 177//225 183//225 184//225
f 184//226 185//226 186//226
f 184//227 183//227 185//227
f 183//228 187//228 185//228
f 183//229 188//229 187//229
f 183//230 182//230 188//230
f 182//231 189//231 188//231
f 182//232 190//232 189//232
f 182//233 179//233 190//233
f 179//234 191//234 190//234
f 181//235 184//235 186//235
f 181//236 178//236 184//236
f 178//237 177//237 184//237
f 179//238 192//238 191//238
f 179//239 178//239 192//239
f 178//240 180//240 192//240
f 193//241 194//241 195//241
f 196//242 194//242 197//242
f 193//243 195//243 198//243
f 193//244 198//244 199//244
f 193//245 199//245 200//245
f 200//246 201//246 202//246
f 200//247 199//247 201//247
f 199//248 203//248 201//248
f 199//249 204//249 203//249
f 199//250 198//250 204//250
f 198//251 205//251 204//251
f 198//252 206//252 205//252
f 198//253 195//253 206//253
f 195//254 207//254 206//254
f 197//255 200//255 202//255
f 197//256 194//256 200//256
f 194//257 193//257 200//257
f 195//258 208//258 207//258
f 195//259 194//259 208//259
f 194//260 196//260 208//260
f 209//261 210//261 211//261
f 212//262 210//262 213//262
f 209//263 211//263 214//263
f 209//264 214//264 215//264
f 209//265 215//265 216//265
f 216//266 217//266 218//266
f 216//267 215//267 217//267
f 215//268 219//268 217//268
f 215//269 220//269 219//269
f 215//270 214//270 220//270
f 214//271 221//271 220//271
f 214//272 222//272 221//272
f 214//273 211//273 222//273
f 211//274 223//274 222//274
f 213//275 216//275 218//275
f 213//276 210//276 216//276
f 210//277 209//277 216//277
f 211//278 224//278 223//278
f 211//279 210//279 224//279
f 210//280 212//280 224//280
f 225//281 226//281 227//281
f 228//282 226//282 229//282
f 225//283 227//283 230//283
f 225//284 230//284 231//284
f 225//285 231//285 232//285
f 232//286 233//286 234//286
f 232//287 231//287 233//287
f 231//288 235//288 233//288
f 231//289 236//289 235//289
f 231//290 230//290 236//290
f 230//291 237//291 236//291
f 230//292 238//292 237//292
f 230//293 227//293 238//293
f 227//294 239//294 238//294
f 229//295 232//295 234//295
f 229//296 226//296 232//296
f 226//297 225//297 232//297
f 227//298 240//298 239//298
f 227//299 226//299 240//299
f 226//300 228//300 240//300
