# Blender v2.80 (sub 75) OBJ File: 'dream.blend'
# www.blender.org
v 31.911583 -29.610798 11.262301
v 32.024433 -29.435171 11.237432
v 31.818419 -29.549706 11.225699
v 32.034672 -29.778727 11.078927
v 32.044773 -29.583685 11.089978
v 31.776552 -29.743629 11.353521
v 31.849844 -29.615520 11.117923
v 31.983385 -29.630037 11.364499
v 32.075241 -29.397366 11.347744
v 32.102703 -29.830696 11.086109
v 31.865835 -29.806351 11.173779
v 32.070065 -29.618950 11.194366
v 31.816057 -29.582174 11.134384
v 32.083359 -29.541960 11.079500
v 31.993450 -29.635664 11.069841
v 31.849136 -29.622150 11.098796
v 31.987696 -29.746765 11.063546
v 32.034058 -29.688038 11.032706
v 31.793983 -29.747356 11.479465
v 31.971888 -29.597563 11.028025
v 31.932825 -29.733135 11.045762
v 32.009430 -29.721491 10.000000
v 32.015148 -29.880844 10.742935
v 32.066357 -29.668633 10.660435
v 32.178692 -29.292316 10.093472
v 32.140057 -29.366344 10.000000
v 32.207146 -29.280548 10.256227
v 32.360962 -29.270981 10.228566
v 32.432545 -29.077606 10.039004
v 32.432545 -29.077606 10.382270
v 32.514675 -29.422523 10.399489
v 32.514675 -29.422523 10.188798
v 32.466537 -29.556957 10.385761
v 32.498352 -29.637844 10.310763
v 32.544224 -29.595942 10.460759
v 32.092781 -29.582794 10.981070
v 32.064228 -29.845634 10.342090
v 32.006405 -29.823923 10.190810
v 32.074604 -29.858858 10.536031
v 32.142223 -29.632820 10.492121
v 32.111504 -29.542034 10.558151
v 32.151260 -29.705462 10.304519
v 32.172935 -29.448351 10.353521
v 32.029079 -29.825922 10.942128
v 32.024036 -29.576279 10.663564
v 32.025612 -29.602001 10.761086
v 32.197998 -29.557051 10.170751
v 32.146839 -29.918947 10.732545
v 32.190311 -29.815382 10.710106
v 32.051311 -29.891422 10.699169
v 32.100056 -29.789375 10.676729
v 32.134899 -29.908775 10.167073
v 32.152699 -29.847012 10.167073
v 32.073135 -29.890978 10.167073
v 32.090935 -29.829214 10.167073
v 32.063866 -29.707022 10.782624
v 32.104465 -29.613939 10.900414
v 32.104977 -29.766024 10.897130
v 31.962626 -29.879631 10.864179
v 32.050961 -29.896891 10.749290
v 31.909731 -29.813280 10.964795
v 32.020130 -29.979200 10.000000
v 32.067989 -29.992990 10.000000
v 32.081779 -29.945131 10.000000
v 32.033920 -29.931341 10.000000
v 31.939888 -29.780939 11.255331
v 31.835474 -29.850420 11.195589
v 31.891521 -29.762501 11.117578
v 31.871109 -29.641087 11.032706
v 31.874161 -29.682516 10.000000
v 31.784527 -29.814392 10.742935
v 31.854088 -29.607470 10.660435
v 31.959213 -29.229076 10.093472
v 31.952534 -29.312311 10.000000
v 31.941385 -29.203972 10.256227
v 32.462742 -28.955812 10.228566
v 32.708107 -29.506039 10.399489
v 32.708107 -29.506039 10.188798
v 32.576038 -29.676828 10.385761
v 31.877388 -29.520731 10.981070
v 31.761705 -29.758465 10.342090
v 31.822220 -29.770851 10.190810
v 31.745884 -29.764139 10.536031
v 31.808910 -29.536779 10.492121
v 31.883224 -29.476257 10.558151
v 31.762606 -29.593473 10.304519
v 31.881060 -29.364250 10.353521
v 31.801956 -29.760479 10.942128
v 31.939062 -29.551794 10.663564
v 31.924042 -29.572735 10.761086
v 31.802000 -29.442949 10.170751
v 32.065887 -29.271339 10.038148
v 31.928595 -29.747814 10.087757
v 32.053200 -29.315372 10.339622
v 32.019688 -29.431669 10.475842
v 31.981085 -29.565647 10.716018
v 31.993137 -29.523815 10.839389
v 32.320992 -29.526047 10.071073
v 32.238422 -29.502256 10.071073
v 32.354527 -29.438412 10.098933
v 32.339951 -29.493107 10.163364
v 32.235901 -29.417679 10.093342
v 32.316612 -29.419197 10.155261
v 32.288490 -29.469515 10.261698
v 32.224018 -29.408237 10.149670
v 32.237095 -29.366962 10.256107
v 32.245663 -29.477123 10.035536
v 32.004974 -29.699945 11.224849
v 32.611389 -29.464281 10.399489
v 32.611389 -29.464281 10.188798
v 32.068954 -29.260696 10.093472
v 32.046295 -29.339329 10.000000
v 31.985586 -29.550024 10.000000
v 31.941795 -29.702003 10.000000
v 32.074265 -29.242260 10.256227
v 31.981548 -29.564035 10.663564
v 31.987093 -29.544794 10.981070
v 31.652752 -29.776581 10.732545
v 31.671053 -29.665764 10.710106
v 31.748281 -29.804108 10.699169
v 31.761307 -29.691769 10.676729
v 31.668272 -29.774321 10.167073
v 31.686069 -29.712557 10.167073
v 31.730038 -29.792118 10.167073
v 31.747833 -29.730354 10.167073
v 31.835770 -29.641298 10.782624
v 31.850924 -29.540884 10.900414
v 31.769566 -29.669378 10.897130
v 31.829641 -29.841314 10.864179
v 31.745668 -29.808924 10.749290
v 31.714361 -29.351254 10.071073
v 31.796932 -29.375046 10.071073
v 31.732601 -29.259211 10.098933
v 31.715839 -29.313278 10.163364
v 31.844070 -29.304777 10.093342
v 31.774927 -29.263115 10.155261
v 31.771961 -29.320683 10.261698
v 31.859156 -29.303106 10.149670
v 31.870047 -29.261202 10.256107
v 31.804173 -29.349913 10.035536
v 32.233234 -29.253719 10.161490
v 32.240410 -29.262581 10.242730
v 32.182484 -29.036320 10.357166
v 32.175945 -29.036631 10.354387
v 32.227062 -29.148100 10.356992
v 32.119728 -28.951532 10.163940
v 32.201450 -29.152096 10.056227
v 32.121185 -28.939116 10.242021
v 32.204746 -29.092146 10.357080
v 32.201923 -29.093283 10.355711
v 32.146946 -29.027302 10.083171
v 32.585579 -29.289164 10.414443
v 32.723858 -29.254526 10.202120
v 32.529205 -29.304089 10.415650
v 32.723625 -29.253275 10.341635
v 32.647392 -29.269945 10.123268
v 32.528599 -29.300587 10.110926
v 32.429401 -29.329836 10.209496
v 32.584126 -29.286264 10.116694
v 32.649555 -29.272226 10.413074
v 32.427010 -29.327248 10.308873
v 32.528694 -29.303476 10.112596
vn -0.9546 -0.1303 -0.2680
vn 0.6550 -0.5577 0.5099
vn -0.9255 -0.3088 -0.2192
vn -0.8856 0.3698 0.2811
vn -0.9818 0.1853 -0.0405
vn -0.2384 0.7609 -0.6035
vn -0.1993 0.2618 0.9443
vn -0.4464 0.7686 0.4583
vn 0.0226 0.9444 -0.3281
vn -0.4527 0.8438 -0.2883
vn 0.7873 -0.4939 0.3689
vn 0.0289 0.5457 0.8375
vn 0.7874 -0.4939 0.3690
vn -0.6224 -0.2675 -0.7356
vn 0.6562 -0.2609 0.7081
vn 0.8557 -0.3079 0.4159
vn 0.6562 -0.2609 0.7080
vn -0.1906 -0.0697 -0.9792
vn 0.1936 0.7729 0.6043
vn -0.2589 -0.7006 -0.6649
vn 0.3331 0.0361 -0.9422
vn 0.3350 -0.5257 0.7819
vn 0.0559 -0.7175 0.6943
vn -0.5634 -0.2668 0.7819
vn 0.2884 -0.3949 0.8723
vn 0.7725 -0.5418 -0.3313
vn 0.9110 0.0083 0.4124
vn 0.9494 -0.2781 -0.1459
vn 0.0343 -0.7040 0.7093
vn 0.4486 0.4437 0.7758
vn 0.4279 -0.8937 -0.1353
vn 0.2418 -0.7234 -0.6467
vn -0.6882 -0.1905 0.7000
vn -0.7359 -0.6771 0.0000
vn -0.6450 0.1545 0.7484
vn -0.9415 0.3371 0.0000
vn -0.9496 -0.0969 -0.2982
vn 0.9084 -0.2005 0.3668
vn 0.9429 0.0849 0.3219
vn 0.6871 0.2923 0.6651
vn 0.9063 0.4120 0.0940
vn 0.9222 0.3631 0.1329
vn 0.5375 0.8099 -0.2349
vn 0.9566 -0.1293 0.2611
vn 0.8368 -0.5414 -0.0817
vn 0.9912 -0.1000 0.0865
vn 0.9552 -0.2575 0.1457
vn 0.9646 -0.2564 -0.0609
vn 0.9712 -0.1210 0.2051
vn 0.7674 -0.2823 -0.5757
vn 0.7441 -0.5598 -0.3648
vn 0.7360 -0.6013 -0.3111
vn -0.9037 0.4279 -0.0173
vn -0.9602 0.2766 -0.0391
vn 0.3031 0.9496 -0.0797
vn 0.2761 0.9582 -0.0749
vn -0.2769 -0.9608 -0.0114
vn 0.9597 -0.2765 -0.0504
vn 0.9197 -0.3918 -0.0265
vn -0.2730 -0.9619 -0.0120
vn 0.6444 -0.2826 0.7106
vn 0.4569 -0.8652 0.2066
vn 0.8575 0.2166 -0.4667
vn 0.2384 0.1522 -0.9592
vn -0.4331 -0.8607 0.2676
vn 0.0178 -0.8304 0.5569
vn -0.8980 0.4381 0.0415
vn -0.9014 0.1336 -0.4119
vn 0.4010 0.7845 -0.4731
vn 0.2423 0.7188 -0.6516
vn -0.2406 -0.9647 -0.1068
vn -0.1577 -0.9324 0.3252
vn 0.8513 -0.2584 0.4566
vn 0.9092 -0.0059 0.4164
vn 0.0000 0.0000 -1.0000
vn -0.2769 -0.9608 -0.0115
vn 0.9981 -0.0613 0.0000
vn -0.8758 0.3136 0.3668
vn 0.5213 -0.4609 0.7182
vn 0.4723 0.6433 0.6025
vn -0.7532 0.5736 0.3219
vn -0.0242 0.9717 -0.2348
vn -0.8787 0.3995 0.2612
vn -0.5875 0.7982 0.1329
vn -0.5480 0.8312 0.0941
vn -0.4262 0.6132 0.6651
vn -0.0912 -0.9592 0.2676
vn -0.3096 -0.9448 -0.1069
vn -0.1688 0.7697 0.6156
vn -0.8000 0.1693 -0.5757
vn 0.9602 -0.2766 -0.0392
vn 0.2487 0.9653 -0.0797
vn -0.2807 -0.9597 -0.0120
vn -0.6107 0.6396 -0.4668
vn -0.9871 0.1576 -0.0265
vn -0.2662 -0.8451 -0.4637
vn -0.8378 0.5268 0.1433
vn -0.9597 0.2766 -0.0504
vn -0.5680 0.7304 0.3792
vn 0.1314 0.4560 -0.8802
vn -0.2033 -0.4709 -0.8585
vn -0.0473 0.7477 -0.6624
vn 0.0661 0.8273 0.5578
vn -0.8924 0.2164 0.3960
vn -0.0859 0.5404 0.8370
vn -0.1291 0.3967 0.9088
vn 0.1394 0.6356 0.7594
vn -0.2433 -0.8444 -0.4773
vn 0.2045 0.7099 0.6740
vn 0.0030 0.8772 0.4801
vn 0.2767 0.9604 0.0319
vn 0.4173 0.8982 -0.1384
vn 0.1622 -0.7968 -0.5821
vn 0.7911 -0.6117 0.0000
vn -0.2033 -0.4708 -0.8585
vn -0.7669 0.4917 0.4124
vn -0.9423 -0.0477 -0.3312
vn 0.6842 0.5591 -0.4682
vn 0.4379 0.6078 -0.6624
vn -0.0882 -0.9032 -0.4201
vn -0.9458 0.2903 0.1457
vn -0.8867 0.4144 0.2051
vn -0.3290 0.9036 -0.2743
vn -0.9278 -0.0780 -0.3648
vn 0.9928 -0.1186 -0.0173
vn -0.3208 0.9042 -0.2818
vn -0.2433 -0.8443 -0.4774
vn -0.2243 -0.8572 -0.4637
vn -0.9532 0.2961 -0.0609
vn 0.1325 0.7448 -0.6540
vn -0.1209 0.2557 -0.9592
vn 0.3602 0.4119 0.8370
vn -0.8472 -0.4894 0.2066
vn 0.5526 0.5619 0.6156
vn -0.8145 -0.0030 0.5801
vn 0.4642 0.7443 0.4801
vn 0.3842 0.7357 0.5578
vn -0.3626 -0.8734 0.3252
vn 0.1773 0.7376 -0.6516
vn 0.2768 0.9604 0.0320
vn 0.4760 0.8522 0.2171
vn -0.8583 0.2342 0.4566
vn 0.7593 0.5901 -0.2742
vn -0.7729 0.4787 0.4164
vn 0.7528 0.5949 -0.2818
vn -0.9966 -0.0132 -0.0817
vn 0.9934 -0.1069 0.0415
vn -0.4569 -0.6935 0.5570
vn 0.8707 -0.2915 0.3960
vn 0.8343 -0.3665 -0.4119
vn 0.3204 0.2672 0.9088
vn 0.2201 0.6122 0.7594
vn 0.8339 0.3131 0.4545
vn 0.1779 0.9617 -0.2083
vn -0.9823 0.0198 -0.1862
vn 0.7432 0.3398 -0.5763
vn 0.7357 0.1929 -0.6493
vn -0.5002 -0.6570 -0.5641
vn 0.9364 -0.0630 0.3452
vn -0.2331 -0.8092 -0.5393
vn 0.9390 -0.3361 -0.0729
vn 0.4096 -0.8826 0.2309
vn 0.3931 -0.8260 0.4039
vn 0.2640 -0.8127 0.5195
vn 0.6213 0.3496 0.7013
vn -0.3033 0.8200 0.4853
vn 0.9031 0.4120 0.1215
vn 0.9402 0.2623 -0.2172
vn 0.3344 0.9301 0.1520
vn 0.0779 0.8776 -0.4731
vn 0.2232 0.7747 0.5916
vn -0.8331 0.5256 -0.1723
vn 0.0504 0.9748 0.2172
vn -0.8925 0.4427 0.0865
vn -0.4291 -0.5778 0.6943
vn -0.3298 0.6268 0.7059
vn -0.9518 0.2698 -0.1459
vn 0.2715 0.9422 -0.1963
vn -0.9431 -0.1175 -0.3111
vn 0.1521 0.3522 0.9235
vn -0.1693 -0.3921 -0.9042
vn -0.0113 0.2584 0.9660
vn 0.0588 -0.1420 0.9881
vn -0.1674 -0.5808 0.7966
vn -0.8064 -0.2274 -0.5460
vn 0.8422 -0.5059 -0.1863
vn -0.4485 0.6832 -0.5763
vn -0.5202 0.5548 -0.6493
vn 0.0740 -0.8224 -0.5640
vn -0.8264 0.4450 0.3451
vn -0.2332 -0.8092 -0.5394
vn -0.9739 0.2151 -0.0729
vn -0.8164 -0.5293 0.2309
vn -0.7724 -0.4902 0.4039
vn -0.6559 -0.5476 0.5195
vn -0.3400 0.6266 0.7013
vn 0.6932 0.5328 0.4853
vn -0.5454 0.8293 0.1215
vn -0.6565 0.7224 -0.2172
vn 0.2118 0.9654 0.1520
vn -0.1276 -0.2956 -0.9467
vn -0.0535 -0.1857 -0.9812
vn -0.0280 -0.0650 0.9975
vn -0.1104 -0.3832 0.9171
vn 0.6880 -0.4360 0.5801
vn -0.4547 0.7886 0.4139
vn 0.8046 0.4258 0.4139
vn 0.1312 0.9187 -0.3724
vn 0.3777 0.8477 -0.3724
vn -0.3803 -0.1531 0.9121
vn -0.1070 -0.0442 0.9933
vn -0.0810 -0.9916 -0.1010
vn -0.3802 -0.1532 0.9122
vn -0.5953 0.4402 0.6721
vn 0.8201 -0.2675 -0.5059
vn 0.0420 0.9866 -0.1577
vn 0.5523 -0.5558 0.6214
vn -0.5687 0.4956 -0.6565
vn -0.5904 -0.3847 -0.7096
vn -0.0156 0.1393 0.9901
vn -0.6514 -0.7588 0.0041
vn 0.7187 -0.0082 -0.6953
vn 0.1612 -0.2394 -0.9574
vn 0.1613 -0.2394 -0.9574
vn 0.6718 0.1258 0.7300
vn 0.7527 0.6584 -0.0047
vn -0.7218 -0.0059 0.6921
vn -0.0157 0.1392 0.9901
vn -0.3828 0.8466 -0.3699
vn -0.6598 0.5030 0.5583
vn -0.4831 0.8707 0.0927
vn -0.2040 0.5222 -0.8281
vn -0.3216 -0.2327 -0.9178
vn -0.1811 0.2817 -0.9423
vn 0.8182 0.5671 0.0949
vn -0.2589 -0.7005 -0.6650
vn 0.3165 0.0373 -0.9479
vn 0.1290 -0.6459 0.7525
vn -0.5678 -0.4336 -0.6998
vn -0.5631 -0.4628 -0.6847
vn -0.4496 -0.4437 -0.7752
vn 0.6188 -0.7838 -0.0515
vn 0.1674 -0.6836 -0.7104
vn -0.8122 -0.1479 0.5643
vn -0.7360 -0.6770 -0.0001
vn 0.9897 0.0002 0.1433
vn 0.9980 -0.0626 0.0022
vn 0.4604 0.6147 0.6404
vn -0.6960 0.1035 0.7106
vn -0.5394 0.7089 0.4545
vn 0.3611 0.9090 -0.2083
vn 0.5504 0.5376 -0.6388
vn -0.6389 -0.5100 -0.5760
vn 0.0626 0.8351 -0.5465
vn 0.8696 0.3162 0.3793
vn 0.1246 0.9825 -0.1384
vn -0.8270 0.5575 -0.0732
vn 0.0651 0.7758 0.6276
vn 0.0627 0.7788 0.6241
vn 0.2241 -0.5426 -0.8095
vn -0.0392 -0.0908 0.9951
vn -0.4567 -0.1892 0.8693
vn -0.9539 -0.2708 0.1292
vn 0.1845 -0.3446 -0.9205
vn 0.0422 -0.0788 0.9960
vn -0.4567 -0.1891 0.8693
vn -0.3805 -0.1532 0.9120
vn -0.1388 0.0787 -0.9872
s off
f 13//1 67//1 6//1
f 19//2 66//2 8//2
f 16//3 69//3 68//3
f 2//4 8//4 9//4
f 13//5 6//5 3//5
f 13//6 2//6 14//6
f 1//7 2//7 3//7
f 6//8 8//8 1//8
f 7//9 15//9 16//9
f 13//10 3//10 2//10
f 8//11 108//11 12//11
f 1//12 3//12 6//12
f 8//13 66//13 108//13
f 11//14 13//14 7//14
f 10//15 12//15 108//15
f 9//16 8//16 12//16
f 10//17 108//17 66//17
f 5//18 13//18 14//18
f 15//19 20//19 16//19
f 68//20 4//20 11//20
f 4//21 15//21 5//21
f 21//22 44//22 18//22
f 21//23 61//23 44//23
f 21//24 69//24 88//24
f 15//25 21//25 18//25
f 22//26 47//26 42//26
f 41//27 24//27 40//27
f 43//28 25//28 27//28
f 28//29 145//29 142//29
f 29//30 32//30 162//30
f 27//31 141//31 142//31
f 141//32 29//32 28//32
f 30//33 161//33 154//33
f 161//34 32//34 31//34
f 33//35 35//35 31//35
f 31//36 32//36 33//36
f 33//37 32//37 34//37
f 24//38 39//38 40//38
f 40//39 43//39 41//39
f 24//40 41//40 45//40
f 24//41 45//41 46//41
f 56//42 24//42 46//42
f 46//43 36//43 57//43
f 24//44 23//44 39//44
f 39//45 37//45 42//45
f 40//46 42//46 43//46
f 42//47 40//47 39//47
f 23//48 24//48 56//48
f 43//49 42//49 47//49
f 26//50 47//50 22//50
f 37//51 38//51 42//51
f 22//52 42//52 38//52
f 51//53 55//53 50//53
f 54//54 50//54 55//54
f 51//55 49//55 55//55
f 55//56 49//56 53//56
f 52//57 48//57 54//57
f 52//58 53//58 49//58
f 48//59 52//59 49//59
f 50//60 54//60 48//60
f 58//61 36//61 44//61
f 44//62 59//62 23//62
f 46//63 57//63 56//63
f 56//64 60//64 23//64
f 23//65 60//65 44//65
f 59//66 44//66 61//66
f 50//67 60//67 51//67
f 56//68 51//68 60//68
f 51//69 56//69 49//69
f 56//70 57//70 49//70
f 48//71 60//71 50//71
f 60//72 48//72 44//72
f 48//73 49//73 58//73
f 58//74 49//74 57//74
f 63//75 65//75 64//75
f 122//76 124//76 118//76
f 78//77 155//77 77//77
f 72//78 84//78 83//78
f 79//79 77//79 35//79
f 30//80 155//80 76//80
f 84//81 85//81 87//81
f 90//82 127//82 80//82
f 72//83 83//83 71//83
f 126//84 90//84 72//84
f 72//85 90//85 89//85
f 72//86 89//86 85//86
f 125//56 123//56 119//56
f 71//87 88//87 130//87
f 118//88 120//88 130//88
f 94//89 87//89 95//89
f 74//90 70//90 91//90
f 124//91 125//91 120//91
f 121//92 125//92 119//92
f 120//93 118//93 124//93
f 90//94 126//94 127//94
f 118//95 119//95 122//95
f 82//96 70//96 93//96
f 128//97 80//97 127//97
f 122//98 119//98 123//98
f 136//99 134//99 137//99
f 113//75 74//75 112//75
f 92//100 112//100 74//100
f 34//101 110//101 78//101
f 73//102 92//102 74//102
f 89//103 95//103 85//103
f 88//104 69//104 80//104
f 75//105 87//105 94//105
f 69//106 20//106 80//106
f 20//107 117//107 80//107
f 93//108 70//108 114//108
f 94//109 115//109 75//109
f 85//110 95//110 87//110
f 96//111 116//111 89//111
f 135//112 136//112 138//112
f 79//113 34//113 78//113
f 77//114 79//114 78//114
f 34//115 32//115 110//115
f 85//116 84//116 72//116
f 92//100 26//100 112//100
f 70//117 86//117 91//117
f 76//118 156//118 29//118
f 25//119 26//119 92//119
f 68//120 21//120 17//120
f 113//75 112//75 26//75
f 86//121 83//121 84//121
f 87//122 91//122 86//122
f 96//123 90//123 97//123
f 81//124 86//124 82//124
f 121//125 120//125 125//125
f 90//126 80//126 97//126
f 93//127 114//127 22//127
f 38//128 93//128 22//128
f 71//129 126//129 72//129
f 76//130 151//130 146//130
f 94//109 27//109 115//109
f 126//131 71//131 130//131
f 27//132 94//132 43//132
f 88//133 71//133 129//133
f 94//134 95//134 43//134
f 118//135 88//135 128//135
f 41//136 43//136 95//136
f 45//137 41//137 95//137
f 118//138 130//138 88//138
f 126//139 119//139 127//139
f 96//140 45//140 116//140
f 45//141 96//141 46//141
f 118//142 128//142 119//142
f 96//143 97//143 46//143
f 128//144 127//144 119//144
f 46//145 97//145 36//145
f 83//146 86//146 81//146
f 120//147 121//147 130//147
f 129//148 61//148 88//148
f 44//149 36//149 18//149
f 126//150 130//150 121//150
f 18//151 36//151 20//151
f 20//152 36//152 117//152
f 103//153 101//153 100//153
f 102//154 103//154 100//154
f 107//155 99//155 102//155
f 25//156 102//156 26//156
f 102//157 99//157 26//157
f 26//158 99//158 47//158
f 99//159 102//159 47//159
f 47//160 99//160 98//160
f 100//161 101//161 98//161
f 98//162 101//162 47//162
f 101//163 104//163 47//163
f 47//164 104//164 43//164
f 104//165 106//165 43//165
f 43//166 106//166 25//166
f 102//167 25//167 105//167
f 106//168 105//168 25//168
f 36//169 97//169 117//169
f 121//170 119//170 126//170
f 45//171 95//171 116//171
f 75//172 146//172 73//172
f 89//173 90//173 96//173
f 84//174 87//174 86//174
f 21//175 88//175 61//175
f 22//75 113//75 26//75
f 148//176 144//176 143//176
f 87//177 75//177 73//177
f 25//178 92//178 111//178
f 70//179 82//179 86//179
f 31//180 35//180 109//180
f 32//181 159//181 110//181
f 25//182 29//182 147//182
f 31//183 152//183 154//183
f 145//184 115//184 27//184
f 7//185 68//185 11//185
f 140//186 135//186 132//186
f 73//187 74//187 135//187
f 135//188 74//188 132//188
f 74//189 91//189 132//189
f 132//190 91//190 135//190
f 91//191 131//191 132//191
f 133//192 131//192 134//192
f 131//193 91//193 134//193
f 134//194 91//194 137//194
f 91//195 87//195 137//195
f 137//196 87//196 139//196
f 87//197 73//197 139//197
f 135//198 138//198 73//198
f 139//199 73//199 138//199
f 80//200 117//200 97//200
f 89//171 116//171 95//171
f 70//75 113//75 114//75
f 73//178 111//178 92//178
f 77//180 109//180 35//180
f 110//201 156//201 78//201
f 73//202 29//202 111//202
f 160//203 109//203 77//203
f 115//204 144//204 75//204
f 44//205 48//205 58//205
f 137//206 139//206 136//206
f 104//207 103//207 106//207
f 105//208 106//208 103//208
f 138//209 136//209 139//209
f 150//210 143//210 144//210
f 143//211 149//211 30//211
f 142//212 141//212 28//212
f 150//213 145//213 149//213
f 149//211 145//211 30//211
f 144//214 148//214 75//214
f 147//215 141//215 25//215
f 146//216 148//216 76//216
f 142//217 145//217 27//217
f 151//218 73//218 146//218
f 158//219 162//219 32//219
f 154//220 152//220 30//220
f 158//221 161//221 28//221
f 156//222 153//222 78//222
f 156//223 159//223 29//223
f 159//224 157//224 29//224
f 155//225 160//225 77//225
f 155//226 153//226 76//226
f 154//227 161//227 31//227
f 152//228 160//228 30//228
f 16//229 20//229 69//229
f 2//230 1//230 8//230
f 6//231 19//231 8//231
f 7//232 5//232 15//232
f 11//233 67//233 13//233
f 5//234 7//234 13//234
f 15//235 18//235 20//235
f 68//236 17//236 4//236
f 4//21 17//21 15//21
f 15//237 17//237 21//237
f 28//238 30//238 145//238
f 158//239 28//239 162//239
f 28//240 29//240 162//240
f 29//241 157//241 32//241
f 27//242 25//242 141//242
f 141//243 147//243 29//243
f 30//244 28//244 161//244
f 161//245 158//245 32//245
f 58//246 57//246 36//246
f 63//75 62//75 65//75
f 78//247 153//247 155//247
f 30//248 160//248 155//248
f 128//249 88//249 80//249
f 136//250 133//250 134//250
f 135//251 133//251 136//251
f 76//252 153//252 156//252
f 68//253 69//253 21//253
f 76//254 29//254 151//254
f 103//255 104//255 101//255
f 102//256 105//256 103//256
f 75//257 148//257 146//257
f 22//75 114//75 113//75
f 30//258 76//258 143//258
f 76//259 148//259 143//259
f 32//260 157//260 159//260
f 25//202 111//202 29//202
f 31//261 109//261 152//261
f 145//262 150//262 115//262
f 7//263 16//263 68//263
f 70//75 74//75 113//75
f 110//264 159//264 156//264
f 160//265 152//265 109//265
f 115//266 150//266 144//266
f 150//267 149//267 143//267
f 151//268 29//268 73//268
