# Blender v2.80 (sub 75) OBJ File: 'dream.blend'
# www.blender.org
v 32.134899 -29.908775 10.167073
v 32.152699 -29.847012 10.167073
v 32.073135 -29.890978 10.167073
v 32.090935 -29.829214 10.167073
v 32.020130 -29.979200 10.000000
v 32.067989 -29.992990 10.000000
v 32.081779 -29.945131 10.000000
v 32.033920 -29.931341 10.000000
v 32.253048 -29.761856 10.000000
v 32.253929 -29.758797 10.048434
v 32.170479 -29.738064 10.000000
v 32.171360 -29.735004 10.048434
v 32.304478 -29.521290 10.000000
v 32.320992 -29.526047 10.071073
v 32.238422 -29.502256 10.000000
v 32.238422 -29.502256 10.071073
v 32.247093 -29.782526 10.024217
v 32.164520 -29.758734 10.024217
v 32.245663 -29.477123 10.035536
v 32.328236 -29.500916 10.035536
v 31.668272 -29.774321 10.167073
v 31.686069 -29.712557 10.167073
v 31.730038 -29.792118 10.167073
v 31.747833 -29.730354 10.167073
v 31.727974 -29.895018 10.000000
v 31.680117 -29.881229 10.000000
v 31.693905 -29.833370 10.000000
v 31.741764 -29.847160 10.000000
v 31.646416 -29.587063 10.000000
v 31.647297 -29.584002 10.048434
v 31.728987 -29.610853 10.000000
v 31.729868 -29.607794 10.048434
v 31.730875 -29.356012 10.000000
v 31.714361 -29.351254 10.071073
v 31.796932 -29.375046 10.000000
v 31.796932 -29.375046 10.071073
v 31.640461 -29.607731 10.024217
v 31.723030 -29.631523 10.024217
v 31.804173 -29.349913 10.035536
v 31.721603 -29.326122 10.035536
vn -0.9490 0.2735 0.1567
vn 0.9332 -0.2691 -0.2382
vn 0.2288 0.7939 -0.5633
vn -0.2379 -0.8257 0.5115
vn -0.9333 0.2688 -0.2382
vn 0.0000 0.0000 -1.0000
vn -0.9609 0.2769 -0.0000
vn -0.0258 -0.0894 0.9957
vn -0.1939 -0.6728 0.7140
vn 0.9609 -0.2769 0.0000
vn 0.2230 0.7739 -0.5928
vn -0.8285 0.3029 -0.4710
vn 0.9490 -0.2735 0.1567
vn -0.1939 -0.6728 0.7139
vn -0.9609 0.2769 0.0001
vn 0.8626 -0.1844 -0.4710
vn 0.2230 0.7739 -0.5927
vn -0.2070 -0.7183 -0.6642
vn 0.9609 -0.2768 0.0001
vn -0.2070 -0.7185 -0.6640
vn -0.9490 0.2736 0.1567
vn 0.9333 -0.2688 -0.2382
vn 0.2287 0.7939 -0.5633
vn -0.2379 -0.8257 0.5114
vn 0.2288 0.7939 -0.5634
vn -0.9332 0.2689 -0.2382
vn 0.9609 -0.2769 -0.0001
vn 0.9491 -0.2734 0.1567
vn 0.9609 -0.2769 0.0001
vn -0.9609 0.2768 -0.0001
vn -0.2070 -0.7184 -0.6641
vn -0.2070 -0.7184 -0.6642
s off
f 8//1 3//1 4//1
f 1//2 7//2 2//2
f 7//3 4//3 2//3
f 3//4 6//4 1//4
f 24//3 27//3 22//3
f 21//5 27//5 26//5
f 23//4 26//4 25//4
f 31//6 33//6 35//6
f 40//7 30//7 34//7
f 36//8 30//8 32//8
f 38//9 30//9 37//9
f 39//10 32//10 38//10
f 33//11 39//11 35//11
f 29//12 40//12 33//12
f 23//13 28//13 24//13
f 26//6 28//6 25//6
f 10//14 18//14 17//14
f 12//15 19//15 18//15
f 20//10 10//10 17//10
f 11//6 13//6 9//6
f 16//8 10//8 14//8
f 20//16 9//16 13//16
f 19//17 13//17 15//17
f 11//7 19//7 15//7
f 17//18 11//18 9//18
f 31//19 39//19 38//19
f 31//20 37//20 29//20
f 8//21 5//21 3//21
f 1//22 6//22 7//22
f 7//23 8//23 4//23
f 3//24 5//24 6//24
f 24//25 28//25 27//25
f 21//26 22//26 27//26
f 23//4 21//4 26//4
f 31//6 29//6 33//6
f 40//7 37//7 30//7
f 36//8 34//8 30//8
f 38//9 32//9 30//9
f 39//27 36//27 32//27
f 33//11 40//11 39//11
f 29//7 37//7 40//7
f 23//28 25//28 28//28
f 26//6 27//6 28//6
f 10//14 12//14 18//14
f 12//7 16//7 19//7
f 20//29 14//29 10//29
f 11//6 15//6 13//6
f 16//8 12//8 10//8
f 20//10 17//10 9//10
f 19//11 20//11 13//11
f 11//30 18//30 19//30
f 17//31 18//31 11//31
f 31//10 35//10 39//10
f 31//32 38//32 37//32
