# Blender v2.80 (sub 75) OBJ File: 'dream.blend'
# www.blender.org
v 10.533007 -56.442333 2.309823
v 10.645857 -56.266705 2.284952
v 10.439841 -56.381241 2.273220
v 10.656093 -56.610260 2.126448
v 10.666196 -56.415222 2.137499
v 10.397974 -56.575165 2.401042
v 10.471267 -56.447056 2.165443
v 10.604808 -56.461571 2.412019
v 10.696664 -56.228901 2.395265
v 10.724128 -56.662231 2.133630
v 10.487259 -56.637886 2.221300
v 10.691487 -56.450485 2.241887
v 10.437479 -56.413708 2.181904
v 10.704780 -56.373497 2.127020
v 10.614874 -56.467197 2.117362
v 10.470558 -56.453686 2.146317
v 10.609118 -56.578300 2.111067
v 10.655478 -56.519573 2.080227
v 10.415406 -56.578892 2.526985
v 10.593311 -56.429096 2.075545
v 10.554247 -56.564671 2.093283
v 10.630851 -56.553028 1.047521
v 10.636572 -56.712379 1.790456
v 10.687778 -56.500168 1.707956
v 10.800116 -56.123852 1.140993
v 10.761480 -56.197880 1.047521
v 10.828567 -56.112083 1.303748
v 10.982386 -56.102516 1.276086
v 11.053967 -55.909142 1.086525
v 11.053967 -55.909142 1.429790
v 11.136097 -56.254059 1.447010
v 11.136097 -56.254059 1.236319
v 11.087962 -56.388493 1.433282
v 11.119775 -56.469379 1.358284
v 11.165647 -56.427475 1.508279
v 10.714204 -56.414330 2.028590
v 10.685653 -56.677170 1.389610
v 10.627827 -56.655457 1.238331
v 10.696029 -56.690392 1.583552
v 10.763645 -56.464355 1.539641
v 10.732927 -56.373569 1.605672
v 10.772683 -56.536995 1.352039
v 10.794359 -56.279888 1.401042
v 10.650501 -56.657455 1.989649
v 10.645457 -56.407814 1.711084
v 10.647033 -56.433537 1.808607
v 10.819423 -56.388588 1.218271
v 10.768262 -56.750481 1.780065
v 10.811734 -56.646915 1.757626
v 10.672732 -56.722958 1.746690
v 10.721478 -56.620911 1.724250
v 10.756323 -56.740311 1.214594
v 10.774120 -56.678547 1.214594
v 10.694559 -56.722515 1.214594
v 10.712356 -56.660751 1.214594
v 10.685288 -56.538555 1.830145
v 10.725887 -56.445477 1.947934
v 10.726401 -56.597561 1.944650
v 10.584048 -56.711166 1.911699
v 10.672382 -56.728424 1.796811
v 10.531155 -56.644814 2.012316
v 10.641552 -56.810734 1.047521
v 10.689410 -56.824524 1.047521
v 10.703200 -56.776669 1.047521
v 10.655342 -56.762878 1.047521
v 10.561310 -56.612476 2.302852
v 10.456898 -56.681953 2.243110
v 10.512945 -56.594036 2.165098
v 10.492533 -56.472622 2.080227
v 10.495584 -56.514050 1.047521
v 10.405949 -56.645927 1.790456
v 10.475512 -56.439007 1.707956
v 10.580635 -56.060612 1.140993
v 10.573956 -56.143848 1.047521
v 10.562808 -56.035507 1.303748
v 11.084165 -55.787346 1.276086
v 11.329529 -56.337574 1.447010
v 11.329529 -56.337574 1.236319
v 11.197460 -56.508362 1.433282
v 10.498812 -56.352268 2.028590
v 10.383129 -56.590000 1.389610
v 10.443642 -56.602386 1.238331
v 10.367307 -56.595676 1.583552
v 10.430332 -56.368313 1.539641
v 10.504648 -56.307793 1.605672
v 10.384027 -56.425011 1.352039
v 10.502483 -56.195786 1.401042
v 10.423380 -56.592014 1.989649
v 10.560486 -56.383331 1.711084
v 10.545464 -56.404270 1.808607
v 10.423423 -56.274483 1.218271
v 10.687309 -56.102875 1.085668
v 10.550018 -56.579350 1.135278
v 10.674622 -56.146908 1.387142
v 10.641111 -56.263203 1.523363
v 10.602508 -56.397182 1.763538
v 10.614561 -56.355350 1.886909
v 10.942416 -56.357582 1.118593
v 10.859845 -56.333790 1.118593
v 10.975948 -56.269947 1.146454
v 10.961371 -56.324642 1.210885
v 10.857324 -56.249214 1.140863
v 10.938035 -56.250732 1.202782
v 10.909915 -56.301048 1.309219
v 10.845441 -56.239773 1.197190
v 10.858517 -56.198498 1.303628
v 10.867086 -56.308659 1.083057
v 10.626399 -56.531479 2.272369
v 11.232813 -56.295818 1.447010
v 11.232813 -56.295818 1.236319
v 10.690375 -56.092232 1.140993
v 10.667719 -56.170864 1.047521
v 10.607009 -56.381557 1.047521
v 10.563218 -56.533539 1.047521
v 10.695687 -56.073795 1.303748
v 10.602971 -56.395573 1.711084
v 10.608516 -56.376331 2.028590
v 10.274175 -56.608116 1.780065
v 10.292475 -56.497299 1.757626
v 10.369704 -56.635643 1.746690
v 10.382730 -56.523304 1.724250
v 10.289696 -56.605858 1.214594
v 10.307492 -56.544094 1.214594
v 10.351460 -56.623653 1.214594
v 10.369256 -56.561890 1.214594
v 10.457192 -56.472832 1.830145
v 10.472347 -56.372421 1.947934
v 10.390988 -56.500916 1.944650
v 10.451065 -56.672848 1.911699
v 10.367091 -56.640457 1.796811
v 10.335784 -56.182789 1.118593
v 10.418354 -56.206581 1.118593
v 10.354024 -56.090748 1.146454
v 10.337262 -56.144814 1.210885
v 10.465493 -56.136311 1.140863
v 10.396349 -56.094650 1.202782
v 10.393383 -56.152218 1.309219
v 10.480578 -56.134640 1.197190
v 10.491469 -56.092739 1.303628
v 10.425596 -56.181450 1.083057
v 10.854658 -56.085255 1.209011
v 10.861832 -56.094116 1.290251
v 10.803905 -55.867855 1.404687
v 10.797367 -55.868168 1.401908
v 10.848484 -55.979633 1.404513
v 10.741153 -55.783066 1.211461
v 10.822874 -55.983631 1.103747
v 10.742608 -55.770653 1.289541
v 10.826169 -55.923683 1.404600
v 10.823346 -55.924820 1.403232
v 10.768370 -55.858837 1.130692
v 11.207004 -56.120701 1.461964
v 11.345282 -56.086060 1.249640
v 11.150629 -56.135624 1.463171
v 11.345049 -56.084808 1.389155
v 11.268815 -56.101482 1.170789
v 11.150023 -56.132122 1.158446
v 11.050826 -56.161373 1.257016
v 11.205549 -56.117802 1.164215
v 11.270976 -56.103764 1.460594
v 11.048431 -56.158783 1.356393
v 11.150117 -56.135014 1.160116
vn -0.9546 -0.1303 -0.2681
vn 0.6550 -0.5577 0.5099
vn -0.9255 -0.3088 -0.2192
vn -0.8855 0.3699 0.2811
vn -0.9819 0.1853 -0.0405
vn -0.2384 0.7609 -0.6035
vn -0.1993 0.2618 0.9443
vn -0.4464 0.7686 0.4583
vn 0.0226 0.9443 -0.3284
vn -0.4527 0.8438 -0.2882
vn 0.7874 -0.4939 0.3690
vn 0.0289 0.5458 0.8374
vn -0.6224 -0.2675 -0.7356
vn 0.6562 -0.2609 0.7081
vn 0.8557 -0.3079 0.4159
vn 0.6562 -0.2609 0.7080
vn -0.1905 -0.0697 -0.9792
vn 0.1936 0.7728 0.6044
vn -0.2589 -0.7005 -0.6650
vn 0.3331 0.0361 -0.9422
vn 0.3350 -0.5257 0.7819
vn 0.0559 -0.7175 0.6943
vn -0.5634 -0.2668 0.7819
vn 0.2884 -0.3949 0.8723
vn 0.7725 -0.5419 -0.3312
vn 0.9110 0.0083 0.4124
vn 0.9494 -0.2781 -0.1459
vn 0.0343 -0.7040 0.7093
vn 0.4487 0.4437 0.7758
vn 0.4278 -0.8937 -0.1353
vn 0.2418 -0.7234 -0.6467
vn -0.6882 -0.1906 0.7000
vn -0.7359 -0.6771 0.0000
vn -0.6450 0.1545 0.7484
vn -0.9415 0.3371 0.0000
vn -0.9496 -0.0969 -0.2982
vn 0.9084 -0.2005 0.3668
vn 0.9429 0.0849 0.3220
vn 0.6871 0.2923 0.6651
vn 0.9063 0.4121 0.0941
vn 0.9222 0.3632 0.1329
vn 0.5376 0.8098 -0.2348
vn 0.9566 -0.1293 0.2612
vn 0.8368 -0.5414 -0.0817
vn 0.9912 -0.1001 0.0865
vn 0.9552 -0.2574 0.1457
vn 0.9646 -0.2564 -0.0609
vn 0.9712 -0.1210 0.2051
vn 0.7674 -0.2823 -0.5757
vn 0.7441 -0.5597 -0.3647
vn 0.7360 -0.6013 -0.3111
vn -0.9037 0.4279 -0.0173
vn -0.9602 0.2767 -0.0392
vn 0.3031 0.9496 -0.0797
vn 0.2761 0.9582 -0.0750
vn -0.2768 -0.9608 -0.0114
vn 0.9597 -0.2765 -0.0504
vn 0.9197 -0.3918 -0.0265
vn -0.2730 -0.9620 -0.0120
vn 0.6443 -0.2826 0.7106
vn 0.4569 -0.8652 0.2066
vn 0.8575 0.2166 -0.4667
vn 0.2384 0.1522 -0.9592
vn -0.4331 -0.8607 0.2676
vn 0.0178 -0.8303 0.5570
vn -0.8980 0.4381 0.0415
vn -0.9014 0.1336 -0.4119
vn 0.4010 0.7845 -0.4731
vn 0.2423 0.7188 -0.6516
vn -0.2406 -0.9647 -0.1070
vn -0.1577 -0.9324 0.3253
vn 0.8513 -0.2584 0.4566
vn 0.9092 -0.0059 0.4164
vn 0.0000 0.0000 -1.0000
vn 0.9981 -0.0613 0.0000
vn -0.8758 0.3136 0.3668
vn 0.5213 -0.4609 0.7182
vn 0.4723 0.6433 0.6025
vn -0.7532 0.5736 0.3219
vn -0.0242 0.9717 -0.2348
vn -0.8787 0.3995 0.2611
vn -0.5876 0.7982 0.1329
vn -0.5480 0.8312 0.0940
vn -0.4262 0.6131 0.6651
vn 0.2761 0.9582 -0.0749
vn -0.0913 -0.9592 0.2676
vn -0.3096 -0.9448 -0.1069
vn -0.1689 0.7698 0.6156
vn -0.8000 0.1694 -0.5757
vn 0.9602 -0.2767 -0.0392
vn 0.2487 0.9653 -0.0797
vn -0.2807 -0.9597 -0.0120
vn -0.6107 0.6397 -0.4668
vn -0.9871 0.1577 -0.0265
vn -0.2662 -0.8451 -0.4637
vn -0.8378 0.5268 0.1432
vn -0.9597 0.2765 -0.0504
vn -0.5681 0.7304 0.3792
vn 0.1314 0.4560 -0.8802
vn -0.2033 -0.4709 -0.8585
vn -0.0473 0.7477 -0.6624
vn 0.0661 0.8273 0.5578
vn -0.8924 0.2165 0.3960
vn -0.0859 0.5404 0.8370
vn -0.1291 0.3967 0.9088
vn 0.1394 0.6356 0.7593
vn -0.2433 -0.8443 -0.4774
vn 0.2045 0.7098 0.6740
vn 0.0030 0.8772 0.4801
vn 0.2767 0.9604 0.0323
vn 0.4173 0.8982 -0.1384
vn 0.1622 -0.7968 -0.5821
vn 0.7911 -0.6117 0.0000
vn -0.2033 -0.4709 -0.8584
vn -0.7669 0.4917 0.4124
vn -0.9423 -0.0478 -0.3312
vn 0.6842 0.5591 -0.4682
vn 0.4379 0.6079 -0.6624
vn -0.0882 -0.9033 -0.4199
vn -0.9458 0.2903 0.1457
vn -0.8867 0.4144 0.2051
vn -0.3290 0.9036 -0.2743
vn -0.9278 -0.0780 -0.3647
vn 0.9928 -0.1186 -0.0173
vn -0.3208 0.9042 -0.2818
vn -0.2433 -0.8444 -0.4773
vn -0.2243 -0.8572 -0.4637
vn -0.9532 0.2962 -0.0609
vn 0.1325 0.7448 -0.6540
vn 0.2046 0.7099 0.6739
vn -0.1208 0.2557 -0.9592
vn 0.3602 0.4118 0.8370
vn -0.8472 -0.4894 0.2066
vn 0.5526 0.5619 0.6156
vn -0.8145 -0.0031 0.5801
vn 0.4642 0.7443 0.4801
vn 0.3842 0.7357 0.5578
vn -0.3626 -0.8734 0.3252
vn 0.1773 0.7376 -0.6516
vn 0.2767 0.9604 0.0316
vn 0.4761 0.8522 0.2171
vn -0.8583 0.2342 0.4566
vn 0.7594 0.5901 -0.2743
vn -0.7729 0.4787 0.4164
vn 0.7528 0.5949 -0.2818
vn -0.9966 -0.0132 -0.0817
vn 0.9934 -0.1069 0.0415
vn -0.4569 -0.6936 0.5569
vn 0.8707 -0.2916 0.3960
vn 0.8343 -0.3665 -0.4119
vn 0.3204 0.2672 0.9088
vn 0.2202 0.6123 0.7593
vn 0.8339 0.3131 0.4545
vn 0.1779 0.9617 -0.2084
vn -0.9823 0.0198 -0.1862
vn 0.7432 0.3398 -0.5763
vn 0.7357 0.1929 -0.6493
vn -0.5002 -0.6570 -0.5641
vn 0.9364 -0.0629 0.3452
vn -0.2332 -0.8092 -0.5393
vn 0.9390 -0.3361 -0.0728
vn 0.4096 -0.8826 0.2309
vn 0.3931 -0.8260 0.4039
vn 0.2640 -0.8127 0.5195
vn 0.6213 0.3496 0.7013
vn -0.3034 0.8200 0.4853
vn 0.9031 0.4120 0.1215
vn 0.9402 0.2623 -0.2172
vn 0.3344 0.9301 0.1520
vn 0.0779 0.8775 -0.4731
vn 0.2232 0.7747 0.5916
vn -0.8331 0.5256 -0.1723
vn 0.0504 0.9748 0.2171
vn -0.8925 0.4427 0.0865
vn -0.4291 -0.5778 0.6943
vn -0.3297 0.6273 0.7055
vn -0.9518 0.2697 -0.1459
vn 0.2715 0.9422 -0.1964
vn -0.9431 -0.1175 -0.3111
vn 0.1521 0.3522 0.9235
vn -0.1693 -0.3921 -0.9042
vn -0.0113 0.2584 0.9660
vn 0.0588 -0.1420 0.9881
vn -0.1674 -0.5808 0.7966
vn -0.8064 -0.2274 -0.5459
vn 0.8422 -0.5060 -0.1863
vn -0.4485 0.6831 -0.5763
vn -0.5202 0.5547 -0.6494
vn 0.0740 -0.8225 -0.5640
vn -0.8264 0.4450 0.3452
vn -0.2331 -0.8091 -0.5394
vn -0.9739 0.2151 -0.0729
vn -0.8164 -0.5293 0.2309
vn -0.7724 -0.4902 0.4039
vn -0.6559 -0.5476 0.5195
vn -0.3400 0.6266 0.7013
vn 0.6932 0.5329 0.4853
vn -0.5454 0.8293 0.1215
vn -0.6565 0.7224 -0.2172
vn 0.2118 0.9654 0.1520
vn 0.2715 0.9422 -0.1963
vn -0.1276 -0.2956 -0.9468
vn -0.0535 -0.1857 -0.9812
vn -0.0281 -0.0650 0.9975
vn -0.1104 -0.3832 0.9171
vn 0.6880 -0.4360 0.5801
vn -0.4547 0.7887 0.4138
vn 0.8046 0.4258 0.4138
vn 0.1312 0.9187 -0.3724
vn 0.3778 0.8477 -0.3723
vn -0.3804 -0.1531 0.9121
vn -0.1070 -0.0442 0.9933
vn -0.0810 -0.9916 -0.1009
vn -0.3803 -0.1531 0.9121
vn -0.5953 0.4402 0.6721
vn 0.8201 -0.2675 -0.5058
vn 0.0420 0.9866 -0.1575
vn 0.5523 -0.5557 0.6214
vn -0.5686 0.4956 -0.6566
vn -0.5904 -0.3847 -0.7096
vn -0.0157 0.1393 0.9901
vn -0.6514 -0.7588 0.0040
vn 0.7187 -0.0082 -0.6953
vn 0.1612 -0.2393 -0.9575
vn 0.1612 -0.2394 -0.9574
vn 0.6718 0.1258 0.7300
vn 0.7527 0.6584 -0.0047
vn -0.7218 -0.0059 0.6921
vn -0.0157 0.1392 0.9901
vn -0.3828 0.8466 -0.3698
vn -0.6598 0.5030 0.5582
vn -0.4831 0.8707 0.0926
vn -0.2040 0.5223 -0.8280
vn -0.3216 -0.2327 -0.9178
vn -0.1811 0.2817 -0.9423
vn 0.8182 0.5671 0.0948
vn -0.2589 -0.7006 -0.6650
vn 0.3165 0.0373 -0.9479
vn 0.1290 -0.6459 0.7525
vn -0.5679 -0.4335 -0.6997
vn -0.5631 -0.4628 -0.6847
vn -0.4496 -0.4437 -0.7752
vn 0.6189 -0.7838 -0.0515
vn 0.1674 -0.6835 -0.7105
vn -0.8122 -0.1479 0.5643
vn -0.7359 -0.6770 -0.0001
vn 0.9897 0.0003 0.1433
vn 0.9980 -0.0626 0.0022
vn 0.4604 0.6147 0.6405
vn -0.6959 0.1035 0.7106
vn -0.5394 0.7088 0.4545
vn 0.3611 0.9090 -0.2083
vn 0.5503 0.5376 -0.6388
vn -0.6389 -0.5100 -0.5760
vn 0.0626 0.8351 -0.5466
vn 0.8696 0.3162 0.3792
vn 0.1246 0.9825 -0.1382
vn -0.8270 0.5575 -0.0732
vn 0.0651 0.7758 0.6276
vn 0.0627 0.7788 0.6241
vn 0.2241 -0.5426 -0.8096
vn -0.0392 -0.0907 0.9951
vn -0.4567 -0.1891 0.8693
vn -0.9539 -0.2708 0.1292
vn 0.1845 -0.3446 -0.9205
vn 0.0422 -0.0788 0.9960
vn -0.3804 -0.1531 0.9120
vn -0.1388 0.0787 -0.9872
s off
f 13//1 67//1 6//1
f 19//2 66//2 8//2
f 16//3 69//3 68//3
f 2//4 8//4 9//4
f 13//5 6//5 3//5
f 13//6 2//6 14//6
f 1//7 2//7 3//7
f 6//8 8//8 1//8
f 7//9 15//9 16//9
f 13//10 3//10 2//10
f 8//11 108//11 12//11
f 1//12 3//12 6//12
f 8//11 66//11 108//11
f 11//13 13//13 7//13
f 10//14 12//14 108//14
f 9//15 8//15 12//15
f 10//16 108//16 66//16
f 5//17 13//17 14//17
f 15//18 20//18 16//18
f 68//19 4//19 11//19
f 4//20 15//20 5//20
f 21//21 44//21 18//21
f 21//22 61//22 44//22
f 21//23 69//23 88//23
f 15//24 21//24 18//24
f 22//25 47//25 42//25
f 41//26 24//26 40//26
f 43//27 25//27 27//27
f 28//28 145//28 142//28
f 29//29 32//29 162//29
f 27//30 141//30 142//30
f 141//31 29//31 28//31
f 30//32 161//32 154//32
f 161//33 32//33 31//33
f 33//34 35//34 31//34
f 31//35 32//35 33//35
f 33//36 32//36 34//36
f 24//37 39//37 40//37
f 40//38 43//38 41//38
f 24//39 41//39 45//39
f 24//40 45//40 46//40
f 56//41 24//41 46//41
f 46//42 36//42 57//42
f 24//43 23//43 39//43
f 39//44 37//44 42//44
f 40//45 42//45 43//45
f 42//46 40//46 39//46
f 23//47 24//47 56//47
f 43//48 42//48 47//48
f 26//49 47//49 22//49
f 37//50 38//50 42//50
f 22//51 42//51 38//51
f 51//52 55//52 50//52
f 54//53 50//53 55//53
f 51//54 49//54 55//54
f 55//55 49//55 53//55
f 52//56 48//56 54//56
f 52//57 53//57 49//57
f 48//58 52//58 49//58
f 50//59 54//59 48//59
f 58//60 36//60 44//60
f 44//61 59//61 23//61
f 46//62 57//62 56//62
f 56//63 60//63 23//63
f 23//64 60//64 44//64
f 59//65 44//65 61//65
f 50//66 60//66 51//66
f 56//67 51//67 60//67
f 51//68 56//68 49//68
f 56//69 57//69 49//69
f 48//70 60//70 50//70
f 60//71 48//71 44//71
f 48//72 49//72 58//72
f 58//73 49//73 57//73
f 63//74 65//74 64//74
f 122//56 124//56 118//56
f 78//75 155//75 77//75
f 72//76 84//76 83//76
f 79//77 77//77 35//77
f 30//78 155//78 76//78
f 84//79 85//79 87//79
f 90//80 127//80 80//80
f 72//81 83//81 71//81
f 126//82 90//82 72//82
f 72//83 90//83 89//83
f 72//84 89//84 85//84
f 125//85 123//85 119//85
f 71//86 88//86 130//86
f 118//87 120//87 130//87
f 94//88 87//88 95//88
f 74//89 70//89 91//89
f 124//90 125//90 120//90
f 121//91 125//91 119//91
f 120//92 118//92 124//92
f 90//93 126//93 127//93
f 118//94 119//94 122//94
f 82//95 70//95 93//95
f 128//96 80//96 127//96
f 122//97 119//97 123//97
f 136//98 134//98 137//98
f 113//74 74//74 112//74
f 92//99 112//99 74//99
f 34//100 110//100 78//100
f 73//101 92//101 74//101
f 89//102 95//102 85//102
f 88//103 69//103 80//103
f 75//104 87//104 94//104
f 69//105 20//105 80//105
f 20//106 117//106 80//106
f 93//107 70//107 114//107
f 94//108 115//108 75//108
f 85//109 95//109 87//109
f 96//110 116//110 89//110
f 135//111 136//111 138//111
f 79//112 34//112 78//112
f 77//113 79//113 78//113
f 34//114 32//114 110//114
f 85//115 84//115 72//115
f 92//99 26//99 112//99
f 70//116 86//116 91//116
f 76//117 156//117 29//117
f 25//118 26//118 92//118
f 68//119 21//119 17//119
f 113//74 112//74 26//74
f 86//120 83//120 84//120
f 87//121 91//121 86//121
f 96//122 90//122 97//122
f 81//123 86//123 82//123
f 121//124 120//124 125//124
f 90//125 80//125 97//125
f 93//126 114//126 22//126
f 38//127 93//127 22//127
f 71//128 126//128 72//128
f 76//129 151//129 146//129
f 94//130 27//130 115//130
f 126//131 71//131 130//131
f 27//132 94//132 43//132
f 88//133 71//133 129//133
f 94//134 95//134 43//134
f 118//135 88//135 128//135
f 41//136 43//136 95//136
f 45//137 41//137 95//137
f 118//138 130//138 88//138
f 126//139 119//139 127//139
f 96//140 45//140 116//140
f 45//141 96//141 46//141
f 118//142 128//142 119//142
f 96//143 97//143 46//143
f 128//144 127//144 119//144
f 46//145 97//145 36//145
f 83//146 86//146 81//146
f 120//147 121//147 130//147
f 129//148 61//148 88//148
f 44//149 36//149 18//149
f 126//150 130//150 121//150
f 18//151 36//151 20//151
f 20//152 36//152 117//152
f 103//153 101//153 100//153
f 102//154 103//154 100//154
f 107//155 99//155 102//155
f 25//156 102//156 26//156
f 102//157 99//157 26//157
f 26//158 99//158 47//158
f 99//159 102//159 47//159
f 47//160 99//160 98//160
f 100//161 101//161 98//161
f 98//162 101//162 47//162
f 101//163 104//163 47//163
f 47//164 104//164 43//164
f 104//165 106//165 43//165
f 43//166 106//166 25//166
f 102//167 25//167 105//167
f 106//168 105//168 25//168
f 36//169 97//169 117//169
f 121//170 119//170 126//170
f 45//171 95//171 116//171
f 75//172 146//172 73//172
f 89//173 90//173 96//173
f 84//174 87//174 86//174
f 21//175 88//175 61//175
f 22//74 113//74 26//74
f 148//176 144//176 143//176
f 87//177 75//177 73//177
f 25//178 92//178 111//178
f 70//179 82//179 86//179
f 31//180 35//180 109//180
f 32//181 159//181 110//181
f 25//182 29//182 147//182
f 31//183 152//183 154//183
f 145//184 115//184 27//184
f 7//185 68//185 11//185
f 140//186 135//186 132//186
f 73//187 74//187 135//187
f 135//188 74//188 132//188
f 74//189 91//189 132//189
f 132//190 91//190 135//190
f 91//191 131//191 132//191
f 133//192 131//192 134//192
f 131//193 91//193 134//193
f 134//194 91//194 137//194
f 91//195 87//195 137//195
f 137//196 87//196 139//196
f 87//197 73//197 139//197
f 135//198 138//198 73//198
f 139//199 73//199 138//199
f 80//200 117//200 97//200
f 89//171 116//171 95//171
f 70//74 113//74 114//74
f 73//201 111//201 92//201
f 77//180 109//180 35//180
f 110//202 156//202 78//202
f 73//203 29//203 111//203
f 160//204 109//204 77//204
f 115//205 144//205 75//205
f 44//206 48//206 58//206
f 137//207 139//207 136//207
f 104//208 103//208 106//208
f 105//209 106//209 103//209
f 138//210 136//210 139//210
f 150//211 143//211 144//211
f 143//212 149//212 30//212
f 142//213 141//213 28//213
f 150//214 145//214 149//214
f 149//212 145//212 30//212
f 144//215 148//215 75//215
f 147//216 141//216 25//216
f 146//217 148//217 76//217
f 142//218 145//218 27//218
f 151//219 73//219 146//219
f 158//220 162//220 32//220
f 154//221 152//221 30//221
f 158//222 161//222 28//222
f 156//223 153//223 78//223
f 156//224 159//224 29//224
f 159//225 157//225 29//225
f 155//226 160//226 77//226
f 155//227 153//227 76//227
f 154//228 161//228 31//228
f 152//229 160//229 30//229
f 16//230 20//230 69//230
f 2//231 1//231 8//231
f 6//232 19//232 8//232
f 7//233 5//233 15//233
f 11//234 67//234 13//234
f 5//235 7//235 13//235
f 15//236 18//236 20//236
f 68//237 17//237 4//237
f 4//20 17//20 15//20
f 15//238 17//238 21//238
f 28//239 30//239 145//239
f 158//240 28//240 162//240
f 28//241 29//241 162//241
f 29//242 157//242 32//242
f 27//243 25//243 141//243
f 141//244 147//244 29//244
f 30//245 28//245 161//245
f 161//246 158//246 32//246
f 58//247 57//247 36//247
f 63//74 62//74 65//74
f 78//248 153//248 155//248
f 30//249 160//249 155//249
f 128//250 88//250 80//250
f 136//251 133//251 134//251
f 135//252 133//252 136//252
f 76//253 153//253 156//253
f 68//254 69//254 21//254
f 76//255 29//255 151//255
f 103//256 104//256 101//256
f 102//257 105//257 103//257
f 75//258 148//258 146//258
f 22//74 114//74 113//74
f 30//259 76//259 143//259
f 76//260 148//260 143//260
f 32//261 157//261 159//261
f 25//203 111//203 29//203
f 31//262 109//262 152//262
f 145//263 150//263 115//263
f 7//264 16//264 68//264
f 70//74 74//74 113//74
f 110//265 159//265 156//265
f 160//266 152//266 109//266
f 115//263 150//263 144//263
f 150//267 149//267 143//267
f 151//268 29//268 73//268
