# Blender v2.80 (sub 75) OBJ File: 'arctic.blend'
# www.blender.org
v -21.397503 18.684727 0.000000
v -21.397499 18.684729 1.000000
v -18.301710 24.488430 0.000000
v -18.301708 24.488434 1.000000
v -16.152760 15.143669 0.000000
v -16.152758 15.143669 1.000000
v -8.643452 22.614950 0.000000
v -8.643452 22.614950 1.000000
v -14.893121 14.218838 -0.000000
v 12.898895 -17.067009 1.000000
v 12.898895 -17.067011 -0.000000
v -14.893121 14.218842 1.000000
v -1.389833 25.633690 -0.000000
v -1.389833 25.633698 1.000000
v 18.779713 -12.052546 -0.000000
v 18.779713 -12.052544 1.000000
v 20.943535 28.972553 1.000000
v 20.943535 28.972549 -0.000000
v 26.566910 1.593322 1.000000
v 26.566910 1.593320 -0.000000
v -13.523869 -4.473597 1.000000
v -13.523869 -4.473598 -0.000000
v 4.818735 -14.130044 1.000000
v 4.818735 -14.130047 -0.000000
v -23.281397 0.736096 -0.000000
v -23.281397 0.736098 1.000000
v -17.533920 2.845805 -0.000000
v -17.533920 2.845807 1.000000
v -20.944433 2.180973 -0.000000
v -20.944433 2.180974 1.000000
v -18.308556 -3.898088 -0.000000
v -18.308556 -3.898086 1.000000
v -20.700342 6.893748 -0.000000
v -20.700342 6.893750 1.000000
v -23.225193 4.625664 1.000000
v -23.225193 4.625663 -0.000000
v -17.718420 7.205031 1.000000
v -17.718420 7.205029 -0.000000
v -21.614000 -2.979061 1.000000
v -21.614000 -2.979063 -0.000000
v -15.932049 1.730610 1.000000
v -15.932049 1.730608 -0.000000
v -8.066219 -9.792805 0.999999
v -8.066219 -9.792807 -0.000001
v -8.548992 -12.508617 0.999999
v -8.548992 -12.508619 -0.000001
v -12.802069 -10.958057 0.999999
v -12.802069 -10.958060 -0.000001
v -14.956671 -15.497898 0.999999
v -14.956671 -15.497900 -0.000001
v -11.165161 -15.257385 0.999999
v -11.165161 -15.257387 -0.000001
v -10.221785 -9.255519 0.999999
v -10.221785 -9.255521 -0.000001
v -8.521145 -18.013494 0.000000
v -8.521145 -18.013493 1.000000
v -5.997229 -10.948900 0.000000
v -5.997229 -10.948898 1.000000
v -0.787508 -20.832714 0.000000
v -0.787508 -20.832712 1.000000
v 7.177534 -17.274216 0.000000
v 7.177534 -17.274214 1.000000
vn -0.8823 0.4706 0.0000
vn 0.1904 0.9817 -0.0000
vn 0.7053 -0.7089 0.0000
vn -0.5596 -0.8288 0.0000
vn -0.0000 0.0000 -1.0000
vn -0.0000 0.0000 1.0000
vn 0.8685 -0.4956 0.0000
vn -0.6456 0.7637 -0.0000
vn -0.3416 -0.9398 0.0000
vn 0.9796 0.2012 -0.0000
vn -0.1479 0.9890 -0.0000
vn -0.4658 -0.8849 0.0000
vn 0.9991 0.0423 -0.0000
vn -0.9123 -0.4095 0.0000
vn -0.6683 0.7439 -0.0000
vn 0.9213 -0.3890 0.0000
vn 0.5714 0.8207 -0.0000
vn -0.1038 0.9946 -0.0000
vn -0.9999 0.0144 -0.0000
vn -0.2679 -0.9635 0.0000
vn 0.0633 -0.9980 0.0000
vn 0.9846 -0.1750 0.0000
vn -0.9973 -0.0731 0.0000
vn 0.2419 0.9703 -0.0000
vn -0.9034 0.4288 0.0000
vn 0.6488 -0.7609 0.0000
vn -0.5507 0.8347 -0.0000
vn 0.7244 -0.6894 0.0000
vn -0.9417 0.3364 0.0000
vn 0.4328 0.9015 -0.0000
vn 0.4079 -0.9130 0.0000
vn -0.3425 -0.9395 0.0000
s off
f 2//1 3//1 1//1
f 4//2 7//2 3//2
f 8//3 5//3 7//3
f 6//4 1//4 5//4
f 7//5 1//5 3//5
f 4//6 6//6 8//6
f 2//1 4//1 3//1
f 4//2 8//2 7//2
f 8//3 6//3 5//3
f 6//4 2//4 1//4
f 7//5 5//5 1//5
f 4//6 2//6 6//6
f 9//5 24//5 22//5
f 20//7 16//7 15//7
f 12//8 13//8 9//8
f 12//6 23//6 10//6
f 13//5 20//5 15//5
f 10//9 24//9 11//9
f 18//10 19//10 20//10
f 14//11 18//11 13//11
f 23//12 22//12 24//12
f 35//6 30//6 34//6
f 40//5 29//5 31//5
f 34//6 28//6 37//6
f 31//5 27//5 42//5
f 38//13 28//13 27//13
f 39//14 25//14 40//14
f 39//6 30//6 26//6
f 36//5 29//5 25//5
f 35//15 33//15 36//15
f 42//16 32//16 31//16
f 32//6 28//6 30//6
f 33//5 27//5 29//5
f 27//17 41//17 42//17
f 34//18 38//18 33//18
f 26//19 36//19 25//19
f 32//20 40//20 31//20
f 47//6 51//6 53//6
f 54//5 46//5 52//5
f 51//21 50//21 52//21
f 44//22 45//22 46//22
f 21//23 9//23 22//23
f 54//24 43//24 44//24
f 9//5 15//5 11//5
f 12//6 16//6 14//6
f 49//25 48//25 50//25
f 14//6 19//6 17//6
f 15//26 10//26 11//26
f 47//27 54//27 48//27
f 46//28 51//28 52//28
f 48//5 52//5 50//5
f 53//6 45//6 43//6
f 56//29 57//29 55//29
f 58//30 61//30 57//30
f 62//31 59//31 61//31
f 60//32 55//32 59//32
f 61//5 55//5 57//5
f 58//6 60//6 62//6
f 56//29 58//29 57//29
f 58//30 62//30 61//30
f 62//31 60//31 59//31
f 60//32 56//32 55//32
f 61//5 59//5 55//5
f 58//6 56//6 60//6
f 9//5 11//5 24//5
f 20//7 19//7 16//7
f 12//8 14//8 13//8
f 12//6 21//6 23//6
f 13//5 18//5 20//5
f 10//9 23//9 24//9
f 18//10 17//10 19//10
f 14//11 17//11 18//11
f 23//12 21//12 22//12
f 35//6 26//6 30//6
f 40//5 25//5 29//5
f 34//6 30//6 28//6
f 31//5 29//5 27//5
f 38//13 37//13 28//13
f 39//14 26//14 25//14
f 39//6 32//6 30//6
f 36//5 33//5 29//5
f 35//15 34//15 33//15
f 42//16 41//16 32//16
f 32//6 41//6 28//6
f 33//5 38//5 27//5
f 27//17 28//17 41//17
f 34//18 37//18 38//18
f 26//19 35//19 36//19
f 32//20 39//20 40//20
f 47//6 49//6 51//6
f 54//5 44//5 46//5
f 51//21 49//21 50//21
f 44//22 43//22 45//22
f 21//23 12//23 9//23
f 54//24 53//24 43//24
f 9//5 13//5 15//5
f 12//6 10//6 16//6
f 49//25 47//25 48//25
f 14//6 16//6 19//6
f 15//26 16//26 10//26
f 47//27 53//27 54//27
f 46//28 45//28 51//28
f 48//5 54//5 52//5
f 53//6 51//6 45//6
