# Blender v2.80 (sub 75) OBJ File: 'arctic.blend'
# www.blender.org
v -11.000000 -4.000000 1.761297
v -11.657133 -4.400752 2.616977
v -11.533932 -3.581293 2.616973
v -10.872191 -4.666381 2.616973
v -11.736119 -3.988908 3.692124
v -11.327146 -4.659523 3.692124
v -11.561666 -4.342531 2.112236
v -11.495709 -3.577601 2.112232
v -11.700090 -3.989449 2.549407
v -10.851410 -4.634090 2.112232
v -11.311131 -4.627244 2.549407
v -11.717994 -3.794147 3.176698
v -11.784528 -4.172348 3.176698
v -11.360435 -3.408978 3.176698
v -11.145696 -4.732573 3.176698
v -11.624969 -4.381137 3.759691
v -11.512395 -4.618578 3.176698
v -11.629173 -3.990520 4.241164
v -10.639565 -4.591022 3.176698
v -11.381803 -4.232842 4.596697
v -11.434363 -3.805382 4.596697
v -11.383963 -3.794197 1.220291
v -11.284259 -3.964269 1.653282
v -11.534803 -3.714825 1.653282
v -11.307159 -4.187321 1.857574
v -11.645399 -3.970164 2.112235
v -11.442678 -3.590002 4.308139
v -11.731445 -3.693227 3.520129
v -11.680708 -3.683303 4.057564
v -11.279616 -4.563705 4.241164
v -11.025833 -4.475268 4.596697
v -11.454395 -4.277112 4.241164
v -11.698740 -4.426126 3.176698
v -10.992816 -4.435581 1.220291
v -11.098372 -4.269078 1.653282
v -10.991307 -4.606023 1.653282
v -11.268948 -4.587450 2.112235
v -10.838157 -4.581265 4.308139
v -11.062131 -4.790735 3.520129
v -11.030080 -4.750170 4.057564
vn -0.2959 -0.9517 -0.0818
vn -0.9071 0.3939 -0.1485
vn -0.6508 -0.7388 0.1752
vn -0.5627 -0.8091 -0.1694
vn -0.7328 0.6802 0.0177
vn -0.9534 -0.2383 0.1850
vn -0.4811 -0.7064 0.5191
vn -0.9547 -0.2404 0.1752
vn -0.2967 -0.9545 0.0308
vn -0.5636 -0.8017 -0.1991
vn -0.1104 -0.9888 -0.1007
vn -0.0784 -0.9947 -0.0669
vn -0.9844 0.1732 0.0308
vn -0.9816 0.1727 -0.0818
vn -0.9770 -0.1299 -0.1694
vn -0.9202 0.3857 -0.0669
vn -0.9296 0.3545 -0.1007
vn -0.9708 -0.1341 -0.1991
vn -0.6483 -0.7385 0.1850
vn 0.2693 -0.9629 0.0177
vn -0.8840 0.3621 0.2958
vn -0.8483 -0.1043 0.5191
vn -0.0827 -0.9517 0.2958
vn -0.7009 -0.7040 -0.1151
vn 0.1869 -0.6739 -0.7148
vn -0.9673 -0.2175 -0.1306
vn -0.0651 -0.9868 -0.1485
vn -0.9340 0.3562 -0.0269
vn -0.6145 -0.6172 -0.4914
vn -0.7031 -0.4397 -0.5589
vn -0.6534 -0.1469 -0.7426
vn -0.7145 0.6632 -0.2229
vn -0.9895 -0.1090 0.0954
vn -0.7468 0.2443 0.6185
vn -0.9993 -0.0060 -0.0374
vn -0.9737 0.1259 0.1900
vn -0.9467 -0.3008 -0.1151
vn -0.1110 -0.9935 -0.0269
vn -0.6362 -0.7604 -0.1306
vn -0.8300 -0.2637 -0.4914
vn -0.5135 0.4747 -0.7148
vn -0.8303 -0.5064 0.2326
vn -0.9376 -0.3169 0.1431
vn -0.7886 -0.4809 0.3833
vn -0.9439 -0.3191 -0.0846
vn -0.7128 -0.4238 -0.5589
vn -0.4298 -0.5137 -0.7426
vn 0.2626 -0.9388 -0.2229
vn -0.5499 -0.8298 0.0954
vn -0.1247 -0.7758 0.6185
vn -0.4628 -0.8857 -0.0374
vn -0.3338 -0.9233 0.1900
vn -0.7110 -0.6885 0.1431
vn -0.7158 -0.6931 -0.0846
s off
f 15//1 17//1 11//1
f 3//2 9//2 12//2
f 17//3 6//3 16//3
f 11//4 17//4 2//4
f 3//5 12//5 14//5
f 5//6 16//6 18//6
f 31//7 20//7 30//7
f 13//8 16//8 5//8
f 15//9 6//9 17//9
f 7//10 11//10 2//10
f 37//11 10//11 11//11
f 10//12 4//12 11//12
f 12//13 13//13 5//13
f 12//14 9//14 13//14
f 9//15 2//15 13//15
f 8//16 9//16 3//16
f 26//17 9//17 8//17
f 7//18 2//18 9//18
f 6//19 30//19 16//19
f 4//20 19//20 15//20
f 21//21 27//21 18//21
f 21//22 18//22 20//22
f 31//23 30//23 38//23
f 23//24 24//24 22//24
f 25//25 23//25 1//25
f 26//26 7//26 9//26
f 4//27 15//27 11//27
f 24//28 26//28 8//28
f 23//29 26//29 24//29
f 23//30 25//30 26//30
f 26//31 25//31 7//31
f 14//32 12//32 28//32
f 29//33 28//33 18//33
f 18//34 27//34 29//34
f 12//35 5//35 28//35
f 5//36 18//36 28//36
f 35//37 34//37 36//37
f 36//38 10//38 37//38
f 37//39 11//39 7//39
f 35//40 36//40 37//40
f 25//41 1//41 35//41
f 18//42 32//42 20//42
f 13//43 33//43 16//43
f 18//44 16//44 32//44
f 13//45 2//45 33//45
f 35//46 37//46 25//46
f 37//47 7//47 25//47
f 19//48 39//48 15//48
f 40//49 30//49 39//49
f 30//50 40//50 38//50
f 15//51 39//51 6//51
f 6//52 39//52 30//52
f 30//42 20//42 32//42
f 17//53 16//53 33//53
f 30//44 32//44 16//44
f 17//54 33//54 2//54
