# Blender v2.80 (sub 75) OBJ File: 'arctic.blend'
# www.blender.org
v -10.249832 -3.830206 1.816524
v -10.906965 -4.230958 2.672204
v -10.783764 -3.411500 2.672200
v -10.001485 -3.218739 2.672200
v -10.122024 -4.496587 2.672200
v -9.592511 -3.889354 2.672200
v -10.985951 -3.819115 3.747351
v -10.377641 -3.163826 3.747351
v -9.671498 -3.477510 3.747347
v -10.576978 -4.489729 3.747351
v -9.715900 -4.248913 3.747351
v -9.703662 -3.497125 2.604634
v -9.970216 -3.266501 2.167459
v -10.811498 -4.172738 2.167463
v -10.745542 -3.407807 2.167459
v -10.949923 -3.819655 2.604633
v -10.371377 -3.196440 2.604632
v -9.620659 -3.839687 2.167459
v -9.829078 -3.263565 3.231925
v -10.101242 -4.464296 2.167459
v -10.560964 -4.457451 2.604633
v -9.742028 -4.228414 2.604632
v -10.967826 -3.624354 3.231925
v -11.034360 -4.002555 3.231925
v -10.132664 -3.050856 3.231925
v -10.610267 -3.239185 3.231925
v -9.553433 -3.715553 3.231925
v -10.395528 -4.562779 3.231925
v -10.874802 -4.211343 3.814917
v -10.017500 -3.251018 3.814918
v -10.762227 -4.448785 3.231925
v -9.766966 -3.535731 4.296388
v -9.503311 -4.082837 3.231925
v -10.879005 -3.820726 4.296391
v -10.359072 -3.260640 4.296391
v -9.889398 -4.421228 3.231925
v -10.631635 -4.063048 4.651924
v -10.663576 -3.669399 4.651924
v -9.971449 -3.452345 4.651924
v -9.628540 -3.888813 3.814918
v -10.586383 -3.835403 4.825510
v -10.347152 -3.534632 4.825510
v -9.972857 -3.661293 4.825510
v -10.906219 -3.930806 0.978440
v -10.866971 -3.830843 1.155130
v -11.087281 -3.648869 0.978440
v -10.953480 -3.638138 1.162041
v -10.244603 -3.601045 0.978440
v -10.335609 -3.585677 1.367797
v -10.485263 -3.206423 0.978440
v -10.513265 -3.294368 1.213355
v -10.244010 -3.290615 1.188632
v -10.633795 -3.624404 1.275517
v -10.534091 -3.794476 1.708509
v -10.098174 -3.474017 1.708509
v -10.784636 -3.545032 1.708509
v -10.389305 -3.241710 1.708509
v -10.556992 -4.017527 1.912801
v -9.942673 -3.642886 1.912801
v -10.895231 -3.800370 2.167461
v -10.326281 -3.187491 2.167459
v -9.786354 -3.547555 2.167459
v -10.692511 -3.420208 4.363366
v -10.716261 -2.894283 1.768876
v -10.464286 -2.935370 2.355964
v -10.815782 -3.221002 2.339182
v -11.052023 -3.178484 2.383117
v -10.930047 -2.917509 2.427053
v -10.566808 -2.767259 2.410271
v -10.540635 -3.229537 3.549635
v -10.981277 -3.523433 3.575356
v -11.002307 -3.244707 3.381189
v -10.765228 -2.946137 3.406910
v -10.339719 -2.930779 3.339571
v -10.777575 -3.179142 4.054192
v -10.971967 -3.052971 1.852106
v -10.930540 -3.513509 4.112791
v -10.349396 -3.095710 3.817981
v -10.215137 -3.265148 1.008983
v -10.062203 -3.715781 5.253654
v -10.529449 -4.393911 4.296391
v -9.793472 -4.188082 4.296391
v -10.317780 -3.871645 5.414889
v -10.367583 -3.597823 5.177537
v -10.183106 -3.590396 4.961648
v -10.296285 -4.271664 4.651924
v -10.721036 -3.979651 5.338083
v -10.479609 -3.724186 4.942413
v -9.786448 -3.755701 4.651924
v -10.408530 -4.127036 4.825510
v -11.047554 -4.247242 5.393301
v -10.922213 -4.236826 5.282051
v -10.697689 -4.103332 5.411111
v -11.105103 -4.351792 5.349748
v -10.704227 -4.107319 4.296391
v -10.948572 -4.256332 3.231925
v -9.629891 -3.452136 3.231925
v -9.878948 -3.604023 4.651924
v -10.517612 -3.993511 4.825510
v -10.094594 -3.735534 4.961648
v -10.478731 -3.969800 4.957813
v -10.683616 -4.094749 5.140471
v -10.682325 -4.093962 5.137845
v -10.925747 -4.242413 5.287951
v -10.744407 -4.131822 5.175426
v -11.017084 -4.298114 5.394141
v -10.031607 -4.052046 4.825510
v -10.639774 -4.367710 0.978440
v -10.532934 -4.378581 1.155130
v -10.472012 -4.657758 0.978440
v -10.401215 -4.543714 1.162041
v -10.043703 -3.930471 0.978440
v -10.071705 -4.018416 1.367797
v -9.803043 -4.325093 0.978440
v -9.894050 -4.309725 1.213355
v -9.767444 -4.072063 1.188632
v -10.242648 -4.265787 1.275517
v -10.348204 -4.099284 1.708509
v -9.863731 -3.858444 1.708509
v -10.241139 -4.436229 1.708509
v -9.790483 -4.223627 1.708509
v -10.518780 -4.417656 2.167461
v -9.713428 -4.192417 2.167459
v -10.087989 -4.411471 4.363366
v -9.631290 -4.673363 1.768876
v -9.552461 -4.430535 2.355964
v -9.967320 -4.612265 2.339182
v -10.037676 -4.841761 2.383117
v -9.749814 -4.852797 2.427053
v -9.449938 -4.598646 2.410271
v -9.848943 -4.363739 3.549635
v -10.311963 -4.620941 3.575356
v -10.073791 -4.767243 3.381189
v -9.699809 -4.693158 3.406910
v -9.491351 -4.321892 3.339571
v -9.912613 -4.597462 4.054192
v -9.889437 -4.828048 1.852106
v -10.279912 -4.580377 4.112791
v -9.642412 -4.254987 3.817981
v -9.731585 -4.058053 1.008983
v -10.097141 -4.041282 5.177537
v -10.006082 -3.880672 4.961648
v -10.598420 -4.180711 5.338083
v -10.260771 -4.083027 4.942413
v -10.985806 -4.348494 5.393301
v -10.919163 -4.241828 5.282051
vn 0.9011 -0.3450 -0.2628
vn 0.9779 0.1291 0.1644
vn 0.9772 0.1333 0.1655
vn -0.2959 -0.9517 -0.0818
vn -0.9071 0.3939 -0.1485
vn 0.1058 0.9590 -0.2628
vn -0.6508 -0.7388 0.1752
vn 0.9520 0.2763 -0.1318
vn -0.5627 -0.8091 -0.1694
vn -0.7328 0.6802 0.0177
vn 0.5703 0.8140 -0.1105
vn -0.4961 -0.7974 0.3436
vn -0.7765 -0.4491 0.4419
vn -0.9534 -0.2383 0.1850
vn 0.5632 0.8057 0.1834
vn 0.4016 0.8645 0.3022
vn 0.2031 0.9654 0.1634
vn 0.8010 0.4885 0.3461
vn -0.6569 -0.5003 0.5641
vn -0.4452 -0.7157 0.5381
vn 0.4338 -0.8724 0.2251
vn 0.4212 0.9065 0.0296
vn 0.6512 -0.0979 0.7526
vn 0.1419 -0.7134 0.6862
vn 0.7212 0.4398 0.5352
vn 0.5729 -0.8191 -0.0288
vn 0.5625 0.8103 0.1644
vn 0.5659 0.8077 0.1655
vn 0.1737 0.9415 0.2889
vn -0.9547 -0.2404 0.1752
vn 0.5579 -0.8210 -0.1213
vn -0.2967 -0.9545 0.0308
vn 0.8493 0.4817 -0.2162
vn -0.5636 -0.8017 -0.1991
vn 0.9630 0.2682 -0.0273
vn -0.1104 -0.9888 -0.1007
vn 0.9662 -0.2541 0.0423
vn -0.0784 -0.9947 -0.0669
vn -0.3667 0.9299 0.0295
vn -0.3658 0.9276 -0.0761
vn -0.4745 0.8718 -0.1213
vn -0.9844 0.1732 0.0308
vn -0.9816 0.1727 -0.0818
vn -0.9770 -0.1299 -0.1694
vn 0.9178 -0.3869 -0.0893
vn 0.9564 0.2776 0.0909
vn 0.9584 0.2469 -0.1436
vn 0.6572 -0.7499 -0.0761
vn 0.9165 -0.2766 0.2889
vn 0.6588 -0.7517 0.0295
vn 0.6846 0.7232 0.0909
vn 0.6815 0.7199 -0.1318
vn 0.6582 0.7390 -0.1436
vn 0.0762 0.9931 -0.0893
vn 0.2164 0.9754 0.0423
vn -0.4659 0.8844 -0.0288
vn -0.9202 0.3857 -0.0669
vn -0.9296 0.3545 -0.1007
vn -0.9708 -0.1341 -0.1991
vn 0.9513 -0.2614 0.1634
vn 0.9742 0.1319 0.1834
vn 0.9525 -0.0387 0.3022
vn 0.6793 0.7334 -0.0273
vn 0.8170 0.5345 -0.2162
vn -0.6483 -0.7385 0.1850
vn 0.2693 -0.9629 0.0177
vn 0.9848 0.1344 -0.1105
vn 0.8406 -0.4111 0.3526
vn -0.3059 -0.2051 0.9297
vn -0.9360 -0.0759 0.3436
vn 0.9473 -0.2727 0.1678
vn 0.2991 0.9259 0.2306
vn 0.1063 -0.4272 0.8979
vn -0.5693 0.4528 0.6862
vn 0.2111 0.6238 0.7526
vn 0.0000 0.0000 -1.0000
vn 0.3524 -0.8498 0.3920
vn -0.8618 0.3380 0.3783
vn -0.8401 -0.0682 0.5381
vn -0.6698 0.5969 0.4417
vn -0.0940 -0.9209 0.3783
vn -0.7548 -0.4847 0.4419
vn -0.5770 0.7851 0.2251
vn 0.4418 -0.8864 0.1383
vn -0.7456 -0.3549 0.5641
vn -0.5942 0.7024 0.3920
vn 0.2240 -0.8687 0.4417
vn 0.1913 0.9671 0.1678
vn 0.0193 0.9356 0.3526
vn 0.9601 -0.1580 0.2307
vn -0.3224 -0.1781 0.9297
vn -0.3312 0.2901 0.8979
vn -0.2554 -0.2553 0.9325
vn -0.8962 0.2595 -0.3598
vn -0.7009 -0.7039 -0.1151
vn 0.2392 -0.8837 -0.4022
vn 0.5859 -0.7969 -0.1471
vn 0.7855 -0.4806 -0.3899
vn -0.0231 0.9947 -0.1000
vn -0.6073 0.7916 0.0679
vn 0.6206 0.7777 0.1003
vn 0.2846 -0.3871 -0.8770
vn 0.5016 -0.4395 -0.7451
vn 0.1869 -0.6739 -0.7148
vn -0.5985 0.7801 -0.1823
vn -0.4650 0.8848 -0.0299
vn -0.9673 -0.2175 -0.1306
vn -0.0651 -0.9868 -0.1485
vn -0.9340 0.3562 -0.0269
vn -0.6145 -0.6172 -0.4914
vn -0.4648 0.8845 -0.0407
vn -0.7031 -0.4397 -0.5589
vn -0.6534 -0.1469 -0.7426
vn 0.6141 0.7696 -0.1752
vn 0.1936 0.8726 -0.4485
vn 0.8625 0.3254 -0.3876
vn 0.6796 0.4446 -0.5836
vn -0.5663 0.5948 0.5705
vn 0.6081 -0.7300 -0.3121
vn 0.7718 0.5650 -0.2917
vn -0.5564 0.8169 -0.1519
vn 0.3816 -0.8292 -0.4084
vn -0.3842 0.9186 -0.0924
vn 0.8329 0.5428 -0.1080
vn 0.6279 -0.7640 -0.1481
vn -0.2176 -0.9410 -0.2593
vn -0.9082 0.4122 0.0726
vn -0.3771 0.9218 0.0904
vn 0.7927 -0.6017 -0.0976
vn 0.5449 -0.8284 -0.1297
vn -0.9980 -0.0426 0.0469
vn -0.7806 0.6070 0.1490
vn -0.0078 0.9845 0.1751
vn -0.5485 0.8307 0.0950
vn -0.7145 0.6632 -0.2229
vn -0.7756 0.5985 0.2007
vn 0.0197 0.9406 0.3390
vn -0.9031 0.4280 -0.0350
vn -0.2171 -0.9421 -0.2554
vn -0.0045 0.9454 0.3258
vn -0.2250 0.7374 0.6369
vn -0.9895 -0.1090 0.0954
vn -0.7469 0.2443 0.6185
vn -0.9955 -0.0095 0.0942
vn -0.8644 0.4385 0.2459
vn -0.7296 0.4273 0.5339
vn -0.4454 0.8926 0.0705
vn 0.9487 -0.3045 -0.0858
vn 0.6641 -0.6740 -0.3235
vn 0.9487 -0.3044 -0.0858
vn -0.9993 -0.0060 -0.0374
vn -0.9737 0.1259 0.1900
vn -0.1289 -0.0786 0.9885
vn 0.9845 -0.0995 0.1441
vn -0.9467 -0.3008 -0.1151
vn -0.8466 -0.5163 0.1288
vn -0.6762 0.6173 -0.4022
vn -0.0688 -0.6606 -0.7476
vn -0.2858 -0.9178 -0.2758
vn -0.0677 0.9184 -0.3899
vn 0.4257 -0.9023 0.0679
vn 0.3010 -0.5928 -0.7470
vn 0.3775 -0.8786 0.2923
vn 0.8738 -0.4759 -0.1000
vn 0.7364 -0.6764 0.0126
vn 0.6443 0.0502 0.7632
vn -0.7768 0.6179 0.1217
vn 0.4195 -0.8893 -0.1823
vn 0.6408 -0.6044 0.4734
vn -0.2139 0.4302 -0.8770
vn 0.3390 -0.6540 -0.6763
vn -0.0262 0.7334 0.6793
vn 0.9755 0.1957 0.1003
vn 0.2816 -0.4479 -0.8486
vn -0.1110 -0.9935 -0.0269
vn 0.2333 -0.4614 -0.8560
vn 0.5741 -0.5635 0.5941
vn -0.6362 -0.7604 -0.1306
vn 0.5738 -0.8185 -0.0299
vn -0.2770 0.7752 0.5678
vn -0.4403 0.8857 -0.1471
vn 0.3205 0.9472 0.0017
vn -0.3439 -0.1102 0.9325
vn -0.3133 0.8404 0.4422
vn 0.0178 0.8880 0.4594
vn 0.3460 0.1921 -0.9183
vn 0.0462 0.0112 -0.9989
vn 0.5736 -0.8181 -0.0407
vn -0.8300 -0.2637 -0.4914
vn -0.1611 0.6472 -0.7451
vn 0.8878 -0.3042 0.3453
vn -0.5135 0.4747 -0.7148
vn -0.1796 -0.9156 -0.3598
vn -0.7557 0.0383 0.6538
vn -0.5896 -0.3595 -0.7233
vn -0.7293 -0.3172 0.6062
vn -0.5858 0.7986 0.1382
vn -0.8303 -0.5064 0.2326
vn -0.9376 -0.3169 0.1431
vn -0.7886 -0.4809 0.3833
vn 0.9987 -0.0406 0.0296
vn -0.9439 -0.3191 -0.0846
vn -0.7128 -0.4238 -0.5589
vn -0.4298 -0.5137 -0.7426
vn 0.9653 0.1936 -0.1752
vn 0.8644 -0.2273 -0.4485
vn 0.6841 0.6179 -0.3876
vn 0.7064 0.4006 -0.5836
vn 0.2696 -0.7758 0.5705
vn -0.3706 0.8748 -0.3121
vn 0.8556 0.4276 -0.2917
vn 0.4715 -0.8687 -0.1519
vn -0.5625 0.7189 -0.4084
vn 0.6408 -0.7622 -0.0924
vn 0.8639 0.4920 -0.1080
vn -0.3918 0.9081 -0.1481
vn -0.9362 0.2374 -0.2593
vn -0.0493 -0.9961 0.0726
vn 0.6468 -0.7573 0.0904
vn -0.1720 0.9802 -0.0976
vn -0.4870 0.8637 -0.1297
vn -0.4948 -0.8677 0.0469
vn 0.1823 -0.9719 0.1490
vn 0.8717 -0.4577 0.1751
vn 0.4874 -0.8680 0.0950
vn 0.2626 -0.9388 -0.2229
vn 0.1771 -0.9635 0.2007
vn 0.8452 -0.4131 0.3390
vn -0.0330 -0.9988 -0.0350
vn -0.9370 0.2384 -0.2554
vn 0.8385 -0.4368 0.3258
vn 0.5526 -0.5376 0.6369
vn -0.5499 -0.8298 0.0954
vn -0.1247 -0.7758 0.6185
vn -0.4642 -0.8807 0.0942
vn -0.0059 -0.9693 0.2459
vn 0.0459 -0.8443 0.5339
vn 0.5896 -0.8046 0.0705
vn 0.1637 0.9828 -0.0858
vn -0.2952 0.8990 -0.3235
vn -0.4628 -0.8857 -0.0374
vn -0.3338 -0.9233 0.1900
vn 0.3623 0.9208 0.1441
vn -0.6188 0.2412 -0.7476
vn -0.9468 0.1661 -0.2758
vn -0.3892 0.5390 -0.7470
vn -0.6083 0.7379 0.2923
vn -0.2642 0.9644 0.0126
vn 0.3395 0.5498 0.7632
vn 0.1937 -0.9735 0.1217
vn -0.2493 0.7693 0.5882
vn -0.4262 0.6008 -0.6763
vn 0.6405 -0.3591 0.6788
vn -0.2693 0.4554 -0.8486
vn -0.3033 0.4187 -0.8560
vn -0.2381 0.7684 0.5941
vn 0.5622 -0.6012 0.5679
vn 0.9889 -0.1487 0.0018
vn 0.6037 -0.6633 0.4422
vn 0.7976 -0.3907 0.4594
vn 0.3292 0.2197 -0.9183
vn 0.0311 0.0360 -0.9989
vn 0.1360 0.9286 0.3453
vn -0.7330 -0.5988 0.3227
vn -0.6159 -0.5032 0.6062
vn -0.7110 -0.6885 0.1431
vn -0.7158 -0.6931 -0.0846
vn 0.5698 -0.5739 0.5882
vn 0.8881 -0.3034 0.3453
vn -0.8679 -0.3775 0.3227
vn -0.2440 0.8464 0.4734
vn 0.1361 0.9285 0.3454
vn -0.3119 -0.6894 0.6538
s off
f 6//1 33//1 22//1
f 27//2 9//2 40//2
f 27//3 40//3 33//3
f 28//4 31//4 21//4
f 3//5 16//5 23//5
f 4//6 17//6 25//6
f 31//7 10//7 29//7
f 12//8 97//8 27//8
f 21//9 31//9 2//9
f 3//10 23//10 26//10
f 4//11 25//11 19//11
f 86//12 90//12 37//12
f 109//13 108//13 110//13
f 7//14 29//14 34//14
f 9//15 30//15 32//15
f 32//16 30//16 35//16
f 30//17 8//17 35//17
f 32//18 39//18 98//18
f 109//19 110//19 111//19
f 86//20 37//20 81//20
f 110//21 114//21 115//21
f 39//22 32//22 35//22
f 89//23 43//23 107//23
f 86//24 107//24 90//24
f 98//25 43//25 89//25
f 20//26 22//26 5//26
f 19//27 30//27 9//27
f 19//28 25//28 30//28
f 25//29 8//29 30//29
f 24//30 29//30 7//30
f 22//31 36//31 5//31
f 28//32 10//32 31//32
f 12//33 18//33 62//33
f 14//34 21//34 2//34
f 12//35 6//35 18//35
f 122//36 20//36 21//36
f 123//37 18//37 22//37
f 20//38 5//38 21//38
f 25//39 26//39 8//39
f 25//40 17//40 26//40
f 17//41 3//41 26//41
f 23//42 24//42 7//42
f 23//43 16//43 24//43
f 16//44 2//44 24//44
f 18//45 6//45 22//45
f 97//46 9//46 27//46
f 12//47 27//47 6//47
f 33//48 36//48 22//48
f 33//49 40//49 11//49
f 33//50 11//50 36//50
f 97//51 19//51 9//51
f 12//52 19//52 97//52
f 12//53 4//53 19//53
f 13//54 17//54 4//54
f 61//55 17//55 13//55
f 15//56 3//56 17//56
f 15//57 16//57 3//57
f 60//58 16//58 15//58
f 14//59 2//59 16//59
f 40//60 82//60 11//60
f 9//61 32//61 40//61
f 32//62 82//62 40//62
f 12//63 13//63 4//63
f 12//64 62//64 13//64
f 10//65 81//65 29//65
f 5//66 36//66 28//66
f 6//67 27//67 33//67
f 98//25 39//25 43//25
f 114//68 116//68 115//68
f 117//69 109//69 111//69
f 38//70 37//70 41//70
f 116//71 114//71 140//71
f 112//72 113//72 116//72
f 115//73 117//73 111//73
f 38//74 41//74 42//74
f 39//75 42//75 43//75
f 110//76 112//76 114//76
f 110//77 115//77 111//77
f 38//78 63//78 34//78
f 38//79 34//79 37//79
f 113//80 108//80 109//80
f 86//81 81//81 124//81
f 45//82 46//82 44//82
f 46//83 51//83 50//83
f 49//84 44//84 48//84
f 46//76 48//76 44//76
f 45//85 47//85 46//85
f 46//86 47//86 51//86
f 49//87 45//87 44//87
f 46//76 50//76 48//76
f 52//88 79//88 50//88
f 50//89 51//89 52//89
f 48//90 52//90 49//90
f 53//91 47//91 45//91
f 51//92 47//92 53//92
f 45//93 49//93 53//93
f 56//94 51//94 53//94
f 54//95 56//95 53//95
f 53//96 49//96 54//96
f 54//97 49//97 55//97
f 49//98 52//98 55//98
f 51//99 57//99 52//99
f 57//100 51//100 56//100
f 55//101 52//101 57//101
f 54//102 55//102 1//102
f 1//103 55//103 59//103
f 58//104 54//104 1//104
f 57//105 56//105 15//105
f 61//106 15//106 17//106
f 60//107 14//107 16//107
f 5//108 28//108 21//108
f 56//109 60//109 15//109
f 54//110 60//110 56//110
f 15//111 61//111 57//111
f 54//112 58//112 60//112
f 60//113 58//113 14//113
f 57//114 61//114 55//114
f 61//115 13//115 55//115
f 55//116 13//116 59//116
f 13//117 62//117 59//117
f 38//118 42//118 63//118
f 64//119 65//119 66//119
f 65//120 64//120 69//120
f 76//121 68//121 64//121
f 64//122 66//122 76//122
f 64//123 68//123 69//123
f 65//124 69//124 74//124
f 66//125 65//125 70//125
f 67//126 66//126 71//126
f 68//127 67//127 72//127
f 69//128 68//128 73//128
f 65//129 74//129 70//129
f 66//130 70//130 71//130
f 67//131 71//131 72//131
f 68//132 72//132 73//132
f 69//133 73//133 74//133
f 71//134 70//134 26//134
f 26//135 23//135 71//135
f 73//136 72//136 75//136
f 74//137 73//137 75//137
f 68//138 76//138 67//138
f 67//139 76//139 66//139
f 35//140 78//140 75//140
f 35//141 75//141 63//141
f 77//142 71//142 34//142
f 34//143 63//143 77//143
f 71//144 77//144 72//144
f 72//145 77//145 75//145
f 75//146 77//146 63//146
f 8//147 26//147 70//147
f 8//148 78//148 35//148
f 70//149 74//149 8//149
f 8//150 74//150 78//150
f 74//140 75//140 78//140
f 23//151 7//151 71//151
f 7//152 34//152 71//152
f 48//153 79//153 50//153
f 48//154 79//154 52//154
f 118//155 117//155 120//155
f 80//156 85//156 100//156
f 117//157 118//157 113//157
f 80//158 83//158 84//158
f 80//159 84//159 85//159
f 113//160 119//160 116//160
f 121//161 120//161 115//161
f 84//162 83//162 87//162
f 85//163 84//163 88//163
f 115//164 116//164 121//164
f 84//165 87//165 88//165
f 101//166 88//166 103//166
f 42//167 41//167 88//167
f 121//168 20//168 120//168
f 87//169 92//169 105//169
f 118//170 1//170 119//170
f 42//171 85//171 88//171
f 104//172 105//172 92//172
f 119//173 121//173 116//173
f 87//174 83//174 93//174
f 120//175 20//175 122//175
f 91//176 87//176 93//176
f 92//177 91//177 94//177
f 122//178 21//178 14//178
f 123//179 22//179 20//179
f 104//180 92//180 94//180
f 118//181 119//181 113//181
f 42//182 85//182 43//182
f 109//183 117//183 113//183
f 63//184 42//184 35//184
f 39//185 35//185 42//185
f 91//186 106//186 94//186
f 91//187 93//187 106//187
f 20//188 121//188 123//188
f 118//189 120//189 122//189
f 1//190 59//190 119//190
f 87//191 103//191 88//191
f 58//192 1//192 118//192
f 120//193 117//193 115//193
f 41//194 101//194 88//194
f 85//195 43//195 100//195
f 41//196 37//196 99//196
f 113//197 112//197 108//197
f 34//198 95//198 37//198
f 110//76 108//76 112//76
f 24//199 96//199 29//199
f 34//200 29//200 95//200
f 89//201 82//201 32//201
f 24//202 2//202 96//202
f 32//18 98//18 89//18
f 118//203 122//203 58//203
f 122//204 14//204 58//204
f 121//205 119//205 123//205
f 123//206 119//206 18//206
f 119//207 59//207 18//207
f 18//208 59//208 62//208
f 86//209 124//209 107//209
f 125//210 127//210 126//210
f 126//211 130//211 125//211
f 137//212 125//212 129//212
f 125//213 137//213 127//213
f 125//214 130//214 129//214
f 126//215 135//215 130//215
f 127//216 131//216 126//216
f 128//217 132//217 127//217
f 129//218 133//218 128//218
f 130//219 134//219 129//219
f 126//220 131//220 135//220
f 127//221 132//221 131//221
f 128//222 133//222 132//222
f 129//223 134//223 133//223
f 130//224 135//224 134//224
f 132//225 36//225 131//225
f 36//226 132//226 28//226
f 134//227 136//227 133//227
f 135//228 136//228 134//228
f 129//229 128//229 137//229
f 128//230 127//230 137//230
f 82//231 136//231 139//231
f 82//232 124//232 136//232
f 138//233 81//233 132//233
f 81//234 138//234 124//234
f 132//235 133//235 138//235
f 133//236 136//236 138//236
f 136//237 124//237 138//237
f 11//238 131//238 36//238
f 11//239 82//239 139//239
f 131//240 11//240 135//240
f 11//239 139//239 135//239
f 135//231 139//231 136//231
f 28//241 132//241 10//241
f 10//242 132//242 81//242
f 112//153 114//153 140//153
f 112//243 116//243 140//243
f 80//156 100//156 142//156
f 80//244 141//244 83//244
f 80//245 142//245 141//245
f 141//246 143//246 83//246
f 142//247 144//247 141//247
f 141//248 144//248 143//248
f 101//249 103//249 144//249
f 107//250 144//250 90//250
f 146//251 145//251 143//251
f 107//252 144//252 142//252
f 104//253 146//253 105//253
f 143//254 93//254 83//254
f 145//255 93//255 143//255
f 146//256 94//256 145//256
f 104//257 94//257 146//257
f 107//258 43//258 142//258
f 124//259 82//259 107//259
f 89//260 107//260 82//260
f 145//261 94//261 106//261
f 145//262 106//262 93//262
f 103//263 143//263 144//263
f 90//264 101//264 99//264
f 142//195 100//195 43//195
f 90//265 99//265 37//265
f 81//198 37//198 95//198
f 31//266 29//266 96//266
f 81//200 95//200 29//200
f 31//267 96//267 2//267
f 105//169 102//169 87//169
f 87//268 91//268 92//268
f 87//269 102//269 103//269
f 41//270 99//270 101//270
f 143//271 102//271 105//271
f 105//271 146//271 143//271
f 103//272 102//272 143//272
f 90//273 144//273 101//273
