# Blender v2.80 (sub 75) OBJ File: 'arctic.blend'
# www.blender.org
v -11.311415 -4.051033 4.860082
v -11.117751 -3.767617 5.122311
v -10.933274 -3.760190 4.906421
v -11.471204 -4.149445 5.232782
v -11.229777 -3.893980 4.887186
v -11.187942 -4.253499 4.860082
v -11.797722 -4.417035 5.338075
v -11.672380 -4.406620 5.226825
v -11.855270 -4.521586 5.294521
v -11.263671 -4.160800 4.837836
v -11.228899 -4.139594 4.902586
v -11.433784 -4.264543 5.085244
v -11.494575 -4.301616 5.120200
v -10.847309 -4.211075 5.122311
v -10.756249 -4.050466 4.906421
v -11.348588 -4.350505 5.232782
v -11.010939 -4.252820 4.887186
v -11.735973 -4.518288 5.338075
v -11.669331 -4.411622 5.226825
vn -0.3775 0.8787 -0.2923
vn -0.6437 0.5166 -0.5646
vn -0.5741 0.5635 -0.5941
vn -0.7137 -0.4553 0.5324
vn 0.6083 -0.7379 -0.2923
vn 0.1562 -0.7580 -0.6332
vn 0.2381 -0.7684 -0.5941
vn -0.7315 -0.4261 0.5324
vn -0.6413 0.5176 -0.5664
vn -0.6024 0.4859 -0.6332
vn 0.1665 -0.8071 -0.5664
vn 0.1646 -0.8088 -0.5646
s off
f 3//1 5//1 2//1
f 4//2 13//2 8//2
f 8//3 9//3 7//3
f 10//4 6//4 11//4
f 15//5 14//5 17//5
f 19//6 16//6 18//6
f 19//7 18//7 9//7
f 1//8 10//8 11//8
f 13//9 4//9 12//9
f 4//10 8//10 7//10
f 16//11 13//11 12//11
f 13//12 16//12 19//12
