# Blender v2.80 (sub 75) OBJ File: 'riverside.blend'
# www.blender.org
v 0.000000 0.000000 8.000000
v 1.447215 -1.051451 9.105561
v -0.552776 -1.701298 9.105560
v -1.788852 0.000000 9.105569
v -0.552776 1.701298 9.105560
v 1.447215 1.051451 9.105561
v 0.552776 -1.701298 10.894440
v -1.447215 -1.051451 10.894439
v -1.447215 1.051451 10.894439
v 1.788852 0.000000 10.894431
v -0.465643 -1.433126 8.684961
v -0.324911 -0.999990 8.298691
v -0.155213 -0.477705 8.064100
v 0.406362 -0.295236 8.064101
v 0.850645 -0.618023 8.298692
v 1.219093 -0.885713 8.684962
v 0.525738 -1.618023 8.948524
v -0.059279 -1.728368 8.995396
v 1.625458 0.590475 8.995399
v 1.701296 0.000000 8.948528
v 1.625458 -0.590475 8.995399
v 0.406362 0.295236 8.064101
v 0.850645 0.618023 8.298692
v 1.219093 0.885713 8.684962
v -1.506883 0.000000 8.684971
v -1.051460 0.000000 8.298697
v -0.502294 0.000000 8.064102
v -0.967943 -1.433129 8.995397
v -1.376379 -0.999994 8.948527
v -1.662101 -0.477707 8.995402
v -0.465643 1.433126 8.684961
v -0.324911 0.999990 8.298691
v -1.662101 0.477707 8.995402
v -1.376379 0.999994 8.948527
v -0.967943 1.433129 8.995397
v -0.059279 1.728368 8.995396
v 0.525738 1.618023 8.948524
v 1.063882 1.363425 8.995397
v 1.721395 -0.885715 9.497698
v 1.721395 0.885715 9.497698
v 1.902116 0.618025 10.000000
v 1.913252 0.295237 10.502299
v 0.310430 -1.910844 10.502303
v 0.000000 -2.000000 10.000000
v -0.310430 -1.910844 9.497697
v 1.175571 -1.618033 10.000000
v 0.872014 -1.728376 10.502304
v -1.721395 -0.885715 10.502302
v -1.902116 -0.618025 10.000000
v -1.913252 -0.295237 9.497701
v -0.872014 -1.728376 9.497696
v -1.175571 -1.618034 10.000000
v -1.374317 -1.363431 10.502304
v -1.374317 1.363431 10.502304
v -1.175571 1.618033 10.000000
v -0.872014 1.728376 9.497696
v -1.721395 0.885715 10.502302
v 0.872014 1.728376 10.502304
v 1.175571 1.618034 10.000000
v 1.374317 1.363431 9.497696
v -0.310430 1.910844 9.497697
v 0.000000 2.000000 10.000000
v 0.310430 1.910844 10.502303
v 1.662101 -0.477707 11.004598
v 1.376379 -0.999994 11.051473
v 0.967943 -1.433129 11.004603
v -1.063882 -1.363425 11.004603
v -1.625458 -0.590475 11.004601
v -1.701296 0.000000 11.051472
v -1.625458 0.590475 11.004601
v -1.063882 1.363425 11.004603
v -0.525738 1.618023 11.051476
v 0.059279 1.728368 11.004604
v 0.967943 1.433129 11.004603
v 1.376379 0.999994 11.051473
v 1.662101 0.477707 11.004598
v 0.155213 -0.477705 11.935900
v 0.324911 -0.999991 11.701309
v 1.506883 0.000000 11.315029
v 1.051460 0.000000 11.701303
v 0.502294 0.000000 11.935898
v -0.406362 -0.295236 11.935899
v -0.850645 -0.618023 11.701308
v -0.406362 0.295236 11.935899
v -0.850645 0.618023 11.701308
v -1.219093 0.885713 11.315038
v 0.324911 0.999991 11.701309
v 0.723601 0.525726 11.788858
v 1.276387 0.525728 11.447220
v 0.894418 1.051456 11.447224
v -0.276395 0.850639 11.788860
v -0.105579 1.376370 11.447225
v -0.723607 1.175557 11.447225
v -0.894420 0.000000 11.788858
v -1.341633 0.324914 11.447222
v -1.341633 -0.324914 11.447222
v -0.276395 -0.850639 11.788860
v 0.723601 -0.525726 11.788858
v 0.894418 -1.051456 11.447224
v 1.276387 -0.525728 11.447220
v 1.723608 0.850644 10.552793
v 1.618039 1.175564 10.000000
v 1.341641 1.376378 10.552794
v -0.276397 1.902110 10.552794
v -0.618033 1.902113 9.999999
v -0.894430 1.701298 10.552794
v -1.894426 0.324915 10.552792
v -1.894426 -0.324916 10.552794
v -0.894432 -1.701297 10.552794
v -0.618034 -1.902113 9.999998
v -0.276399 -1.902110 10.552794
v 1.723608 -0.850646 10.552789
v 0.618034 1.902113 10.000000
v 0.894431 1.701297 9.447205
v 0.276398 1.902110 9.447205
v -1.618037 1.175567 10.000000
v -1.341638 1.376381 9.447206
v -1.723606 0.850648 9.447207
v -1.341638 -1.376381 9.447206
v 0.618034 -1.902113 10.000000
v 0.276398 -1.902110 9.447205
v 0.894431 -1.701297 9.447205
v 2.000000 0.000000 10.000000
v 1.894426 -0.324915 9.447208
v 1.894426 0.324915 9.447208
v 0.723607 1.175558 8.552776
v 0.105578 1.376373 8.552778
v -0.894421 1.051454 8.552777
v -1.276389 0.525726 8.552781
v -1.276389 -0.525727 8.552781
v -0.723603 -0.525729 8.211143
v -0.894421 -1.051457 8.552779
v 1.341634 0.324914 8.552778
v 1.341635 -0.324915 8.552780
v 0.894422 -0.000001 8.211143
v 0.105581 -1.376371 8.552776
v 0.276397 -0.850641 8.211142
vn 0.0482 -0.1482 -0.9878
vn 0.7230 -0.4121 -0.5545
vn 0.8193 -0.4121 -0.3987
vn -0.1387 -0.9065 -0.3987
vn -0.9050 -0.1482 -0.3987
vn -0.4206 0.8149 -0.3987
vn -0.2945 0.9065 -0.3024
vn 0.7711 0.5603 -0.3024
vn -0.7230 0.4121 0.5545
vn 0.8271 0.0916 0.5545
vn 0.4911 0.3568 0.7947
vn 0.5987 0.4350 0.6726
vn 0.5513 0.5843 0.5955
vn -0.0144 0.5481 0.8363
vn -0.1876 0.5773 0.7947
vn -0.2287 0.7038 0.6726
vn -0.6153 0.5603 0.5545
vn -0.3702 0.1560 0.9158
vn -0.5749 0.3046 0.7594
vn -0.2885 0.0000 0.9575
vn -0.3702 -0.1560 0.9158
vn -0.5257 0.1557 0.8363
vn -0.6071 0.0000 0.7947
vn -0.5257 -0.1557 0.8363
vn -0.7081 0.3049 0.6369
vn -0.2627 -0.3039 0.9158
vn 0.2079 -0.3438 0.9158
vn 0.2334 -0.1696 0.9575
vn 0.3912 -0.0915 0.9158
vn 0.3338 -0.4350 0.8363
vn 0.6441 -0.0915 0.7594
vn 0.7261 -0.3438 0.5955
vn 0.7520 -0.1696 0.6369
vn 0.8271 -0.0916 0.5545
vn 0.9366 0.3039 0.1745
vn 0.8869 0.4519 0.0962
vn 0.6291 0.6409 0.4399
vn 0.7038 0.7038 0.0962
vn 0.5785 0.7968 0.1745
vn 0.0004 0.9846 0.1745
vn 0.0160 0.9372 0.3485
vn -0.1323 0.8883 0.4399
vn -0.3045 0.9372 -0.1702
vn -0.5791 0.7964 0.1745
vn -0.5638 0.7488 0.3485
vn -0.6451 0.6519 0.3987
vn -0.8193 0.4121 0.3987
vn -0.9325 0.0000 0.3611
vn -0.8857 -0.1487 0.4399
vn -0.9363 -0.3046 0.1745
vn -0.8864 -0.3049 0.3485
vn -0.6451 -0.6519 0.3987
vn -0.4526 -0.8883 -0.0784
vn -0.4519 -0.8869 0.0962
vn -0.3035 -0.9342 0.1876
vn 0.4206 -0.8149 0.3987
vn 0.8039 -0.4003 0.4399
vn 0.1560 0.9846 0.0784
vn 0.3035 0.9342 -0.1876
vn 0.1557 0.9831 -0.0962
vn 0.2882 0.8869 -0.3611
vn -0.1387 0.9065 -0.3987
vn -0.7947 0.5774 -0.1876
vn -0.6291 0.6409 -0.4399
vn -0.7544 0.5481 -0.3611
vn -0.5785 -0.7968 -0.1745
vn -0.6291 -0.6409 -0.4399
vn -0.5379 -0.7676 -0.3485
vn 0.1560 -0.9846 0.0784
vn 0.1557 -0.9831 -0.0962
vn 0.3035 -0.9342 -0.1876
vn 0.4519 -0.8869 -0.0962
vn 0.2882 -0.8869 -0.3611
vn 0.9822 0.0000 -0.1876
vn 0.9325 0.0000 -0.3611
vn 0.8857 0.1487 -0.4399
vn 0.8864 0.3049 -0.3485
vn 0.4674 0.4526 -0.7594
vn 0.5087 0.5792 -0.6369
vn -0.1121 0.6409 -0.7594
vn -0.0711 0.7676 -0.6369
vn -0.1685 0.8149 -0.5545
vn -0.3427 0.7583 -0.5545
vn -0.2860 0.5843 -0.7594
vn -0.3936 0.6628 -0.6369
vn -0.5513 0.5843 -0.5955
vn -0.7520 0.1696 -0.6369
vn -0.8271 0.0916 -0.5545
vn -0.8271 -0.0916 -0.5545
vn -0.3912 -0.0915 -0.9158
vn -0.5168 -0.1830 -0.8363
vn -0.5513 -0.5843 -0.5955
vn 0.5749 0.3046 -0.7594
vn 0.5257 -0.1557 -0.8363
vn 0.3702 -0.1560 -0.9158
vn 0.2885 0.0000 -0.9575
vn 0.1558 0.0000 -0.9878
vn -0.1685 -0.8149 -0.5545
vn -0.1121 -0.6409 -0.7594
vn 0.0144 -0.5481 -0.8363
s off
f 1//1 14//1 13//1
f 2//2 16//2 21//2
f 2//3 21//3 39//3
f 3//4 18//4 45//4
f 4//5 30//5 50//5
f 5//6 35//6 56//6
f 5//7 56//7 61//7
f 6//8 60//8 40//8
f 9//9 70//9 86//9
f 10//10 76//10 79//10
f 89//11 90//11 88//11
f 89//12 75//12 90//12
f 75//13 74//13 90//13
f 87//14 92//14 91//14
f 92//15 93//15 91//15
f 92//16 72//16 93//16
f 71//17 9//17 86//17
f 85//18 94//18 84//18
f 86//19 95//19 85//19
f 84//20 94//20 82//20
f 94//21 83//21 82//21
f 85//22 95//22 94//22
f 95//23 96//23 94//23
f 94//24 96//24 83//24
f 86//25 70//25 95//25
f 83//26 97//26 82//26
f 78//27 98//27 77//27
f 77//28 98//28 81//28
f 98//29 80//29 81//29
f 78//30 99//30 98//30
f 100//31 79//31 80//31
f 65//32 64//32 100//32
f 100//33 64//33 79//33
f 64//34 10//34 79//34
f 41//35 101//35 42//35
f 41//36 102//36 101//36
f 103//37 74//37 75//37
f 102//38 59//38 103//38
f 59//39 58//39 103//39
f 62//40 104//40 63//40
f 63//41 104//41 73//41
f 104//42 72//42 73//42
f 61//43 56//43 105//43
f 55//44 54//44 106//44
f 106//45 54//45 71//45
f 54//46 9//46 71//46
f 57//47 70//47 9//47
f 107//48 108//48 69//48
f 108//49 68//49 69//49
f 49//50 48//50 108//50
f 108//51 48//51 68//51
f 53//52 67//52 8//52
f 51//53 110//53 52//53
f 52//54 110//54 109//54
f 110//55 111//55 109//55
f 47//56 66//56 7//56
f 112//57 64//57 65//57
f 113//58 62//58 63//58
f 114//59 115//59 113//59
f 113//60 115//60 62//60
f 114//61 37//61 115//61
f 36//62 5//62 61//62
f 117//63 118//63 116//63
f 35//64 34//64 117//64
f 117//65 34//65 118//65
f 119//66 51//66 52//66
f 29//67 28//67 119//67
f 119//68 28//68 51//68
f 44//69 120//69 43//69
f 44//70 121//70 120//70
f 121//71 122//71 120//71
f 120//72 122//72 46//72
f 121//73 17//73 122//73
f 124//74 125//74 123//74
f 124//75 20//75 125//75
f 20//76 19//76 125//76
f 125//77 19//77 40//77
f 23//78 126//78 24//78
f 24//79 126//79 38//79
f 32//80 31//80 127//80
f 127//81 31//81 36//81
f 31//82 5//82 36//82
f 31//83 35//83 5//83
f 32//84 128//84 31//84
f 31//85 128//85 35//85
f 128//86 34//86 35//86
f 129//87 25//87 33//87
f 25//88 4//88 33//88
f 25//89 30//89 4//89
f 27//90 131//90 26//90
f 26//91 131//91 130//91
f 132//92 28//92 29//92
f 133//93 23//93 24//93
f 134//94 15//94 135//94
f 15//95 14//95 135//95
f 135//96 14//96 22//96
f 14//97 1//97 22//97
f 11//98 18//98 3//98
f 12//99 136//99 11//99
f 12//100 137//100 136//100
