# Blender v2.80 (sub 75) OBJ File: 'dream.blend'
# www.blender.org
v -14.000000 -64.000000 1.000000
v -14.000000 -4.000000 -1.000000
v -14.000000 -64.000000 -1.000000
v -14.000000 -4.000000 1.000000
v -18.000000 2.000000 -1.000000
v -10.000000 -64.000000 1.000000
v -10.000000 2.000000 1.000000
v -10.000000 -64.000000 -1.000000
v -18.000000 20.000000 5.000000
v -14.000000 2.000000 -1.000000
v -14.000000 2.000000 1.000000
v -10.000000 2.000000 -1.000000
v -18.000000 2.000000 1.000000
v -18.000000 20.000000 7.000000
v -22.000000 30.000000 7.000000
v -22.000000 20.000000 7.000000
v -22.000000 20.000000 5.000000
v -22.000000 34.000000 5.000000
v -22.000000 30.000000 5.000000
v -18.000000 30.000000 7.000000
v -18.000000 30.000000 5.000000
v -18.000000 34.000000 5.000000
v -22.000000 34.000000 7.000000
v -18.000000 34.000000 7.000000
v -15.000000 34.000000 5.000000
v -15.000000 34.000000 7.000000
v -15.000000 30.000000 7.000000
v -15.000000 30.000000 5.000000
v -0.000003 30.000000 11.499995
v 4.138487 34.000000 11.211774
v -0.000003 34.000000 11.499995
v 4.138487 30.000000 11.211774
v 8.117937 34.000000 10.358188
v 8.117937 30.000000 10.358188
v 11.785418 34.000000 8.972039
v 11.785418 30.000000 8.972039
v 14.999992 33.999996 6.999999
v 14.999992 33.999996 4.999999
v 11.785416 30.000000 6.665709
v 11.785416 34.000000 6.665709
v 8.117931 34.000000 8.051859
v 8.117931 30.000000 8.051859
v 4.138481 34.000000 8.905444
v 4.138481 30.000000 8.905444
v -0.000010 34.000000 9.193665
v -0.000010 30.000000 9.193665
v -4.138501 34.000000 8.905442
v -4.138501 30.000000 8.905442
v -8.117950 34.000000 8.051854
v -8.117950 30.000000 8.051854
v -11.785434 34.000000 6.665704
v -11.785434 30.000000 6.665704
v -15.000007 33.999996 4.999999
v -4.138460 34.000000 11.211779
v -14.999977 33.999996 6.999999
v -11.785399 30.000000 8.972051
v -11.785399 34.000000 8.972051
v -8.117913 34.000000 10.358197
v -8.117913 30.000000 10.358197
v -4.138460 30.000000 11.211779
v 14.000000 -4.000000 -1.000000
v 14.000000 -64.000000 1.000000
v 14.000000 -64.000000 -1.000000
v 18.000000 2.000000 -1.000000
v 14.000000 -4.000000 1.000000
v 10.000000 2.000000 1.000000
v 10.000000 -64.000000 1.000000
v 10.000000 -64.000000 -1.000000
v 18.000000 20.000000 5.000000
v 14.000000 2.000000 -1.000000
v 14.000000 2.000000 1.000000
v 10.000000 2.000000 -1.000000
v 18.000000 2.000000 1.000000
v 22.000000 30.000000 7.000000
v 18.000000 20.000000 7.000000
v 22.000000 20.000000 7.000000
v 22.000000 20.000000 5.000000
v 22.000000 34.000000 5.000000
v 22.000000 30.000000 5.000000
v 18.000000 30.000000 7.000000
v 18.000000 30.000000 5.000000
v 22.000000 34.000000 7.000000
v 18.000000 34.000000 5.000000
v 18.000000 34.000000 7.000000
v 15.000000 34.000000 5.000000
v 15.000000 34.000000 7.000000
v 15.000000 30.000000 7.000000
v 15.000000 30.000000 5.000000
v 14.999992 29.999998 6.999999
v 14.999992 29.999998 4.999999
v -15.000007 29.999998 4.999999
v -14.999977 29.999998 6.999999
v -18.000000 63.999992 5.000000
v -18.000000 63.999992 7.000000
v -22.000000 63.999992 7.000000
v 22.000000 63.999992 7.000000
v 18.000000 63.999992 7.000000
v 18.000000 63.999992 5.000000
v -22.000000 63.999992 5.000000
v 22.000000 63.999992 5.000000
vn -1.0000 0.0000 0.0000
vn -0.8321 -0.5547 0.0000
vn 0.0000 0.0000 1.0000
vn 0.0000 -1.0000 0.0000
vn 0.0000 0.3162 -0.9487
vn 1.0000 0.0000 0.0000
vn 0.0000 1.0000 0.0000
vn 0.0000 0.0000 -1.0000
vn 0.9762 0.2169 0.0000
vn 0.0000 -0.3162 0.9487
vn -0.9762 -0.2169 0.0000
vn 0.0695 0.0000 0.9976
vn 0.2097 0.0000 0.9778
vn 0.3535 0.0000 0.9354
vn 0.5229 0.0000 0.8524
vn -0.4601 0.0000 -0.8879
vn -0.3535 0.0000 -0.9354
vn -0.2097 0.0000 -0.9778
vn -0.0695 0.0000 -0.9976
vn 0.0695 0.0000 -0.9976
vn 0.2097 0.0000 -0.9778
vn 0.3535 0.0000 -0.9354
vn 0.4601 0.0000 -0.8879
vn -0.5229 0.0000 0.8524
vn -0.3535 0.0000 0.9354
vn -0.2097 0.0000 0.9778
vn -0.0695 0.0000 0.9976
vn 0.8321 -0.5547 0.0000
vn -0.9762 0.2169 0.0000
vn 0.9762 -0.2169 0.0000
s off
f 1//1 2//1 3//1
f 4//2 5//2 2//2
f 4//3 6//3 7//3
f 6//4 3//4 8//4
f 5//5 9//5 10//5
f 7//3 11//3 4//3
f 7//6 8//6 12//6
f 11//7 12//7 10//7
f 13//3 4//3 11//3
f 5//8 10//8 2//8
f 6//3 4//3 1//3
f 10//8 12//8 2//8
f 12//8 8//8 2//8
f 3//8 2//8 8//8
f 14//3 15//3 16//3
f 11//9 9//9 14//9
f 13//10 14//10 16//10
f 13//11 17//11 5//11
f 15//1 18//1 19//1
f 16//1 19//1 17//1
f 9//6 20//6 14//6
f 17//8 21//8 9//8
f 84//1 98//1 83//1
f 24//7 25//7 22//7
f 19//8 22//8 21//8
f 20//3 23//3 15//3
f 20//3 26//3 24//3
f 21//4 27//4 20//4
f 22//8 28//8 21//8
f 29//12 30//12 31//12
f 32//13 33//13 30//13
f 34//14 35//14 33//14
f 36//15 37//15 35//15
f 38//16 39//16 40//16
f 39//17 41//17 40//17
f 42//18 43//18 41//18
f 44//19 45//19 43//19
f 46//20 47//20 45//20
f 48//21 49//21 47//21
f 50//22 51//22 49//22
f 52//23 53//23 51//23
f 39//4 36//4 42//4
f 45//7 47//7 54//7
f 55//24 56//24 57//24
f 56//25 58//25 57//25
f 59//26 54//26 58//26
f 60//27 31//27 54//27
f 61//6 62//6 63//6
f 64//28 65//28 61//28
f 65//3 66//3 67//3
f 63//4 67//4 68//4
f 69//5 64//5 70//5
f 66//3 65//3 71//3
f 68//1 66//1 72//1
f 72//7 71//7 70//7
f 73//3 71//3 65//3
f 64//8 61//8 70//8
f 67//3 62//3 65//3
f 70//8 61//8 72//8
f 72//8 61//8 68//8
f 63//8 68//8 61//8
f 74//3 75//3 76//3
f 71//29 69//29 70//29
f 73//10 75//10 71//10
f 77//30 73//30 64//30
f 78//6 74//6 79//6
f 79//6 76//6 77//6
f 80//1 69//1 75//1
f 81//8 77//8 69//8
f 24//3 95//3 23//3
f 85//7 84//7 83//7
f 83//8 79//8 81//8
f 82//3 80//3 74//3
f 86//3 80//3 84//3
f 87//4 81//4 80//4
f 88//8 83//8 81//8
f 1//1 4//1 2//1
f 4//2 13//2 5//2
f 6//4 1//4 3//4
f 5//5 17//5 9//5
f 7//6 6//6 8//6
f 11//7 7//7 12//7
f 14//3 20//3 15//3
f 11//9 10//9 9//9
f 13//10 11//10 14//10
f 13//11 16//11 17//11
f 15//1 23//1 18//1
f 16//1 15//1 19//1
f 9//6 21//6 20//6
f 17//8 19//8 21//8
f 23//1 99//1 18//1
f 24//7 26//7 25//7
f 19//8 18//8 22//8
f 20//3 24//3 23//3
f 20//3 27//3 26//3
f 21//4 28//4 27//4
f 22//8 25//8 28//8
f 29//12 32//12 30//12
f 32//13 34//13 33//13
f 34//14 36//14 35//14
f 36//15 89//15 37//15
f 38//16 90//16 39//16
f 39//17 42//17 41//17
f 42//18 44//18 43//18
f 44//19 46//19 45//19
f 46//20 48//20 47//20
f 48//21 50//21 49//21
f 50//22 52//22 51//22
f 52//23 91//23 53//23
f 34//4 32//4 44//4
f 32//4 29//4 46//4
f 44//4 32//4 46//4
f 29//4 60//4 46//4
f 60//4 59//4 48//4
f 59//4 56//4 50//4
f 56//4 92//4 52//4
f 50//4 56//4 52//4
f 92//4 91//4 52//4
f 60//4 48//4 46//4
f 36//4 34//4 42//4
f 42//4 34//4 44//4
f 90//4 89//4 39//4
f 89//4 36//4 39//4
f 59//4 50//4 48//4
f 54//7 31//7 45//7
f 31//7 30//7 45//7
f 30//7 33//7 43//7
f 33//7 35//7 41//7
f 43//7 33//7 41//7
f 35//7 37//7 40//7
f 37//7 38//7 40//7
f 57//7 58//7 49//7
f 58//7 54//7 47//7
f 49//7 58//7 47//7
f 53//7 55//7 51//7
f 55//7 57//7 51//7
f 35//7 40//7 41//7
f 51//7 57//7 49//7
f 30//7 43//7 45//7
f 55//24 92//24 56//24
f 56//25 59//25 58//25
f 59//26 60//26 54//26
f 60//27 29//27 31//27
f 61//6 65//6 62//6
f 64//28 73//28 65//28
f 63//4 62//4 67//4
f 69//5 77//5 64//5
f 68//1 67//1 66//1
f 72//7 66//7 71//7
f 74//3 80//3 75//3
f 71//29 75//29 69//29
f 73//10 76//10 75//10
f 77//30 76//30 73//30
f 78//6 82//6 74//6
f 79//6 74//6 76//6
f 80//1 81//1 69//1
f 81//8 79//8 77//8
f 83//8 100//8 78//8
f 85//7 86//7 84//7
f 83//8 78//8 79//8
f 82//3 84//3 80//3
f 86//3 87//3 80//3
f 87//4 88//4 81//4
f 88//8 85//8 83//8
f 93//7 95//7 94//7
f 96//7 98//7 97//7
f 93//7 99//7 95//7
f 96//7 100//7 98//7
f 22//6 94//6 24//6
f 82//3 97//3 84//3
f 78//6 96//6 82//6
f 18//8 93//8 22//8
f 84//1 97//1 98//1
f 24//3 94//3 95//3
f 23//1 95//1 99//1
f 83//8 98//8 100//8
f 22//6 93//6 94//6
f 82//3 96//3 97//3
f 78//6 100//6 96//6
f 18//8 99//8 93//8
