# Blender v2.80 (sub 75) OBJ File: 'riverside.blend'
# www.blender.org
v -18.000000 2.000000 1.000000
v -14.000000 -4.000000 1.000000
v -14.000000 -4.000000 -1.000000
v -18.000000 2.000000 -1.000000
v -10.000000 2.000000 1.000000
v -10.000000 2.000000 -1.000000
v -10.000000 -64.000000 1.000000
v -10.000000 -64.000000 -1.000000
v -14.000000 2.000000 1.000000
v -14.000000 2.000000 -1.000000
v -14.000000 -64.000000 1.000000
v -14.000000 -64.000000 -1.000000
v -18.000000 20.000000 5.000000
v -22.000000 20.000000 5.000000
v -22.000000 20.000000 7.000000
v -18.000000 20.000000 7.000000
v -18.000000 30.000000 5.000000
v -22.000000 30.000000 5.000000
v -22.000000 30.000000 7.000000
v -18.000000 30.000000 7.000000
v -18.000000 34.000000 5.000000
v -22.000000 34.000000 5.000000
v -22.000000 34.000000 7.000000
v -18.000000 34.000000 7.000000
v -15.000000 30.000000 7.000000
v -15.000000 30.000000 5.000000
v -15.000000 34.000000 7.000000
v -15.000000 34.000000 5.000000
v -0.000003 34.000000 11.499995
v -0.000003 30.000000 11.499995
v 4.138487 34.000000 11.211774
v 4.138487 30.000000 11.211774
v 8.117937 34.000000 10.358188
v 8.117937 30.000000 10.358188
v 11.785418 34.000000 8.972039
v 11.785418 30.000000 8.972039
v 14.999992 33.999996 6.999999
v 14.999992 29.999998 6.999999
v 14.999992 33.999996 4.999999
v 14.999992 29.999998 4.999999
v 11.785416 34.000000 6.665709
v 11.785416 30.000000 6.665709
v 8.117931 34.000000 8.051859
v 8.117931 30.000000 8.051859
v 4.138481 34.000000 8.905444
v 4.138481 30.000000 8.905444
v -0.000010 34.000000 9.193665
v -0.000010 30.000000 9.193665
v -4.138501 34.000000 8.905442
v -4.138501 30.000000 8.905442
v -8.117950 34.000000 8.051854
v -8.117950 30.000000 8.051854
v -11.785434 34.000000 6.665704
v -11.785434 30.000000 6.665704
v -15.000007 33.999996 4.999999
v -15.000007 29.999998 4.999999
v -14.999977 33.999996 6.999999
v -14.999977 29.999998 6.999999
v -11.785399 34.000000 8.972051
v -11.785399 30.000000 8.972051
v -8.117913 34.000000 10.358197
v -8.117913 30.000000 10.358197
v -4.138460 34.000000 11.211779
v -4.138460 30.000000 11.211779
v 18.000000 2.000000 1.000000
v 14.000000 -4.000000 1.000000
v 14.000000 -4.000000 -1.000000
v 18.000000 2.000000 -1.000000
v 10.000000 2.000000 1.000000
v 10.000000 2.000000 -1.000000
v 10.000000 -64.000000 1.000000
v 10.000000 -64.000000 -1.000000
v 14.000000 2.000000 1.000000
v 14.000000 2.000000 -1.000000
v 14.000000 -64.000000 1.000000
v 14.000000 -64.000000 -1.000000
v 18.000000 20.000000 5.000000
v 22.000000 20.000000 5.000000
v 22.000000 20.000000 7.000000
v 18.000000 20.000000 7.000000
v 18.000000 30.000000 5.000000
v 22.000000 30.000000 5.000000
v 22.000000 30.000000 7.000000
v 18.000000 30.000000 7.000000
v 18.000000 34.000000 5.000000
v 22.000000 34.000000 5.000000
v 22.000000 34.000000 7.000000
v 18.000000 34.000000 7.000000
v 15.000000 30.000000 7.000000
v 15.000000 30.000000 5.000000
v 15.000000 34.000000 7.000000
v 15.000000 34.000000 5.000000
vn -1.0000 0.0000 0.0000
vn -0.8321 -0.5547 0.0000
vn 0.0000 0.0000 1.0000
vn 0.0000 -1.0000 0.0000
vn 0.0000 0.3162 -0.9487
vn 1.0000 0.0000 0.0000
vn 0.0000 1.0000 0.0000
vn 0.0000 0.0000 -1.0000
vn 0.9762 0.2169 0.0000
vn 0.0000 -0.3162 0.9487
vn -0.9762 -0.2169 0.0000
vn 0.0695 0.0000 0.9976
vn 0.2097 0.0000 0.9778
vn 0.3535 0.0000 0.9354
vn 0.5229 0.0000 0.8524
vn -0.4601 0.0000 -0.8879
vn -0.3535 0.0000 -0.9354
vn -0.2097 0.0000 -0.9778
vn -0.0695 0.0000 -0.9976
vn 0.0695 0.0000 -0.9976
vn 0.2097 0.0000 -0.9778
vn 0.3535 0.0000 -0.9354
vn 0.4601 0.0000 -0.8879
vn -0.5229 0.0000 0.8524
vn -0.3535 0.0000 0.9354
vn -0.2097 0.0000 0.9778
vn -0.0695 0.0000 0.9976
vn 0.8321 -0.5547 0.0000
vn -0.9762 0.2169 0.0000
vn 0.9762 -0.2169 0.0000
s off
f 11//1 3//1 12//1
f 2//2 4//2 3//2
f 2//3 7//3 5//3
f 7//4 12//4 8//4
f 4//5 13//5 10//5
f 5//3 9//3 2//3
f 5//6 8//6 6//6
f 9//7 6//7 10//7
f 1//3 2//3 9//3
f 4//8 10//8 3//8
f 7//3 2//3 11//3
f 10//8 6//8 3//8
f 6//8 8//8 3//8
f 12//8 3//8 8//8
f 16//3 19//3 15//3
f 9//9 13//9 16//9
f 1//10 16//10 15//10
f 1//11 14//11 4//11
f 19//1 22//1 18//1
f 15//1 18//1 14//1
f 13//6 20//6 16//6
f 14//8 17//8 13//8
f 21//7 23//7 24//7
f 24//7 28//7 21//7
f 18//8 21//8 17//8
f 20//3 23//3 19//3
f 20//3 27//3 24//3
f 17//4 25//4 20//4
f 21//8 26//8 17//8
f 30//12 31//12 29//12
f 32//13 33//13 31//13
f 34//14 35//14 33//14
f 36//15 37//15 35//15
f 39//16 42//16 41//16
f 42//17 43//17 41//17
f 44//18 45//18 43//18
f 46//19 47//19 45//19
f 48//20 49//20 47//20
f 50//21 51//21 49//21
f 52//22 53//22 51//22
f 54//23 55//23 53//23
f 42//4 36//4 44//4
f 47//7 49//7 63//7
f 57//24 60//24 59//24
f 60//25 61//25 59//25
f 62//26 63//26 61//26
f 64//27 29//27 63//27
f 67//6 75//6 76//6
f 68//28 66//28 67//28
f 66//3 69//3 71//3
f 76//4 71//4 72//4
f 77//5 68//5 74//5
f 69//3 66//3 73//3
f 72//1 69//1 70//1
f 70//7 73//7 74//7
f 65//3 73//3 66//3
f 68//8 67//8 74//8
f 71//3 75//3 66//3
f 74//8 67//8 70//8
f 70//8 67//8 72//8
f 76//8 72//8 67//8
f 83//3 80//3 79//3
f 73//29 77//29 74//29
f 65//10 80//10 73//10
f 78//30 65//30 68//30
f 86//6 83//6 82//6
f 82//6 79//6 78//6
f 84//1 77//1 80//1
f 81//8 78//8 77//8
f 87//7 85//7 88//7
f 92//7 88//7 85//7
f 85//8 82//8 81//8
f 87//3 84//3 83//3
f 91//3 84//3 88//3
f 89//4 81//4 84//4
f 90//8 85//8 81//8
f 11//1 2//1 3//1
f 2//2 1//2 4//2
f 7//4 11//4 12//4
f 4//5 14//5 13//5
f 5//6 7//6 8//6
f 9//7 5//7 6//7
f 16//3 20//3 19//3
f 9//9 10//9 13//9
f 1//10 9//10 16//10
f 1//11 15//11 14//11
f 19//1 23//1 22//1
f 15//1 19//1 18//1
f 13//6 17//6 20//6
f 14//8 18//8 17//8
f 21//7 22//7 23//7
f 24//7 27//7 28//7
f 18//8 22//8 21//8
f 20//3 24//3 23//3
f 20//3 25//3 27//3
f 17//4 26//4 25//4
f 21//8 28//8 26//8
f 30//12 32//12 31//12
f 32//13 34//13 33//13
f 34//14 36//14 35//14
f 36//15 38//15 37//15
f 39//16 40//16 42//16
f 42//17 44//17 43//17
f 44//18 46//18 45//18
f 46//19 48//19 47//19
f 48//20 50//20 49//20
f 50//21 52//21 51//21
f 52//22 54//22 53//22
f 54//23 56//23 55//23
f 34//4 32//4 46//4
f 32//4 30//4 48//4
f 46//4 32//4 48//4
f 30//4 64//4 48//4
f 64//4 62//4 50//4
f 62//4 60//4 52//4
f 60//4 58//4 54//4
f 52//4 60//4 54//4
f 58//4 56//4 54//4
f 64//4 50//4 48//4
f 36//4 34//4 44//4
f 44//4 34//4 46//4
f 40//4 38//4 42//4
f 38//4 36//4 42//4
f 62//4 52//4 50//4
f 63//7 29//7 47//7
f 29//7 31//7 47//7
f 31//7 33//7 45//7
f 33//7 35//7 43//7
f 45//7 33//7 43//7
f 35//7 37//7 41//7
f 37//7 39//7 41//7
f 59//7 61//7 51//7
f 61//7 63//7 49//7
f 51//7 61//7 49//7
f 55//7 57//7 53//7
f 57//7 59//7 53//7
f 35//7 41//7 43//7
f 53//7 59//7 51//7
f 31//7 45//7 47//7
f 57//24 58//24 60//24
f 60//25 62//25 61//25
f 62//26 64//26 63//26
f 64//27 30//27 29//27
f 67//6 66//6 75//6
f 68//28 65//28 66//28
f 76//4 75//4 71//4
f 77//5 78//5 68//5
f 72//1 71//1 69//1
f 70//7 69//7 73//7
f 83//3 84//3 80//3
f 73//29 80//29 77//29
f 65//10 79//10 80//10
f 78//30 79//30 65//30
f 86//6 87//6 83//6
f 82//6 83//6 79//6
f 84//1 81//1 77//1
f 81//8 82//8 78//8
f 87//7 86//7 85//7
f 92//7 91//7 88//7
f 85//8 86//8 82//8
f 87//3 88//3 84//3
f 91//3 89//3 84//3
f 89//4 90//4 81//4
f 90//8 92//8 85//8
