# Blender v2.80 (sub 75) OBJ File: 'dream.blend'
# www.blender.org
o cube_Cube.005
v 18.150101 45.061623 26.342590
v 18.633186 44.147175 27.272253
v 17.548037 45.784634 27.366619
v 18.031122 44.870186 28.296282
v 19.306822 45.819847 26.487329
v 19.789907 44.905399 27.416992
v 18.704758 46.542858 27.511358
v 19.187843 45.628410 28.441021
vn -0.8318 -0.5452 -0.1041
vn -0.4329 0.5199 0.7364
vn 0.8318 0.5452 0.1041
vn 0.4329 -0.5199 -0.7364
vn -0.3474 0.6576 -0.6685
vn 0.3474 -0.6576 0.6685
s off
f 2//1 3//1 1//1
f 4//2 7//2 3//2
f 8//3 5//3 7//3
f 6//4 1//4 5//4
f 7//5 1//5 3//5
f 4//6 6//6 8//6
f 2//1 4//1 3//1
f 4//2 8//2 7//2
f 8//3 6//3 5//3
f 6//4 2//4 1//4
f 7//5 5//5 1//5
f 4//6 2//6 6//6
