# Blender v2.80 (sub 75) OBJ File: ''
# www.blender.org
v 0.000000 0.000000 -2.000000
v 0.406362 -0.295236 -1.935899
v -0.155213 -0.477705 -1.935900
v 1.447215 -1.051451 -0.894439
v 1.219093 -0.885713 -1.315038
v 1.625458 -0.590475 -1.004601
v 1.721395 -0.885715 -0.502302
v -0.552776 -1.701298 -0.894440
v -0.059279 -1.728368 -1.004604
v -0.310430 -1.910844 -0.502303
v -1.788852 0.000000 -0.894431
v -1.662101 -0.477707 -1.004598
v -1.913252 -0.295237 -0.502299
v -0.552776 1.701298 -0.894440
v -0.967943 1.433129 -1.004603
v -0.872014 1.728376 -0.502304
v -0.310430 1.910844 -0.502303
v 1.447215 1.051451 -0.894439
v 1.374317 1.363431 -0.502304
v 1.721395 0.885715 -0.502302
v -1.447215 1.051451 0.894439
v -1.625458 0.590475 1.004601
v -1.219093 0.885713 1.315038
v 1.788852 0.000000 0.894431
v 1.662101 0.477707 1.004598
v 1.506883 0.000000 1.315029
v 1.276387 0.525728 1.447220
v 0.894418 1.051456 1.447224
v 0.723601 0.525726 1.788858
v 1.376379 0.999994 1.051473
v 0.967943 1.433129 1.004603
v 0.324911 0.999991 1.701309
v -0.105579 1.376370 1.447225
v -0.276395 0.850639 1.788860
v -0.723607 1.175557 1.447225
v -0.525738 1.618023 1.051476
v -1.063882 1.363425 1.004603
v -0.850645 0.618023 1.701308
v -0.894420 0.000000 1.788858
v -0.406362 0.295236 1.935899
v -1.341633 0.324914 1.447222
v -0.406362 -0.295236 1.935899
v -0.850645 -0.618023 1.701308
v -1.341633 -0.324914 1.447222
v -0.276395 -0.850639 1.788860
v 0.324911 -0.999991 1.701309
v 0.723601 -0.525726 1.788858
v 0.155213 -0.477705 1.935900
v 0.502294 0.000000 1.935898
v 1.051460 0.000000 1.701303
v 0.894418 -1.051456 1.447224
v 1.276387 -0.525728 1.447220
v 1.376379 -0.999994 1.051473
v 1.662101 -0.477707 1.004598
v 1.902116 0.618025 0.000000
v 1.723608 0.850644 0.552793
v 1.913252 0.295237 0.502299
v 1.618039 1.175564 0.000000
v 1.341641 1.376378 0.552794
v 1.175571 1.618034 0.000000
v 0.872014 1.728376 0.502304
v 0.000000 2.000000 0.000000
v -0.276397 1.902110 0.552794
v 0.310430 1.910844 0.502303
v 0.059279 1.728368 1.004604
v -0.618033 1.902113 -0.000001
v -1.175571 1.618033 0.000000
v -1.374317 1.363431 0.502304
v -0.894430 1.701298 0.552794
v -1.721395 0.885715 0.502302
v -1.894426 0.324915 0.552792
v -1.894426 -0.324916 0.552794
v -1.701296 0.000000 1.051472
v -1.625458 -0.590475 1.004601
v -1.902116 -0.618025 0.000000
v -1.721395 -0.885715 0.502302
v -1.374317 -1.363431 0.502304
v -1.063882 -1.363425 1.004603
v -1.447215 -1.051451 0.894439
v -0.872014 -1.728376 -0.502304
v -0.618034 -1.902113 -0.000002
v -1.175571 -1.618034 0.000000
v -0.894432 -1.701297 0.552794
v -0.276399 -1.902110 0.552794
v 0.872014 -1.728376 0.502304
v 0.967943 -1.433129 1.004603
v 0.552776 -1.701298 0.894440
v 1.723608 -0.850646 0.552789
v 0.618034 1.902113 0.000000
v 0.894431 1.701297 -0.552795
v 0.276398 1.902110 -0.552795
v 0.525738 1.618023 -1.051476
v -0.059279 1.728368 -1.004604
v -1.341638 1.376381 -0.552794
v -1.723606 0.850648 -0.552793
v -1.618037 1.175567 0.000000
v -1.376379 0.999994 -1.051473
v -1.341638 -1.376381 -0.552794
v -1.376379 -0.999994 -1.051473
v -0.967943 -1.433129 -1.004603
v 0.000000 -2.000000 0.000000
v 0.618034 -1.902113 0.000000
v 0.310430 -1.910844 0.502303
v 0.276398 -1.902110 -0.552795
v 0.894431 -1.701297 -0.552795
v 1.175571 -1.618033 0.000000
v 0.525738 -1.618023 -1.051476
v 1.894426 -0.324915 -0.552792
v 1.894426 0.324915 -0.552792
v 2.000000 0.000000 0.000000
v 1.701296 0.000000 -1.051472
v 1.625458 0.590475 -1.004601
v 0.850645 0.618023 -1.701308
v 0.723607 1.175558 -1.447224
v 1.219093 0.885713 -1.315038
v 1.063882 1.363425 -1.004603
v -0.324911 0.999990 -1.701309
v -0.465643 1.433126 -1.315039
v 0.105578 1.376373 -1.447222
v -0.894421 1.051454 -1.447223
v -1.276389 0.525726 -1.447219
v -1.506883 0.000000 -1.315029
v -1.662101 0.477707 -1.004598
v -0.502294 0.000000 -1.935898
v -0.723603 -0.525729 -1.788857
v -1.051460 0.000000 -1.701303
v -1.276389 -0.525727 -1.447219
v -0.894421 -1.051457 -1.447221
v 1.341634 0.324914 -1.447222
v 1.341635 -0.324915 -1.447220
v 0.850645 -0.618023 -1.701308
v 0.894422 -0.000001 -1.788857
v 0.406362 0.295236 -1.935899
v -0.465643 -1.433126 -1.315039
v -0.324911 -0.999990 -1.701309
v 0.105581 -1.376371 -1.447224
v 0.276397 -0.850641 -1.788858
vn 0.0482 -0.1482 -0.9878
vn 0.7230 -0.4121 -0.5545
vn 0.8193 -0.4121 -0.3987
vn -0.1387 -0.9065 -0.3987
vn -0.9050 -0.1482 -0.3987
vn -0.4206 0.8149 -0.3987
vn -0.2945 0.9065 -0.3024
vn 0.7711 0.5603 -0.3024
vn -0.7230 0.4121 0.5545
vn 0.8271 0.0916 0.5545
vn 0.4911 0.3568 0.7947
vn 0.5987 0.4350 0.6726
vn 0.5513 0.5843 0.5955
vn -0.0144 0.5481 0.8363
vn -0.1876 0.5773 0.7947
vn -0.2287 0.7038 0.6726
vn -0.6153 0.5603 0.5545
vn -0.3702 0.1560 0.9158
vn -0.5749 0.3046 0.7594
vn -0.2885 0.0000 0.9575
vn -0.3702 -0.1560 0.9158
vn -0.5257 0.1557 0.8363
vn -0.6071 0.0000 0.7947
vn -0.5257 -0.1557 0.8363
vn -0.7081 0.3049 0.6369
vn -0.2627 -0.3039 0.9158
vn 0.2079 -0.3438 0.9158
vn 0.2334 -0.1696 0.9575
vn 0.3912 -0.0914 0.9158
vn 0.3338 -0.4350 0.8363
vn 0.6441 -0.0915 0.7594
vn 0.7261 -0.3438 0.5955
vn 0.7520 -0.1696 0.6369
vn 0.8271 -0.0916 0.5545
vn 0.9366 0.3039 0.1745
vn 0.8869 0.4519 0.0962
vn 0.6291 0.6409 0.4399
vn 0.7038 0.7038 0.0962
vn 0.5785 0.7968 0.1745
vn 0.0004 0.9846 0.1745
vn 0.0160 0.9372 0.3485
vn -0.1323 0.8883 0.4399
vn -0.3045 0.9372 -0.1702
vn -0.5791 0.7964 0.1745
vn -0.5638 0.7488 0.3485
vn -0.6451 0.6519 0.3987
vn -0.8193 0.4121 0.3987
vn -0.9325 0.0000 0.3611
vn -0.8857 -0.1487 0.4399
vn -0.9363 -0.3046 0.1745
vn -0.8864 -0.3049 0.3485
vn -0.6451 -0.6519 0.3987
vn -0.4526 -0.8883 -0.0784
vn -0.4519 -0.8869 0.0962
vn -0.3035 -0.9342 0.1876
vn 0.4206 -0.8149 0.3987
vn 0.8039 -0.4003 0.4399
vn 0.1560 0.9846 0.0784
vn 0.3035 0.9342 -0.1876
vn 0.1557 0.9831 -0.0962
vn 0.2882 0.8869 -0.3611
vn -0.1387 0.9065 -0.3987
vn -0.7947 0.5774 -0.1876
vn -0.6291 0.6409 -0.4399
vn -0.7544 0.5481 -0.3611
vn -0.5785 -0.7968 -0.1745
vn -0.6291 -0.6409 -0.4399
vn -0.5379 -0.7676 -0.3485
vn 0.1560 -0.9846 0.0784
vn 0.1557 -0.9831 -0.0962
vn 0.3035 -0.9342 -0.1876
vn 0.4519 -0.8869 -0.0962
vn 0.2882 -0.8869 -0.3611
vn 0.9822 0.0000 -0.1876
vn 0.9325 0.0000 -0.3611
vn 0.8857 0.1487 -0.4399
vn 0.8864 0.3049 -0.3485
vn 0.4674 0.4526 -0.7594
vn 0.5087 0.5792 -0.6369
vn -0.1121 0.6409 -0.7594
vn -0.0711 0.7676 -0.6369
vn -0.1685 0.8149 -0.5545
vn -0.3427 0.7583 -0.5545
vn -0.2860 0.5843 -0.7594
vn -0.3936 0.6628 -0.6369
vn -0.5513 0.5843 -0.5955
vn -0.7520 0.1696 -0.6369
vn -0.8271 0.0916 -0.5545
vn -0.8271 -0.0916 -0.5545
vn -0.3912 -0.0914 -0.9158
vn -0.5168 -0.1830 -0.8363
vn -0.5513 -0.5843 -0.5955
vn 0.5749 0.3046 -0.7594
vn 0.5257 -0.1557 -0.8363
vn 0.3702 -0.1560 -0.9158
vn 0.2885 0.0000 -0.9575
vn 0.1558 0.0000 -0.9878
vn -0.1685 -0.8149 -0.5545
vn -0.1121 -0.6409 -0.7594
vn 0.0144 -0.5481 -0.8363
s 1
f 1//1 2//1 3//1
f 4//2 5//2 6//2
f 4//3 6//3 7//3
f 8//4 9//4 10//4
f 11//5 12//5 13//5
f 14//6 15//6 16//6
f 14//7 16//7 17//7
f 18//8 19//8 20//8
f 21//9 22//9 23//9
f 24//10 25//10 26//10
f 27//11 28//11 29//11
f 27//12 30//12 28//12
f 30//13 31//13 28//13
f 32//14 33//14 34//14
f 33//15 35//15 34//15
f 33//16 36//16 35//16
f 37//17 21//17 23//17
f 38//18 39//18 40//18
f 23//19 41//19 38//19
f 40//20 39//20 42//20
f 39//21 43//21 42//21
f 38//22 41//22 39//22
f 41//23 44//23 39//23
f 39//24 44//24 43//24
f 23//25 22//25 41//25
f 43//26 45//26 42//26
f 46//27 47//27 48//27
f 48//28 47//28 49//28
f 47//29 50//29 49//29
f 46//30 51//30 47//30
f 52//31 26//31 50//31
f 53//32 54//32 52//32
f 52//33 54//33 26//33
f 54//34 24//34 26//34
f 55//35 56//35 57//35
f 55//36 58//36 56//36
f 59//37 31//37 30//37
f 58//38 60//38 59//38
f 60//39 61//39 59//39
f 62//40 63//40 64//40
f 64//41 63//41 65//41
f 63//42 36//42 65//42
f 17//43 16//43 66//43
f 67//44 68//44 69//44
f 69//45 68//45 37//45
f 68//46 21//46 37//46
f 70//47 22//47 21//47
f 71//48 72//48 73//48
f 72//49 74//49 73//49
f 75//50 76//50 72//50
f 72//51 76//51 74//51
f 77//52 78//52 79//52
f 80//53 81//53 82//53
f 82//54 81//54 83//54
f 81//55 84//55 83//55
f 85//56 86//56 87//56
f 88//57 54//57 53//57
f 89//58 62//58 64//58
f 90//59 91//59 89//59
f 89//60 91//60 62//60
f 90//61 92//61 91//61
f 93//62 14//62 17//62
f 94//63 95//63 96//63
f 15//64 97//64 94//64
f 94//65 97//65 95//65
f 98//66 80//66 82//66
f 99//67 100//67 98//67
f 98//68 100//68 80//68
f 101//69 102//69 103//69
f 101//70 104//70 102//70
f 104//71 105//71 102//71
f 102//72 105//72 106//72
f 104//73 107//73 105//73
f 108//74 109//74 110//74
f 108//75 111//75 109//75
f 111//76 112//76 109//76
f 109//77 112//77 20//77
f 113//78 114//78 115//78
f 115//79 114//79 116//79
f 117//80 118//80 119//80
f 119//81 118//81 93//81
f 118//82 14//82 93//82
f 118//83 15//83 14//83
f 117//84 120//84 118//84
f 118//85 120//85 15//85
f 120//86 97//86 15//86
f 121//87 122//87 123//87
f 122//88 11//88 123//88
f 122//89 12//89 11//89
f 124//90 125//90 126//90
f 126//91 125//91 127//91
f 128//92 100//92 99//92
f 129//93 113//93 115//93
f 130//94 131//94 132//94
f 131//95 2//95 132//95
f 132//96 2//96 133//96
f 2//97 1//97 133//97
f 134//98 9//98 8//98
f 135//99 136//99 134//99
f 135//100 137//100 136//100
