# Blender v2.80 (sub 75) OBJ File: ''
# www.blender.org
v 0.000000 0.000000 -1.000000
v 0.425323 -0.309011 -0.850655
v -0.162456 -0.499995 -0.850655
v -0.276388 -0.850649 -0.447220
v 0.262869 -0.809012 -0.525738
v 0.000000 -1.000000 0.000000
v -0.276388 0.850649 -0.447220
v -0.688189 0.499997 -0.525736
v -0.587786 0.809017 0.000000
v 0.723607 0.525725 -0.447220
v 0.262869 0.809012 -0.525738
v 0.587786 0.809017 0.000000
v -0.587786 -0.809017 0.000000
v 0.276388 -0.850649 0.447220
v 0.688189 -0.499997 0.525736
v 0.162456 -0.499995 0.850655
v 0.894426 0.000000 0.447216
v 0.688189 0.499997 0.525736
v 0.525730 0.000000 0.850652
v 0.162456 0.499995 0.850655
v 0.000000 0.000000 1.000000
v -0.425323 0.309011 0.850655
v -0.425323 -0.309011 0.850655
v 0.951058 0.309013 0.000000
v 0.000000 1.000000 0.000000
v -0.262869 0.809012 0.525738
v 0.276388 0.850649 0.447220
v -0.951058 0.309013 0.000000
v -0.850648 0.000000 0.525736
v -0.723607 0.525725 0.447220
v -0.262869 -0.809012 0.525738
v 0.587786 -0.809017 0.000000
v -0.688189 -0.499997 -0.525736
v 0.951058 -0.309013 0.000000
v 0.850648 0.000000 -0.525736
v 0.425323 0.309011 -0.850655
v -0.162456 0.499995 -0.850655
v -0.525730 0.000000 -0.850652
v -0.894426 0.000000 -0.447216
vn 0.1024 -0.3151 -0.9435
vn 0.0247 -0.9435 -0.3304
vn -0.5746 0.7488 -0.3304
vn 0.5346 0.7779 -0.3304
vn -0.3066 -0.9435 -0.1256
vn 0.4089 -0.6284 0.6617
vn 0.7240 0.1947 0.6617
vn 0.2680 0.1947 0.9435
vn 0.4911 0.3568 0.7947
vn -0.1024 0.3151 0.9435
vn -0.3313 0.0000 0.9435
vn 0.8897 0.3151 0.3304
vn -0.0247 0.9435 0.3304
vn -0.9050 0.2680 0.3304
vn -0.3035 -0.9342 0.1876
vn 0.5746 -0.7488 0.3304
vn 0.3066 0.9435 0.1256
vn 0.3035 0.9342 -0.1876
vn -0.5746 -0.7488 -0.3304
vn 0.9921 0.0000 0.1256
vn 0.9822 0.0000 -0.1876
vn 0.4713 0.5831 -0.6617
vn -0.4089 0.6284 -0.6617
vn -0.4911 0.3568 -0.7947
vn -0.7240 0.1947 -0.6617
vn -0.4089 -0.6284 -0.6617
vn -0.0385 -0.7488 -0.6617
vn 0.1876 -0.5773 -0.7947
s 1
f 1//1 2//1 3//1
f 4//2 5//2 6//2
f 7//3 8//3 9//3
f 10//4 11//4 12//4
f 4//5 6//5 13//5
f 14//6 15//6 16//6
f 17//7 18//7 19//7
f 19//8 20//8 21//8
f 19//9 18//9 20//9
f 20//10 22//10 21//10
f 22//11 23//11 21//11
f 24//12 18//12 17//12
f 25//13 26//13 27//13
f 28//14 29//14 30//14
f 13//15 6//15 31//15
f 32//16 15//16 14//16
f 12//17 25//17 27//17
f 12//18 11//18 25//18
f 33//19 4//19 13//19
f 34//20 24//20 17//20
f 34//21 35//21 24//21
f 36//22 11//22 10//22
f 37//23 8//23 7//23
f 37//24 38//24 8//24
f 38//25 39//25 8//25
f 3//26 4//26 33//26
f 3//27 5//27 4//27
f 3//28 2//28 5//28
