# Blender v2.80 (sub 75) OBJ File: 'dream.blend'
# www.blender.org
o umbrella_umbrella.001
v -13.110585 -37.669571 4.514942
v -12.776885 -37.509331 4.640359
v -13.069177 -37.419395 4.553463
v -13.319183 -37.335014 4.424361
v -13.367875 -37.629189 4.379068
v -12.122987 -37.760983 4.665306
v -11.764101 -37.777634 4.623243
v -12.111563 -37.691956 4.675933
v -12.470086 -37.742878 4.694309
v -12.453538 -37.601364 4.681712
v -12.795128 -37.720814 4.691637
v -12.706756 -37.321693 4.662401
v -12.979919 -37.180580 4.581517
v -13.214228 -37.054199 4.457350
v -12.086937 -37.626068 4.683673
v -12.405232 -37.472118 4.696896
v -12.050056 -37.565845 4.688229
v -12.327024 -37.360107 4.739275
v -12.587435 -37.165115 4.756917
v -12.846244 -36.962303 4.598028
v -13.057041 -36.797531 4.476765
v -12.239282 -37.251511 4.708177
v -12.465834 -37.001427 4.678779
v -12.673285 -36.772957 4.602361
v -12.853663 -36.574883 4.481861
v -12.002337 -37.513603 4.689425
v -11.945613 -37.471352 4.687215
v -12.128016 -37.168633 4.703841
v -12.304300 -36.881100 4.672485
v -12.467690 -36.619808 4.594351
v -12.611912 -36.394798 4.472442
v -12.237363 -36.508751 4.574304
v -12.341074 -36.264210 4.448869
v -11.882066 -37.440712 4.681684
v -11.997501 -37.114647 4.726436
v -12.109041 -36.808765 4.738277
v -11.814136 -37.422859 4.673044
v -11.870114 -37.073513 4.676046
v -11.929885 -36.743008 4.632132
v -11.991152 -36.444054 4.542992
v -12.051560 -36.188133 4.412048
v -11.754496 -36.169487 4.363397
v -11.744435 -37.418488 4.661629
v -11.727530 -37.071049 4.687097
v -11.717102 -36.745472 4.681166
v -11.738521 -36.428196 4.501616
v -11.675640 -37.427757 4.647875
v -11.598447 -37.083111 4.626676
v -11.535484 -36.756947 4.560459
v -11.489174 -36.461792 4.451768
v -11.461297 -36.208992 4.304781
v -11.183231 -36.305126 4.238456
v -11.610397 -37.450310 4.632314
v -11.470467 -37.127357 4.596150
v -11.349687 -36.821182 4.516141
v -11.252699 -36.543549 4.395362
v -11.348509 -37.202087 4.596692
v -11.166848 -36.935711 4.549917
v -11.038180 -36.670326 4.334568
v -10.930984 -36.454201 4.166969
v -11.551211 -37.485291 4.615540
v -11.500359 -37.531342 4.598201
v -11.254617 -37.286308 4.529234
v -11.036324 -37.051941 4.418995
v -10.853863 -36.837250 4.271720
v -10.714250 -36.650482 4.093068
v -11.175043 -37.394905 4.495418
v -10.920798 -37.209595 4.369901
v -10.706829 -37.037907 4.209235
v -10.541357 -36.886429 4.019593
v -11.459792 -37.586704 4.580961
v -11.431071 -37.649246 4.564484
v -11.112844 -37.523701 4.496540
v -10.824718 -37.402618 4.404520
v -10.602731 -37.264584 4.149514
v -10.418949 -37.152977 3.949368
v -11.087769 -37.649628 4.433513
v -10.794096 -37.579399 4.280029
v -10.545566 -37.508575 4.094849
v -10.351731 -37.439877 3.885090
v -11.415299 -37.716560 4.549402
v -11.413083 -37.786068 4.536296
v -11.083422 -37.785965 4.407804
v -10.787785 -37.777332 4.242705
v -10.537535 -37.760494 4.047345
v -10.342286 -37.736107 3.829231
v -10.578942 -38.010674 4.008826
v -10.390978 -38.030281 3.783937
v -11.424508 -37.855091 4.525668
v -11.099970 -37.927483 4.420401
v -10.806027 -37.988815 4.293983
v -11.449134 -37.920979 4.517929
v -11.154138 -38.050606 4.371774
v -10.890448 -38.161530 4.190398
v -10.668200 -38.249489 3.980772
v -10.495933 -38.311096 3.750948
v -10.801876 -38.467766 3.964260
v -10.653120 -38.567764 3.731533
v -11.486015 -37.981201 4.513372
v -11.226482 -38.168736 4.362839
v -10.995477 -38.333031 4.177425
v -11.533734 -38.033443 4.512177
v -11.314225 -38.277332 4.393937
v -11.117077 -38.496719 4.255564
v -10.974834 -38.657112 3.959926
v -10.856497 -38.790413 3.726438
v -11.180428 -38.810257 3.967937
v -11.098249 -38.970493 3.735857
v -11.590458 -38.075695 4.514387
v -11.431354 -38.354095 4.364828
v -11.292903 -38.602127 4.180315
v -11.654004 -38.106339 4.519917
v -11.556006 -38.414196 4.375678
v -11.473871 -38.689381 4.196066
v -11.410755 -38.921314 3.987984
v -11.369086 -39.101082 3.759430
v -11.656967 -38.986015 4.019297
v -11.658600 -39.177162 3.796250
v -11.721934 -38.124187 4.528557
v -11.683393 -38.455330 4.426068
v -11.653026 -38.755135 4.302211
v -11.791636 -38.128563 4.539973
v -11.825978 -38.457794 4.415017
v -11.865809 -38.752674 4.253176
v -11.909599 -39.001873 4.060672
v -11.955664 -39.195808 3.844902
v -11.860430 -38.119293 4.553726
v -11.960922 -38.439613 4.441994
v -12.061718 -38.726280 4.292342
v -12.158944 -38.968277 4.110520
v -12.248862 -39.156303 3.903518
v -12.233225 -38.676964 4.418202
v -12.395419 -38.886520 4.166926
v -12.526928 -39.060169 3.969843
v -11.925673 -38.096737 4.569288
v -12.083040 -38.401485 4.505963
v -11.984859 -38.061760 4.586061
v -12.204999 -38.326756 4.505422
v -12.416062 -38.562435 4.384425
v -12.609939 -38.759743 4.227720
v -12.779176 -38.911095 4.041329
v -12.560881 -38.431282 4.433804
v -12.794255 -38.592819 4.290568
v -12.995911 -38.714813 4.115230
v -12.035712 -38.015705 4.603401
v -12.304751 -38.236416 4.539435
v -12.076279 -37.960342 4.620641
v -12.378463 -38.133942 4.606695
v -12.662111 -38.288551 4.564442
v -12.941289 -38.392162 4.353053
v -13.168803 -38.478867 4.188705
v -12.758194 -38.095528 4.529821
v -13.045388 -38.165482 4.412775
v -13.291210 -38.212318 4.258930
v -12.105000 -37.897804 4.637117
v -12.440662 -38.005142 4.605573
v -12.120771 -37.830486 4.652200
v -12.471600 -37.873100 4.635156
v -12.803106 -37.903828 4.572770
v -13.102552 -37.921494 4.467439
v -13.358429 -37.925419 4.323208
v -12.067838 -37.478329 2.798879
v -11.797286 -37.752823 4.610044
v -12.088230 -37.481487 2.801874
v -11.780898 -37.739937 4.609529
v -12.106753 -37.473183 2.806641
v -11.760408 -37.737736 4.606340
v -12.117527 -37.456051 2.811664
v -11.742324 -37.746918 4.601491
v -12.117130 -37.435532 2.815348
v -11.732386 -37.764561 4.596521
v -12.105688 -37.418137 2.816526
v -11.733749 -37.785069 4.593007
v -12.086835 -37.409393 2.814822
v -11.745980 -37.801929 4.592066
v -12.066555 -37.412075 2.810777
v -11.765199 -37.809792 4.593996
v -12.051289 -37.425331 2.805675
v -11.785298 -37.806156 4.598184
v -12.045881 -37.444954 2.801137
v -11.804371 -37.772293 4.607722
v -11.799902 -37.792175 4.603301
v -12.052052 -37.464706 2.798604
v -12.357522 -37.665649 4.257300
v -12.010419 -37.204231 4.280896
v -11.889628 -37.617336 3.977710
v -12.252446 -37.384514 4.290327
v -11.902629 -37.627022 3.978216
v -11.351202 -37.801239 4.056120
v -11.854218 -37.649406 3.965636
v -12.290227 -37.952877 4.192950
v -11.904658 -37.657551 3.972986
v -11.360659 -37.504669 4.112043
v -11.854726 -37.633476 3.968640
v -12.073246 -38.149384 4.118964
v -11.893003 -37.668106 3.969012
v -11.533748 -37.268456 4.185603
v -11.864023 -37.620785 3.972591
v -11.812130 -37.172207 4.252003
v -11.878977 -37.615616 3.976158
v -11.779714 -38.188931 4.060283
v -11.877236 -37.670231 3.965860
v -11.508568 -38.058197 4.036683
v -11.862672 -37.663208 3.964592
v -11.908274 -37.642120 3.976443
vn -0.3102 -0.0943 0.9460
vn -0.4732 -0.0570 0.8791
vn 0.1066 -0.1748 0.9788
vn 0.1070 -0.1686 0.9799
vn 0.0391 0.0841 0.9957
vn -0.0557 0.2398 0.9692
vn -0.1440 -0.0622 0.9876
vn -0.2865 -0.0055 0.9581
vn -0.4419 0.0600 0.8950
vn 0.1102 -0.1565 0.9815
vn 0.1130 -0.1509 0.9821
vn -0.0129 -0.1119 0.9936
vn 0.1157 -0.1452 0.9826
vn -0.1006 -0.2898 0.9518
vn -0.2714 -0.3373 0.9014
vn -0.2460 0.0776 0.9662
vn -0.3886 0.1694 0.9057
vn 0.2038 0.2943 0.9337
vn -0.1903 0.1516 0.9699
vn -0.3152 0.2670 0.9107
vn 0.1233 -0.1352 0.9831
vn 0.1280 -0.1309 0.9831
vn 0.2033 0.1142 0.9724
vn 0.1327 -0.1267 0.9830
vn 0.0550 -0.0217 0.9982
vn -0.0289 0.0908 0.9954
vn -0.1215 0.2138 0.9693
vn -0.2245 0.3490 0.9098
vn -0.0423 0.2618 0.9642
vn -0.1202 0.4123 0.9031
vn 0.1434 -0.1202 0.9823
vn 0.1493 -0.1180 0.9817
vn -0.1186 -0.1255 0.9850
vn -0.2931 -0.0758 0.9531
vn 0.1552 -0.1158 0.9811
vn 0.3538 0.0487 0.9341
vn 0.4454 0.1966 0.8735
vn 0.0442 0.2938 0.9549
vn -0.0061 0.4543 0.8908
vn 0.1133 0.4736 0.8734
vn 0.1675 -0.1138 0.9793
vn 0.1737 -0.1141 0.9782
vn -0.0769 -0.0209 0.9968
vn -0.2227 0.0887 0.9708
vn 0.1349 0.3084 0.9416
vn 0.1799 -0.1143 0.9770
vn 0.4207 -0.0385 0.9064
vn 0.5552 0.0612 0.8295
vn 0.2261 0.3052 0.9251
vn 0.2335 0.4694 0.8516
vn 0.3498 0.4418 0.8261
vn 0.1919 -0.1171 0.9744
vn 0.1975 -0.1197 0.9730
vn 0.2344 0.0073 0.9721
vn 0.2752 0.1400 0.9511
vn 0.2753 0.1400 0.9511
vn 0.3143 0.2842 0.9058
vn 0.0504 0.0895 0.9947
vn -0.0163 0.2588 0.9658
vn 0.3962 0.2464 0.8845
vn 0.4577 0.3918 0.7981
vn 0.2031 -0.1223 0.9715
vn 0.2129 -0.1295 0.9684
vn 0.2170 -0.1341 0.9669
vn 0.4458 -0.2016 0.8721
vn 0.6017 -0.1963 0.7742
vn 0.4687 0.1930 0.8620
vn 0.5532 0.3215 0.7685
vn 0.3227 -0.0577 0.9447
vn 0.4250 0.0297 0.9047
vn 0.5289 0.1262 0.8392
vn 0.6325 0.2335 0.7385
vn 0.2211 -0.1386 0.9654
vn 0.2273 -0.1491 0.9623
vn 0.2293 -0.1550 0.9609
vn 0.2156 0.1126 0.9700
vn 0.2464 0.2886 0.9252
vn 0.5745 0.0486 0.8171
vn 0.6927 0.1312 0.7092
vn 0.4963 -0.4407 0.7479
vn 0.6038 -0.0369 0.7963
vn 0.7313 0.0186 0.6818
vn 0.2313 -0.1608 0.9595
vn 0.3754 -0.3540 0.8566
vn 0.2329 -0.1730 0.9570
vn 0.2325 -0.1792 0.9559
vn 0.3584 -0.1619 0.9194
vn 0.4855 -0.1470 0.8618
vn 0.4856 -0.1470 0.8618
vn 0.6157 -0.1270 0.7777
vn 0.7469 -0.1002 0.6574
vn 0.7469 -0.1001 0.6574
vn 0.6096 -0.2182 0.7621
vn 0.7389 -0.2204 0.6368
vn 0.2321 -0.1855 0.9549
vn 0.3629 0.0404 0.9310
vn 0.4769 0.1680 0.8627
vn 0.2288 -0.1975 0.9532
vn 0.2261 -0.2031 0.9527
vn 0.2333 -0.4443 0.8650
vn 0.2744 -0.5897 0.7596
vn 0.5859 -0.3071 0.7500
vn 0.7076 -0.3374 0.6208
vn 0.5454 -0.3901 0.7419
vn 0.6542 -0.4468 0.6102
vn 0.2233 -0.2088 0.9521
vn 0.3295 -0.2702 0.9047
vn 0.4365 -0.3306 0.8368
vn 0.2158 -0.2188 0.9516
vn 0.2111 -0.2231 0.9517
vn 0.4426 -0.1025 0.8908
vn 0.5975 -0.0622 0.7995
vn 0.4897 -0.4642 0.7381
vn 0.5808 -0.5444 0.6052
vn 0.4902 -0.6264 0.6061
vn 0.2064 -0.2273 0.9517
vn 0.0674 -0.4420 0.8945
vn 0.0109 -0.5929 0.8052
vn 0.4209 -0.5264 0.7388
vn 0.1957 -0.2339 0.9524
vn 0.1898 -0.2360 0.9530
vn 0.2457 -0.3460 0.9055
vn 0.2944 -0.4592 0.8381
vn 0.3417 -0.5744 0.7439
vn 0.3859 -0.6896 0.6128
vn 0.2718 -0.7317 0.6251
vn 0.1839 -0.2382 0.9537
vn 0.4280 -0.2682 0.8631
vn 0.5675 -0.3245 0.7567
vn 0.2551 -0.6063 0.7532
vn -0.0665 -0.3480 0.9351
vn -0.2055 -0.4494 0.8694
vn 0.1645 -0.6210 0.7664
vn 0.1524 -0.7510 0.6425
vn 0.1716 -0.2402 0.9554
vn 0.1654 -0.2400 0.9566
vn 0.1592 -0.2397 0.9577
vn 0.1352 -0.3639 0.9216
vn 0.1071 -0.4894 0.8654
vn 0.0733 -0.6177 0.7830
vn 0.0322 -0.7468 0.6643
vn 0.0322 -0.7467 0.6643
vn 0.3970 -0.5306 0.7489
vn -0.0150 -0.5968 0.8023
vn -0.0841 -0.7191 0.6898
vn 0.1472 -0.2369 0.9603
vn 0.1416 -0.2343 0.9618
vn 0.3239 -0.4006 0.8571
vn 0.1360 -0.2317 0.9632
vn -0.1231 -0.1939 0.9733
vn -0.3018 -0.2074 0.9305
vn -0.0969 -0.5589 0.8236
vn -0.1921 -0.6692 0.7178
vn -0.0623 -0.4111 0.9094
vn -0.0623 -0.4112 0.9094
vn -0.1693 -0.5055 0.8460
vn -0.2876 -0.5989 0.7474
vn 0.1262 -0.2245 0.9663
vn 0.1221 -0.2200 0.9678
vn 0.0354 -0.3177 0.9475
vn 0.0353 -0.3177 0.9475
vn 0.1180 -0.2154 0.9694
vn 0.1654 -0.4552 0.8749
vn 0.1436 -0.6108 0.7786
vn -0.2295 -0.4387 0.8688
vn -0.3669 -0.5109 0.7774
vn -0.2752 -0.3611 0.8910
vn -0.4270 -0.4086 0.8067
vn 0.1118 -0.2048 0.9724
vn 0.1098 -0.1991 0.9738
vn -0.0835 -0.0316 0.9960
vn -0.2456 0.0514 0.9680
vn 0.1078 -0.1933 0.9752
vn -0.0202 -0.2231 0.9746
vn -0.0203 -0.2231 0.9746
vn -0.1565 -0.2507 0.9553
vn -0.3045 -0.2756 0.9118
vn -0.4656 -0.2959 0.8341
vn -0.3163 -0.1855 0.9303
vn -0.4812 -0.1772 0.8585
vn 0.1062 -0.1810 0.9777
vn 0.0060 -0.4136 0.9104
vn -0.1074 -0.5382 0.8359
vn 0.1269 -0.9777 -0.1671
vn -0.4208 -0.9053 -0.0580
vn -0.8331 -0.5473 0.0799
vn -0.9791 -0.0174 0.2025
vn -0.8123 0.5165 0.2709
vn -0.3861 0.8840 0.2634
vn 0.1646 0.9693 0.1825
vn 0.6649 0.7450 0.0538
vn 0.9558 0.2823 -0.0819
vn 0.1699 -0.1774 0.9694
vn 0.9451 -0.2717 -0.1815
vn 0.6361 -0.7415 -0.2132
vn -0.1699 0.1774 -0.9694
vn 0.0671 0.9794 0.1904
vn 0.0656 0.9796 0.1900
vn 0.0649 0.9797 0.1899
vn -0.9340 -0.3442 0.0963
vn -0.9341 -0.3438 0.0962
vn -0.9341 -0.3437 0.0962
vn -0.6021 -0.7964 -0.0568
vn -0.6013 -0.7970 -0.0566
vn -0.6025 -0.7961 -0.0568
vn 0.2612 0.9535 0.1503
vn 0.2625 0.9533 0.1494
vn 0.2607 0.9536 0.1506
vn 0.4899 -0.8322 -0.2597
vn 0.4912 -0.8316 -0.2592
vn 0.4893 -0.8325 -0.2600
vn -0.3102 0.9185 0.2453
vn -0.3089 0.9191 0.2446
vn -0.3107 0.9182 0.2457
vn 0.8817 -0.4052 -0.2416
vn 0.8821 -0.4046 -0.2413
vn 0.8815 -0.4055 -0.2418
vn -0.7775 0.5736 0.2578
vn -0.7770 0.5746 0.2573
vn -0.7778 0.5732 0.2580
vn -0.9825 0.0341 0.1831
vn -0.9825 0.0347 0.1830
vn -0.9825 0.0342 0.1831
vn 0.9772 0.1578 -0.1424
vn 0.7444 0.6678 0.0047
vn 0.7447 0.6673 0.0042
vn 0.7441 0.6680 0.0049
vn -0.4427 0.2472 0.8620
vn 0.0737 -0.1636 0.9838
vn -0.0022 0.0889 0.9960
vn 0.0870 -0.1280 0.9880
vn -0.1351 -0.2667 0.9543
vn -0.5612 -0.0701 0.8247
vn -0.3886 0.1695 0.9057
vn 0.1714 0.1407 0.9751
vn -0.1295 0.5039 0.8540
vn 0.0986 -0.1126 0.9887
vn -0.4026 0.3004 0.8647
vn 0.1292 -0.0898 0.9875
vn -0.1347 -0.0873 0.9870
vn 0.1472 -0.0832 0.9856
vn 0.3416 0.0883 0.9357
vn 0.2684 0.5478 0.7924
vn 0.1660 -0.0801 0.9829
vn -0.0776 0.0206 0.9968
vn -0.1926 0.4734 0.8595
vn 0.1849 -0.0808 0.9794
vn 0.4242 0.0029 0.9056
vn 0.5142 0.4484 0.7311
vn 0.2202 -0.0930 0.9710
vn 0.0720 0.1247 0.9896
vn 0.2000 0.5571 0.8060
vn 0.2352 -0.1041 0.9664
vn 0.4707 -0.1689 0.8660
vn 0.7616 0.1435 0.6319
vn 0.2572 -0.1340 0.9570
vn 0.2517 0.1299 0.9590
vn 0.5663 0.4101 0.7149
vn 0.6927 0.1313 0.7092
vn 0.4129 -0.3406 0.8447
vn 0.7934 -0.2526 0.5539
vn 0.2632 -0.1517 0.9527
vn 0.7827 0.0821 0.6170
vn 0.7389 -0.2203 0.6368
vn 0.2645 -0.1894 0.9456
vn 0.4009 0.0346 0.9155
vn 0.2595 -0.2078 0.9431
vn 0.2703 -0.4542 0.8489
vn 0.5987 -0.6065 0.5233
vn 0.2396 -0.2404 0.9406
vn 0.4694 -0.1291 0.8735
vn 0.7763 -0.3164 0.5452
vn 0.2253 -0.2533 0.9408
vn 0.0910 -0.4715 0.8772
vn 0.2433 -0.7987 0.5504
vn 0.2943 -0.4592 0.8381
vn 0.1909 -0.2699 0.9438
vn 0.4340 -0.3061 0.8473
vn 0.5493 -0.6512 0.5237
vn 0.1722 -0.2729 0.9465
vn -0.0646 -0.3866 0.9200
vn -0.1531 -0.7646 0.6261
vn 0.3067 -0.4366 0.8457
vn 0.1782 -0.8092 0.5599
vn 0.1349 -0.2679 0.9540
vn 0.1179 -0.2600 0.9584
vn -0.1441 -0.2282 0.9629
vn -0.4569 -0.5156 0.7249
vn -0.0623 -0.4111 0.9095
vn -0.2875 -0.5989 0.7474
vn 0.0354 -0.3178 0.9475
vn 0.0904 -0.2351 0.9677
vn 0.1304 -0.4768 0.8693
vn -0.2120 -0.7374 0.6414
vn -0.5656 -0.1356 0.8135
vn 0.0809 -0.2190 0.9724
vn -0.1206 -0.0496 0.9915
vn -0.1566 -0.2507 0.9553
vn -0.4656 -0.2960 0.8340
vn -0.4896 -0.4598 0.7408
vn 0.0724 -0.1826 0.9805
vn -0.0355 -0.4130 0.9101
vn -0.9301 0.3161 0.1868
vn -0.5999 0.7714 0.2123
vn -0.0808 0.9838 0.1601
vn 0.4622 0.8855 0.0470
vn 0.8564 0.5082 -0.0911
vn 0.9771 -0.0290 -0.2106
vn 0.7858 -0.5548 -0.2733
vn 0.3433 -0.9027 -0.2593
vn -0.2101 -0.9622 -0.1733
vn 0.1700 -0.1775 0.9693
vn 0.1698 -0.1774 0.9694
vn 0.1700 -0.1774 0.9694
vn 0.1698 -0.1773 0.9694
vn 0.1699 -0.1773 0.9694
vn 0.1701 -0.1774 0.9693
vn 0.1697 -0.1773 0.9694
vn -0.6986 -0.7142 -0.0422
vn -0.9670 -0.2377 0.0920
vn -0.1699 0.1773 -0.9694
vn -0.1700 0.1775 -0.9693
vn 0.0678 0.9793 0.1905
vn -0.9339 -0.3443 0.0963
vn -0.6009 -0.7973 -0.0565
vn 0.2630 0.9532 0.1490
vn 0.4917 -0.8314 -0.2589
vn -0.3084 0.9194 0.2442
vn 0.8823 -0.4042 -0.2410
vn -0.7768 0.5749 0.2572
vn -0.9825 0.0348 0.1830
vn 0.7450 0.6670 0.0039
s 1
f 1//1 2//1 3//1
f 1//2 4//2 5//2
f 6//3 7//3 8//4
f 9//5 8//5 10//5
f 11//6 10//6 2//6
f 10//7 12//7 2//7
f 2//8 13//8 3//8
f 3//9 14//9 4//9
f 8//10 7//11 15//11
f 10//12 15//12 16//12
f 15//11 7//11 17//13
f 15//14 18//14 16//14
f 16//15 19//15 12//15
f 12//16 20//16 13//16
f 14//17 20//17 21//17
f 19//18 22//18 23//18
f 20//19 23//19 24//19
f 20//20 25//20 21//20
f 17//21 7//22 26//22
f 18//23 26//23 22//23
f 26//22 7//22 27//24
f 26//25 28//25 22//25
f 22//26 29//26 23//26
f 23//27 30//27 24//27
f 25//28 30//28 31//28
f 29//29 32//29 30//29
f 30//30 33//30 31//30
f 27//31 7//32 34//32
f 27//33 35//33 28//33
f 28//34 36//34 29//34
f 34//32 7//32 37//35
f 35//36 37//36 38//36
f 36//37 38//37 39//37
f 32//38 39//38 40//38
f 32//39 41//39 33//39
f 40//40 42//40 41//40
f 37//41 7//42 43//42
f 37//43 44//43 38//43
f 38//44 45//44 39//44
f 39//45 46//45 40//45
f 43//42 7//42 47//46
f 44//47 47//47 48//47
f 45//48 48//48 49//48
f 46//49 49//49 50//49
f 46//50 51//50 42//50
f 50//51 52//51 51//51
f 47//52 7//53 53//53
f 47//54 54//54 48//54
f 48//55 55//56 49//56
f 49//57 56//57 50//57
f 53//58 57//58 54//58
f 54//59 58//59 55//59
f 55//60 59//60 56//60
f 52//61 59//61 60//61
f 53//53 7//53 61//62
f 61//63 7//64 62//64
f 57//65 62//65 63//65
f 58//66 63//66 64//66
f 59//67 64//67 65//67
f 60//68 65//68 66//68
f 62//69 67//69 63//69
f 63//70 68//70 64//70
f 65//71 68//71 69//71
f 66//72 69//72 70//72
f 62//64 7//64 71//73
f 71//74 7//75 72//75
f 71//76 73//76 67//76
f 67//77 74//77 68//77
f 68//78 75//78 69//78
f 69//79 76//79 70//79
f 74//80 77//80 78//80
f 75//81 78//81 79//81
f 76//82 79//82 80//82
f 72//75 7//75 81//83
f 73//84 81//84 77//84
f 81//85 7//86 82//86
f 81//87 83//87 77//87
f 77//88 84//88 78//89
f 79//90 84//90 85//90
f 79//91 86//92 80//92
f 84//93 87//93 85//93
f 86//94 87//94 88//94
f 82//86 7//86 89//95
f 82//96 90//96 83//96
f 83//97 91//97 84//97
f 89//98 7//99 92//99
f 90//100 92//100 93//100
f 91//101 93//101 94//101
f 87//102 94//102 95//102
f 88//103 95//103 96//103
f 94//104 97//104 95//104
f 96//105 97//105 98//105
f 92//99 7//99 99//106
f 92//107 100//107 93//107
f 93//108 101//108 94//108
f 99//109 7//110 102//110
f 99//111 103//111 100//111
f 100//112 104//112 101//112
f 101//113 105//113 97//113
f 98//114 105//114 106//114
f 106//115 107//115 108//115
f 102//110 7//110 109//116
f 103//117 109//117 110//117
f 104//118 110//118 111//118
f 105//119 111//119 107//119
f 109//120 7//121 112//121
f 109//122 113//122 110//122
f 110//123 114//123 111//123
f 107//124 114//124 115//124
f 108//125 115//125 116//125
f 116//126 117//126 118//126
f 112//121 7//121 119//127
f 112//128 120//128 113//128
f 113//129 121//129 114//129
f 114//130 117//130 115//130
f 120//131 122//131 123//131
f 121//132 123//132 124//132
f 117//133 124//133 125//133
f 117//134 126//134 118//134
f 119//135 7//136 122//136
f 122//136 7//136 127//137
f 122//138 128//138 123//138
f 123//139 129//139 124//139
f 125//140 129//140 130//140
f 125//141 131//141 126//142
f 128//143 132//143 129//143
f 129//144 133//144 130//144
f 131//145 133//145 134//145
f 127//146 7//147 135//147
f 127//148 136//148 128//148
f 135//147 7//147 137//149
f 136//150 137//150 138//150
f 132//151 138//151 139//151
f 133//152 139//152 140//152
f 134//153 140//153 141//153
f 138//154 142//155 139//155
f 139//156 143//156 140//156
f 141//157 143//157 144//157
f 137//158 7//159 145//159
f 137//160 146//161 138//161
f 145//159 7//159 147//162
f 145//163 148//163 146//163
f 146//164 149//164 142//164
f 142//165 150//165 143//165
f 144//166 150//166 151//166
f 150//167 152//167 153//167
f 151//168 153//168 154//168
f 147//169 7//170 155//170
f 148//171 155//171 156//171
f 149//172 156//172 152//172
f 155//170 7//170 157//173
f 155//174 158//174 156//175
f 156//176 159//176 152//176
f 153//177 159//177 160//177
f 154//178 160//178 161//178
f 159//179 1//179 160//179
f 161//180 1//180 5//180
f 157//181 7//3 6//3
f 157//182 9//182 158//182
f 158//183 11//183 159//183
f 162//184 163//184 164//184
f 164//185 165//185 166//185
f 166//186 167//186 168//186
f 168//187 169//187 170//187
f 170//188 171//188 172//188
f 172//189 173//189 174//189
f 174//190 175//190 176//190
f 176//191 177//191 178//191
f 178//192 179//192 180//192
f 171//193 167//193 181//193
f 180//194 182//194 183//194
f 183//195 181//195 162//195
f 172//196 176//196 180//196
f 9//197 184//198 11//199
f 35//200 185//201 186//202
f 18//203 187//204 188//205
f 90//206 189//207 190//208
f 148//209 191//210 192//211
f 73//212 193//213 194//214
f 136//215 195//216 196//217
f 57//218 197//219 198//220
f 44//221 199//222 200//223
f 120//224 201//224 202//224
f 103//225 203//226 204//227
f 1//228 11//228 2//228
f 1//2 3//2 4//2
f 9//229 6//229 8//229
f 11//230 9//230 10//230
f 10//7 16//7 12//7
f 2//8 12//8 13//8
f 3//9 13//9 14//9
f 10//12 8//12 15//12
f 15//231 17//231 18//231
f 16//232 18//232 19//232
f 12//233 19//233 20//233
f 14//234 13//234 20//234
f 19//235 18//235 22//235
f 20//236 19//236 23//236
f 20//20 24//20 25//20
f 18//237 17//237 26//237
f 26//25 27//25 28//25
f 22//26 28//26 29//26
f 23//27 29//27 30//27
f 25//28 24//28 30//28
f 29//238 36//238 32//238
f 30//30 32//30 33//30
f 27//239 34//239 35//239
f 28//240 35//240 36//240
f 35//241 34//241 37//241
f 36//242 35//242 38//242
f 32//243 36//243 39//243
f 32//39 40//39 41//39
f 40//40 46//40 42//40
f 37//244 43//244 44//244
f 38//245 44//245 45//245
f 39//246 45//246 46//246
f 44//247 43//247 47//247
f 45//248 44//248 48//248
f 46//249 45//249 49//249
f 46//50 50//50 51//50
f 50//51 56//51 52//51
f 47//54 53//54 54//54
f 48//55 54//55 55//56
f 49//57 55//57 56//57
f 53//250 61//250 57//250
f 54//251 57//251 58//251
f 55//252 58//252 59//252
f 52//61 56//61 59//61
f 57//253 61//253 62//253
f 58//254 57//254 63//254
f 59//255 58//255 64//255
f 60//68 59//68 65//68
f 62//69 71//69 67//69
f 63//70 67//70 68//70
f 65//71 64//71 68//71
f 66//72 65//72 69//72
f 71//256 72//256 73//256
f 67//257 73//257 74//257
f 68//258 74//258 75//258
f 69//79 75//259 76//79
f 74//260 73//260 77//260
f 75//261 74//261 78//261
f 76//82 75//82 79//82
f 73//262 72//262 81//262
f 81//87 82//87 83//87
f 77//88 83//88 84//88
f 79//90 78//90 84//90
f 79//91 85//91 86//92
f 84//263 91//263 87//263
f 86//264 85//264 87//264
f 82//265 89//265 90//265
f 83//266 90//266 91//266
f 90//267 89//267 92//267
f 91//268 90//268 93//268
f 87//269 91//269 94//269
f 88//103 87//103 95//103
f 94//104 101//104 97//104
f 96//105 95//105 97//105
f 92//107 99//107 100//107
f 93//108 100//108 101//108
f 99//270 102//270 103//270
f 100//271 103//271 104//271
f 101//272 104//272 105//272
f 98//114 97//114 105//114
f 106//115 105//115 107//115
f 103//273 102//273 109//273
f 104//274 103//274 110//274
f 105//275 104//275 111//275
f 109//122 112//122 113//122
f 110//123 113//276 114//123
f 107//124 111//124 114//124
f 108//125 107//125 115//125
f 116//126 115//126 117//126
f 112//277 119//277 120//277
f 113//278 120//278 121//278
f 114//279 121//279 117//279
f 120//280 119//280 122//280
f 121//281 120//281 123//281
f 117//282 121//282 124//282
f 117//134 125//134 126//134
f 122//138 127//138 128//138
f 123//139 128//139 129//139
f 125//140 124//140 129//140
f 125//141 130//141 131//141
f 128//283 136//283 132//283
f 129//284 132//284 133//284
f 131//145 130//145 133//145
f 127//285 135//285 136//285
f 136//286 135//286 137//286
f 132//287 136//287 138//287
f 133//288 132//288 139//288
f 134//153 133//153 140//153
f 138//154 146//289 142//155
f 139//156 142//156 143//156
f 141//290 140//290 143//290
f 137//160 145//291 146//161
f 145//292 147//292 148//292
f 146//293 148//293 149//293
f 142//294 149//294 150//294
f 144//166 143//166 150//166
f 150//295 149//295 152//295
f 151//168 150//168 153//168
f 148//296 147//296 155//296
f 149//297 148//297 156//297
f 155//174 157//174 158//174
f 156//176 158//298 159//176
f 153//177 152//177 159//177
f 154//299 153//299 160//299
f 159//300 11//300 1//300
f 161//180 160//180 1//180
f 157//301 6//301 9//301
f 158//302 9//302 11//302
f 162//303 181//303 163//303
f 164//304 163//304 165//304
f 166//305 165//305 167//305
f 168//306 167//306 169//306
f 170//307 169//307 171//307
f 172//308 171//308 173//308
f 174//309 173//309 175//309
f 176//310 175//310 177//310
f 178//311 177//311 179//311
f 165//193 163//312 181//193
f 181//193 182//313 179//314
f 179//314 177//315 181//193
f 177//315 175//316 181//193
f 175//316 173//317 171//193
f 171//193 169//318 167//193
f 167//193 165//193 181//193
f 175//316 171//193 181//193
f 180//319 179//319 182//319
f 183//320 182//320 181//320
f 183//321 162//196 164//196
f 164//196 166//322 168//196
f 168//196 170//322 172//196
f 172//196 174//196 176//196
f 176//196 178//321 180//196
f 180//196 183//321 164//196
f 164//196 168//196 180//196
f 168//196 172//196 180//196
f 9//197 205//323 184//198
f 35//200 36//324 185//201
f 18//203 19//325 187//204
f 90//206 91//326 189//207
f 148//209 149//327 191//210
f 73//212 74//328 193//213
f 136//215 132//329 195//216
f 57//218 58//330 197//219
f 44//221 45//331 199//222
f 120//224 121//224 201//224
f 103//225 104//332 203//226
