# Blender v2.80 (sub 75) OBJ File: ''
# www.blender.org
v 5.000000 5.000000 0.000000
v -5.000000 5.000000 0.000000
v 5.000000 -5.000000 0.000000
v -5.000000 -5.000000 0.000000
v -0.000000 3.000000 0.000000
v 1.148050 2.771639 0.000000
v 2.121320 2.121321 0.000000
v -1.148050 2.771638 0.000000
v -2.121320 2.121320 0.000000
v 2.771638 1.148051 0.000000
v -2.771638 1.148051 0.000000
v -3.000000 0.000000 0.000000
v 3.000000 -0.000000 0.000000
v -2.771638 -1.148050 0.000000
v 2.771638 -1.148051 0.000000
v -2.121320 -2.121320 0.000000
v 2.121320 -2.121321 0.000000
v -1.148050 -2.771638 0.000000
v 0.000000 -3.000000 0.000000
v 1.148049 -2.771640 0.000000
vn 0.0000 0.0000 1.0000
s off
f 6//1 7//1 1//1
f 18//1 16//1 4//1
f 2//1 12//1 11//1
f 2//1 11//1 9//1
f 13//1 3//1 1//1
f 10//1 13//1 1//1
f 2//1 9//1 8//1
f 2//1 8//1 5//1
f 7//1 10//1 1//1
f 2//1 5//1 1//1
f 5//1 6//1 1//1
f 3//1 13//1 15//1
f 3//1 15//1 17//1
f 12//1 2//1 4//1
f 14//1 12//1 4//1
f 3//1 17//1 20//1
f 3//1 20//1 19//1
f 16//1 14//1 4//1
f 3//1 19//1 4//1
f 19//1 18//1 4//1
