# Blender v2.80 (sub 75) OBJ File: 'dream.blend'
# www.blender.org
o barriers
v 12.500000 20.000000 5.000000
v 9.500000 2.000000 -1.000000
v 9.500000 2.000000 1.250000
v 14.500000 30.000000 5.000000
v 12.500000 20.000000 7.250000
v 10.000000 2.000000 1.250000
v 10.000000 2.000000 -1.000000
v 13.000000 20.000000 5.000000
v 13.000000 20.000000 7.250000
v 15.000000 30.000000 5.000000
v 14.500000 30.000000 7.250000
v 9.500000 -64.000000 -1.000000
v 10.000000 -64.000000 1.250000
v 9.500000 -64.000000 1.250000
v 10.000000 -64.000000 -1.000000
v -9.500000 2.000000 1.250000
v -9.500000 2.000000 -1.000000
v -12.500000 20.000000 5.000000
v -12.500000 20.000000 7.250000
v -14.500000 30.000000 5.000000
v -13.000000 20.000000 5.000000
v -10.000000 2.000000 -1.000000
v -10.000000 2.000000 1.250000
v -15.000000 30.000000 5.000000
v -13.000000 20.000000 7.250000
v -14.500000 30.000000 7.250000
v -15.000000 30.000000 7.250000
v -9.500000 -64.000000 -1.000000
v -9.500000 -64.000000 1.250000
v -10.000000 -64.000000 1.250000
v -10.000000 -64.000000 -1.000000
v 15.000000 30.000000 7.250000
vn -0.9864 0.1644 0.0000
vn -0.9806 0.1961 0.0000
vn 0.9864 -0.1644 0.0000
vn 0.9806 -0.1961 0.0000
vn 0.0000 -0.3162 0.9487
vn 0.0000 0.0000 1.0000
vn 0.0000 0.3162 -0.9487
vn 0.0000 1.0000 0.0000
vn 0.0000 0.0000 -1.0000
vn 0.0000 -1.0000 0.0000
vn -1.0000 0.0000 0.0000
vn 1.0000 0.0000 0.0000
vn 0.9864 0.1644 0.0000
vn 0.9806 0.1961 0.0000
vn -0.9864 -0.1644 0.0000
vn -0.9806 -0.1961 0.0000
s 1
f 1//1 2//1 3//1
f 4//2 1//2 5//2
f 6//3 7//3 8//3
f 9//4 8//4 10//4
f 5//5 3//5 6//5
f 11//6 5//6 9//6
f 7//7 2//7 1//7
f 10//8 4//8 11//8
f 8//9 1//9 4//9
f 12//9 2//9 7//9
f 13//10 14//10 12//10
f 13//6 6//6 3//6
f 14//11 3//11 2//11
f 15//12 7//12 6//12
f 16//13 17//13 18//13
f 19//14 18//14 20//14
f 21//15 22//15 23//15
f 24//16 21//16 25//16
f 19//5 25//5 23//5
f 26//6 27//6 25//6
f 18//7 17//7 22//7
f 26//8 20//8 24//8
f 20//9 18//9 21//9
f 22//9 17//9 28//9
f 28//10 29//10 30//10
f 16//6 23//6 30//6
f 17//12 16//12 29//12
f 23//11 22//11 31//11
f 1//1 3//1 5//1
f 4//2 5//2 11//2
f 6//3 8//3 9//3
f 9//4 10//4 32//4
f 5//5 6//5 9//5
f 11//6 9//6 32//6
f 7//7 1//7 8//7
f 10//8 11//8 32//8
f 8//9 4//9 10//9
f 12//9 7//9 15//9
f 13//10 12//10 15//10
f 13//6 3//6 14//6
f 14//11 2//11 12//11
f 15//12 6//12 13//12
f 16//13 18//13 19//13
f 19//14 20//14 26//14
f 21//15 23//15 25//15
f 24//16 25//16 27//16
f 19//5 23//5 16//5
f 26//6 25//6 19//6
f 18//7 22//7 21//7
f 26//8 24//8 27//8
f 20//9 21//9 24//9
f 22//9 28//9 31//9
f 28//10 30//10 31//10
f 16//6 30//6 29//6
f 17//12 29//12 28//12
f 23//11 31//11 30//11
