# Blender v2.80 (sub 75) OBJ File: 'dream.blend'
# www.blender.org
o stag
v -1.039756 30.945713 12.602686
v -0.981703 31.210171 12.684081
v -0.524747 31.577379 12.862721
v -1.542795 31.384811 13.291236
v -0.496659 30.763142 11.225786
v 0.022884 32.288757 13.283356
v -0.592517 31.648041 12.868567
v -0.820511 31.547499 13.983976
v -0.899083 31.756458 13.839946
v -1.546692 31.382561 14.501151
v -1.556285 31.290087 14.379191
v -0.873555 31.575043 14.471661
v -0.678671 31.883715 13.425231
v -0.706166 31.653158 14.580561
v -1.116100 31.631165 14.459151
v -1.022310 31.685314 14.511867
v -1.264792 31.545317 14.068167
v -0.666455 31.645115 12.091656
v 0.786673 32.339344 12.188591
v 0.597887 32.210331 12.844016
v 1.753073 32.173729 11.225786
v 0.878147 32.587265 13.345106
v 1.080290 32.551643 12.641326
v 1.154692 32.942207 13.289227
v 1.143806 32.935921 14.103571
v -0.517434 31.467003 14.787961
v -0.721618 31.498081 14.765761
v -0.684559 31.389723 15.038086
v -0.582160 31.459702 15.051621
v -0.431651 31.565374 14.777521
v -0.600409 31.580912 14.781776
v -0.396019 31.458536 14.909621
v -0.639593 31.665030 14.668891
v -0.683854 31.880722 14.608761
v -0.726906 31.707510 14.693121
v -0.761726 31.659220 14.886796
v -0.705161 31.602608 14.926436
v -0.955024 31.724161 12.508146
v 0.764457 32.716904 12.490996
v 0.503008 32.565956 12.310806
v -0.425367 32.029961 12.302231
v -0.571535 31.368710 14.987871
v -0.548980 31.409513 15.275771
v -0.782789 31.565203 14.360111
v -0.573571 31.384947 14.592241
v -0.702128 31.521624 14.610556
v -0.738168 31.644686 15.074236
v -0.759360 31.565571 14.919276
v -0.343685 31.522642 14.835361
v -0.277126 31.395388 14.965687
v -0.384766 31.415335 14.811651
v -1.671546 32.040005 12.602686
v -0.867002 32.170181 12.862721
v -1.413492 31.958052 12.684081
v -1.558109 32.601627 11.225786
v -0.839692 32.076160 12.868567
v -1.040761 31.928984 13.983976
v -1.631575 31.420492 14.379191
v -1.043430 31.869274 14.471661
v -0.892086 31.975180 14.580561
v -0.879195 32.013592 12.091656
v 0.448588 32.924923 12.188591
v 0.242467 32.825935 12.844016
v 0.788363 33.844658 11.225786
v 0.709032 32.880180 13.345106
v 0.779255 33.073051 12.641326
v -1.034113 32.039337 14.765761
v -0.958934 32.231705 14.787961
v -0.901774 32.102890 14.781776
v -0.997620 32.179302 15.051621
v -0.905559 32.341087 14.909621
v -0.830851 32.256809 14.777521
v -0.848518 32.026897 14.668891
v -0.855386 31.930044 14.693121
v -0.935357 32.001328 14.926436
v -1.071110 32.233997 14.987871
v -1.024495 32.233131 15.275771
v -1.109424 32.125610 15.038086
v -1.006569 31.952801 14.360111
v -1.058066 32.224117 14.592241
v -1.003978 32.044445 14.610556
v -0.914616 31.924032 14.886796
v -0.915423 31.951702 15.074236
v -0.994535 31.972906 14.919276
v -0.823875 32.354355 14.835361
v -0.937346 32.372433 14.811651
v -0.900801 32.475624 14.965687
vn 0.1660 0.2566 -0.9521
vn 0.4027 -0.6095 0.6829
vn 0.6272 -0.6930 0.3555
vn 0.4748 -0.7847 0.3985
vn -0.2664 -0.3304 0.9055
vn 0.3359 0.2470 0.9089
vn 0.2520 -0.9671 -0.0357
vn 0.8549 0.4712 0.2172
vn 0.5112 -0.7037 0.4934
vn 0.2774 -0.9571 0.0842
vn 0.8435 -0.4352 0.3148
vn 0.5176 -0.7562 0.4003
vn 0.9534 0.2072 -0.2194
vn -0.0088 0.1813 0.9834
vn -0.1648 -0.5265 0.8341
vn -0.2283 -0.5903 0.7743
vn -0.1289 -0.7039 -0.6985
vn 0.0405 -0.9813 0.1882
vn 0.4177 0.6762 -0.6069
vn 0.4051 -0.8817 0.2419
vn -0.4380 -0.8498 -0.2934
vn 0.4656 -0.8125 0.3508
vn -0.7434 0.6637 -0.0835
vn 0.3131 -0.9334 0.1753
vn 0.7423 0.6452 0.1806
vn 0.7820 -0.5694 0.2534
vn 0.7893 -0.6140 0.0058
vn -0.1671 0.9299 -0.3277
vn -0.9167 0.1757 -0.3588
vn 0.9170 -0.2867 0.2775
vn -0.8075 -0.0000 -0.5899
vn -0.0695 -0.8404 -0.5375
vn -0.5568 0.7430 0.3714
vn 0.0878 0.7860 0.6120
vn 0.0818 -0.7035 -0.7059
vn 0.4208 -0.4505 -0.7873
vn 0.5744 0.6338 -0.5180
vn 0.7988 -0.0038 -0.6015
vn -0.1494 0.4627 0.8738
vn 0.5654 0.7707 0.2938
vn 0.9637 -0.0623 -0.2597
vn -0.8129 0.0753 -0.5775
vn 0.5745 0.5320 -0.6220
vn 0.1677 0.6223 -0.7646
vn -0.5698 0.6394 -0.5162
vn -0.1648 0.3004 -0.9395
vn -0.2198 0.5707 -0.7912
vn 0.9771 0.1862 -0.1029
vn 0.7850 0.5832 0.2089
vn -0.3644 -0.7928 -0.4885
vn -0.5681 0.7812 0.2590
vn -0.1167 -0.9820 0.1483
vn 0.8170 -0.5741 -0.0549
vn -0.0449 -0.9977 0.0515
vn 0.8141 0.3835 -0.4360
vn 0.3608 0.2179 0.9068
vn -0.4327 -0.8581 -0.2764
vn -0.5902 0.1622 0.7908
vn -0.5982 -0.6292 0.4963
vn -0.5184 0.2685 0.8119
vn -0.4853 0.4774 0.7325
vn 0.7197 0.6934 -0.0367
vn -0.9756 -0.0936 -0.1987
vn 0.4627 -0.7640 0.4496
vn 0.5000 -0.7971 0.3386
vn -0.9918 0.0187 0.1261
vn 0.7959 -0.1767 -0.5791
vn 0.3586 -0.4021 -0.8424
vn -0.3932 -0.8571 0.3328
vn -0.5506 -0.7853 0.2830
vn 0.0681 0.7310 0.6790
vn 0.0894 0.8133 0.5750
vn 0.9628 0.1318 -0.2360
vn 0.3052 0.0155 -0.9522
vn -0.3265 0.6535 0.6829
vn -0.2866 0.8897 0.3555
vn -0.4422 0.8036 0.3985
vn -0.4193 -0.0655 0.9055
vn 0.3818 0.1674 0.9090
vn -0.7115 0.7018 -0.0357
vn 0.8355 0.5048 0.2172
vn -0.3538 0.7946 0.4934
vn -0.6902 0.7187 0.0842
vn 0.0449 0.9481 0.3148
vn -0.3961 0.8264 0.4003
vn 0.6562 0.7220 -0.2194
vn 0.1526 -0.0982 0.9834
vn -0.5384 0.1205 0.8341
vn -0.6253 0.0974 0.7743
vn -0.6741 0.2403 -0.6985
vn -0.8296 0.5257 0.1882
vn 0.7945 0.0237 -0.6068
vn -0.5610 0.7917 0.2419
vn -0.9549 0.0456 -0.2934
vn -0.4708 0.8095 0.3508
vn 0.2031 -0.9756 -0.0835
vn -0.6518 0.7379 0.1753
vn 0.9300 0.3203 0.1806
vn -0.1021 0.9619 0.2534
vn -0.1371 0.9905 0.0058
vn 0.7218 -0.6097 -0.3277
vn -0.3062 -0.8818 -0.3588
vn 0.2102 0.9375 0.2775
vn -0.4038 -0.6993 -0.5899
vn -0.7626 0.3600 -0.5375
vn 0.3650 -0.8537 0.3714
vn 0.7246 -0.3169 0.6120
vn -0.5683 0.4226 -0.7059
vn -0.1798 0.5897 -0.7873
vn 0.8361 0.1805 -0.5181
vn 0.3962 0.6937 -0.6015
vn 0.3260 -0.3607 0.8738
vn 0.9502 0.1043 0.2938
vn 0.4279 0.8657 -0.2597
vn -0.3412 -0.7416 -0.5775
vn 0.7480 0.2315 -0.6220
vn 0.6228 -0.1659 -0.7646
vn 0.2688 -0.8132 -0.5162
vn 0.1778 -0.2929 -0.9395
vn 0.3843 -0.4757 -0.7912
vn 0.6498 0.7531 -0.1029
vn 0.8976 0.3883 0.2089
vn -0.8559 0.3755 -0.3556
vn 0.3925 -0.8826 0.2590
vn -0.9088 0.3900 0.1483
vn -0.0887 0.9945 -0.0549
vn -0.8865 0.4599 0.0515
vn 0.7392 0.5133 -0.4360
vn 0.3691 0.2035 0.9068
vn -0.9595 0.0543 -0.2764
vn -0.1546 -0.5922 0.7908
vn -0.8440 -0.2035 0.4963
vn -0.0266 -0.5832 0.8119
vn 0.1707 -0.6590 0.7325
vn 0.9603 0.2765 -0.0367
vn -0.5688 -0.7981 -0.1987
vn -0.4303 0.7827 0.4496
vn -0.4403 0.8315 0.3386
vn -0.4797 -0.8683 0.1261
vn 0.2449 0.7777 -0.5790
vn -0.1690 0.5116 -0.8424
vn -0.7067 -0.3433 0.6187
vn -0.9554 -0.0842 0.2831
vn 0.6671 -0.3066 0.6790
vn 0.7490 -0.3292 0.5750
vn 0.5955 0.7679 -0.2360
vn -0.7906 -0.4564 0.4083
vn -0.5485 -0.3167 -0.7739
vn 0.8676 0.1623 -0.4700
vn -0.7642 -0.4412 0.4705
vn -0.0599 -0.0346 0.9976
vn -0.0431 0.7711 0.6353
vn 0.9702 -0.0526 0.2367
vn -0.1027 -0.9290 -0.3557
vn 0.2225 0.1283 -0.9664
vn -0.6506 -0.4404 0.6187
vn 0.6462 -0.4229 0.6353
vn 0.4395 0.8665 0.2367
vn -0.8688 0.0808 -0.4885
vn 0.2224 0.1286 -0.9664
vn -0.9389 0.0880 0.3328
vn 0.5744 0.6702 -0.4700
s 1
f 1//1 2//1 3//1
f 3//2 4//2 1//2
f 3//3 5//3 6//3
f 3//4 2//4 5//4
f 6//5 7//5 3//5
f 4//6 3//6 7//6
f 7//7 8//7 4//7
f 9//8 8//8 7//8
f 10//9 11//9 8//9
f 8//10 12//10 10//10
f 9//11 7//11 13//11
f 6//12 13//12 7//12
f 8//13 9//13 14//13
f 15//14 10//14 12//14
f 16//15 15//15 12//15
f 12//16 14//16 16//16
f 8//17 11//17 17//17
f 8//18 17//18 4//18
f 18//19 6//19 5//19
f 18//20 19//20 6//20
f 20//21 19//21 21//21
f 21//22 22//22 20//22
f 20//23 22//23 19//23
f 6//24 19//24 22//24
f 23//25 22//25 21//25
f 24//26 22//26 23//26
f 22//27 24//27 25//27
f 21//28 19//28 23//28
f 5//29 2//29 18//29
f 2//30 1//30 18//30
f 4//31 18//31 1//31
f 16//32 26//32 27//32
f 27//33 28//33 29//33
f 30//34 31//34 32//34
f 16//35 14//35 26//35
f 26//36 14//36 30//36
f 14//37 33//37 30//37
f 14//38 34//38 33//38
f 35//39 31//39 34//39
f 35//40 36//40 37//40
f 14//41 9//41 34//41
f 18//42 4//42 38//42
f 23//43 19//43 39//43
f 40//44 39//44 19//44
f 18//45 38//45 41//45
f 40//46 19//46 41//46
f 19//47 18//47 41//47
f 42//48 29//48 43//48
f 26//49 31//49 29//49
f 26//50 42//50 28//50
f 29//51 28//51 43//51
f 42//52 43//52 28//52
f 14//53 44//53 8//53
f 12//54 8//54 44//54
f 14//55 45//55 44//55
f 45//56 14//56 46//56
f 45//57 12//57 44//57
f 14//58 12//58 46//58
f 45//59 46//59 12//59
f 27//60 35//60 16//60
f 34//61 16//61 35//61
f 36//62 47//62 37//62
f 35//63 27//63 48//63
f 31//64 37//64 48//64
f 37//65 47//65 48//65
f 36//66 48//66 47//66
f 49//67 50//67 51//67
f 26//68 30//68 49//68
f 26//69 51//69 32//69
f 51//70 50//70 32//70
f 32//71 50//71 49//71
f 31//72 30//72 33//72
f 34//73 31//73 33//73
f 52//74 53//74 54//74
f 53//75 52//75 4//75
f 53//76 6//76 55//76
f 53//77 55//77 54//77
f 6//78 53//78 56//78
f 4//79 56//79 53//79
f 56//80 4//80 57//80
f 9//81 56//81 57//81
f 10//82 57//82 58//82
f 57//83 10//83 59//83
f 9//84 13//84 56//84
f 6//85 56//85 13//85
f 57//86 60//86 9//86
f 15//87 59//87 10//87
f 16//88 59//88 15//88
f 59//89 16//89 60//89
f 57//90 17//90 58//90
f 57//91 4//91 17//91
f 61//92 55//92 6//92
f 61//93 6//93 62//93
f 63//94 64//94 62//94
f 64//95 63//95 65//95
f 63//96 62//96 65//96
f 6//97 65//97 62//97
f 66//98 64//98 65//98
f 24//99 66//99 65//99
f 65//100 25//100 24//100
f 64//101 66//101 62//101
f 55//102 61//102 54//102
f 54//103 61//103 52//103
f 4//104 52//104 61//104
f 16//105 67//105 68//105
f 67//106 69//106 70//106
f 71//107 69//107 72//107
f 16//108 68//108 60//108
f 68//109 72//109 60//109
f 60//110 72//110 73//110
f 60//111 73//111 34//111
f 74//112 34//112 69//112
f 74//113 69//113 75//113
f 60//114 34//114 9//114
f 61//115 38//115 4//115
f 66//116 39//116 62//116
f 40//117 62//117 39//117
f 61//118 41//118 38//118
f 40//119 41//119 62//119
f 62//120 41//120 61//120
f 76//121 77//121 70//121
f 70//122 69//122 68//122
f 68//123 67//123 78//123
f 70//124 77//124 78//124
f 76//125 78//125 77//125
f 60//126 57//126 79//126
f 59//127 79//127 57//127
f 60//128 79//128 80//128
f 80//129 81//129 60//129
f 80//130 79//130 59//130
f 60//131 81//131 59//131
f 80//132 59//132 81//132
f 67//133 16//133 74//133
f 34//134 74//134 16//134
f 82//135 75//135 83//135
f 84//136 67//136 74//136
f 69//137 67//137 84//137
f 75//138 84//138 83//138
f 82//139 83//139 84//139
f 85//140 86//140 87//140
f 85//141 72//141 68//141
f 68//142 69//142 71//142
f 86//143 71//143 87//143
f 71//144 85//144 87//144
f 69//145 73//145 72//145
f 34//146 73//146 69//146
f 11//147 10//147 58//147
f 58//148 17//148 11//148
f 39//149 66//149 24//149
f 22//150 25//150 65//150
f 22//151 65//151 6//151
f 27//33 29//33 31//33
f 30//152 32//152 49//152
f 35//40 37//40 31//40
f 26//153 29//153 42//153
f 26//154 28//154 27//154
f 35//63 48//63 36//63
f 31//64 48//64 27//64
f 26//155 49//155 51//155
f 26//156 32//156 31//156
f 67//106 70//106 78//106
f 71//157 72//157 85//157
f 74//113 75//113 82//113
f 70//158 68//158 76//158
f 68//159 78//159 76//159
f 84//136 74//136 82//136
f 69//137 84//137 75//137
f 85//160 68//160 86//160
f 68//161 71//161 86//161
f 39//162 24//162 23//162
