# Blender v2.80 (sub 75) OBJ File: 'dream.blend'
# www.blender.org
o sidewalk
v -14.000000 -64.000000 1.000000
v -14.000000 -4.000000 -1.000000
v -14.000000 -64.000000 -1.000000
v -14.000000 -4.000000 1.000000
v -18.000000 2.000000 -1.000000
v -10.000000 -64.000000 1.000000
v -10.000000 2.000000 1.000000
v -10.000000 -64.000000 -1.000000
v -18.000000 20.000000 5.000000
v -14.000000 2.000000 -1.000000
v -14.000000 2.000000 1.000000
v -10.000000 2.000000 -1.000000
v -18.000000 2.000000 1.000000
v -18.000000 20.000000 7.000000
v -22.000000 30.000000 7.000000
v -22.000000 20.000000 7.000000
v -22.000000 20.000000 5.000000
v -22.000000 34.000000 5.000000
v -22.000000 30.000000 5.000000
v -18.000000 30.000000 7.000000
v -18.000000 30.000000 5.000000
v -18.000000 34.000000 5.000000
v -22.000000 34.000000 7.000000
v -18.000000 34.000000 7.000000
v -15.000000 34.000000 5.000000
v -15.000000 34.000000 7.000000
v -15.000000 30.000000 7.000000
v -15.000000 30.000000 5.000000
v -0.000003 30.195948 11.116182
v 4.754402 33.370075 10.995971
v 0.675283 33.323078 11.369275
v 3.724673 30.195948 10.549588
v 8.751141 33.323078 10.035173
v 7.704123 30.195948 9.766596
v 12.322357 33.370075 8.558953
v 11.371605 30.195948 8.441574
v 14.999992 33.999996 6.999999
v 14.999992 33.999996 4.999999
v 13.203224 30.195948 6.397106
v 11.785416 34.000000 6.665709
v 8.117931 34.000000 8.051859
v 7.704120 30.195948 8.563846
v 4.138481 34.000000 8.905444
v 3.724670 30.195948 9.349078
v -0.000010 34.000000 9.193665
v -1.570471 30.195948 9.499105
v -4.138501 34.000000 8.905442
v -5.628839 30.195948 9.008991
v -8.117950 34.000000 8.051854
v -9.499837 30.195948 7.971943
v -11.785434 34.000000 6.665704
v -13.203238 30.195948 6.397104
v -15.000007 33.999996 4.999999
v -4.800327 33.323078 10.986119
v -14.999977 33.999996 6.999999
v -11.371595 30.195948 8.441584
v -12.362397 33.323078 8.534389
v -7.456047 33.323078 10.416475
v -7.704111 30.195948 9.766606
v -3.724660 30.195948 10.549596
v 14.000000 -4.000000 -1.000000
v 14.000000 -64.000000 1.000000
v 14.000000 -64.000000 -1.000000
v 18.000000 2.000000 -1.000000
v 14.000000 -4.000000 1.000000
v 10.000000 2.000000 1.000000
v 10.000000 -64.000000 1.000000
v 10.000000 -64.000000 -1.000000
v 18.000000 20.000000 5.000000
v 14.000000 2.000000 -1.000000
v 14.000000 2.000000 1.000000
v 10.000000 2.000000 -1.000000
v 18.000000 2.000000 1.000000
v 22.000000 30.000000 7.000000
v 18.000000 20.000000 7.000000
v 22.000000 20.000000 7.000000
v 22.000000 20.000000 5.000000
v 22.000000 34.000000 5.000000
v 22.000000 30.000000 5.000000
v 18.000000 30.000000 7.000000
v 18.000000 30.000000 5.000000
v 22.000000 34.000000 7.000000
v 18.000000 34.000000 5.000000
v 18.000000 34.000000 7.000000
v 15.000000 34.000000 5.000000
v 15.000000 34.000000 7.000000
v 15.000000 30.000000 7.000000
v 15.000000 30.000000 5.000000
v 13.837358 30.195946 7.264045
v 14.999992 29.999998 4.999999
v -15.000007 29.999998 4.999999
v -13.837352 30.195946 7.264043
v -18.000000 63.999992 5.000000
v -18.000000 63.999992 7.000000
v -22.000000 63.999992 7.000000
v 22.000000 63.999992 7.000000
v 18.000000 63.999992 7.000000
v 18.000000 63.999992 5.000000
v -22.000000 63.999992 5.000000
v 22.000000 63.999992 5.000000
v 10.506792 30.195948 9.045983
v 12.168302 30.195948 7.090477
v 11.371604 30.195948 7.264495
v 8.500818 30.195948 8.542680
v 9.499833 30.195948 7.971942
v 8.500821 30.195948 9.804152
v 14.586180 30.195946 5.680494
v 4.521369 30.195948 9.452823
v 5.628836 30.195948 9.008990
v -0.000009 30.195948 9.619650
v 1.570468 30.195948 9.499105
v -4.521378 30.195948 9.452821
v -3.724681 30.195948 9.349077
v -8.500829 30.195948 8.542676
v -7.704130 30.195948 8.563843
v -12.168313 30.195948 7.090472
v -11.371613 30.195948 7.264493
v -14.586185 30.195946 5.680499
v 4.521371 30.195948 10.738050
v -4.521354 30.195948 10.738054
v -8.500808 30.195948 9.804159
v -12.168296 30.195948 8.287962
v -14.586172 30.195946 6.540922
v 14.586180 30.195946 6.540922
v 11.785416 30.000000 6.665709
v 11.152214 30.676922 9.127672
v 12.168303 30.195948 8.287958
v 8.117931 30.000000 8.051859
v 0.675283 30.676922 11.369275
v 4.138481 30.000000 8.905444
v 3.463201 30.676922 11.175113
v 2.685381 30.195948 10.929161
v 8.751141 30.676922 10.035173
v 6.738964 30.195948 10.262381
v 14.999992 29.999998 6.999999
v -0.000010 30.000000 9.193665
v -4.138501 30.000000 8.905442
v -4.800327 30.676922 10.986119
v -2.685368 30.195948 10.929164
v -8.117950 30.000000 8.051854
v -7.456047 30.676922 10.416475
v -6.738953 30.195948 10.262385
v -11.785434 30.000000 6.665704
v -11.196157 30.629925 9.111068
v -10.506784 30.195948 9.045989
v -14.999977 29.999998 6.999999
v -0.628406 30.629925 11.372540
v -0.628406 33.370075 11.372540
v 3.463201 33.323078 11.175113
v 4.754402 30.629925 10.995971
v 8.117937 34.000000 10.358188
v 7.502022 30.629925 10.406610
v 11.152214 33.323078 9.127672
v 12.322357 30.629925 8.558953
v -11.196157 33.370075 9.111068
v -14.422979 33.323074 7.270280
v -12.362397 30.676922 8.534389
v -8.117913 34.000000 10.358197
v -8.707156 30.629925 10.051799
v -3.510057 33.370075 11.171852
v -3.510057 30.629925 11.171852
v -14.422979 30.676920 7.270280
v -0.000003 30.000000 11.499995
v -0.000003 34.000000 11.499995
v 4.138487 34.000000 11.211774
v 4.138487 30.000000 11.211774
v 7.502022 33.370075 10.406610
v 8.117937 30.000000 10.358188
v 11.785418 34.000000 8.972039
v 11.785418 30.000000 8.972039
v 14.463053 33.370071 7.245704
v -11.785399 30.000000 8.972051
v -11.785399 34.000000 8.972051
v -8.707156 33.370075 10.051799
v -8.117913 30.000000 10.358197
v -4.138460 34.000000 11.211779
v -4.138460 30.000000 11.211779
v 14.463053 30.629923 7.245704
vn -1.0000 0.0000 0.0000
vn -0.8321 -0.5547 0.0000
vn 0.0000 0.0000 1.0000
vn 0.0000 -1.0000 0.0000
vn 0.0000 0.3162 -0.9487
vn 1.0000 0.0000 0.0000
vn 0.0000 1.0000 0.0000
vn 0.0000 0.0000 -1.0000
vn 0.9762 0.2169 0.0000
vn 0.0000 -0.3162 0.9487
vn -0.9762 -0.2169 0.0000
vn 0.0695 0.0000 0.9976
vn 0.2097 0.0000 0.9778
vn 0.3535 0.0000 0.9354
vn 0.5229 0.0000 0.8524
vn -0.4601 0.0000 -0.8879
vn -0.3535 0.0000 -0.9354
vn -0.2097 0.0000 -0.9778
vn -0.0695 0.0000 -0.9976
vn 0.0695 0.0000 -0.9976
vn 0.2097 0.0000 -0.9778
vn 0.3535 0.0000 -0.9354
vn 0.4601 0.0000 -0.8879
vn -0.5229 0.0000 0.8524
vn -0.3535 0.0000 0.9354
vn -0.2097 0.0000 0.9778
vn -0.0695 0.0000 0.9976
vn 0.8321 -0.5547 0.0000
vn -0.9762 0.2169 0.0000
vn 0.9762 -0.2169 0.0000
vn 0.1513 -0.9038 0.4003
vn -0.4280 -0.9038 0.0000
vn 0.1041 -0.9038 -0.4151
vn 0.1969 -0.9038 0.3800
vn 0.0898 -0.9038 0.4185
vn 0.0297 -0.9038 0.4269
vn -0.0297 -0.9038 0.4269
vn -0.0898 -0.9038 0.4184
vn -0.1513 -0.9038 0.4003
vn -0.1969 -0.9038 0.3800
vn 0.1468 -0.9038 -0.4020
vn 0.1876 -0.9038 -0.3847
vn -0.1876 -0.9038 -0.3847
vn 0.4280 -0.9038 -0.0000
vn -0.1468 -0.9038 -0.4020
vn -0.1042 -0.9038 -0.4151
vn -0.0443 -0.9038 -0.4257
vn 0.0443 -0.9038 -0.4257
vn 0.4556 -0.8902 0.0000
vn -0.1109 -0.8902 0.4419
vn -0.0317 -0.8902 -0.4545
vn -0.0955 -0.8902 -0.4454
vn -0.1611 -0.8902 -0.4262
vn -0.2382 -0.8902 -0.3883
vn -0.1562 -0.8902 0.4279
vn -0.1997 -0.8902 0.4095
vn 0.0317 -0.8902 -0.4545
vn 0.1997 -0.8902 0.4095
vn -0.4556 -0.8902 0.0000
vn 0.0955 -0.8902 -0.4454
vn 0.1562 -0.8902 0.4280
vn 0.1611 -0.8902 -0.4261
vn 0.1109 -0.8902 0.4419
vn 0.2382 -0.8902 -0.3883
vn 0.0471 -0.8902 0.4531
vn -0.0471 -0.8902 0.4531
vn 0.1901 0.0000 0.9818
vn 0.0690 -0.1224 0.9901
vn -0.0542 0.0000 0.9985
vn 0.4544 0.0000 0.8908
vn 0.3512 -0.1149 0.9292
vn 0.2387 0.0000 0.9711
vn -0.5200 -0.1048 0.8477
vn -0.6043 0.0000 0.7967
vn -0.0877 0.0000 0.9961
vn -0.2082 -0.1200 0.9707
vn -0.3227 0.0000 0.9465
vn 0.0690 0.1224 0.9901
vn 0.3512 0.1149 0.9292
vn -0.2082 0.1200 0.9707
vn -0.5200 0.1048 0.8477
vn -0.4242 0.0000 0.9056
vn -0.1988 0.0000 0.9800
vn 0.3307 0.0000 0.9437
vn 0.2080 -0.1288 0.9696
vn 0.0784 0.0000 0.9969
vn 0.6098 0.0000 0.7926
vn 0.5196 -0.1125 0.8470
vn -0.2296 0.0000 0.9733
vn -0.3508 -0.1233 0.9283
vn -0.4613 0.0000 0.8872
vn 0.0634 0.0000 0.9980
vn -0.0689 -0.1314 0.9889
vn 0.2080 0.1288 0.9696
vn 0.5196 0.1125 0.8470
vn 0.4161 0.0000 0.9093
vn -0.0689 0.1314 0.9889
vn -0.3508 0.1233 0.9283
vn 0.0898 -0.9038 0.4184
vn -0.0898 -0.9038 0.4185
vn -0.1611 -0.8902 -0.4261
vn -0.1562 -0.8902 0.4280
vn 0.1562 -0.8902 0.4279
vn 0.1611 -0.8902 -0.4262
vn 0.1900 0.0000 0.9818
s off
f 1//1 2//1 3//1
f 4//2 5//2 2//2
f 4//3 6//3 7//3
f 6//4 3//4 8//4
f 5//5 9//5 10//5
f 7//3 11//3 4//3
f 7//6 8//6 12//6
f 11//7 12//7 10//7
f 13//3 4//3 11//3
f 5//8 10//8 2//8
f 6//3 4//3 1//3
f 10//8 12//8 2//8
f 12//8 8//8 2//8
f 3//8 2//8 8//8
f 14//3 15//3 16//3
f 11//9 9//9 14//9
f 13//10 14//10 16//10
f 13//11 17//11 5//11
f 15//1 18//1 19//1
f 16//1 19//1 17//1
f 9//6 20//6 14//6
f 17//8 21//8 9//8
f 84//1 98//1 83//1
f 24//7 25//7 22//7
f 19//8 22//8 21//8
f 20//3 23//3 15//3
f 20//3 26//3 24//3
f 21//4 27//4 20//4
f 22//8 28//8 21//8
f 129//12 149//12 31//12
f 150//13 167//13 30//13
f 133//14 153//14 33//14
f 154//15 171//15 35//15
f 38//16 125//16 40//16
f 125//17 41//17 40//17
f 128//18 43//18 41//18
f 130//19 45//19 43//19
f 136//20 47//20 45//20
f 137//21 49//21 47//21
f 140//22 51//22 49//22
f 143//23 53//23 51//23
f 103//4 36//4 105//4
f 45//7 47//7 176//7
f 156//24 157//24 57//24
f 144//25 174//25 155//25
f 141//26 54//26 58//26
f 161//27 148//27 160//27
f 61//6 62//6 63//6
f 64//28 65//28 61//28
f 65//3 66//3 67//3
f 63//4 67//4 68//4
f 69//5 64//5 70//5
f 66//3 65//3 71//3
f 68//1 66//1 72//1
f 72//7 71//7 70//7
f 73//3 71//3 65//3
f 64//8 61//8 70//8
f 67//3 62//3 65//3
f 70//8 61//8 72//8
f 72//8 61//8 68//8
f 63//8 68//8 61//8
f 74//3 75//3 76//3
f 71//29 69//29 70//29
f 73//10 75//10 71//10
f 77//30 73//30 64//30
f 78//6 74//6 79//6
f 79//6 76//6 77//6
f 80//1 69//1 75//1
f 81//8 77//8 69//8
f 24//3 95//3 23//3
f 85//7 84//7 83//7
f 83//8 79//8 81//8
f 82//3 80//3 74//3
f 86//3 80//3 84//3
f 87//4 81//4 80//4
f 88//8 83//8 81//8
f 1//1 4//1 2//1
f 4//2 13//2 5//2
f 6//4 1//4 3//4
f 5//5 17//5 9//5
f 7//6 6//6 8//6
f 11//7 7//7 12//7
f 14//3 20//3 15//3
f 11//9 10//9 9//9
f 13//10 11//10 14//10
f 13//11 16//11 17//11
f 15//1 23//1 18//1
f 16//1 15//1 19//1
f 9//6 21//6 20//6
f 17//8 19//8 21//8
f 23//1 99//1 18//1
f 24//7 26//7 25//7
f 19//8 18//8 22//8
f 20//3 24//3 23//3
f 20//3 27//3 26//3
f 21//4 28//4 27//4
f 22//8 25//8 28//8
f 129//12 131//12 149//12
f 150//13 152//13 167//13
f 133//14 126//14 153//14
f 154//15 178//15 171//15
f 38//16 90//16 125//16
f 125//17 128//17 41//17
f 128//18 130//18 43//18
f 130//19 136//19 45//19
f 136//20 137//20 47//20
f 137//21 140//21 49//21
f 140//22 143//22 51//22
f 143//23 91//23 53//23
f 134//4 119//4 108//4
f 132//4 29//4 110//4
f 44//4 32//4 111//4
f 29//4 139//4 110//4
f 120//4 142//4 112//4
f 121//4 145//4 114//4
f 122//4 92//4 116//4
f 50//4 56//4 117//4
f 123//4 118//4 52//4
f 60//4 113//4 46//4
f 101//4 106//4 104//4
f 42//4 34//4 109//4
f 107//4 124//4 39//4
f 89//4 127//4 102//4
f 59//4 115//4 48//4
f 176//7 164//7 45//7
f 164//7 165//7 45//7
f 165//7 151//7 43//7
f 151//7 169//7 41//7
f 43//7 151//7 41//7
f 169//7 37//7 40//7
f 37//7 38//7 40//7
f 173//7 158//7 49//7
f 158//7 176//7 47//7
f 49//7 158//7 47//7
f 53//7 55//7 51//7
f 55//7 173//7 51//7
f 169//7 40//7 41//7
f 51//7 173//7 49//7
f 165//7 43//7 45//7
f 156//24 162//24 157//24
f 144//25 159//25 174//25
f 141//26 138//26 54//26
f 161//27 147//27 148//27
f 61//6 65//6 62//6
f 64//28 73//28 65//28
f 63//4 62//4 67//4
f 69//5 77//5 64//5
f 68//1 67//1 66//1
f 72//7 66//7 71//7
f 74//3 80//3 75//3
f 71//29 75//29 69//29
f 73//10 76//10 75//10
f 77//30 76//30 73//30
f 78//6 82//6 74//6
f 79//6 74//6 76//6
f 80//1 81//1 69//1
f 81//8 79//8 77//8
f 83//8 100//8 78//8
f 85//7 86//7 84//7
f 83//8 78//8 79//8
f 82//3 84//3 80//3
f 86//3 87//3 80//3
f 87//4 88//4 81//4
f 88//8 85//8 83//8
f 93//7 95//7 94//7
f 96//7 98//7 97//7
f 93//7 99//7 95//7
f 96//7 100//7 98//7
f 22//6 94//6 24//6
f 82//3 97//3 84//3
f 78//6 96//6 82//6
f 18//8 93//8 22//8
f 105//31 125//31 103//31
f 103//32 170//32 36//32
f 105//33 170//33 128//33
f 39//34 90//34 107//34
f 109//35 128//35 42//35
f 111//36 130//36 44//36
f 46//37 137//37 136//37
f 48//38 140//38 137//38
f 50//39 143//39 140//39
f 52//40 91//40 143//40
f 109//41 168//41 130//41
f 32//32 130//32 166//32
f 111//42 166//42 136//42
f 46//43 177//43 60//43
f 60//44 137//44 113//44
f 48//45 175//45 59//45
f 59//44 140//44 115//44
f 50//46 172//46 56//46
f 117//44 172//44 143//44
f 52//47 146//47 123//47
f 118//44 146//44 91//44
f 34//32 128//32 168//32
f 107//32 135//32 124//32
f 39//48 135//48 125//48
f 127//49 125//49 102//49
f 101//50 128//50 170//50
f 132//51 163//51 29//51
f 134//52 166//52 119//52
f 101//53 168//53 106//53
f 89//54 170//54 127//54
f 134//55 130//55 168//55
f 108//49 166//49 130//49
f 132//56 136//56 166//56
f 139//57 163//57 177//57
f 139//58 136//58 110//58
f 112//59 177//59 120//59
f 142//60 177//60 175//60
f 142//61 137//61 112//61
f 121//59 140//59 175//59
f 145//62 175//62 172//62
f 145//63 140//63 114//63
f 122//59 143//59 172//59
f 92//64 172//64 146//64
f 92//65 143//65 116//65
f 106//49 128//49 104//49
f 89//66 125//66 135//66
f 31//67 163//67 129//67
f 31//68 165//68 164//68
f 131//69 165//69 149//69
f 33//70 168//70 133//70
f 33//71 169//71 151//71
f 126//72 169//72 153//72
f 57//73 55//73 156//73
f 157//74 173//74 57//74
f 141//75 158//75 175//75
f 54//76 158//76 58//76
f 138//77 176//77 54//77
f 129//78 166//78 131//78
f 133//79 170//79 126//79
f 138//80 175//80 177//80
f 157//81 146//81 172//81
f 156//82 146//82 162//82
f 147//83 164//83 148//83
f 30//84 166//84 150//84
f 30//85 151//85 165//85
f 152//86 151//86 167//86
f 35//87 170//87 154//87
f 35//88 37//88 169//88
f 144//89 173//89 172//89
f 174//90 173//90 155//90
f 159//91 158//91 174//91
f 160//92 177//92 161//92
f 148//93 176//93 160//93
f 150//94 168//94 152//94
f 154//95 135//95 178//95
f 178//96 37//96 171//96
f 147//97 177//97 163//97
f 159//98 172//98 175//98
f 84//1 97//1 98//1
f 24//3 94//3 95//3
f 23//1 95//1 99//1
f 83//8 98//8 100//8
f 22//6 93//6 94//6
f 82//3 96//3 97//3
f 78//6 100//6 96//6
f 18//8 99//8 93//8
f 105//31 128//31 125//31
f 103//32 125//32 170//32
f 105//33 36//33 170//33
f 39//34 125//34 90//34
f 109//99 130//99 128//99
f 111//36 136//36 130//36
f 46//37 113//37 137//37
f 48//100 115//100 140//100
f 50//39 117//39 143//39
f 52//40 118//40 91//40
f 109//41 34//41 168//41
f 32//32 44//32 130//32
f 111//42 32//42 166//42
f 46//43 136//43 177//43
f 60//44 177//44 137//44
f 48//45 137//45 175//45
f 59//44 175//44 140//44
f 50//46 140//46 172//46
f 117//44 56//44 172//44
f 52//47 143//47 146//47
f 118//44 123//44 146//44
f 34//32 42//32 128//32
f 107//32 90//32 135//32
f 39//48 124//48 135//48
f 127//49 170//49 125//49
f 101//50 104//50 128//50
f 132//51 166//51 163//51
f 134//52 168//52 166//52
f 101//101 170//101 168//101
f 89//54 135//54 170//54
f 134//102 108//102 130//102
f 108//49 119//49 166//49
f 132//56 110//56 136//56
f 139//57 29//57 163//57
f 139//58 177//58 136//58
f 112//59 137//59 177//59
f 142//60 120//60 177//60
f 142//103 175//103 137//103
f 121//59 114//59 140//59
f 145//104 121//104 175//104
f 145//63 172//63 140//63
f 122//59 116//59 143//59
f 92//64 122//64 172//64
f 92//65 146//65 143//65
f 106//49 168//49 128//49
f 89//66 102//66 125//66
f 31//105 164//105 163//105
f 31//68 149//68 165//68
f 131//69 166//69 165//69
f 33//70 151//70 168//70
f 33//71 153//71 169//71
f 126//72 170//72 169//72
f 57//73 173//73 55//73
f 157//74 172//74 173//74
f 141//75 58//75 158//75
f 54//76 176//76 158//76
f 138//77 177//77 176//77
f 129//78 163//78 166//78
f 133//79 168//79 170//79
f 138//80 141//80 175//80
f 157//81 162//81 146//81
f 156//82 55//82 146//82
f 147//83 163//83 164//83
f 30//84 165//84 166//84
f 30//85 167//85 151//85
f 152//86 168//86 151//86
f 35//87 169//87 170//87
f 35//88 171//88 37//88
f 144//89 155//89 173//89
f 174//90 158//90 173//90
f 159//91 175//91 158//91
f 160//92 176//92 177//92
f 148//93 164//93 176//93
f 150//94 166//94 168//94
f 154//95 170//95 135//95
f 178//96 135//96 37//96
f 147//97 161//97 177//97
f 159//98 144//98 172//98
