# Blender v2.80 (sub 75) OBJ File: 'road.blend'
# www.blender.org
v -10.652316 -0.646145 2.870919
v -10.896284 -0.912865 2.277380
v -10.811979 -0.909627 2.445915
v -10.615172 -1.061460 2.369309
v -10.637390 -1.010048 2.464378
v -10.957088 -0.926452 1.545413
v -10.998764 -0.978726 2.031997
v -10.603717 -1.127626 1.545413
v -10.555675 -1.070009 2.057123
v -11.022050 -1.064420 1.772170
v -11.034020 -1.041233 1.987374
v -11.079119 -1.164665 1.868073
v -10.985643 -1.185840 2.107160
v -10.904624 -1.172891 1.749928
v -10.707564 -1.155074 2.089369
v -10.961693 -1.273135 1.845832
v -10.845520 -1.264774 2.107160
v -11.174431 -0.931135 1.559737
v -10.906242 -1.007496 2.368744
v -10.739454 -1.112216 2.361041
v -10.922383 -0.648043 2.128855
v -10.434533 -0.925775 1.964204
v -10.851346 -0.808070 2.376715
v -10.536202 -0.866777 2.467605
v -11.040315 -0.921290 1.246780
v -10.564869 -1.131869 1.248042
v -10.886226 -1.143640 1.339152
v -10.832254 -1.083152 1.593940
v -10.578587 -0.844087 2.437290
v -10.578586 -0.844087 2.548043
v -10.564648 -0.731175 2.548043
v -10.655462 -0.662647 2.424444
v -10.655024 -0.625091 2.523023
v -10.836135 -0.873343 0.664552
v -10.966152 -0.905569 0.690728
v -10.863877 -0.741888 0.688597
v -10.993895 -0.774114 0.714772
v -10.845727 -0.713573 1.032401
v -10.490500 -0.893913 1.217192
v -10.958250 -1.023884 1.301301
v -10.585279 -1.080613 1.573099
v -10.928179 -0.857600 0.325994
v -10.886151 -0.783776 0.325994
v -10.788544 -0.839344 0.325994
v -10.830572 -0.913168 0.325994
v -10.848831 -0.839375 0.025700
v -11.044363 -0.783247 1.339076
v -10.448876 -0.917610 1.442584
v -10.988645 -0.650825 1.653116
v -10.404855 -0.942672 1.345210
v -10.964848 -0.637396 1.543705
v -10.919032 -0.758614 1.230580
v -10.499857 -0.731686 2.695087
v -10.684192 -0.593912 2.519804
v -10.608101 -0.605655 2.609471
v -10.601951 -0.765014 2.900476
v -10.594785 -0.951665 2.687914
v -10.496033 -0.842442 2.681743
v -10.729723 -0.584538 2.740589
v -10.745439 -0.528610 2.652507
v -10.527957 -0.797186 2.825881
v -10.608987 -0.596235 2.780183
v -10.758669 -0.564874 2.632722
v -10.713266 -0.580550 2.784865
v -10.700224 -0.607474 2.708846
v -10.599460 -0.599903 2.704289
v -10.719383 -0.565683 2.628938
v -10.709534 -0.577149 2.535981
v -10.726382 -0.575547 2.558618
v -10.727386 -0.566470 2.576353
v -10.725556 -0.570786 2.583017
v -10.717043 -0.560963 2.591004
v -10.723042 -0.565826 2.602044
v -10.675051 -0.571878 2.584822
v -10.596071 -0.948628 2.800318
v -10.621422 -0.888797 2.887682
v -10.774261 -0.697813 2.870919
v -10.683339 -0.888471 2.437290
v -10.683339 -0.888471 2.548043
v -10.774155 -0.819943 2.437290
v -10.774155 -0.819943 2.548043
v -10.760216 -0.707032 2.424444
v -10.787503 -0.681222 2.523023
v -10.818856 -0.866846 2.695087
v -10.789614 -0.638579 2.519804
v -10.834105 -0.701414 2.609471
v -10.723896 -0.816683 2.900476
v -10.741945 -0.946635 2.681743
v -10.764677 -0.599348 2.740589
v -10.793924 -0.549154 2.652507
v -10.752253 -0.892221 2.825881
v -10.840257 -0.694224 2.780183
v -10.778989 -0.608397 2.784865
v -10.768718 -0.636494 2.708846
v -10.844249 -0.703621 2.704289
v -10.785414 -0.593660 2.628938
v -10.784028 -0.608712 2.535981
v -10.773459 -0.595493 2.558618
v -10.779283 -0.588459 2.576353
v -10.777454 -0.592775 2.583017
v -10.790434 -0.592059 2.591004
v -10.782766 -0.591131 2.602044
v -10.804813 -0.626859 2.584822
v -10.954763 -0.918709 1.497466
v -10.680378 -0.533616 2.277380
v -10.639245 -0.606211 2.445915
v -10.409105 -0.699494 2.369309
v -10.464656 -0.706632 2.464378
v -10.700694 -0.476084 1.545413
v -10.677017 -0.413563 2.031997
v -10.347322 -0.677258 1.545413
v -10.361814 -0.729484 2.057123
v -10.446553 -0.460869 1.725598
v -10.495143 -0.435669 1.900684
v -10.349208 -0.292492 1.756349
v -10.332315 -0.365629 1.985215
v -10.310820 -0.477805 1.740530
v -10.234206 -0.605818 2.059063
v -10.234295 -0.408548 1.758783
v -10.258543 -0.454770 1.985215
v -10.745876 -0.311149 1.494817
v -10.520932 -0.519395 2.381065
v -10.389724 -0.542071 2.316770
v -10.728762 -0.592746 2.376715
v -10.747616 -0.407153 1.246780
v -10.323845 -0.708497 1.248042
v -10.477761 -0.426154 1.339152
v -10.502226 -0.503440 1.593940
v -10.539476 -0.689833 0.663951
v -10.581147 -0.559865 0.663951
v -10.669445 -0.731504 0.663951
v -10.711115 -0.601536 0.663951
v -10.617505 -0.425350 1.301301
v -10.378338 -0.717112 1.573099
v -10.602517 -0.617286 0.258280
v -10.644545 -0.691110 0.258280
v -10.551192 -0.744255 0.291082
v -10.509165 -0.670431 0.291082
v -10.554309 -0.708129 -0.020103
v -10.868386 -0.474136 1.339076
v -10.825593 -0.594483 1.230580
v -10.706166 -0.482036 1.497466
v -10.707674 -1.022983 2.728692
v -10.628135 -1.019205 2.728692
v -10.783587 -1.080930 2.418900
v -10.874390 -0.968987 2.409679
v -10.887475 -0.878926 2.391786
v -10.895097 -0.768440 2.435413
v -10.476959 -0.583971 2.420969
v -10.410392 -0.684237 2.424281
v -10.424919 -0.790494 2.373276
v -10.455340 -0.898895 2.364702
v -10.501706 -1.005380 2.331388
v -10.592418 -1.033032 2.393296
v -10.780053 -0.989692 2.728692
v -10.834254 -0.924401 2.728692
v -10.862025 -0.837051 2.728692
v -10.613621 -0.536016 2.728692
v -10.541242 -0.569307 2.728692
v -10.487041 -0.634597 2.728692
v -10.459270 -0.721948 2.728692
v -10.462156 -0.818060 2.728692
v -10.495262 -0.908302 2.728692
v -10.553546 -0.978935 2.728692
v -10.753577 -1.010002 2.550984
v -10.816929 -0.956030 2.550058
v -10.856556 -0.875186 2.549434
v -10.567649 -0.548992 2.553605
v -10.504285 -0.602964 2.550984
v -10.464656 -0.683808 2.550984
v -10.454865 -0.779221 2.550984
v -10.476403 -0.874675 2.550984
v -10.525990 -0.955640 2.550984
v -10.675996 -1.028879 2.550984
v -10.596078 -1.009789 2.550984
v -10.609814 -0.959938 2.830532
v -10.554910 -0.917399 2.830532
v -10.672457 -0.975007 2.830532
v -10.516104 -0.853866 2.830532
v -10.499302 -0.779011 2.830532
v -10.507065 -0.704231 2.830532
v -10.538208 -0.640909 2.830532
v -10.587993 -0.598687 2.830532
v -10.648837 -0.583992 2.830532
v -10.713282 -0.599151 2.831016
v -10.768183 -0.641690 2.830215
v -10.805191 -0.705133 2.830532
v -10.821993 -0.779988 2.830532
v -10.814230 -0.854768 2.830532
v -10.783087 -0.918090 2.830532
v -10.733302 -0.960312 2.830532
vn -0.2904 -0.5215 0.8023
vn -0.2077 -0.9664 0.1514
vn -0.9016 0.4218 -0.0956
vn -0.6471 -0.7390 0.1875
vn 0.6426 -0.6882 -0.3369
vn 0.6736 0.7379 -0.0420
vn -0.6774 -0.6719 -0.2995
vn 0.0532 0.0944 0.9941
vn 0.2351 -0.7385 -0.6320
vn -0.0748 -0.6668 -0.7415
vn 0.6760 0.7365 -0.0228
vn -0.8958 0.3538 0.2689
vn 0.7241 -0.5216 0.4513
vn -0.9400 0.0916 0.3286
vn 0.7659 -0.6430 0.0005
vn -0.9273 0.1093 0.3579
vn -0.3127 -0.3839 0.8688
vn -0.9066 0.2982 0.2986
vn -0.7252 0.1730 0.6664
vn -0.9457 -0.0502 0.3213
vn 0.2968 -0.8093 0.5070
vn -0.4072 -0.6924 0.5957
vn 0.3967 0.7042 -0.5889
vn -0.6258 0.7558 -0.1927
vn 0.3608 -0.9138 0.1865
vn 0.1539 0.5151 -0.8432
vn -0.0958 0.4977 0.8620
vn 0.5043 -0.8552 0.1195
vn -0.1638 -0.9785 0.1255
vn -0.7545 -0.6425 -0.1336
vn 0.7898 0.5378 -0.2950
vn 0.1322 0.9578 -0.2554
vn 0.8421 0.4896 -0.2262
vn -0.0422 0.9989 -0.0198
vn -0.0506 0.6645 0.7456
vn 0.4551 -0.8327 -0.3156
vn -0.8218 -0.2656 0.5041
vn 0.4903 0.8661 -0.0972
vn 0.2526 -0.9653 0.0662
vn -0.8034 0.5287 0.2740
vn 0.9791 0.2018 0.0264
vn -0.1811 0.9468 0.2660
vn -0.0108 -0.9817 -0.1901
vn -0.2611 0.9582 -0.1170
vn 0.8668 -0.4934 0.0723
vn -0.4881 -0.8573 -0.1636
vn 0.9751 0.1828 0.1256
vn -0.8425 0.4796 -0.2454
vn 0.2575 -0.9616 0.0953
vn -0.9720 -0.1769 -0.1544
vn 0.4906 0.8617 -0.1297
vn 0.4923 0.8648 -0.0989
vn -0.8522 0.4852 -0.1957
vn 0.8561 -0.4874 -0.1718
vn -0.4866 -0.8548 -0.1805
vn 0.8768 -0.4462 0.1793
vn 0.8128 -0.5364 0.2270
vn 0.9445 0.2014 -0.2597
vn 0.7971 -0.6030 -0.0314
vn 0.8072 -0.3698 0.4601
vn -0.7320 0.6731 -0.1052
vn 0.9443 0.2078 -0.2552
vn 0.9532 -0.2559 -0.1612
vn 0.9788 -0.0966 0.1806
vn 0.9403 -0.0493 0.3366
vn 0.6622 0.5692 -0.4874
vn 0.7145 0.4912 -0.4982
vn 0.8146 0.4569 -0.3573
vn -0.9123 -0.0799 0.4017
vn -0.6670 0.6259 0.4041
vn 0.8468 -0.1045 -0.5216
vn -0.9768 -0.0079 -0.2139
vn -0.7105 -0.4156 -0.5679
vn -0.8216 -0.4192 -0.3864
vn -0.1493 -0.8345 -0.5303
vn -0.7493 -0.6114 -0.2545
vn 0.7894 0.6042 -0.1086
vn -0.7981 -0.5983 -0.0713
vn 0.0730 -0.4981 0.8641
vn -0.8388 -0.5384 -0.0804
vn 0.0774 -0.9953 0.0578
vn 0.3705 0.8566 0.3591
vn 0.0415 0.6084 -0.7925
vn -0.0013 0.8391 0.5439
vn 0.2859 0.8099 0.5122
vn 0.1627 0.8820 -0.4422
vn 0.1176 0.9928 -0.0213
vn 0.3651 0.8993 0.2406
vn 0.5203 0.7839 -0.3388
vn 0.3550 0.8691 -0.3444
vn -0.0255 0.9957 -0.0894
vn -0.0198 -0.9998 0.0080
vn -0.7423 0.6696 -0.0266
vn -0.8418 0.4330 -0.3224
vn 0.2180 0.8336 -0.5076
vn -0.7505 0.4232 -0.5076
vn 0.3901 -0.9208 -0.0000
vn 0.6023 0.7982 0.0000
vn 0.9543 -0.0852 0.2865
vn 0.8695 0.0798 0.4874
vn 0.8499 0.1716 0.4982
vn 0.8949 0.2674 0.3573
vn -0.6920 -0.5998 -0.4017
vn -0.0143 -0.9146 -0.4041
vn 0.5139 0.6811 0.5216
vn -0.6852 -0.6962 0.2138
vn -0.7928 -0.2213 0.5679
vn -0.8726 -0.2987 0.3864
vn -0.7034 0.4732 0.5303
vn -0.9604 -0.1131 0.2545
vn 0.9832 0.1468 0.1086
vn -0.9850 -0.1572 0.0713
vn -0.3071 0.3989 -0.8641
vn -0.9703 -0.2281 0.0804
vn -0.6612 0.7479 -0.0578
vn 0.8731 -0.3297 -0.3591
vn 0.4788 -0.3415 0.8087
vn 0.6465 -0.5471 -0.5318
vn 0.8071 -0.2374 -0.5406
vn 0.7922 -0.4316 0.4313
vn 0.8434 -0.5362 0.0326
vn 0.9132 -0.3936 -0.1054
vn 0.9240 -0.2752 0.2656
vn 0.9096 -0.3162 0.2696
vn 0.7296 -0.6814 0.0573
vn -0.7320 0.6812 -0.0080
vn -0.0353 -0.9990 0.0266
vn -0.2744 -0.9060 0.3224
vn 0.3295 0.5979 -0.7307
vn -0.6588 0.1792 -0.7307
vn -0.3252 0.7674 0.5526
vn 0.2239 -0.5285 0.8189
vn 0.3265 -0.7705 -0.5475
vn 0.3894 -0.9190 -0.0620
vn 0.2789 -0.6582 -0.6993
vn 0.0871 -0.2055 -0.9748
vn -0.0466 0.1099 -0.9928
vn -0.3683 0.8693 -0.3296
vn 0.3515 -0.8295 0.4339
vn -0.3830 0.9040 0.1901
vn -0.3171 0.7484 -0.5825
vn -0.3191 0.7531 0.5754
vn -0.3499 0.8257 -0.4424
vn -0.3676 0.8676 -0.3350
vn -0.2100 0.4957 -0.8427
vn 0.0312 -0.0737 -0.9968
vn -0.4347 -0.7905 0.4315
vn 0.9983 0.0424 -0.0405
vn -0.4523 -0.4725 -0.7564
vn -0.6963 -0.7053 -0.1331
vn 0.8021 -0.5180 0.2972
vn -0.6984 -0.6951 -0.1706
vn -0.6790 0.7302 0.0763
vn 0.1344 0.9854 -0.1045
vn -0.4752 -0.4548 0.7532
vn 0.2830 -0.3841 -0.8789
vn -0.5482 0.1673 0.8195
vn -0.4130 0.2236 0.8829
vn 0.0541 0.8683 0.4931
vn 0.1896 -0.9689 -0.1587
vn -0.8181 0.3564 -0.4513
vn 0.5277 -0.8178 -0.2298
vn -0.9390 0.3438 0.0085
vn 0.5688 -0.7419 -0.3552
vn -0.1603 -0.4411 -0.8830
vn -0.3947 -0.8232 -0.4081
vn 0.2917 -0.7949 -0.5320
vn 0.4480 -0.8845 -0.1301
vn -0.8596 -0.0634 -0.5070
vn -0.3744 -0.7901 -0.4853
vn 0.6965 0.5764 0.4273
vn 0.8397 0.3417 0.4222
vn -0.8613 -0.0623 -0.5043
vn 0.5243 0.5732 0.6297
vn 0.3275 -0.3240 -0.8876
vn -0.6842 0.7088 -0.1717
vn -0.7557 -0.6490 -0.0876
vn -0.1673 -0.9768 0.1337
vn 0.0593 0.9537 0.2950
vn 0.7561 0.6025 0.2554
vn -0.0089 0.9740 0.2262
vn 0.8805 0.4736 0.0198
vn 0.5534 0.2901 -0.7807
vn -0.9523 0.2493 0.1763
vn 0.2856 -0.8907 -0.3538
vn 0.3886 0.9105 0.1416
vn -0.8714 -0.2794 -0.4033
vn 0.7479 -0.6599 0.0726
vn -0.2983 0.9303 -0.2134
vn 0.9404 0.3015 -0.1576
vn -0.8054 -0.5875 0.0781
vn 0.9481 0.3040 0.0929
vn -0.8682 0.4942 -0.0449
vn -0.5277 -0.8367 0.1462
vn -0.3032 0.9456 -0.1179
vn 0.8427 -0.4797 0.2442
vn -0.9485 -0.3041 -0.0885
vn 0.3028 -0.9444 0.1283
vn 0.4603 0.8801 0.1159
vn 0.4663 0.8792 0.0974
vn 0.8296 -0.4723 0.2978
vn -0.8671 0.4937 0.0660
vn -0.5333 -0.8271 0.1776
vn -0.8310 0.5276 -0.1766
vn -0.8734 0.4310 -0.2269
vn -0.3090 0.9149 0.2597
vn -0.9254 0.3776 0.0314
vn -0.7301 0.5053 -0.4601
vn 0.9525 -0.2858 0.1052
vn -0.3964 0.8567 0.3302
vn -0.3165 0.8749 0.3666
vn -0.5911 0.7917 -0.1544
vn -0.4855 0.7702 -0.4135
vn -0.4578 -0.7773 -0.4315
vn -0.5126 0.8584 0.0164
vn 0.8507 -0.4843 0.2046
vn 0.8280 -0.4714 0.3036
vn 0.6696 -0.7374 -0.0889
vn -0.9926 -0.0772 -0.0933
vn -0.9734 0.1854 0.1345
vn 0.5392 -0.8383 0.0815
vn 0.8678 -0.4940 0.0544
vn 0.6484 0.7612 0.0096
vn 0.9705 0.1434 -0.1937
vn 0.8979 0.4402 0.0091
vn -0.8033 -0.5415 -0.2479
vn -0.8764 0.3005 -0.3764
vn -0.6482 -0.7614 0.0094
vn -0.8866 0.4351 -0.1568
vn -0.8979 -0.4401 0.0088
vn -0.4315 0.8684 -0.2444
vn -0.9754 0.2201 0.0081
vn -0.8527 0.5223 0.0083
vn 0.7109 0.5395 -0.4512
vn -0.6114 0.7913 0.0089
vn 0.2364 0.9716 0.0099
vn 0.9220 0.0579 -0.3828
vn -0.4370 0.8094 -0.3924
vn -0.7174 0.5920 -0.3673
vn -0.8787 0.3224 -0.3521
vn -0.9356 0.0281 -0.3520
vn -0.8865 -0.2819 -0.3670
vn -0.7078 -0.5876 -0.3921
vn 0.8865 0.2818 -0.3670
vn 0.7078 0.5876 -0.3921
vn 0.3805 0.8273 -0.4133
vn -0.0432 0.9095 -0.4135
vn -0.1221 0.5456 0.8291
vn 0.7497 -0.4398 -0.4945
vn -0.2960 0.3654 0.8825
vn 0.2484 -0.5862 -0.7712
vn 0.1293 0.5352 0.8348
vn 0.2980 0.3514 0.8875
vn -0.2986 -0.3475 -0.8888
vn -0.4754 -0.2338 -0.8481
vn -0.5676 -0.0589 -0.8212
vn -0.5473 0.1228 -0.8278
vn -0.5126 0.1677 -0.8421
vn -0.5321 0.3250 -0.7819
vn -0.4103 0.5295 -0.7425
vn 0.7965 -0.1788 -0.5776
vn 0.5924 0.0511 -0.8040
vn 0.5947 0.0617 -0.8016
vn 0.5218 0.2566 -0.8136
vn 0.2193 0.4640 -0.8583
vn -0.1456 0.6051 -0.7828
vn -0.0000 0.0000 -1.0000
vn 0.2270 0.4412 -0.8682
vn -0.6062 0.7847 -0.1297
vn -0.9316 -0.0107 0.3633
vn -0.4766 -0.8460 0.2389
vn 0.5861 -0.7752 -0.2357
vn 0.3918 0.8784 -0.2736
vn -0.0206 0.6337 0.7733
vn -0.1717 0.8905 0.4214
vn -0.7254 -0.4392 -0.5301
vn -0.4248 -0.8738 0.2366
vn -0.1276 -0.9416 0.3116
vn -0.0772 0.9956 -0.0534
vn 0.9954 0.0958 0.0000
vn -0.8201 -0.2156 0.5301
vn -0.9233 0.3026 -0.2366
vn -0.7653 0.5633 -0.3116
vn 0.6616 -0.7480 0.0534
vn -0.3499 0.8258 -0.4424
vn 0.5031 -0.8117 -0.2965
vn -0.7535 -0.6236 -0.2080
vn -0.9755 -0.0529 0.2134
vn 0.4174 0.8735 0.2506
vn 0.3429 0.2837 -0.8955
vn 0.8533 0.3069 -0.4214
vn 0.4175 0.9077 -0.0415
vn 0.8832 0.4315 -0.1835
vn 0.7688 0.6383 -0.0384
vn -0.6351 -0.7340 -0.2407
vn -0.8385 -0.4110 -0.3577
vn -0.4175 -0.9077 -0.0423
vn -0.9662 0.2180 -0.1376
vn -0.7688 -0.6383 -0.0390
vn -0.8341 0.5109 -0.2080
vn -0.9990 0.0300 -0.0344
vn -0.9383 0.3442 -0.0344
vn 0.2049 0.8422 -0.4988
vn -0.7708 0.6360 -0.0361
vn -0.0474 0.9980 -0.0416
vn 0.6173 0.7191 -0.3191
vn -0.2072 0.8613 -0.4640
vn -0.5509 0.7110 -0.4370
vn -0.7773 0.4747 -0.4129
vn -0.8931 0.2005 -0.4026
vn -0.9074 -0.0942 -0.4095
vn -0.8095 -0.3981 -0.4314
vn 0.9074 0.0942 -0.4095
vn 0.8095 0.3982 -0.4314
vn 0.5746 0.6775 -0.4592
vn 0.2067 0.8556 -0.4745
s off
f 5//1 19//1 20//1
f 9//2 7//2 28//2
f 11//3 10//3 12//3
f 13//4 12//4 16//4
f 16//5 14//5 15//5
f 14//6 10//6 11//6
f 12//7 18//7 16//7
f 13//8 17//8 15//8
f 10//9 12//9 18//9
f 16//10 18//10 14//10
f 14//11 18//11 10//11
f 2//12 11//12 19//12
f 5//13 4//13 24//13
f 23//14 21//14 2//14
f 22//15 9//15 8//15
f 21//16 7//16 2//16
f 19//17 5//17 3//17
f 11//18 2//18 7//18
f 23//19 19//19 3//19
f 11//20 13//20 19//20
f 5//21 20//21 4//21
f 13//22 20//22 19//22
f 17//23 13//23 20//23
f 17//24 20//24 15//24
f 20//25 15//25 4//25
f 9//26 11//26 7//26
f 15//27 9//27 11//27
f 15//28 9//28 4//28
f 28//29 8//29 9//29
f 7//30 6//30 28//30
f 28//31 27//31 6//31
f 28//32 8//32 27//32
f 25//33 6//33 27//33
f 8//34 26//34 27//34
f 39//35 38//35 40//35
f 34//36 39//36 41//36
f 34//37 39//37 36//37
f 39//38 36//38 38//38
f 36//39 38//39 37//39
f 38//40 37//40 40//40
f 37//41 40//41 35//41
f 34//42 35//42 41//42
f 41//43 40//43 35//43
f 34//44 45//44 35//44
f 45//45 44//45 34//45
f 45//46 35//46 42//46
f 35//47 42//47 37//47
f 42//48 37//48 43//48
f 37//49 43//49 36//49
f 34//50 36//50 44//50
f 43//51 36//51 44//51
f 43//52 44//52 46//52
f 43//53 46//53 42//53
f 45//54 46//54 44//54
f 42//55 46//55 45//55
f 4//56 9//56 24//56
f 9//57 22//57 24//57
f 6//58 25//58 47//58
f 8//59 48//59 22//59
f 8//60 50//60 48//60
f 8//61 50//61 26//61
f 49//62 6//62 47//62
f 23//63 19//63 2//63
f 52//64 51//64 40//64
f 40//65 38//65 52//65
f 33//66 54//66 55//66
f 31//67 33//67 55//67
f 31//68 55//68 53//68
f 58//69 53//69 31//69
f 57//70 58//70 30//70
f 31//71 58//71 30//71
f 53//72 58//72 61//72
f 1//73 62//73 61//73
f 61//74 62//74 53//74
f 62//75 1//75 64//75
f 65//76 59//76 60//76
f 53//77 55//77 66//77
f 53//78 62//78 66//78
f 67//79 60//79 63//79
f 60//80 67//80 65//80
f 62//81 65//81 66//81
f 55//82 67//82 65//82
f 74//83 71//83 72//83
f 71//84 74//84 70//84
f 73//85 74//85 72//85
f 70//86 74//86 69//86
f 73//87 67//87 74//87
f 67//88 55//88 74//88
f 55//89 54//89 74//89
f 68//90 74//90 54//90
f 69//91 74//91 68//91
f 67//92 63//92 73//92
f 58//93 57//93 75//93
f 58//94 75//94 61//94
f 76//95 75//95 91//95
f 75//96 76//96 61//96
f 29//97 30//97 79//97
f 79//98 78//98 80//98
f 80//99 82//99 83//99
f 83//100 85//100 86//100
f 81//101 83//101 86//101
f 81//102 86//102 84//102
f 88//103 84//103 81//103
f 57//104 88//104 79//104
f 81//105 88//105 79//105
f 84//106 88//106 91//106
f 77//107 92//107 91//107
f 91//108 92//108 84//108
f 92//109 77//109 93//109
f 94//110 89//110 90//110
f 84//111 86//111 95//111
f 84//112 92//112 95//112
f 96//113 90//113 63//113
f 90//114 96//114 94//114
f 92//115 94//115 95//115
f 86//116 96//116 94//116
f 103//117 100//117 101//117
f 100//118 103//118 99//118
f 102//119 103//119 101//119
f 99//120 103//120 98//120
f 102//121 96//121 103//121
f 96//122 86//122 103//122
f 86//123 85//123 103//123
f 97//124 103//124 85//124
f 98//125 103//125 97//125
f 96//126 63//126 102//126
f 88//127 57//127 75//127
f 88//128 75//128 91//128
f 91//129 87//129 76//129
f 56//130 61//130 76//130
f 57//131 30//131 79//131
f 63//132 60//132 90//132
f 90//133 60//133 59//133
f 59//134 64//134 93//134
f 93//135 64//135 1//135
f 77//136 1//136 56//136
f 56//137 76//137 87//137
f 83//138 33//138 32//138
f 73//139 63//139 102//139
f 102//140 73//140 72//140
f 101//141 72//141 71//141
f 71//142 70//142 99//142
f 99//143 70//143 69//143
f 69//144 68//144 97//144
f 97//145 68//145 54//145
f 54//146 33//146 83//146
f 104//147 40//147 41//147
f 51//148 104//148 40//148
f 108//149 122//149 123//149
f 112//150 110//150 128//150
f 114//151 113//151 115//151
f 116//152 115//152 119//152
f 120//153 119//153 117//153
f 117//154 113//154 114//154
f 115//155 121//155 119//155
f 120//156 118//156 114//156
f 113//157 115//157 121//157
f 119//158 121//158 117//158
f 117//159 121//159 113//159
f 105//160 114//160 122//160
f 108//161 107//161 24//161
f 124//162 21//162 105//162
f 22//163 112//163 111//163
f 21//164 110//164 105//164
f 122//165 108//165 106//165
f 114//166 105//166 110//166
f 124//167 122//167 106//167
f 114//168 116//168 122//168
f 108//169 123//169 107//169
f 116//170 123//170 122//170
f 120//171 116//171 123//171
f 120//172 123//172 118//172
f 123//173 118//173 107//173
f 112//174 114//174 110//174
f 118//175 112//175 114//175
f 118//176 112//176 107//176
f 128//177 111//177 112//177
f 110//178 109//178 128//178
f 128//179 127//179 109//179
f 128//180 111//180 127//180
f 125//181 109//181 127//181
f 111//182 126//182 127//182
f 39//183 38//183 133//183
f 129//184 39//184 134//184
f 129//185 39//185 131//185
f 39//186 131//186 38//186
f 131//187 38//187 132//187
f 38//188 132//188 133//188
f 132//189 133//189 130//189
f 129//190 130//190 134//190
f 134//191 133//191 130//191
f 129//192 138//192 130//192
f 138//193 137//193 129//193
f 138//194 130//194 135//194
f 130//195 135//195 132//195
f 135//196 132//196 136//196
f 132//197 136//197 131//197
f 129//198 131//198 137//198
f 136//199 131//199 137//199
f 136//200 137//200 139//200
f 136//201 139//201 135//201
f 138//202 139//202 137//202
f 135//203 139//203 138//203
f 107//204 112//204 24//204
f 112//205 22//205 24//205
f 109//206 125//206 140//206
f 111//207 48//207 22//207
f 111//208 50//208 48//208
f 111//209 50//209 126//209
f 49//210 109//210 140//210
f 124//211 122//211 105//211
f 141//212 51//212 133//212
f 133//213 38//213 141//213
f 142//214 133//214 134//214
f 51//215 142//215 133//215
f 52//216 38//216 141//216
f 51//217 52//217 141//217
f 49//218 110//218 21//218
f 6//219 7//219 49//219
f 21//220 49//220 7//220
f 110//221 49//221 109//221
f 49//222 47//222 140//222
f 165//223 166//223 155//223
f 147//224 148//224 167//224
f 166//225 167//225 156//225
f 149//226 150//226 169//226
f 150//227 151//227 170//227
f 168//228 169//228 159//228
f 152//229 153//229 172//229
f 169//230 170//230 160//230
f 153//231 154//231 173//231
f 171//232 172//232 162//232
f 172//233 173//233 163//233
f 145//234 146//234 165//234
f 173//235 175//235 164//235
f 174//236 165//236 143//236
f 146//237 147//237 166//237
f 176//238 164//238 144//238
f 177//239 163//239 164//239
f 179//240 162//240 163//240
f 180//241 161//241 162//241
f 181//242 160//242 161//242
f 182//243 159//243 160//243
f 189//244 156//244 157//244
f 190//245 155//245 156//245
f 191//246 143//246 155//246
f 178//247 144//247 143//247
f 184//248 185//248 1//248
f 77//249 187//249 186//249
f 185//250 186//250 1//250
f 1//251 77//251 186//251
f 183//252 184//252 1//252
f 182//253 183//253 1//253
f 1//254 182//254 56//254
f 182//255 181//255 56//255
f 180//256 56//256 181//256
f 179//257 56//257 180//257
f 56//258 179//258 76//258
f 179//259 177//259 76//259
f 176//260 76//260 177//260
f 187//261 77//261 188//261
f 188//262 77//262 87//262
f 188//263 87//263 189//263
f 189//264 87//264 190//264
f 87//265 76//265 190//265
f 178//266 76//266 176//266
f 191//267 190//267 178//267
f 76//268 178//268 190//268
f 154//269 175//269 173//269
f 11//270 12//270 13//270
f 13//271 16//271 17//271
f 16//272 15//272 17//272
f 14//273 11//273 15//273
f 13//274 15//274 11//274
f 39//275 40//275 41//275
f 1//276 61//276 56//276
f 59//277 65//277 64//277
f 64//278 65//278 62//278
f 55//279 65//279 66//279
f 29//97 79//97 78//97
f 79//98 80//98 81//98
f 80//280 83//280 81//280
f 77//281 91//281 87//281
f 89//282 94//282 93//282
f 93//283 94//283 92//283
f 86//284 94//284 95//284
f 90//133 59//133 89//133
f 59//134 93//134 89//134
f 93//135 1//135 77//135
f 77//136 56//136 87//136
f 83//138 32//138 82//138
f 102//140 72//140 101//140
f 101//141 71//141 100//141
f 71//142 99//142 100//142
f 99//285 69//285 98//285
f 69//144 97//144 98//144
f 97//145 54//145 85//145
f 54//146 83//146 85//146
f 114//286 115//286 116//286
f 116//287 119//287 120//287
f 120//288 117//288 118//288
f 117//289 114//289 118//289
f 120//290 114//290 116//290
f 39//291 133//291 134//291
f 165//292 155//292 143//292
f 147//293 167//293 166//293
f 166//294 156//294 155//294
f 149//295 169//295 168//295
f 150//296 170//296 169//296
f 168//297 159//297 158//297
f 152//298 172//298 171//298
f 169//299 160//299 159//299
f 153//300 173//300 172//300
f 171//301 162//301 161//301
f 172//302 163//302 162//302
f 145//303 165//303 174//303
f 173//304 164//304 163//304
f 174//305 143//305 144//305
f 146//306 166//306 165//306
f 176//307 144//307 178//307
f 177//308 164//308 176//308
f 179//309 163//309 177//309
f 180//310 162//310 179//310
f 181//311 161//311 180//311
f 182//312 160//312 181//312
f 189//313 157//313 188//313
f 190//314 156//314 189//314
f 191//315 155//315 190//315
f 178//316 143//316 191//316
