# Blender v2.80 (sub 75) OBJ File: 'road.blend'
# www.blender.org
v -89.685852 14.758493 52.875381
v -88.716194 14.311480 51.753891
v -88.589417 15.614939 53.482002
v -87.619759 15.167925 52.360512
v -87.600899 16.683956 53.910591
v -86.631241 16.236942 52.789101
v -86.758286 17.924463 54.144676
v -85.788628 17.477449 53.023186
v -86.093948 19.288788 54.175262
v -85.124290 18.841776 53.053772
v -85.633430 20.724503 54.001175
v -84.663773 20.277489 52.879681
v -85.394424 22.176430 53.629101
v -84.424774 21.729418 52.507607
v -85.386116 23.588776 53.073341
v -84.416458 23.141762 51.951851
v -85.608826 24.907263 52.355255
v -84.639168 24.460249 51.233761
v -86.053993 26.081223 51.502434
v -85.084335 25.634209 50.380939
v -86.704506 27.065542 50.547653
v -85.734848 26.618530 49.426159
v -87.535370 27.822392 49.527607
v -86.565712 27.375378 48.406113
v -94.205681 26.677906 44.216553
v -93.236023 26.230892 43.095062
v -95.194199 25.608887 43.787968
v -94.224541 25.161873 42.666473
v -96.036812 24.368378 43.553883
v -95.067154 23.921364 42.432388
v -96.701141 23.004051 43.523300
v -95.731491 22.557037 42.401806
v -97.161659 21.568338 43.697388
v -96.192001 21.121325 42.575893
v -97.400665 20.116411 44.069462
v -96.431007 19.669397 42.947968
v -97.408974 18.704067 44.625221
v -96.439316 18.257053 43.503731
v -97.186264 17.385582 45.343311
v -96.216606 16.938568 44.221817
v -96.741096 16.211622 46.196129
v -95.771439 15.764608 45.074638
v -96.090584 15.227304 47.150909
v -95.120926 14.780292 46.029419
v -95.259720 14.470456 48.170959
v -94.290062 14.023443 47.049465
v -94.280434 13.970161 49.217072
v -93.310776 13.523148 48.095581
v -93.190353 13.745646 50.249054
v -92.220703 13.298633 49.127560
v -92.031387 13.805538 51.227242
v -91.061729 13.358524 50.105747
v -89.878410 13.700520 50.992546
v -90.848068 14.147533 52.114040
v -94.946449 25.606136 44.003269
v -93.976791 25.159122 42.881779
v -90.772446 16.708849 49.020462
v -91.742104 17.155863 50.141960
v -89.825790 16.982445 49.729900
v -90.795448 17.429459 50.851395
v -88.896019 17.471212 50.338974
v -89.865677 17.918228 51.460472
v -86.604057 26.037243 51.044369
v -85.634399 25.590231 49.922878
v -86.960190 26.976410 50.362110
v -85.990532 26.529400 49.240620
v -86.425896 24.982454 51.618839
v -85.456238 24.535440 50.497345
v -86.587296 27.386406 48.383057
v -87.556953 27.833420 49.504547
v -87.480606 27.763870 49.598293
v -86.510941 27.316853 48.476791
v -96.044174 21.074686 44.860344
v -95.074524 20.627674 43.738853
v -93.355110 17.240784 46.575436
v -94.324768 17.687798 47.696930
v -96.037529 22.204561 44.415733
v -95.067871 21.757549 43.294243
v -95.866005 20.019897 45.434814
v -94.896355 19.572884 44.313320
v -87.228058 19.011583 51.167145
v -88.197716 19.458597 52.288639
v -88.018875 18.156370 50.824272
v -88.988533 18.603384 51.945770
v -86.553963 20.003988 51.354412
v -87.523621 20.451004 52.475906
v -95.846329 23.366104 44.118076
v -94.876671 22.919090 42.996582
v -93.302696 26.151527 43.069042
v -94.272362 26.598545 44.190540
v -94.181519 26.696779 44.229923
v -93.211861 26.249767 43.108429
v -95.477913 24.514675 43.978802
v -94.508255 24.067661 42.857311
v -86.432541 23.852577 52.063446
v -85.462883 23.405563 50.941952
v -85.654083 22.244020 51.239609
v -86.623741 22.691034 52.361107
v -94.019806 17.846262 45.759399
v -94.989464 18.293276 46.880894
v -94.540215 18.633717 44.995575
v -95.509872 19.080730 46.117069
v -86.022499 21.095449 51.378880
v -86.992157 21.542463 52.500374
v -92.571686 16.840548 47.412327
v -93.541344 17.287561 48.533821
v -91.699623 16.660934 48.237911
v -92.669281 17.107950 49.359409
vn -0.2933 0.7735 -0.5619
vn 0.7796 0.2253 0.5843
vn -0.7636 -0.0395 -0.6445
vn -0.5474 0.4987 -0.6721
vn -0.6452 0.3296 -0.6892
vn 0.7224 0.5643 0.3997
vn -0.5552 -0.8173 -0.1542
vn 0.5474 -0.4987 0.6721
vn -0.6513 -0.7043 -0.2824
vn 0.6452 -0.3296 0.6892
vn -0.7224 -0.5643 -0.3997
vn 0.7182 -0.1479 0.6799
vn -0.7657 -0.4025 -0.5016
vn 0.7636 0.0395 0.6445
vn -0.0055 -0.9305 0.3662
vn -0.7796 -0.2253 -0.5843
vn -0.4286 0.6485 -0.6291
vn 0.7657 0.4025 0.5016
vn -0.7182 0.1479 -0.6799
vn 0.4286 -0.6485 0.6291
vn -0.4377 -0.8989 -0.0202
vn 0.2933 -0.7735 0.5619
vn -0.3034 -0.9459 0.1147
vn 0.5552 0.8173 0.1542
vn 0.6262 -0.2887 -0.7243
vn 0.1467 -0.8687 0.4731
vn -0.1575 -0.9566 0.2451
vn 0.6513 0.7043 0.2824
vn -0.6262 0.2887 0.7243
vn 0.0055 0.9305 -0.3662
vn -0.1467 0.8687 -0.4731
vn 0.4376 0.8989 0.0202
vn 0.4377 0.8989 0.0202
vn 0.1575 0.9566 -0.2451
vn 0.3034 0.9459 -0.1147
vn -0.2932 0.7735 -0.5618
vn 0.6262 -0.2887 -0.7242
vn 0.6262 -0.2875 -0.7247
vn 0.6264 -0.2881 -0.7243
vn 0.6260 -0.2892 -0.7242
vn 0.6267 -0.2868 -0.7246
vn -0.6253 0.2904 0.7243
vn -0.6256 0.2892 0.7246
vn -0.6262 0.2887 0.7242
vn -0.6264 0.2891 0.7239
vn -0.6268 0.2895 0.7234
vn -0.6262 0.2886 0.7243
vn -0.7636 -0.0394 -0.6445
vn 0.4286 -0.6485 0.6290
vn -0.5551 -0.8173 -0.1542
s off
f 25//1 92//1 26//1
f 15//2 14//2 16//2
f 35//3 34//3 36//3
f 29//4 28//4 30//4
f 31//5 30//5 32//5
f 19//6 18//6 20//6
f 45//7 44//7 46//7
f 7//8 6//8 8//8
f 43//9 42//9 44//9
f 9//10 8//10 10//10
f 41//11 40//11 42//11
f 11//12 10//12 12//12
f 39//13 38//13 40//13
f 13//14 12//14 14//14
f 54//15 52//15 53//15
f 37//16 36//16 38//16
f 27//17 26//17 28//17
f 17//18 16//18 18//18
f 33//19 32//19 34//19
f 5//20 4//20 6//20
f 47//21 46//21 48//21
f 3//22 2//22 4//22
f 49//23 48//23 50//23
f 23//24 22//24 24//24
f 61//25 2//25 59//25
f 1//26 53//26 2//26
f 51//27 50//27 52//27
f 21//28 20//28 22//28
f 58//29 108//29 49//29
f 87//14 78//14 88//14
f 90//8 56//8 89//8
f 55//10 94//10 56//10
f 98//3 96//3 97//3
f 74//18 79//18 80//18
f 77//2 74//2 78//2
f 102//28 99//28 101//28
f 58//30 59//30 57//30
f 86//5 103//5 85//5
f 60//31 61//31 59//31
f 100//24 75//24 99//24
f 70//32 24//32 69//32
f 76//33 105//33 75//33
f 89//20 91//20 90//20
f 84//17 81//17 83//17
f 104//19 97//19 103//19
f 72//7 70//7 69//7
f 64//11 65//11 66//11
f 108//34 57//34 107//34
f 80//6 102//6 101//6
f 95//16 68//16 96//16
f 93//12 88//12 94//12
f 62//1 83//1 61//1
f 106//35 107//35 105//35
f 67//13 64//13 68//13
f 82//4 85//4 81//4
f 65//9 72//9 66//9
f 25//36 91//36 92//36
f 15//2 13//2 14//2
f 35//3 33//3 34//3
f 29//4 27//4 28//4
f 31//5 29//5 30//5
f 19//6 17//6 18//6
f 45//7 43//7 44//7
f 7//8 5//8 6//8
f 43//9 41//9 42//9
f 9//10 7//10 8//10
f 41//11 39//11 40//11
f 11//12 9//12 10//12
f 39//13 37//13 38//13
f 13//14 11//14 12//14
f 54//15 51//15 52//15
f 37//16 35//16 36//16
f 27//17 25//17 26//17
f 17//18 15//18 16//18
f 33//19 31//19 32//19
f 5//20 3//20 4//20
f 47//21 45//21 46//21
f 3//22 1//22 2//22
f 49//23 47//23 48//23
f 23//24 21//24 22//24
f 38//25 36//25 80//25
f 36//37 34//37 74//37
f 80//25 36//25 74//25
f 34//25 32//25 78//25
f 32//37 30//37 88//37
f 28//38 26//38 89//38
f 26//39 92//39 89//39
f 32//25 88//25 78//25
f 30//37 28//37 94//37
f 40//25 38//25 101//25
f 101//25 38//25 80//25
f 44//37 42//37 75//37
f 42//25 40//25 99//25
f 99//25 40//25 101//25
f 48//25 46//25 105//25
f 46//25 44//25 75//25
f 52//25 50//25 57//25
f 50//25 48//25 107//25
f 2//25 53//25 59//25
f 53//25 52//25 57//25
f 59//25 53//25 57//25
f 6//25 4//25 83//25
f 4//25 2//25 61//25
f 83//37 4//37 61//37
f 10//25 8//25 81//25
f 8//25 6//25 83//25
f 10//37 81//37 85//37
f 14//25 12//25 103//25
f 12//25 10//25 85//25
f 18//25 16//25 96//25
f 16//25 14//25 97//25
f 96//25 16//25 97//25
f 22//25 20//25 64//25
f 20//25 18//25 68//25
f 64//25 20//25 68//25
f 69//40 24//40 72//40
f 24//41 22//41 72//41
f 12//25 85//25 103//25
f 50//25 107//25 57//25
f 46//37 75//37 105//37
f 28//25 89//25 56//25
f 28//25 56//25 94//25
f 66//37 72//37 22//37
f 64//25 66//25 22//25
f 30//37 94//37 88//37
f 68//25 18//25 96//25
f 34//37 78//37 74//37
f 103//37 97//37 14//37
f 42//25 99//25 75//25
f 81//25 8//25 83//25
f 48//37 105//37 107//37
f 1//26 54//26 53//26
f 51//27 49//27 50//27
f 21//28 19//28 20//28
f 9//29 11//29 86//29
f 11//29 13//29 104//29
f 86//29 11//29 104//29
f 13//29 15//29 98//29
f 15//29 17//29 95//29
f 17//29 19//29 67//29
f 19//29 21//29 63//29
f 21//42 23//42 71//42
f 23//43 70//43 71//43
f 15//29 95//29 98//29
f 19//44 63//44 67//44
f 7//29 9//29 82//29
f 82//29 9//29 86//29
f 3//29 5//29 84//29
f 5//29 7//29 84//29
f 54//29 1//29 60//29
f 1//29 3//29 62//29
f 49//29 51//29 58//29
f 51//29 54//29 58//29
f 58//44 54//44 60//44
f 45//29 47//29 106//29
f 47//29 49//29 108//29
f 106//29 47//29 108//29
f 41//29 43//29 76//29
f 43//29 45//29 76//29
f 41//29 76//29 100//29
f 37//29 39//29 102//29
f 39//29 41//29 100//29
f 102//29 39//29 100//29
f 33//29 35//29 73//29
f 35//29 37//29 79//29
f 29//29 31//29 87//29
f 31//29 33//29 77//29
f 87//44 31//44 77//44
f 91//45 25//45 90//45
f 25//46 27//46 90//46
f 27//44 29//44 93//44
f 93//44 29//44 87//44
f 35//29 79//29 73//29
f 1//29 62//29 60//29
f 84//29 7//29 82//29
f 21//47 71//47 65//47
f 21//47 65//47 63//47
f 37//29 102//29 79//29
f 55//29 90//29 27//29
f 93//29 55//29 27//29
f 17//29 67//29 95//29
f 73//44 77//44 33//44
f 13//29 98//29 104//29
f 76//29 45//29 106//29
f 3//29 84//29 62//29
f 87//14 77//14 78//14
f 90//8 55//8 56//8
f 55//10 93//10 94//10
f 98//48 95//48 96//48
f 74//18 73//18 79//18
f 77//2 73//2 74//2
f 102//28 100//28 99//28
f 58//30 60//30 59//30
f 86//5 104//5 103//5
f 60//31 62//31 61//31
f 100//24 76//24 75//24
f 70//33 23//33 24//33
f 76//33 106//33 105//33
f 89//49 92//49 91//49
f 84//17 82//17 81//17
f 104//19 98//19 97//19
f 72//50 71//50 70//50
f 64//11 63//11 65//11
f 108//34 58//34 57//34
f 80//6 79//6 102//6
f 95//16 67//16 68//16
f 93//12 87//12 88//12
f 62//1 84//1 83//1
f 106//35 108//35 107//35
f 67//13 63//13 64//13
f 82//4 86//4 85//4
f 65//9 71//9 72//9
