# Blender v2.80 (sub 75) OBJ File: ''
# www.blender.org
v 0.000000 0.000000 -0.400000
v -0.289440 0.210288 -0.178886
v 0.110554 0.340256 -0.178886
v 0.357770 0.000000 -0.178886
v 0.110554 -0.340256 -0.178886
v -0.289440 -0.210288 -0.178886
v -0.110554 0.340256 0.178886
v 0.289440 0.210288 0.178886
v 0.289440 -0.210288 0.178886
v -0.110554 -0.340256 0.178886
v -0.357770 0.000000 0.178886
v 0.000000 0.000000 0.400000
v -0.434164 0.315435 -0.268332
v 0.165833 0.510390 -0.268332
v 0.536656 0.000000 -0.268329
v 0.165833 -0.510390 -0.268332
v -0.434164 -0.315435 -0.268332
v -0.165833 0.510390 0.268332
v 0.434164 0.315435 0.268332
v 0.434164 -0.315435 0.268332
v -0.165833 -0.510390 0.268332
v -0.536656 0.000000 0.268329
v 0.000000 0.000000 0.600000
v 0.097473 0.299997 -0.510393
v -0.255194 0.185407 -0.510393
v -0.157721 0.485407 -0.315443
v -0.510389 0.000000 -0.315442
v -0.255194 -0.185407 -0.510393
v 0.412914 0.299998 -0.315442
v 0.097473 -0.299997 -0.510393
v 0.412914 -0.299998 -0.315442
v -0.157721 -0.485407 -0.315443
v -0.570635 -0.185408 0.000000
v 0.000000 0.600000 0.000000
v -0.352671 0.485410 0.000000
v 0.570635 0.185408 0.000000
v 0.352671 0.485410 0.000000
v 0.352671 -0.485410 0.000000
v 0.570635 -0.185408 0.000000
v -0.352671 -0.485410 0.000000
v 0.000000 -0.600000 0.000000
v -0.412914 0.299998 0.315442
v 0.157721 0.485407 0.315443
v 0.157721 -0.485407 0.315443
v -0.412914 -0.299998 0.315442
v -0.097473 0.299997 0.510393
v -0.315438 0.000000 0.510391
v 0.255194 0.185407 0.510393
v 0.255194 -0.185407 0.510393
v -0.097473 -0.299997 0.510393
v 0.000000 0.000000 -1.000000
v -0.723607 0.525725 -0.447220
v 0.276388 0.850649 -0.447220
v 0.894426 0.000000 -0.447216
v -0.723607 -0.525725 -0.447220
v -0.276388 0.850649 0.447220
v 0.723607 0.525725 0.447220
v 0.723607 -0.525725 0.447220
v -0.276388 -0.850649 0.447220
v -0.894426 0.000000 0.447216
v 0.000000 0.000000 1.000000
v 0.232822 0.716563 -0.657519
v 0.162456 0.499995 -0.850654
v 0.077607 0.238853 -0.967950
v -0.203181 0.147618 -0.967950
v -0.425323 0.309011 -0.850654
v -0.531941 0.681712 -0.502302
v -0.262869 0.809012 -0.525738
v 0.029639 0.864184 -0.502302
v -0.850648 0.000000 -0.525736
v -0.812729 0.295238 -0.502301
v -0.203181 -0.147618 -0.967950
v 0.753442 0.000000 -0.657515
v 0.483971 0.716565 -0.502302
v 0.688189 0.499997 -0.525736
v 0.831051 0.238853 -0.502299
v 0.232822 -0.716563 -0.657519
v 0.162456 -0.499995 -0.850654
v 0.077607 -0.238853 -0.967950
v 0.831051 -0.238853 -0.502299
v 0.688189 -0.499997 -0.525736
v 0.483971 -0.716565 -0.502302
v -0.531941 -0.681712 -0.502302
v -0.956626 0.147618 0.251149
v -0.951058 0.309013 -0.000000
v -0.860698 0.442858 -0.251151
v -0.860698 -0.442858 -0.251151
v -0.951058 -0.309013 0.000000
v -0.956626 -0.147618 0.251149
v 0.155215 0.955422 -0.251152
v -0.687159 0.681715 -0.251152
v -0.587786 0.809017 0.000000
v -0.436007 0.864188 0.251152
v 0.860698 0.442858 0.251151
v 0.951058 0.309013 -0.000000
v 0.956626 0.147618 -0.251149
v 0.587786 0.809017 0.000000
v 0.687159 0.681715 0.251152
v 0.687159 -0.681715 0.251152
v 0.587786 -0.809017 -0.000000
v 0.436007 -0.864188 -0.251152
v 0.956626 -0.147618 -0.251149
v 0.951058 -0.309013 0.000000
v 0.860698 -0.442858 0.251151
v -0.436007 -0.864188 0.251152
v -0.687159 -0.681715 -0.251152
v 0.155215 -0.955422 -0.251152
v 0.000000 -1.000000 0.000000
v -0.155215 -0.955422 0.251152
v -0.831051 0.238853 0.502299
v -0.688189 0.499997 0.525736
v -0.483971 0.716565 0.502302
v -0.029639 0.864184 0.502302
v 0.262869 0.809012 0.525738
v 0.531941 0.681712 0.502302
v 0.812729 0.295238 0.502301
v 0.850648 0.000000 0.525736
v 0.812729 -0.295238 0.502301
v 0.531941 -0.681712 0.502302
v 0.262869 -0.809012 0.525738
v -0.029639 -0.864184 0.502302
v -0.483971 -0.716565 0.502302
v -0.688189 -0.499997 0.525736
v -0.831051 -0.238853 0.502299
v -0.077607 0.238853 0.967950
v -0.162456 0.499995 0.850654
v -0.232822 0.716563 0.657519
v -0.753442 0.000000 0.657515
v -0.251147 0.000000 0.967949
v 0.203181 0.147618 0.967950
v 0.425323 0.309011 0.850654
v 0.609547 0.442856 0.657519
v 0.203181 -0.147618 0.967950
v 0.425323 -0.309011 0.850654
v 0.609547 -0.442856 0.657519
v -0.077607 -0.238853 0.967950
v -0.232822 -0.716563 0.657519
v -0.361800 -0.262863 0.894429
v -0.638194 -0.262864 0.723610
v -0.447209 -0.525728 0.723612
v 0.138197 -0.425319 0.894430
v 0.052790 -0.688185 0.723612
v 0.361804 -0.587778 0.723612
v 0.447210 0.000000 0.894429
v 0.670817 -0.162457 0.723611
v 0.670817 0.162457 0.723611
v 0.138197 0.425319 0.894430
v 0.361804 0.587778 0.723612
v 0.052790 0.688185 0.723612
v -0.361800 0.262863 0.894429
v -0.447209 0.525728 0.723612
v -0.638194 0.262864 0.723610
v -0.861804 -0.425322 0.276396
v -0.809019 -0.587782 0.000000
v -0.670821 -0.688189 0.276397
v 0.138199 -0.951055 0.276397
v 0.309016 -0.951057 -0.000000
v 0.447215 -0.850649 0.276397
v 0.947213 -0.162458 0.276396
v 1.000000 0.000000 0.000001
v 0.947213 0.162458 0.276397
v 0.447216 0.850648 0.276397
v 0.138199 0.951055 0.276397
v -0.670820 0.688190 0.276396
v -0.809019 0.587783 -0.000002
v -0.861804 0.425323 0.276394
v -0.309017 -0.951056 -0.000000
v -0.447216 -0.850648 -0.276398
v -0.138199 -0.951055 -0.276398
v 0.809018 -0.587783 -0.000000
v 0.670819 -0.688191 -0.276397
v 0.861803 -0.425324 -0.276396
v 0.809018 0.587783 0.000000
v 0.861803 0.425324 -0.276396
v 0.670819 0.688191 -0.276397
v -0.138199 0.951055 -0.276398
v -0.447216 0.850648 -0.276398
v -0.947213 0.162458 -0.276396
v -0.138197 -0.425321 -0.894429
v -0.052789 -0.688186 -0.723611
v 0.447211 -0.525727 -0.723612
v 0.361801 -0.262863 -0.894429
v 0.638195 -0.262863 -0.723609
v 0.638195 0.262864 -0.723609
v 0.361801 0.262864 -0.894428
v 0.447211 0.525729 -0.723610
v -0.670817 -0.162457 -0.723611
v -0.670818 0.162458 -0.723610
v -0.447211 0.000001 -0.894428
v -0.052790 0.688185 -0.723612
v -0.138199 0.425321 -0.894429
v -0.361805 0.587779 -0.723611
v -0.100000 -0.100000 0.100000
v -0.100000 -0.100000 -0.100000
v -0.100000 0.100000 0.100000
v -0.100000 0.100000 -0.100000
v 0.100000 -0.100000 0.100000
v 0.100000 -0.100000 -0.100000
v 0.100000 0.100000 0.100000
v 0.100000 0.100000 -0.100000
vn 0.4911 0.3568 -0.7947
vn 0.4911 -0.3568 -0.7947
vn -0.9822 0.0000 -0.1876
vn -0.7946 -0.5774 0.1876
vn 0.1876 0.5774 0.7947
vn 0.6071 0.0000 0.7947
vn 0.1876 -0.5774 0.7947
vn -0.4911 -0.3568 0.7947
vn 0.3066 0.9435 -0.1256
vn 0.9921 0.0000 -0.1256
vn -0.4089 0.6284 0.6617
vn 0.4713 0.5831 0.6617
vn -0.7240 -0.1947 0.6617
vn 0.1024 -0.3151 0.9435
vn 0.3313 0.0000 0.9435
vn 0.1876 0.5773 0.7947
vn -0.0385 0.7488 0.6617
vn 0.0247 -0.9435 0.3304
vn 0.3035 -0.9342 0.1876
vn 0.5346 -0.7779 0.3304
vn -0.5746 0.7488 0.3304
vn -0.3066 -0.9435 0.1256
vn 0.8897 -0.3151 -0.3304
vn 0.5746 0.7488 -0.3304
vn -0.5346 0.7779 -0.3304
vn -0.9050 -0.2680 -0.3304
vn -0.4713 -0.5831 -0.6617
vn 0.0385 -0.7488 -0.6617
vn 0.4089 -0.6284 -0.6617
vn 0.4089 0.6284 -0.6617
vn -0.7002 -0.2680 -0.6617
vn -0.4713 0.5831 -0.6617
vn -0.0482 0.1482 -0.9878
vn -0.0482 -0.1482 -0.9878
vn -0.8193 0.4121 -0.3987
vn 0.1387 0.9065 -0.3987
vn -0.6451 -0.6519 -0.3987
vn -0.7711 -0.5603 -0.3024
vn -0.3427 0.7583 0.5545
vn -0.1685 -0.8149 0.5545
vn -0.2334 -0.1696 0.9575
vn 0.1876 -0.5773 0.7947
vn 0.2287 -0.7038 0.6726
vn 0.6153 -0.5603 0.5545
vn 0.1558 0.0000 0.9878
vn 0.3702 -0.1560 0.9158
vn 0.2885 0.0000 0.9575
vn 0.7081 -0.3049 0.6369
vn 0.7895 0.1487 0.5955
vn 0.7081 0.3049 0.6369
vn 0.7230 0.4121 0.5545
vn 0.0482 0.1482 0.9878
vn 0.3105 0.4519 0.8363
vn -0.1685 0.8149 0.5545
vn -0.2860 0.5843 0.7594
vn -0.3338 0.4350 0.8363
vn -0.3936 0.6628 0.6369
vn -0.5513 0.5843 0.5955
vn -0.7520 0.1696 0.6369
vn -0.9050 -0.1482 0.3987
vn -0.9366 -0.3039 0.1745
vn -0.8963 -0.2743 0.3485
vn -0.8039 -0.4003 0.4399
vn -0.7972 -0.5792 -0.1702
vn -0.5379 -0.7676 0.3485
vn -0.1387 -0.9065 0.3987
vn 0.2882 -0.8869 0.3611
vn 0.3045 -0.9372 -0.1702
vn 0.4526 -0.8883 -0.0784
vn 0.6451 -0.6519 0.3987
vn 0.9822 0.0000 0.1876
vn 0.9831 0.1557 0.0962
vn 0.8193 0.4121 0.3987
vn 0.5638 0.7488 0.3485
vn 0.1323 0.8883 0.4399
vn -0.5785 0.7968 0.1745
vn -0.7038 0.7038 0.0962
vn -0.7947 0.5773 0.1876
vn -0.3035 -0.9342 -0.1876
vn -0.1557 -0.9831 -0.0962
vn 0.7711 -0.5603 0.3024
vn 0.8883 -0.4526 0.0784
vn 0.8869 -0.4519 -0.0962
vn 0.9366 -0.3039 -0.1745
vn 0.6291 -0.6409 -0.4399
vn 0.8963 -0.2744 -0.3485
vn 0.9050 -0.1482 -0.3987
vn 0.7038 0.7038 -0.0962
vn 0.8963 0.2744 -0.3485
vn 0.8039 0.4003 -0.4399
vn 0.7544 0.5481 -0.3611
vn 0.6291 0.6409 -0.4399
vn -0.5791 0.7964 -0.1745
vn 0.0160 0.9372 -0.3485
vn -0.1323 0.8883 -0.4399
vn -0.9532 0.0000 0.3024
vn -0.9363 0.3046 -0.1745
vn -0.8864 0.3049 -0.3485
vn -0.8857 0.1487 -0.4399
vn -0.0891 -0.2744 -0.9575
vn 0.1121 -0.6409 -0.7594
vn 0.5513 -0.5843 -0.5955
vn 0.5987 -0.4350 -0.6726
vn 0.8271 -0.0916 -0.5545
vn -0.6071 0.0000 -0.7947
vn -0.5257 0.1557 -0.8363
vn -0.1558 0.0000 -0.9878
vn 0.1121 0.6409 -0.7594
vn -0.3854 0.7049 -0.5955
vn -0.0891 0.2743 -0.9575
vn -0.2627 0.3039 -0.9158
vn -0.3105 0.4519 -0.8363
vn 0.0000 0.0000 1.0000
vn 0.0000 1.0000 0.0000
vn 1.0000 0.0000 0.0000
vn 0.0000 0.0000 -1.0000
vn -1.0000 0.0000 0.0000
vn 0.0000 -1.0000 0.0000
s off
f 1//1 3//1 4//1
f 1//2 4//2 5//2
f 2//3 6//3 11//3
f 6//4 10//4 11//4
f 8//5 7//5 12//5
f 9//6 8//6 12//6
f 10//7 9//7 12//7
f 11//8 10//8 12//8
f 14//9 34//9 37//9
f 15//10 36//10 39//10
f 18//11 42//11 46//11
f 19//12 43//12 48//12
f 22//13 45//13 47//13
f 50//14 49//14 23//14
f 49//15 48//15 23//15
f 48//16 43//16 46//16
f 43//17 18//17 46//17
f 41//18 44//18 21//18
f 41//19 38//19 44//19
f 38//20 20//20 44//20
f 35//21 42//21 18//21
f 40//22 41//22 21//22
f 31//23 15//23 39//23
f 29//24 14//24 37//24
f 26//25 13//25 35//25
f 27//26 17//26 33//26
f 28//27 32//27 17//27
f 30//28 16//28 32//28
f 30//29 31//29 16//29
f 24//30 14//30 29//30
f 27//31 28//31 17//31
f 25//32 13//32 26//32
f 51//33 65//33 64//33
f 51//34 79//34 72//34
f 52//35 71//35 86//35
f 53//36 69//36 90//36
f 55//37 83//37 106//37
f 55//38 106//38 87//38
f 56//39 112//39 127//39
f 59//40 121//40 137//40
f 129//41 138//41 136//41
f 139//8 140//8 138//8
f 142//42 143//42 141//42
f 142//43 120//43 143//43
f 119//44 58//44 135//44
f 133//45 130//45 61//45
f 134//46 144//46 133//46
f 133//47 144//47 130//47
f 135//48 118//48 145//48
f 117//49 116//49 146//49
f 146//50 116//50 132//50
f 116//51 57//51 132//51
f 130//52 125//52 61//52
f 131//53 148//53 147//53
f 148//16 149//16 147//16
f 113//54 56//54 127//54
f 127//55 151//55 126//55
f 126//56 151//56 150//56
f 127//57 112//57 151//57
f 112//58 111//58 151//58
f 152//59 110//59 128//59
f 89//60 124//60 60//60
f 88//61 153//61 89//61
f 89//62 153//62 124//62
f 153//63 123//63 124//63
f 87//64 106//64 154//64
f 155//65 105//65 122//65
f 109//66 121//66 59//66
f 156//67 158//67 120//67
f 107//68 101//68 157//68
f 101//69 100//69 157//69
f 99//70 58//70 119//70
f 160//71 161//71 159//71
f 160//72 95//72 161//72
f 94//73 57//73 116//73
f 98//74 162//74 115//74
f 163//75 113//75 114//75
f 92//76 164//76 93//76
f 92//77 165//77 164//77
f 165//78 166//78 164//78
f 168//79 169//79 167//79
f 167//80 169//80 108//80
f 99//81 104//81 58//81
f 170//82 103//82 104//82
f 170//83 172//83 103//83
f 172//84 102//84 103//84
f 82//85 81//85 171//85
f 172//86 80//86 102//86
f 80//87 54//87 102//87
f 173//88 175//88 97//88
f 96//89 76//89 174//89
f 76//90 75//90 174//90
f 174//91 75//91 175//91
f 75//92 74//92 175//92
f 177//93 91//93 92//93
f 90//94 69//94 176//94
f 69//95 68//95 176//95
f 84//96 89//96 60//96
f 86//97 178//97 85//97
f 86//98 71//98 178//98
f 71//99 70//99 178//99
f 72//100 79//100 179//100
f 78//101 77//101 180//101
f 181//102 81//102 82//102
f 182//2 183//2 181//2
f 181//103 183//103 81//103
f 73//104 54//104 80//104
f 185//1 186//1 184//1
f 188//105 189//105 187//105
f 188//106 66//106 189//106
f 65//107 51//107 72//107
f 63//108 190//108 62//108
f 192//109 67//109 68//109
f 64//110 65//110 191//110
f 65//111 66//111 191//111
f 191//112 66//112 192//112
f 197//113 195//113 193//113
f 195//114 200//114 196//114
f 199//115 198//115 200//115
f 194//116 200//116 198//116
f 193//117 196//117 194//117
f 197//118 194//118 198//118
f 197//113 199//113 195//113
f 195//114 199//114 200//114
f 199//115 197//115 198//115
f 194//116 196//116 200//116
f 193//117 195//117 196//117
f 197//118 193//118 194//118
