# Blender v2.80 (sub 75) OBJ File: 'road.blend'
# www.blender.org
v -10.584510 -0.366854 3.398636
v -10.600994 -0.714927 3.383808
v -10.623567 -1.037080 3.340754
v -10.687114 -1.327556 3.128748
v -10.736973 -1.565518 2.963890
v -10.652635 -0.357421 3.415305
v -10.743019 -0.697978 3.383077
v -10.838035 -1.014008 3.306719
v -10.934030 -1.293365 3.189165
v -11.027315 -1.525314 3.034932
v -10.717813 -0.334501 3.430607
v -10.870871 -0.653019 3.413093
v -11.023646 -0.948737 3.350295
v -11.170269 -1.210291 3.244626
v -11.305103 -1.427629 3.100147
v -10.777541 -0.298975 3.443954
v -10.979637 -0.581777 3.472701
v -11.173270 -0.843776 3.469806
v -11.386754 -1.081526 3.293001
v -11.559664 -1.276218 3.157030
v -10.829524 -0.252207 3.454832
v -11.089999 -0.491594 3.460612
v -11.341772 -0.714385 3.419282
v -11.575166 -0.912018 3.332430
v -11.781212 -1.076897 3.203394
v -10.871763 -0.195996 3.462825
v -11.172854 -0.381333 3.476290
v -11.462059 -0.554310 3.442043
v -11.728263 -0.708281 3.361400
v -11.961234 -0.837328 3.237459
v -10.902636 -0.132502 3.467624
v -11.225019 -0.255229 3.519132
v -11.529510 -0.369702 3.537214
v -11.840161 -0.478145 3.378795
v -12.092813 -0.566717 3.257913
v -10.920956 -0.064164 3.469046
v -11.269350 -0.122735 3.488493
v -11.602148 -0.178884 3.459759
v -11.906562 -0.230454 3.383948
v -12.170893 -0.275463 3.263973
v -10.926019 0.006391 3.467035
v -11.270887 0.017219 3.517977
v -11.596099 0.025831 3.535537
v -11.924913 0.025274 3.376661
v -12.192471 0.025241 3.255404
v -10.917630 0.076452 3.461670
v -11.262827 0.153094 3.474025
v -11.592678 0.221557 3.438754
v -11.894508 0.279210 3.357213
v -12.156719 0.323839 3.232536
v -10.896112 0.143327 3.453155
v -11.220618 0.284273 3.457323
v -11.531401 0.411999 3.414507
v -11.816518 0.521598 3.326353
v -12.065012 0.608856 3.196248
v -10.862292 0.204445 3.441819
v -11.145884 0.405715 3.468514
v -11.414623 0.589840 3.463728
v -11.693937 0.743120 3.285265
v -11.920873 0.869339 3.147934
v -10.817471 0.257458 3.428097
v -11.066356 0.508149 3.408170
v -11.307447 0.737016 3.343148
v -11.531478 0.935266 3.235530
v -11.729840 1.095278 3.089452
v -10.763368 0.300328 3.412517
v -10.960230 0.592242 3.377608
v -11.153377 0.859101 3.298778
v -11.335383 1.090650 3.179058
v -11.499257 1.277991 3.023047
v -10.702065 0.331409 3.395676
v -10.831585 0.654763 3.378001
v -10.958332 0.951402 3.332324
v -11.113189 1.203301 3.118019
v -11.237985 1.410454 2.951274
v -10.635916 0.349505 3.378223
v -10.710224 0.688705 3.310338
v -10.790424 0.999144 3.201118
v -10.873433 1.268891 3.054760
v -10.956061 1.487579 2.876889
v -10.567464 0.353921 3.360828
v -10.575953 0.697368 3.276216
v -10.595491 1.011721 3.151580
v -10.625331 1.284898 2.991711
v -10.664324 1.506402 2.802751
v -10.499340 0.344488 3.344159
v -10.433928 0.680419 3.276947
v -10.381023 0.988649 3.185615
v -10.378415 1.250707 2.931294
v -10.373981 1.466198 2.731709
v -10.434162 0.321568 3.328857
v -10.314470 0.633905 3.213504
v -10.215878 0.919586 3.060536
v -10.142176 1.167633 2.875834
v -10.096193 1.368513 2.666493
v -10.374434 0.286041 3.315511
v -10.197309 0.564218 3.187323
v -10.045787 0.818416 3.022528
v -9.925690 1.038868 2.827458
v -9.841634 1.217101 2.609611
v -10.570354 -0.005423 3.402164
v -10.322452 0.239274 3.304632
v -10.086947 0.474035 3.199412
v -9.877286 0.689026 3.073052
v -9.737279 0.869360 2.788029
v -9.620086 1.017781 2.563246
v -10.280211 0.183063 3.296639
v -10.012486 0.362219 3.150306
v -9.777466 0.525160 2.968788
v -9.584182 0.665623 2.759060
v -9.440063 0.778212 2.529182
v -10.249339 0.119569 3.291840
v -9.951927 0.237670 3.140892
v -9.689548 0.344343 2.955120
v -9.472283 0.435487 2.741664
v -9.308484 0.507601 2.508727
v -10.231019 0.051231 3.290418
v -9.907597 0.105176 3.171530
v -9.616909 0.153525 3.032575
v -9.405883 0.187796 2.736511
v -9.230405 0.216347 2.502668
v -10.225956 -0.019324 3.292429
v -9.906060 -0.034778 3.142047
v -9.622959 -0.051190 2.956797
v -9.387531 -0.067931 2.743798
v -9.208827 -0.084357 2.511237
v -10.234344 -0.089385 3.297794
v -9.922515 -0.172207 3.152572
v -9.646847 -0.250707 2.972077
v -9.417936 -0.321868 2.763246
v -9.244578 -0.382955 2.534105
v -10.255862 -0.156260 3.306309
v -9.956328 -0.301831 3.202701
v -9.687656 -0.437358 3.077827
v -9.495927 -0.564255 2.794106
v -9.336286 -0.667972 2.570393
v -10.289682 -0.217378 3.317645
v -10.031063 -0.423274 3.191510
v -9.804435 -0.615199 3.028606
v -9.618507 -0.785778 2.835194
v -9.480425 -0.928455 2.618706
v -10.334504 -0.270391 3.331367
v -10.118985 -0.527262 3.218426
v -9.932078 -0.766167 3.067683
v -9.780966 -0.977923 2.884929
v -9.671457 -1.154394 2.677189
v -10.388607 -0.313261 3.346947
v -10.216717 -0.609800 3.282416
v -10.065681 -0.884460 3.193556
v -9.977061 -1.133307 2.941401
v -9.902040 -1.337106 2.743593
v -10.449910 -0.344341 3.363788
v -10.345362 -0.672321 3.282022
v -10.260726 -0.976760 3.160010
v -10.199256 -1.245958 3.002440
v -10.163313 -1.469569 2.815367
v -10.516059 -0.362437 3.381241
v -10.475117 -0.707818 3.316258
v -10.449100 -1.028294 3.209713
v -10.439011 -1.311548 3.065699
v -10.445235 -1.546694 2.889752
v -10.993820 -0.074107 1.578403
v -10.576784 -0.043398 3.381978
v -10.990487 -0.094691 1.578523
v -10.596045 -0.036821 3.386509
v -10.998469 -0.113737 1.581414
v -10.608914 -0.020602 3.388986
v -11.015231 -0.125198 1.586156
v -10.611304 0.000110 3.388623
v -11.035451 -0.125436 1.591245
v -10.602457 0.018738 3.385535
v -11.052710 -0.114374 1.595064
v -10.585181 0.029368 3.380702
v -11.061527 -0.095526 1.596402
v -10.564962 0.028625 3.375659
v -11.059105 -0.074874 1.594833
v -10.548219 0.016745 3.372007
v -11.046211 -0.058977 1.590855
v -10.540267 -0.002500 3.370905
v -11.026939 -0.052881 1.585732
v -10.543632 -0.023000 3.372704
v -11.007409 -0.058521 1.581090
v -10.557244 -0.038246 3.376832
v -10.749858 -0.066181 2.752867
v -10.707736 -0.547648 2.971212
v -10.764796 -0.060928 2.756374
v -10.985841 -0.449852 3.036501
v -10.774477 -0.048044 2.758206
v -11.166069 -0.210010 3.070604
v -10.776287 -0.037296 2.758160
v -11.199758 -0.009903 3.069756
v -10.771355 -0.021968 2.756209
v -11.107945 0.275439 3.033427
v -10.758955 -0.012143 2.752638
v -10.877100 0.458359 2.966947
v -10.743266 -0.011130 2.748651
v -10.585030 0.477203 2.892725
v -10.729577 -0.019273 2.745592
v -10.330180 0.325619 2.835777
v -10.722501 -0.033825 2.744492
v -10.198452 0.054700 2.815299
v -10.724423 -0.049883 2.745722
v -10.234243 -0.244238 2.838192
v -10.734696 -0.062033 2.748867
v -10.425493 -0.470434 2.896742
vn 0.1583 -0.4287 0.8895
vn 0.1163 -0.5820 0.8048
vn 0.2352 -0.0187 0.9718
vn -0.0159 -0.0900 0.9958
vn -0.1732 -0.1818 0.9680
vn 0.1293 -0.2694 0.9543
vn 0.0705 -0.4074 0.9105
vn 0.0007 -0.5539 0.8326
vn 0.2233 -0.0158 0.9746
vn 0.1795 -0.1398 0.9738
vn 0.2121 -0.0106 0.9772
vn 0.3540 -0.2201 0.9090
vn 0.3977 -0.3826 0.8339
vn -0.0117 -0.3689 0.9294
vn -0.1077 -0.5032 0.8574
vn -0.2297 0.0796 0.9700
vn -0.0853 -0.3147 0.9453
vn -0.2046 -0.4318 0.8785
vn 0.2021 -0.0032 0.9794
vn -0.0473 0.0756 0.9960
vn 0.1936 0.0060 0.9811
vn 0.0898 -0.0737 0.9932
vn -0.0227 -0.1575 0.9873
vn -0.1473 -0.2469 0.9578
vn -0.2864 -0.3424 0.8948
vn -0.1955 -0.1681 0.9662
vn -0.3498 -0.2386 0.9059
vn 0.1871 0.0167 0.9822
vn 0.1923 -0.2434 0.9507
vn 0.1403 -0.4127 0.9000
vn 0.1827 0.0285 0.9828
vn 0.0156 0.2302 0.9730
vn -0.1360 0.3277 0.9349
vn -0.2279 -0.0813 0.9703
vn -0.3925 -0.1242 0.9113
vn -0.4128 -0.0037 0.9108
vn 0.1806 0.0410 0.9827
vn 0.0888 -0.2044 0.9749
vn -0.0225 -0.3465 0.9378
vn -0.2433 0.0102 0.9699
vn 0.1809 0.0536 0.9820
vn 0.1007 0.3008 0.9484
vn -0.0038 0.4433 0.8964
vn -0.2411 0.1028 0.9650
vn -0.4099 0.1183 0.9044
vn -0.3839 0.2372 0.8924
vn 0.1836 0.0658 0.9808
vn 0.0593 0.1073 0.9925
vn -0.0744 0.1495 0.9860
vn -0.2214 0.1929 0.9559
vn -0.0214 -0.0787 0.9967
vn -0.1923 -0.1425 0.9709
vn -0.1850 0.2772 0.9428
vn -0.3359 0.3482 0.8752
vn 0.1885 0.0773 0.9790
vn 0.1956 0.0875 0.9768
vn 0.2612 0.3313 0.9066
vn 0.2494 0.4986 0.8302
vn -0.1332 0.3524 0.9263
vn -0.2677 0.4472 0.8534
vn 0.1224 0.1989 0.9723
vn 0.0326 0.3048 0.9519
vn -0.0680 0.4155 0.9070
vn -0.1819 0.5304 0.8280
vn 0.2044 0.0961 0.9742
vn 0.2148 0.1027 0.9713
vn -0.0459 0.0881 0.9951
vn -0.2245 0.1231 0.9667
vn 0.0080 0.4642 0.8857
vn -0.0817 0.5946 0.7999
vn 0.4913 0.3993 0.7741
vn 0.0919 0.4966 0.8631
vn 0.0289 0.6373 0.7701
vn 0.2262 0.1071 0.9682
vn 0.4120 0.2648 0.8719
vn 0.2382 0.1091 0.9651
vn 0.2247 0.2383 0.9448
vn 0.2061 0.3717 0.9052
vn 0.1805 0.5114 0.8402
vn 0.1456 0.6568 0.7399
vn 0.2704 0.5081 0.8177
vn 0.2641 0.6524 0.7103
vn 0.2504 0.1086 0.9620
vn 0.0236 0.2397 0.9706
vn -0.1082 0.3606 0.9264
vn 0.2624 0.1058 0.9592
vn 0.5025 0.1235 0.8557
vn 0.6405 0.1789 0.7469
vn 0.3582 0.4868 0.7967
vn 0.3798 0.6244 0.6826
vn 0.4405 0.4483 0.7778
vn 0.4882 0.5737 0.6577
vn 0.2735 0.1005 0.9566
vn 0.3317 0.2124 0.9192
vn 0.3875 0.3277 0.8617
vn 0.2835 0.0932 0.9544
vn 0.1636 0.3251 0.9314
vn 0.1173 0.4900 0.8638
vn 0.5140 0.3941 0.7619
vn 0.5851 0.5023 0.6367
vn 0.6669 0.4129 0.6203
vn 0.2920 0.0839 0.9527
vn 0.5021 -0.0449 0.8636
vn 0.6465 -0.0883 0.7578
vn 0.5761 0.3263 0.7494
vn 0.2985 0.0732 0.9516
vn 0.4073 0.1297 0.9040
vn 0.5157 0.1875 0.8360
vn 0.6242 0.2475 0.7410
vn 0.7303 0.3090 0.6092
vn 0.7730 0.1947 0.6038
vn 0.3029 0.0614 0.9510
vn 0.3269 0.3154 0.8909
vn 0.3761 0.4678 0.7998
vn 0.6566 0.1607 0.7369
vn 0.4109 -0.1836 0.8930
vn 0.5074 -0.3123 0.8031
vn 0.6720 0.0692 0.7373
vn 0.7933 0.0741 0.6043
vn 0.3050 0.0490 0.9511
vn 0.3047 0.0364 0.9517
vn 0.4261 0.0182 0.9045
vn 0.5475 -0.0015 0.8368
vn 0.6698 -0.0234 0.7422
vn 0.7904 -0.0479 0.6107
vn 0.5809 0.3014 0.7561
vn 0.6501 -0.1135 0.7513
vn 0.7644 -0.1667 0.6228
vn 0.3020 0.0241 0.9530
vn 0.4585 0.2140 0.8625
vn 0.2971 0.0127 0.9548
vn 0.2597 -0.2459 0.9339
vn 0.2701 -0.4175 0.8676
vn 0.6137 -0.1978 0.7644
vn 0.7164 -0.2777 0.6400
vn 0.4722 -0.1756 0.8638
vn 0.5619 -0.2730 0.7809
vn 0.6482 -0.3768 0.6617
vn 0.2901 0.0025 0.9570
vn 0.3817 -0.0845 0.9204
vn 0.2812 -0.0061 0.9596
vn 0.5141 0.0549 0.8560
vn 0.6627 0.0469 0.7474
vn 0.4968 -0.3361 0.8002
vn 0.5624 -0.4600 0.6872
vn 0.4208 -0.3848 0.8215
vn 0.4622 -0.5241 0.7153
vn 0.2709 -0.0127 0.9625
vn 0.0994 -0.2107 0.9725
vn 0.0145 -0.3685 0.9295
vn 0.2595 -0.0171 0.9656
vn 0.2891 -0.1438 0.9464
vn 0.3151 -0.2763 0.9079
vn 0.3368 -0.4172 0.8441
vn 0.3516 -0.5668 0.7451
vn 0.2482 -0.4320 0.8670
vn 0.2349 -0.5863 0.7753
vn 0.2474 -0.0191 0.9687
vn 0.4748 -0.1080 0.8734
vn 0.5939 -0.2100 0.7766
vn 0.9642 0.1549 -0.2153
vn 0.8987 -0.4030 -0.1729
vn 0.5505 -0.8322 -0.0655
vn 0.0300 -0.9969 0.0728
vn -0.4975 -0.8445 0.1983
vn -0.8644 -0.4236 0.2708
vn -0.9544 0.1322 0.2676
vn -0.7389 0.6466 0.1895
vn -0.2862 0.9562 0.0614
vn 0.2433 0.0451 0.9689
vn 0.2599 0.9626 -0.0760
vn 0.7260 0.6639 -0.1792
vn -0.2433 -0.0451 -0.9689
vn -0.9643 0.0325 0.2626
vn 0.3484 -0.9361 -0.0486
vn 0.7896 -0.5841 -0.1879
vn -0.9408 0.2319 0.2473
vn 0.8133 0.5251 -0.2506
vn -0.8997 -0.3467 0.2653
vn 0.3891 0.9084 -0.1531
vn -0.5551 -0.8089 0.1938
vn -0.0228 -0.9981 0.0568
vn -0.1660 0.9861 -0.0042
vn -0.6653 0.7322 0.1462
vn -0.1883 -0.5518 0.8125
vn 0.2305 -0.0523 0.9717
vn -0.0207 -0.1310 0.9912
vn 0.1952 -0.0399 0.9799
vn 0.3311 -0.2547 0.9086
vn 0.1256 -0.6622 0.7388
vn -0.0737 0.0434 0.9963
vn -0.4445 -0.2422 0.8624
vn 0.1800 -0.0287 0.9833
vn -0.2411 -0.5129 0.8239
vn 0.1571 0.0017 0.9876
vn 0.1543 -0.2600 0.9532
vn 0.1504 0.0198 0.9884
vn -0.0239 0.2176 0.9757
vn -0.4922 0.1600 0.8557
vn 0.1472 0.0387 0.9883
vn 0.0473 -0.2054 0.9775
vn -0.4139 -0.3052 0.8576
vn 0.1477 0.0579 0.9873
vn 0.0594 0.3040 0.9508
vn -0.3969 0.4124 0.8200
vn 0.1593 0.0941 0.9827
vn -0.0568 -0.0569 0.9968
vn -0.5005 0.0904 0.8610
vn 0.1701 0.1097 0.9793
vn 0.2282 0.3566 0.9060
vn -0.0992 0.6728 0.7331
vn 0.1225 0.1989 0.9723
vn 0.1993 0.1329 0.9709
vn -0.0639 0.1252 0.9901
vn -0.3597 0.4664 0.8081
vn 0.3979 0.3033 0.8658
vn 0.2908 0.7174 0.6331
vn 0.2167 0.1396 0.9662
vn -0.0389 0.6961 0.7169
vn 0.2538 0.1420 0.9568
vn 0.0284 0.2795 0.9597
vn 0.2720 0.1376 0.9524
vn 0.5114 0.1623 0.8439
vn 0.6414 0.5310 0.5537
vn 0.3043 0.1184 0.9452
vn 0.1890 0.3540 0.9159
vn 0.3538 0.7021 0.6180
vn 0.3172 0.1043 0.9426
vn 0.5303 -0.0190 0.8476
vn 0.8347 0.1765 0.5217
vn 0.3339 0.0700 0.9400
vn 0.3637 0.3237 0.8735
vn 0.6860 0.4823 0.5448
vn 0.3371 0.0510 0.9401
vn 0.4484 -0.1795 0.8756
vn 0.8053 -0.2266 0.5478
vn 0.4261 0.0183 0.9045
vn 0.4937 0.1986 0.8466
vn 0.8457 0.1108 0.5220
vn 0.3325 0.0131 0.9430
vn 0.3250 -0.0044 0.9457
vn 0.2932 -0.2651 0.9186
vn 0.5633 -0.5424 0.6233
vn 0.3007 -0.0331 0.9531
vn 0.5351 0.0211 0.8445
vn 0.7792 -0.2871 0.5572
vn 0.1902 -0.6645 0.7227
vn 0.2850 -0.0432 0.9576
vn 0.1170 -0.2469 0.9620
vn 0.5087 -0.5774 0.6386
vn 0.2492 -0.0530 0.9670
vn 0.4741 -0.1492 0.8677
vn -0.3037 -0.9488 0.0864
vn -0.7559 -0.6280 0.1850
vn -0.9706 -0.1083 0.2148
vn -0.8797 0.4455 0.1662
vn -0.5121 0.8572 0.0547
vn 0.0156 0.9963 -0.0843
vn 0.5357 0.8187 -0.2066
vn 0.8834 0.3806 -0.2736
vn 0.9479 -0.1787 -0.2638
vn 0.2433 0.0450 0.9689
vn 0.2432 0.0451 0.9689
vn 0.7090 -0.6818 -0.1803
vn 0.2423 -0.9689 -0.0498
vn -0.2433 -0.0450 -0.9689
vn -0.9640 0.0352 0.2637
vn 0.3490 -0.9359 -0.0485
vn 0.7909 -0.5825 -0.1874
vn -0.9405 0.2343 0.2460
vn 0.8123 0.5273 -0.2492
vn -0.9009 -0.3443 0.2642
vn 0.3879 0.9091 -0.1521
vn -0.5569 -0.8078 0.1933
vn -0.0234 -0.9981 0.0567
vn -0.6644 0.7332 0.1451
s off
f 4//1 8//1 9//1
f 4//2 10//2 5//2
f 1//3 101//3 6//3
f 2//4 6//4 7//4
f 3//5 7//5 8//5
f 7//6 13//6 8//6
f 8//7 14//7 9//7
f 9//8 15//8 10//8
f 6//9 101//9 11//9
f 7//10 11//10 12//10
f 11//11 101//11 16//11
f 11//12 17//12 12//12
f 12//13 18//13 13//13
f 13//14 19//14 14//14
f 15//15 19//15 20//15
f 18//16 22//16 23//16
f 19//17 23//17 24//17
f 19//18 25//18 20//18
f 16//19 101//19 21//19
f 17//20 21//20 22//20
f 21//21 101//21 26//21
f 21//22 27//22 22//22
f 22//23 28//23 23//23
f 23//24 29//24 24//24
f 25//25 29//25 30//25
f 28//26 34//26 29//26
f 29//27 35//27 30//27
f 26//28 101//28 31//28
f 26//29 32//29 27//29
f 27//30 33//30 28//30
f 31//31 101//31 36//31
f 32//32 36//32 37//32
f 33//33 37//33 38//33
f 34//34 38//34 39//34
f 34//35 40//35 35//35
f 39//36 45//36 40//36
f 36//37 101//37 41//37
f 36//38 42//38 37//38
f 37//39 43//39 38//39
f 38//40 44//40 39//40
f 41//41 101//41 46//41
f 42//42 46//42 47//42
f 43//43 47//43 48//43
f 44//44 48//44 49//44
f 44//45 50//45 45//45
f 49//46 55//46 50//46
f 46//47 101//47 51//47
f 46//48 52//48 47//48
f 47//49 53//49 48//49
f 48//50 54//50 49//50
f 51//51 57//51 52//51
f 52//52 58//52 53//52
f 53//53 59//53 54//53
f 55//54 59//54 60//54
f 51//55 101//55 56//55
f 56//56 101//56 61//56
f 57//57 61//57 62//57
f 58//58 62//58 63//58
f 59//59 63//59 64//59
f 60//60 64//60 65//60
f 61//61 67//61 62//61
f 62//62 68//62 63//62
f 64//63 68//63 69//63
f 65//64 69//64 70//64
f 61//65 101//65 66//65
f 66//66 101//66 71//66
f 66//67 72//67 67//67
f 67//68 73//68 68//68
f 68//69 74//69 69//69
f 69//70 75//70 70//70
f 73//71 77//71 78//71
f 74//72 78//72 79//72
f 75//73 79//73 80//73
f 71//74 101//74 76//74
f 72//75 76//75 77//75
f 76//76 101//76 81//76
f 76//77 82//77 77//77
f 77//78 83//78 78//78
f 79//79 83//79 84//79
f 79//80 85//80 80//80
f 83//81 89//81 84//81
f 85//82 89//82 90//82
f 81//83 101//83 86//83
f 81//84 87//84 82//84
f 82//85 88//85 83//85
f 86//86 101//86 91//86
f 87//87 91//87 92//87
f 88//88 92//88 93//88
f 89//89 93//89 94//89
f 90//90 94//90 95//90
f 93//91 99//91 94//91
f 95//92 99//92 100//92
f 91//93 101//93 96//93
f 91//94 97//94 92//94
f 92//95 98//95 93//95
f 96//96 101//96 102//96
f 96//97 103//97 97//97
f 97//98 104//98 98//98
f 98//99 105//99 99//99
f 100//100 105//100 106//100
f 106//101 110//101 111//101
f 102//102 101//102 107//102
f 103//103 107//103 108//103
f 104//104 108//104 109//104
f 105//105 109//105 110//105
f 107//106 101//106 112//106
f 107//107 113//107 108//107
f 108//108 114//108 109//108
f 110//109 114//109 115//109
f 111//110 115//110 116//110
f 116//111 120//111 121//111
f 112//112 101//112 117//112
f 112//113 118//113 113//113
f 113//114 119//114 114//114
f 114//115 120//115 115//115
f 118//116 122//116 123//116
f 119//117 123//117 124//117
f 120//118 124//118 125//118
f 120//119 126//119 121//119
f 117//120 101//120 122//120
f 122//121 101//121 127//121
f 122//122 128//122 123//122
f 123//123 129//123 124//123
f 125//124 129//124 130//124
f 125//125 131//125 126//125
f 128//126 134//126 129//126
f 129//127 135//127 130//127
f 131//128 135//128 136//128
f 127//129 101//129 132//129
f 127//130 133//130 128//130
f 132//131 101//131 137//131
f 133//132 137//132 138//132
f 134//133 138//133 139//133
f 135//134 139//134 140//134
f 136//135 140//135 141//135
f 138//136 144//136 139//136
f 139//137 145//137 140//137
f 141//138 145//138 146//138
f 137//139 101//139 142//139
f 137//140 143//140 138//140
f 142//141 101//141 147//141
f 142//142 148//142 143//142
f 143//143 149//143 144//143
f 144//144 150//144 145//144
f 146//145 150//145 151//145
f 150//146 154//146 155//146
f 151//147 155//147 156//147
f 147//148 101//148 152//148
f 148//149 152//149 153//149
f 149//150 153//150 154//150
f 152//151 101//151 157//151
f 152//152 158//152 153//152
f 153//153 159//153 154//153
f 155//154 159//154 160//154
f 156//155 160//155 161//155
f 159//156 4//156 160//156
f 161//157 4//157 5//157
f 157//158 101//158 1//158
f 157//159 2//159 158//159
f 158//160 3//160 159//160
f 162//161 165//161 164//161
f 164//162 167//162 166//162
f 166//163 169//163 168//163
f 168//164 171//164 170//164
f 170//165 173//165 172//165
f 172//166 175//166 174//166
f 174//167 177//167 176//167
f 176//168 179//168 178//168
f 178//169 181//169 180//169
f 173//170 169//170 163//170
f 180//171 183//171 182//171
f 182//172 163//172 162//172
f 172//173 176//173 180//173
f 2//174 185//174 3//174
f 32//175 189//175 188//175
f 17//176 187//176 186//176
f 87//177 197//177 196//177
f 148//178 205//178 204//178
f 72//179 195//179 194//179
f 133//180 203//180 202//180
f 57//181 193//181 192//181
f 42//182 191//182 190//182
f 118//183 201//183 200//183
f 103//184 199//184 198//184
f 4//185 3//185 8//185
f 4//2 9//2 10//2
f 2//186 1//186 6//186
f 3//187 2//187 7//187
f 7//6 12//6 13//6
f 8//7 13//7 14//7
f 9//8 14//8 15//8
f 7//10 6//10 11//10
f 11//188 16//188 17//188
f 12//189 17//189 18//189
f 13//190 18//190 19//190
f 15//15 14//15 19//15
f 18//191 17//191 22//191
f 19//192 18//192 23//192
f 19//18 24//18 25//18
f 17//193 16//193 21//193
f 21//22 26//22 27//22
f 22//23 27//23 28//23
f 23//24 28//24 29//24
f 25//25 24//25 29//25
f 28//194 33//194 34//194
f 29//27 34//27 35//27
f 26//195 31//195 32//195
f 27//196 32//196 33//196
f 32//197 31//197 36//197
f 33//198 32//198 37//198
f 34//199 33//199 38//199
f 34//35 39//35 40//35
f 39//36 44//36 45//36
f 36//200 41//200 42//200
f 37//201 42//201 43//201
f 38//202 43//202 44//202
f 42//203 41//203 46//203
f 43//204 42//204 47//204
f 44//205 43//205 48//205
f 44//45 49//45 50//45
f 49//46 54//46 55//46
f 46//48 51//48 52//48
f 47//49 52//49 53//49
f 48//50 53//50 54//50
f 51//206 56//206 57//206
f 52//207 57//207 58//207
f 53//208 58//208 59//208
f 55//54 54//54 59//54
f 57//209 56//209 61//209
f 58//210 57//210 62//210
f 59//211 58//211 63//211
f 60//60 59//60 64//60
f 61//212 66//212 67//212
f 62//62 67//62 68//62
f 64//63 63//63 68//63
f 65//64 64//64 69//64
f 66//213 71//213 72//213
f 67//214 72//214 73//214
f 68//215 73//215 74//215
f 69//70 74//70 75//70
f 73//216 72//216 77//216
f 74//217 73//217 78//217
f 75//73 74//73 79//73
f 72//218 71//218 76//218
f 76//77 81//77 82//77
f 77//78 82//78 83//78
f 79//79 78//79 83//79
f 79//80 84//80 85//80
f 83//219 88//219 89//219
f 85//82 84//82 89//82
f 81//220 86//220 87//220
f 82//221 87//221 88//221
f 87//222 86//222 91//222
f 88//223 87//223 92//223
f 89//224 88//224 93//224
f 90//90 89//90 94//90
f 93//91 98//91 99//91
f 95//92 94//92 99//92
f 91//94 96//94 97//94
f 92//95 97//95 98//95
f 96//225 102//225 103//225
f 97//226 103//226 104//226
f 98//227 104//227 105//227
f 100//100 99//100 105//100
f 106//101 105//101 110//101
f 103//228 102//228 107//228
f 104//229 103//229 108//229
f 105//230 104//230 109//230
f 107//107 112//107 113//107
f 108//108 113//108 114//108
f 110//109 109//109 114//109
f 111//110 110//110 115//110
f 116//111 115//111 120//111
f 112//231 117//231 118//231
f 113//232 118//232 119//232
f 114//233 119//233 120//233
f 118//234 117//234 122//234
f 119//235 118//235 123//235
f 120//236 119//236 124//236
f 120//119 125//119 126//119
f 122//237 127//237 128//237
f 123//123 128//123 129//123
f 125//124 124//124 129//124
f 125//125 130//125 131//125
f 128//238 133//238 134//238
f 129//239 134//239 135//239
f 131//128 130//128 135//128
f 127//240 132//240 133//240
f 133//241 132//241 137//241
f 134//242 133//242 138//242
f 135//243 134//243 139//243
f 136//135 135//135 140//135
f 138//136 143//136 144//136
f 139//137 144//137 145//137
f 141//138 140//138 145//138
f 137//140 142//140 143//140
f 142//244 147//244 148//244
f 143//245 148//245 149//245
f 144//246 149//246 150//246
f 146//145 145//145 150//145
f 150//247 149//247 154//247
f 151//147 150//147 155//147
f 148//248 147//248 152//248
f 149//249 148//249 153//249
f 152//152 157//152 158//152
f 153//153 158//153 159//153
f 155//154 154//154 159//154
f 156//155 155//155 160//155
f 159//250 3//250 4//250
f 161//157 160//157 4//157
f 157//251 1//251 2//251
f 158//252 2//252 3//252
f 162//253 163//253 165//253
f 164//254 165//254 167//254
f 166//255 167//255 169//255
f 168//256 169//256 171//256
f 170//257 171//257 173//257
f 172//258 173//258 175//258
f 174//259 175//259 177//259
f 176//260 177//260 179//260
f 178//261 179//261 181//261
f 167//170 165//170 163//170
f 163//262 183//262 181//262
f 181//170 179//170 163//170
f 179//170 177//170 163//170
f 177//262 175//262 173//262
f 173//263 171//263 169//263
f 169//262 167//262 163//262
f 177//170 173//170 163//170
f 180//264 181//264 183//264
f 182//265 183//265 163//265
f 182//173 162//173 164//173
f 164//266 166//266 168//266
f 168//266 170//266 172//266
f 172//173 174//173 176//173
f 176//173 178//173 180//173
f 180//173 182//173 164//173
f 164//173 168//173 180//173
f 168//173 172//173 180//173
f 2//267 184//267 185//267
f 32//268 33//268 189//268
f 17//269 18//269 187//269
f 87//270 88//270 197//270
f 148//271 149//271 205//271
f 72//272 73//272 195//272
f 133//273 134//273 203//273
f 57//274 58//274 193//274
f 42//275 43//275 191//275
f 118//183 119//183 201//183
f 103//276 104//276 199//276
