# Blender v2.80 (sub 75) OBJ File: 'road.blend'
# www.blender.org
v -10.237749 -0.430342 3.634310
v -10.255853 -0.775930 3.590860
v -10.277917 -1.093383 3.520984
v -10.329159 -1.365449 3.282836
v -10.369541 -1.589053 3.096661
v -10.306773 -0.421364 3.647071
v -10.397367 -0.757133 3.581960
v -10.489400 -1.064924 3.474591
v -10.579335 -1.332908 3.329091
v -10.663717 -1.550788 3.151050
v -10.372662 -0.398873 3.659740
v -10.526612 -0.713015 3.606811
v -10.677035 -1.000874 3.510668
v -10.818151 -1.251388 3.375008
v -10.944533 -1.454931 3.205043
v -10.432884 -0.363733 3.671829
v -10.638623 -0.645270 3.664456
v -10.833613 -0.903694 3.627829
v -11.036427 -1.124022 3.418824
v -11.201200 -1.305164 3.256565
v -10.485126 -0.317294 3.682873
v -10.747218 -0.552991 3.652188
v -10.997305 -0.768556 3.576546
v -11.225776 -0.955704 3.458854
v -11.423850 -1.107243 3.303636
v -10.527378 -0.261341 3.692449
v -10.830099 -0.443236 3.670971
v -11.117630 -0.609216 3.603815
v -11.378922 -0.752902 3.493561
v -11.603930 -0.868774 3.344447
v -10.558019 -0.198024 3.700188
v -10.884084 -0.320222 3.720084
v -11.189966 -0.431798 3.708588
v -11.489978 -0.523411 3.521610
v -11.734520 -0.598921 3.377429
v -10.575870 -0.129777 3.705792
v -10.925219 -0.185165 3.697145
v -11.255722 -0.234555 3.641813
v -11.554678 -0.276050 3.541924
v -11.810598 -0.308054 3.401315
v -10.580244 -0.059223 3.709047
v -10.927681 -0.047953 3.737462
v -11.253260 -0.036524 3.733817
v -11.570535 -0.020324 3.553721
v -11.829245 -0.007352 3.415188
v -10.570975 0.010929 3.709827
v -10.915619 0.090839 3.705060
v -11.241784 0.166141 3.653305
v -11.536940 0.233940 3.556550
v -11.789741 0.291630 3.418513
v -10.548419 0.077980 3.708103
v -10.871372 0.222366 3.701678
v -11.177548 0.357088 3.648394
v -11.455182 0.476969 3.550299
v -11.693604 0.577402 3.411164
v -10.513441 0.139356 3.703940
v -10.796641 0.341572 3.727445
v -11.063021 0.528979 3.719274
v -11.328405 0.699425 3.535212
v -11.544531 0.838982 3.393423
v -10.467387 0.192696 3.697499
v -10.712422 0.447390 3.680877
v -10.946790 0.683771 3.618196
v -11.161482 0.892758 3.511865
v -11.348248 1.066318 3.365970
v -10.412025 0.235952 3.689027
v -10.603827 0.532239 3.664259
v -10.789134 0.806954 3.594070
v -10.960825 1.049539 3.481158
v -11.112301 1.250673 3.329863
v -10.349485 0.267461 3.678850
v -10.475031 0.592860 3.678228
v -10.596113 0.893792 3.647822
v -10.734146 1.163743 3.444271
v -10.845756 1.384963 3.286487
v -10.282168 0.286012 3.667358
v -10.349104 0.630435 3.621754
v -10.419333 0.949512 3.532362
v -10.490157 1.230982 3.402619
v -10.558855 1.464027 3.237510
v -10.212664 0.290893 3.654994
v -10.212764 0.640008 3.597501
v -10.221398 0.963410 3.497152
v -10.238235 1.248670 3.357805
v -10.262625 1.484827 3.184815
v -10.143640 0.281914 3.642232
v -10.071250 0.621211 3.606400
v -10.009915 0.934951 3.543545
v -9.988058 1.216129 3.311551
v -9.968449 1.446562 3.130425
v -10.077751 0.259423 3.629564
v -9.948124 0.578278 3.547617
v -9.837200 0.873793 3.424733
v -9.749243 1.134609 3.265634
v -9.687633 1.350705 3.076432
v -10.017529 0.224283 3.617475
v -9.829994 0.509348 3.523905
v -9.665702 0.773722 3.390307
v -9.530967 1.007243 3.221818
v -9.430967 1.200938 3.024910
v -10.221099 -0.070520 3.667423
v -9.965287 0.177844 3.606431
v -9.721399 0.417069 3.536173
v -9.502010 0.638584 3.441591
v -9.341618 0.838925 3.181787
v -9.208316 1.003017 2.977840
v -9.923035 0.121891 3.596855
v -9.644637 0.308500 3.483457
v -9.396605 0.482135 3.331587
v -9.188473 0.636124 3.147081
v -9.028236 0.764548 2.937029
v -9.892394 0.058575 3.589116
v -9.584534 0.184300 3.468277
v -9.309349 0.301825 3.309549
v -9.077415 0.406633 3.119032
v -8.897647 0.494695 2.904047
v -9.874543 -0.009672 3.583512
v -9.543399 0.049243 3.491216
v -9.243594 0.104583 3.376324
v -9.012715 0.159271 3.098718
v -8.821568 0.203829 2.880161
v -9.870169 -0.080227 3.580257
v -9.540936 -0.087969 3.450899
v -9.246056 -0.093448 3.284319
v -8.996859 -0.096455 3.086920
v -8.802922 -0.096873 2.866288
v -9.879437 -0.150378 3.579477
v -9.559118 -0.225575 3.449368
v -9.272451 -0.293221 3.282097
v -9.030455 -0.350718 3.084092
v -8.842426 -0.395855 2.862963
v -9.901994 -0.217430 3.581201
v -9.597245 -0.358287 3.486683
v -9.321768 -0.487060 3.369743
v -9.112211 -0.593747 3.090343
v -8.938562 -0.681627 2.870312
v -9.936972 -0.278805 3.585364
v -9.671976 -0.477494 3.460916
v -9.436296 -0.658951 3.298862
v -9.238988 -0.816203 3.105430
v -9.087636 -0.943207 2.888053
v -9.983026 -0.332146 3.591805
v -9.762315 -0.582125 3.473551
v -9.567447 -0.810852 3.317205
v -9.405911 -1.009536 3.128777
v -9.283917 -1.170543 2.915505
v -10.038387 -0.375402 3.600277
v -9.864790 -0.668160 3.524102
v -9.710181 -0.936925 3.424067
v -9.606568 -1.166317 3.159483
v -9.519865 -1.354898 2.951613
v -10.100927 -0.406911 3.610454
v -9.993587 -0.728781 3.510133
v -9.903202 -1.023764 3.370314
v -9.833247 -1.280522 3.196371
v -9.786410 -1.489188 2.994988
v -10.168243 -0.425462 3.621946
v -10.125632 -0.765170 3.532674
v -10.094903 -1.076592 3.403039
v -10.077236 -1.347760 3.238023
v -10.073311 -1.568252 3.043965
v -10.520402 0.009836 1.819693
v -10.226436 -0.106706 3.643904
v -10.517243 -0.010735 1.818404
v -10.245910 -0.100255 3.647642
v -10.525548 -0.029843 1.819234
v -10.258792 -0.084115 3.650529
v -10.542680 -0.041423 1.821919
v -10.260994 -0.063409 3.651650
v -10.563200 -0.041797 1.825606
v -10.251815 -0.044713 3.650648
v -10.580593 -0.030847 1.829126
v -10.234170 -0.033961 3.647842
v -10.589336 -0.012049 1.831360
v -10.213662 -0.034568 3.644122
v -10.586655 0.008629 1.831599
v -10.196800 -0.046340 3.640670
v -10.573400 0.024621 1.829767
v -10.188940 -0.065541 3.638581
v -10.553779 0.030850 1.826446
v -10.192575 -0.086073 3.638519
v -10.534022 0.025338 1.822691
v -10.206553 -0.101419 3.640504
v -10.356609 -0.077728 3.004788
v -10.333080 -0.575371 3.186603
v -10.371711 -0.072573 3.007691
v -10.614217 -0.479404 3.240658
v -10.381394 -0.059749 3.009886
v -10.794501 -0.240664 3.281515
v -10.383115 -0.049007 3.010572
v -10.826523 -0.040688 3.294279
v -10.377945 -0.033639 3.010177
v -10.730277 0.245409 3.286922
v -10.365256 -0.023725 3.008235
v -10.494061 0.429974 3.250772
v -10.349326 -0.022607 3.005401
v -10.197494 0.450798 3.198017
v -10.335524 -0.030661 3.002630
v -9.940536 0.300860 3.146436
v -10.328501 -0.045173 3.000857
v -9.809799 0.030700 3.113417
v -10.330626 -0.061251 3.000678
v -9.849348 -0.268622 3.110087
v -10.341181 -0.073476 3.002154
v -10.045854 -0.496217 3.137571
vn 0.0943 -0.4993 0.8613
vn 0.0570 -0.6449 0.7622
vn 0.1686 -0.0981 0.9808
vn -0.0841 -0.1678 0.9822
vn -0.2398 -0.2551 0.9367
vn 0.0622 -0.3453 0.9364
vn 0.0055 -0.4786 0.8780
vn -0.0600 -0.6176 0.7842
vn 0.1565 -0.0952 0.9831
vn 0.1119 -0.2182 0.9695
vn 0.1452 -0.0901 0.9853
vn 0.2898 -0.2954 0.9103
vn 0.3373 -0.4521 0.8258
vn -0.0776 -0.4406 0.8943
vn -0.1695 -0.5676 0.8057
vn -0.2943 0.0061 0.9557
vn -0.1516 -0.3869 0.9096
vn -0.2670 -0.4968 0.8258
vn 0.1351 -0.0828 0.9874
vn -0.1142 -0.0023 0.9935
vn 0.1267 -0.0736 0.9892
vn 0.0217 -0.1527 0.9880
vn -0.0908 -0.2343 0.9679
vn -0.2138 -0.3195 0.9231
vn -0.3490 -0.4079 0.8437
vn -0.2618 -0.2409 0.9346
vn -0.4123 -0.3045 0.8587
vn 0.1202 -0.0629 0.9908
vn 0.1256 -0.3198 0.9391
vn 0.0757 -0.4840 0.8718
vn 0.1158 -0.0512 0.9920
vn -0.0487 0.1528 0.9871
vn -0.1966 0.2550 0.9468
vn -0.2938 -0.1543 0.9433
vn -0.4543 -0.1903 0.8703
vn -0.4736 -0.0699 0.8779
vn 0.1138 -0.0387 0.9927
vn 0.0209 -0.2815 0.9593
vn -0.0887 -0.4188 0.9037
vn -0.3084 -0.0629 0.9492
vn 0.1143 -0.0261 0.9931
vn 0.0385 0.2240 0.9738
vn -0.0612 0.3715 0.9264
vn -0.3052 0.0297 0.9518
vn -0.4694 0.0522 0.8814
vn -0.4418 0.1713 0.8806
vn 0.1171 -0.0139 0.9930
vn -0.0073 0.0282 0.9996
vn -0.1400 0.0725 0.9875
vn -0.2842 0.1201 0.9512
vn -0.0895 -0.1565 0.9836
vn -0.2588 -0.2158 0.9415
vn -0.2463 0.2046 0.9473
vn -0.3918 0.2827 0.8755
vn 0.1223 -0.0024 0.9925
vn 0.1295 0.0079 0.9915
vn 0.2016 0.2557 0.9455
vn 0.1963 0.4285 0.8820
vn -0.1930 0.2802 0.9403
vn -0.3215 0.3822 0.8663
vn 0.0577 0.1202 0.9911
vn -0.0297 0.2286 0.9731
vn -0.1262 0.3438 0.9305
vn -0.2335 0.4660 0.8534
vn 0.1386 0.0165 0.9902
vn 0.1492 0.0232 0.9885
vn -0.1126 0.0102 0.9936
vn -0.2886 0.0496 0.9562
vn -0.0486 0.3930 0.9182
vn -0.1312 0.5309 0.8372
vn 0.4407 0.3308 0.8345
vn 0.0369 0.4260 0.9040
vn -0.0186 0.5744 0.8184
vn 0.1608 0.0277 0.9866
vn 0.3540 0.1900 0.9157
vn 0.1730 0.0298 0.9845
vn 0.1619 0.1604 0.9737
vn 0.1470 0.2967 0.9436
vn 0.1270 0.4414 0.8883
vn 0.1001 0.5947 0.7977
vn 0.2182 0.4387 0.8717
vn 0.2203 0.5911 0.7759
vn 0.1854 0.0295 0.9822
vn -0.0404 0.1624 0.9859
vn -0.1680 0.2880 0.9428
vn 0.1975 0.0266 0.9799
vn 0.4443 0.0493 0.8945
vn 0.5897 0.1113 0.7999
vn 0.3071 0.4180 0.8550
vn 0.3374 0.5638 0.7538
vn 0.3901 0.3800 0.8387
vn 0.4468 0.5138 0.7324
vn 0.2088 0.0215 0.9777
vn 0.2702 0.1351 0.9533
vn 0.3306 0.2539 0.9090
vn 0.2189 0.0142 0.9757
vn 0.1025 0.2487 0.9631
vn 0.0622 0.4191 0.9058
vn 0.4642 0.3263 0.8234
vn 0.5444 0.4430 0.7123
vn 0.6264 0.3542 0.6944
vn 0.2273 0.0050 0.9738
vn 0.4420 -0.1192 0.8891
vn 0.5929 -0.1560 0.7900
vn 0.5264 0.2589 0.8099
vn 0.2338 -0.0057 0.9723
vn 0.3460 0.0530 0.9367
vn 0.4592 0.1145 0.8809
vn 0.5744 0.1804 0.7985
vn 0.6896 0.2507 0.6794
vn 0.7317 0.1366 0.6678
vn 0.2382 -0.0174 0.9711
vn 0.2681 0.2401 0.9330
vn 0.3245 0.3986 0.8578
vn 0.6063 0.0937 0.7897
vn 0.3480 -0.2585 0.9011
vn 0.4494 -0.3810 0.8080
vn 0.6209 0.0023 0.7838
vn 0.7510 0.0161 0.6601
vn 0.2402 -0.0299 0.9703
vn 0.2397 -0.0425 0.9699
vn 0.3639 -0.0584 0.9296
vn 0.4894 -0.0743 0.8689
vn 0.6177 -0.0903 0.7812
vn 0.7468 -0.1060 0.6566
vn 0.5306 0.2335 0.8149
vn 0.5968 -0.1807 0.7818
vn 0.7191 -0.2250 0.6574
vn 0.2369 -0.0547 0.9700
vn 0.4006 0.1395 0.9056
vn 0.2317 -0.0662 0.9705
vn 0.1939 -0.3219 0.9267
vn 0.2074 -0.4879 0.8479
vn 0.5589 -0.2652 0.7857
vn 0.6692 -0.3364 0.6625
vn 0.4112 -0.2491 0.8769
vn 0.5055 -0.3408 0.7927
vn 0.5989 -0.4360 0.6717
vn 0.2245 -0.0765 0.9715
vn 0.3177 -0.1615 0.9343
vn 0.2154 -0.0852 0.9728
vn 0.4552 -0.0192 0.8902
vn 0.6108 -0.0206 0.7915
vn 0.4387 -0.4044 0.8025
vn 0.5109 -0.5198 0.6847
vn 0.3611 -0.4536 0.8148
vn 0.4086 -0.5847 0.7009
vn 0.2049 -0.0918 0.9745
vn 0.0316 -0.2878 0.9572
vn -0.0514 -0.4406 0.8963
vn 0.1932 -0.0963 0.9764
vn 0.2231 -0.2215 0.9493
vn 0.2507 -0.3508 0.9023
vn 0.2756 -0.4866 0.8290
vn 0.2959 -0.6281 0.7197
vn 0.1855 -0.5020 0.8447
vn 0.1772 -0.6484 0.7404
vn 0.1810 -0.0984 0.9786
vn 0.4136 -0.1825 0.8920
vn 0.5382 -0.2781 0.7956
vn 0.9777 0.1587 -0.1373
vn 0.9053 -0.3997 -0.1437
vn 0.5473 -0.8316 -0.0943
vn 0.0174 -0.9998 -0.0046
vn -0.5163 -0.8509 0.0969
vn -0.8840 -0.4323 0.1778
vn -0.9693 0.1232 0.2126
vn -0.7451 0.6393 0.1902
vn -0.2823 0.9521 0.1177
vn 0.1774 -0.0344 0.9835
vn 0.2718 0.9622 0.0181
vn 0.7415 0.6665 -0.0769
vn -0.1774 0.0344 -0.9835
vn -0.9797 0.0242 0.1992
vn 0.3437 -0.9338 -0.0992
vn 0.7961 -0.5777 -0.1803
vn -0.9536 0.2239 0.2013
vn 0.8325 0.5325 -0.1531
vn -0.9182 -0.3548 0.1761
vn 0.4055 0.9125 -0.0542
vn -0.5732 -0.8143 0.0914
vn -0.0342 -0.9991 -0.0242
vn -0.1578 0.9855 0.0629
vn -0.6680 0.7270 0.1588
vn -0.2472 -0.6114 0.7517
vn 0.1637 -0.1315 0.9777
vn -0.0889 -0.2082 0.9740
vn 0.1280 -0.1193 0.9846
vn 0.2667 -0.3296 0.9057
vn 0.0701 -0.7197 0.6907
vn -0.1694 -0.5676 0.8057
vn -0.1407 -0.0341 0.9895
vn -0.5039 -0.3034 0.8088
vn 0.1127 -0.1082 0.9877
vn -0.0908 -0.2342 0.9679
vn -0.2139 -0.3195 0.9232
vn -0.3004 -0.5728 0.7626
vn 0.0898 -0.0779 0.9929
vn 0.0873 -0.3361 0.9378
vn 0.0832 -0.0599 0.9947
vn -0.0883 0.1406 0.9861
vn -0.5479 0.0986 0.8307
vn 0.0801 -0.0410 0.9959
vn -0.0206 -0.2822 0.9591
vn -0.4734 -0.3663 0.8011
vn 0.0808 -0.0218 0.9965
vn -0.0029 0.2276 0.9738
vn -0.4484 0.3518 0.8217
vn -0.4694 0.0522 0.8815
vn 0.0930 0.0145 0.9956
vn -0.1247 -0.1343 0.9831
vn -0.5571 0.0289 0.8300
vn 0.1041 0.0302 0.9941
vn 0.1689 0.2813 0.9446
vn -0.1435 0.6144 0.7759
vn 0.1340 0.0536 0.9895
vn -0.1299 0.0478 0.9904
vn -0.4101 0.4061 0.8166
vn 0.3406 0.2292 0.9119
vn 0.2526 0.6616 0.7061
vn 0.1518 0.0604 0.9866
vn -0.0821 0.6381 0.7656
vn 0.1894 0.0631 0.9799
vn -0.0346 0.2028 0.9786
vn 0.2078 0.0588 0.9764
vn 0.4542 0.0888 0.8865
vn 0.6064 0.4775 0.6358
vn 0.2404 0.0398 0.9699
vn 0.1291 0.2785 0.9517
vn 0.3164 0.6467 0.6940
vn 0.2533 0.0258 0.9670
vn 0.4715 -0.0925 0.8770
vn 0.7987 0.1241 0.5888
vn 0.4592 0.1146 0.8809
vn 0.2699 -0.0085 0.9629
vn 0.3061 0.2493 0.9188
vn 0.6511 0.4290 0.6261
vn 0.2729 -0.0274 0.9616
vn 0.3866 -0.2536 0.8867
vn 0.7646 -0.2794 0.5808
vn 0.4366 0.1251 0.8909
vn 0.8092 0.0585 0.5846
vn 0.2679 -0.0654 0.9612
vn 0.2600 -0.0829 0.9620
vn 0.2282 -0.3402 0.9122
vn 0.5156 -0.5970 0.6146
vn 0.6692 -0.3365 0.6625
vn 0.4111 -0.2491 0.8769
vn 0.5055 -0.3407 0.7927
vn 0.2351 -0.1118 0.9655
vn 0.4768 -0.0523 0.8775
vn 0.7374 -0.3401 0.5836
vn 0.1356 -0.7217 0.6788
vn 0.2190 -0.1220 0.9681
vn 0.0496 -0.3232 0.9450
vn 0.2756 -0.4865 0.8290
vn 0.4598 -0.6323 0.6235
vn 0.1772 -0.6484 0.7403
vn 0.1826 -0.1321 0.9743
vn 0.4130 -0.2231 0.8830
vn -0.3161 -0.9487 -0.0097
vn -0.7715 -0.6307 0.0836
vn -0.9838 -0.1122 0.1400
vn -0.8856 0.4423 0.1417
vn -0.5081 0.8568 0.0881
vn 0.0289 0.9996 -0.0038
vn 0.5548 0.8254 -0.1047
vn 0.9027 0.3895 -0.1827
vn 0.9622 -0.1698 -0.2130
vn 0.1773 -0.0344 0.9835
vn 0.1773 -0.0344 0.9836
vn 0.7143 -0.6747 -0.1859
vn 0.2378 -0.9651 -0.1101
vn -0.9793 0.0269 0.2004
vn 0.3443 -0.9336 -0.0990
vn 0.7974 -0.5762 -0.1796
vn -0.9532 0.2265 0.2002
vn 0.8314 0.5347 -0.1516
vn -0.9194 -0.3522 0.1751
vn 0.4042 0.9131 -0.0532
vn -0.5749 -0.8132 0.0909
vn -0.0348 -0.9991 -0.0243
vn -0.6670 0.7281 0.1580
s off
f 4//1 8//1 9//1
f 4//2 10//2 5//2
f 1//3 101//3 6//3
f 2//4 6//4 7//4
f 3//5 7//5 8//5
f 7//6 13//6 8//6
f 8//7 14//7 9//7
f 9//8 15//8 10//8
f 6//9 101//9 11//9
f 7//10 11//10 12//10
f 11//11 101//11 16//11
f 11//12 17//12 12//12
f 12//13 18//13 13//13
f 13//14 19//14 14//14
f 15//15 19//15 20//15
f 18//16 22//16 23//16
f 19//17 23//17 24//17
f 19//18 25//18 20//18
f 16//19 101//19 21//19
f 17//20 21//20 22//20
f 21//21 101//21 26//21
f 21//22 27//22 22//22
f 22//23 28//23 23//23
f 23//24 29//24 24//24
f 25//25 29//25 30//25
f 28//26 34//26 29//26
f 29//27 35//27 30//27
f 26//28 101//28 31//28
f 26//29 32//29 27//29
f 27//30 33//30 28//30
f 31//31 101//31 36//31
f 32//32 36//32 37//32
f 33//33 37//33 38//33
f 34//34 38//34 39//34
f 34//35 40//35 35//35
f 39//36 45//36 40//36
f 36//37 101//37 41//37
f 36//38 42//38 37//38
f 37//39 43//39 38//39
f 38//40 44//40 39//40
f 41//41 101//41 46//41
f 42//42 46//42 47//42
f 43//43 47//43 48//43
f 44//44 48//44 49//44
f 44//45 50//45 45//45
f 49//46 55//46 50//46
f 46//47 101//47 51//47
f 46//48 52//48 47//48
f 47//49 53//49 48//49
f 48//50 54//50 49//50
f 51//51 57//51 52//51
f 52//52 58//52 53//52
f 53//53 59//53 54//53
f 55//54 59//54 60//54
f 51//55 101//55 56//55
f 56//56 101//56 61//56
f 57//57 61//57 62//57
f 58//58 62//58 63//58
f 59//59 63//59 64//59
f 60//60 64//60 65//60
f 61//61 67//61 62//61
f 62//62 68//62 63//62
f 64//63 68//63 69//63
f 65//64 69//64 70//64
f 61//65 101//65 66//65
f 66//66 101//66 71//66
f 66//67 72//67 67//67
f 67//68 73//68 68//68
f 68//69 74//69 69//69
f 69//70 75//70 70//70
f 73//71 77//71 78//71
f 74//72 78//72 79//72
f 75//73 79//73 80//73
f 71//74 101//74 76//74
f 72//75 76//75 77//75
f 76//76 101//76 81//76
f 76//77 82//77 77//77
f 77//78 83//78 78//78
f 79//79 83//79 84//79
f 79//80 85//80 80//80
f 83//81 89//81 84//81
f 85//82 89//82 90//82
f 81//83 101//83 86//83
f 81//84 87//84 82//84
f 82//85 88//85 83//85
f 86//86 101//86 91//86
f 87//87 91//87 92//87
f 88//88 92//88 93//88
f 89//89 93//89 94//89
f 90//90 94//90 95//90
f 93//91 99//91 94//91
f 95//92 99//92 100//92
f 91//93 101//93 96//93
f 91//94 97//94 92//94
f 92//95 98//95 93//95
f 96//96 101//96 102//96
f 96//97 103//97 97//97
f 97//98 104//98 98//98
f 98//99 105//99 99//99
f 100//100 105//100 106//100
f 106//101 110//101 111//101
f 102//102 101//102 107//102
f 103//103 107//103 108//103
f 104//104 108//104 109//104
f 105//105 109//105 110//105
f 107//106 101//106 112//106
f 107//107 113//107 108//107
f 108//108 114//108 109//108
f 110//109 114//109 115//109
f 111//110 115//110 116//110
f 116//111 120//111 121//111
f 112//112 101//112 117//112
f 112//113 118//113 113//113
f 113//114 119//114 114//114
f 114//115 120//115 115//115
f 118//116 122//116 123//116
f 119//117 123//117 124//117
f 120//118 124//118 125//118
f 120//119 126//119 121//119
f 117//120 101//120 122//120
f 122//121 101//121 127//121
f 122//122 128//122 123//122
f 123//123 129//123 124//123
f 125//124 129//124 130//124
f 125//125 131//125 126//125
f 128//126 134//126 129//126
f 129//127 135//127 130//127
f 131//128 135//128 136//128
f 127//129 101//129 132//129
f 127//130 133//130 128//130
f 132//131 101//131 137//131
f 133//132 137//132 138//132
f 134//133 138//133 139//133
f 135//134 139//134 140//134
f 136//135 140//135 141//135
f 138//136 144//136 139//136
f 139//137 145//137 140//137
f 141//138 145//138 146//138
f 137//139 101//139 142//139
f 137//140 143//140 138//140
f 142//141 101//141 147//141
f 142//142 148//142 143//142
f 143//143 149//143 144//143
f 144//144 150//144 145//144
f 146//145 150//145 151//145
f 150//146 154//146 155//146
f 151//147 155//147 156//147
f 147//148 101//148 152//148
f 148//149 152//149 153//149
f 149//150 153//150 154//150
f 152//151 101//151 157//151
f 152//152 158//152 153//152
f 153//153 159//153 154//153
f 155//154 159//154 160//154
f 156//155 160//155 161//155
f 159//156 4//156 160//156
f 161//157 4//157 5//157
f 157//158 101//158 1//158
f 157//159 2//159 158//159
f 158//160 3//160 159//160
f 162//161 165//161 164//161
f 164//162 167//162 166//162
f 166//163 169//163 168//163
f 168//164 171//164 170//164
f 170//165 173//165 172//165
f 172//166 175//166 174//166
f 174//167 177//167 176//167
f 176//168 179//168 178//168
f 178//169 181//169 180//169
f 173//170 169//170 163//170
f 180//171 183//171 182//171
f 182//172 163//172 162//172
f 172//173 176//173 180//173
f 2//174 185//174 3//174
f 32//175 189//175 188//175
f 17//176 187//176 186//176
f 87//177 197//177 196//177
f 148//178 205//178 204//178
f 72//179 195//179 194//179
f 133//180 203//180 202//180
f 57//181 193//181 192//181
f 42//182 191//182 190//182
f 118//183 201//183 200//183
f 103//184 199//184 198//184
f 4//185 3//185 8//185
f 4//2 9//2 10//2
f 2//186 1//186 6//186
f 3//187 2//187 7//187
f 7//6 12//6 13//6
f 8//7 13//7 14//7
f 9//8 14//8 15//8
f 7//10 6//10 11//10
f 11//188 16//188 17//188
f 12//189 17//189 18//189
f 13//190 18//190 19//190
f 15//191 14//191 19//191
f 18//192 17//192 22//192
f 19//193 18//193 23//193
f 19//18 24//18 25//18
f 17//194 16//194 21//194
f 21//22 26//22 27//22
f 22//195 27//195 28//195
f 23//196 28//196 29//196
f 25//25 24//25 29//25
f 28//197 33//197 34//197
f 29//27 34//27 35//27
f 26//198 31//198 32//198
f 27//199 32//199 33//199
f 32//200 31//200 36//200
f 33//201 32//201 37//201
f 34//202 33//202 38//202
f 34//35 39//35 40//35
f 39//36 44//36 45//36
f 36//203 41//203 42//203
f 37//204 42//204 43//204
f 38//205 43//205 44//205
f 42//206 41//206 46//206
f 43//207 42//207 47//207
f 44//208 43//208 48//208
f 44//209 49//209 50//209
f 49//46 54//46 55//46
f 46//48 51//48 52//48
f 47//49 52//49 53//49
f 48//50 53//50 54//50
f 51//210 56//210 57//210
f 52//211 57//211 58//211
f 53//212 58//212 59//212
f 55//54 54//54 59//54
f 57//213 56//213 61//213
f 58//214 57//214 62//214
f 59//215 58//215 63//215
f 60//60 59//60 64//60
f 61//61 66//61 67//61
f 62//62 67//62 68//62
f 64//63 63//63 68//63
f 65//64 64//64 69//64
f 66//216 71//216 72//216
f 67//217 72//217 73//217
f 68//218 73//218 74//218
f 69//70 74//70 75//70
f 73//219 72//219 77//219
f 74//220 73//220 78//220
f 75//73 74//73 79//73
f 72//221 71//221 76//221
f 76//77 81//77 82//77
f 77//78 82//78 83//78
f 79//79 78//79 83//79
f 79//80 84//80 85//80
f 83//222 88//222 89//222
f 85//82 84//82 89//82
f 81//223 86//223 87//223
f 82//224 87//224 88//224
f 87//225 86//225 91//225
f 88//226 87//226 92//226
f 89//227 88//227 93//227
f 90//90 89//90 94//90
f 93//91 98//91 99//91
f 95//92 94//92 99//92
f 91//94 96//94 97//94
f 92//95 97//95 98//95
f 96//228 102//228 103//228
f 97//229 103//229 104//229
f 98//230 104//230 105//230
f 100//100 99//100 105//100
f 106//101 105//101 110//101
f 103//231 102//231 107//231
f 104//232 103//232 108//232
f 105//233 104//233 109//233
f 107//107 112//107 113//107
f 108//234 113//234 114//234
f 110//109 109//109 114//109
f 111//110 110//110 115//110
f 116//111 115//111 120//111
f 112//235 117//235 118//235
f 113//236 118//236 119//236
f 114//237 119//237 120//237
f 118//238 117//238 122//238
f 119//239 118//239 123//239
f 120//240 119//240 124//240
f 120//119 125//119 126//119
f 122//122 127//122 128//122
f 123//123 128//123 129//123
f 125//124 124//124 129//124
f 125//125 130//125 131//125
f 128//241 133//241 134//241
f 129//242 134//242 135//242
f 131//128 130//128 135//128
f 127//243 132//243 133//243
f 133//244 132//244 137//244
f 134//245 133//245 138//245
f 135//246 134//246 139//246
f 136//247 135//247 140//247
f 138//248 143//248 144//248
f 139//249 144//249 145//249
f 141//138 140//138 145//138
f 137//140 142//140 143//140
f 142//250 147//250 148//250
f 143//251 148//251 149//251
f 144//252 149//252 150//252
f 146//145 145//145 150//145
f 150//253 149//253 154//253
f 151//147 150//147 155//147
f 148//254 147//254 152//254
f 149//255 148//255 153//255
f 152//152 157//152 158//152
f 153//153 158//153 159//153
f 155//256 154//256 159//256
f 156//155 155//155 160//155
f 159//257 3//257 4//257
f 161//258 160//258 4//258
f 157//259 1//259 2//259
f 158//260 2//260 3//260
f 162//261 163//261 165//261
f 164//262 165//262 167//262
f 166//263 167//263 169//263
f 168//264 169//264 171//264
f 170//265 171//265 173//265
f 172//266 173//266 175//266
f 174//267 175//267 177//267
f 176//268 177//268 179//268
f 178//269 179//269 181//269
f 167//270 165//270 163//270
f 163//271 183//271 181//271
f 181//271 179//271 163//271
f 179//170 177//170 163//170
f 177//170 175//170 173//170
f 173//170 171//170 169//170
f 169//170 167//170 163//170
f 177//170 173//170 163//170
f 180//272 181//272 183//272
f 182//273 183//273 163//273
f 182//173 162//173 164//173
f 164//173 166//173 168//173
f 168//173 170//173 172//173
f 172//173 174//173 176//173
f 176//173 178//173 180//173
f 180//173 182//173 164//173
f 164//173 168//173 180//173
f 168//173 172//173 180//173
f 2//274 184//274 185//274
f 32//275 33//275 189//275
f 17//276 18//276 187//276
f 87//277 88//277 197//277
f 148//278 149//278 205//278
f 72//279 73//279 195//279
f 133//280 134//280 203//280
f 57//281 58//281 193//281
f 42//282 43//282 191//282
f 118//183 119//183 201//183
f 103//283 104//283 199//283
